<?xml version="1.0" encoding="UTF-8"?>
<svg width="24px" height="24px" viewBox="0 0 24 24" version="1.1" xmlns="http://www.w3.org/2000/svg" xmlns:xlink="http://www.w3.org/1999/xlink">
    <!-- Generator: sketchtool 48.2 (47327) - http://www.bohemiancoding.com/sketch -->
    <title>D28A1281-2F9C-4CF1-B9F7-B0918A2DEBDA</title>
    <desc>Created with sketchtool.</desc>
    <defs></defs>
    <g id="Symbols" stroke="none" stroke-width="1" fill="none" fill-rule="evenodd">
        <g id="ic_crown" fill-rule="nonzero">
            <g id="crown" transform="translate(0.000000, 3.600000)">
                <polygon id="Shape" fill="#FFCC32" points="3.59845614 11.006269 3.59845614 14.5261754 11.9766082 15.4625497 20.3547602 14.5261754 20.3547602 11.006269 11.9766082 10.069848"></polygon>
                <polygon id="Shape" fill="#9D6200" opacity="0.1" points="6.35153216 14.5261754 6.35153216 11.006269 13.3531696 10.2237661 11.9766082 10.069848 3.59845614 11.006269 3.59845614 14.5261754 11.9766082 15.4625497 13.3531696 15.3087251"></polygon>
                <path d="M20.3547602,10.069848 L22.6445848,3.2908538 L22.1633684,2.77525146 C22.1633684,2.77525146 16.2209123,9.99396491 12.417076,2.05338012 L11.5360936,2.05338012 C7.73235088,9.99396491 1.78980117,2.77525146 1.78980117,2.77525146 L1.3085848,3.2908538 L3.59840936,10.069848 L20.3547602,10.069848 Z" id="Shape" fill="#FFCC32"></path>
                <g id="Group" opacity="0.1" transform="translate(1.263158, 2.760234)" fill="#9D6200">
                    <path d="M0.526690058,0.0150175439 L0.0454736842,0.530666667 L2.33529825,7.30966082 L5.08837427,7.30966082 L3.42039766,2.37164912 C1.73974269,1.48842105 0.526690058,0.0150175439 0.526690058,0.0150175439 Z" id="Shape"></path>
                </g>
                <g id="Group" transform="translate(0.374269, 0.421053)" fill="#FFCC32">
                    <circle id="Oval" cx="11.602152" cy="1.23494737" r="1.21244444"></circle>
                    <circle id="Oval" cx="1.25132164" cy="2.64233918" r="1.21244444"></circle>
                    <circle id="Oval" cx="21.9532164" cy="2.64233918" r="1.21244444"></circle>
                </g>
                <path d="M20.3547602,9.13356725 L3.59845614,9.13356725 C3.08130994,9.13356725 2.66208187,9.55279532 2.66208187,10.0699415 C2.66208187,10.5870877 3.08130994,11.0063158 3.59845614,11.0063158 L20.354807,11.0063158 C20.8719532,11.0063158 21.2911813,10.5870877 21.2911813,10.0699415 C21.2911345,9.55274854 20.8719064,9.13356725 20.3547602,9.13356725 Z" id="Shape" fill="#FFFFFF"></path>
                <path d="M5.41515789,10.069848 C5.41515789,9.55270175 5.83438596,9.13347368 6.35153216,9.13347368 L3.59845614,9.13347368 C3.08130994,9.13347368 2.66208187,9.55270175 2.66208187,10.069848 C2.66208187,10.5869942 3.08130994,11.0062222 3.59845614,11.0062222 L6.35153216,11.0062222 C5.83438596,11.006269 5.41515789,10.5870877 5.41515789,10.069848 Z" id="Shape" fill="#000000" opacity="0.1"></path>
                <path d="M20.3547602,14.5261754 L3.59845614,14.5261754 C3.08130994,14.5261754 2.66208187,14.9454035 2.66208187,15.4625497 C2.66208187,15.9796959 3.08130994,16.398924 3.59845614,16.398924 L20.354807,16.398924 C20.8719532,16.398924 21.2911813,15.9796959 21.2911813,15.4625497 C21.2911345,14.9454035 20.8719064,14.5261754 20.3547602,14.5261754 Z" id="Shape" fill="#FFFFFF"></path>
                <path d="M5.41515789,15.4625497 C5.41515789,14.9454035 5.83438596,14.5261754 6.35153216,14.5261754 L3.59845614,14.5261754 C3.08130994,14.5261754 2.66208187,14.9454035 2.66208187,15.4625497 C2.66208187,15.9796959 3.08130994,16.398924 3.59845614,16.398924 L6.35153216,16.398924 C5.83438596,16.398924 5.41515789,15.9796959 5.41515789,15.4625497 Z" id="Shape" fill="#9D6200" opacity="0.1"></path>
                <circle id="Oval" fill="#F49D0E" cx="11.9764211" cy="12.7663626" r="1"></circle>
                <circle id="Oval" fill="#F49D0E" cx="6.7197193" cy="12.7663626" r="1"></circle>
                <circle id="Oval" fill="#F49D0E" cx="17.233731" cy="12.7663626" r="1"></circle>
                <path d="M22.3276257,1.43803509 C21.431345,1.43803509 20.7020819,2.16725146 20.7020819,3.06362573 C20.7020819,3.24168421 20.7312749,3.41300585 20.7844678,3.57347368 C20.2571228,4.03368421 19.7211696,4.41431579 19.188117,4.70676023 C18.988117,4.81642105 18.9149474,5.06746199 19.0245614,5.26746199 C19.1343158,5.46736842 19.3853567,5.5405848 19.5852632,5.43092398 C20.1403509,5.12650292 20.6951579,4.73768421 21.2391579,4.2722807 C21.3939181,4.41235088 21.5736608,4.5205614 21.7694035,4.59153216 L20.3746433,8.72074854 C20.3680468,8.72070175 20.3614503,8.72065497 20.354807,8.72065497 L7.36168421,8.72065497 C7.13356725,8.72065497 6.94872515,8.90554386 6.94872515,9.13361404 C6.94872515,9.36168421 7.13356725,9.5465731 7.36168421,9.5465731 L20.354807,9.5465731 C20.4116959,9.5465731 20.469614,9.55649123 20.523462,9.57497076 C20.7294971,9.64538012 20.878269,9.84042105 20.878269,10.0699883 C20.878269,10.3586433 20.6434152,10.5934035 20.354807,10.5934035 L3.59850292,10.5934035 C3.30994152,10.5934035 3.07508772,10.3586433 3.07508772,10.0699883 C3.07508772,9.84037427 3.22390643,9.64523977 3.43120468,9.57459649 C3.48463158,9.55653801 3.54203509,9.5465731 3.59850292,9.5465731 L5.70989474,9.5465731 C5.9380117,9.5465731 6.1228538,9.36168421 6.1228538,9.13361404 C6.1228538,8.90554386 5.9380117,8.72065497 5.70989474,8.72065497 L3.59850292,8.72065497 C3.59190643,8.72065497 3.58530994,8.72070175 3.57861988,8.72084211 L2.18385965,4.59153216 C2.37950877,4.5205614 2.55925146,4.41239766 2.71405848,4.27237427 C3.34577778,4.8131462 3.9888655,5.24832749 4.63040936,5.56874854 C5.70900585,6.10746199 6.74704094,6.2988538 7.71644444,6.13740351 C9.14549708,5.89946199 10.3852164,4.90460819 11.4055673,3.1785731 C11.4842105,3.20814035 11.5651462,3.23106433 11.6477193,3.24795322 C11.6489357,3.24823392 11.650152,3.24846784 11.6513684,3.24865497 C11.8658713,3.29155556 12.0880468,3.29202339 12.3025965,3.2485614 C12.3034386,3.24837427 12.3042339,3.24823392 12.305076,3.24804678 C12.3879298,3.23106433 12.4691462,3.20814035 12.5480234,3.17852632 C13.2509006,4.36673684 14.062269,5.2134269 14.9637895,5.69838596 C15.8254971,6.16187135 16.7697778,6.30011696 17.7700117,6.10919298 C17.9940117,6.06643275 18.1409591,5.85010526 18.0982456,5.62615205 C18.0554854,5.40215205 17.8390643,5.25525146 17.6152047,5.29791813 C15.8949708,5.6262924 14.4186667,4.75092398 13.2238596,2.69721637 C13.4599766,2.41497076 13.6023392,2.05183626 13.6023392,1.65595322 C13.6023392,0.759625731 12.8731228,0.0303625731 11.9767485,0.0303625731 C11.0804678,0.0303625731 10.3512047,0.759578947 10.3512047,1.65595322 C10.3512047,2.05202339 10.4937544,2.41529825 10.7299649,2.69754386 C9.83218713,4.24112281 8.77380117,5.12411696 7.58081871,5.32276023 C5.8642807,5.60865497 4.15433918,4.43125146 3.16902924,3.57333333 C3.22212865,3.41295906 3.25127485,3.24168421 3.25127485,3.0637193 C3.25127485,2.16739181 2.52205848,1.43812865 1.62568421,1.43812865 C0.729216374,1.43803509 0,2.16734503 0,3.06362573 C0,3.8611462 0.577497076,4.52594152 1.33618713,4.66287719 L2.79630409,8.98563743 C2.46460819,9.2317193 2.24912281,9.62605848 2.24912281,10.069848 C2.24912281,10.669848 2.6428538,11.1794152 3.18549708,11.3542924 L3.18549708,14.1780585 C2.64290058,14.3529357 2.24912281,14.8624561 2.24912281,15.4624561 C2.24912281,16.2065029 2.85440936,16.8117895 3.59845614,16.8117895 L16.3971462,16.8117895 C16.6252632,16.8117895 16.8101053,16.6269006 16.8101053,16.3988304 C16.8101053,16.1707602 16.6252632,15.9858713 16.3971462,15.9858713 L3.59850292,15.9858713 C3.30994152,15.9858713 3.07508772,15.7511111 3.07508772,15.4624561 C3.07508772,15.1738012 3.30994152,14.9390409 3.59850292,14.9390409 L20.354807,14.9390409 C20.643462,14.9390409 20.878269,15.1738012 20.878269,15.4624561 C20.878269,15.7511111 20.6434152,15.9858713 20.354807,15.9858713 L18.0490292,15.9858713 C17.8209123,15.9858713 17.6360702,16.1707602 17.6360702,16.3988304 C17.6360702,16.6269006 17.8209123,16.8117895 18.0490292,16.8117895 L20.354807,16.8117895 C21.0988538,16.8117895 21.7041871,16.2065029 21.7041871,15.4624561 C21.7041871,14.8624561 21.3103626,14.3528421 20.7677661,14.1779649 L20.7677661,11.3542456 C21.3104094,11.1793684 21.7041871,10.669848 21.7041871,10.0697544 C21.7041871,9.62591813 21.488655,9.23153216 21.1569123,8.98549708 L22.6170292,4.66278363 C23.3757193,4.52584795 23.9532632,3.86109942 23.9532632,3.06353216 C23.9532164,2.16734503 23.224,1.43803509 22.3276257,1.43803509 Z M11.9766082,0.856187135 C12.4175439,0.856187135 12.7762807,1.21492398 12.7762807,1.65585965 C12.7762807,2.11897076 12.3719766,2.48762573 11.917193,2.45183626 C11.5054971,2.41946199 11.1769357,2.0697076 11.1769357,1.65585965 C11.1769357,1.21492398 11.5356725,0.856187135 11.9766082,0.856187135 Z M1.85777778,3.82512281 C1.7834386,3.84982456 1.70530994,3.86334503 1.62559064,3.86334503 C1.18465497,3.86334503 0.825964912,3.50460819 0.825964912,3.06367251 C0.825964912,2.62273684 1.18470175,2.264 1.62559064,2.264 C2.06652632,2.264 2.42526316,2.62273684 2.42526316,3.06367251 C2.42526316,3.40580117 2.17684211,3.71897076 1.85777778,3.82512281 Z M19.9418012,14.1132164 L4.01146199,14.1132164 L4.01146199,11.4192281 L19.9418012,11.4192281 L19.9418012,14.1132164 Z M22.3276257,3.86325146 C21.8929591,3.86325146 21.528,3.49782456 21.528,3.06357895 C21.528,2.62264327 21.8867368,2.26390643 22.3276257,2.26390643 C22.7685146,2.26390643 23.1272982,2.62264327 23.1272982,3.06357895 C23.1272982,3.50451462 22.7685614,3.86325146 22.3276257,3.86325146 Z" id="Shape" fill="#F5A623"></path>
            </g>
        </g>
    </g>
</svg>