<svg xmlns="http://www.w3.org/2000/svg" width="24" height="24" viewBox="0 0 24 24">
    <g fill="none" fill-rule="nonzero">
        <path fill="#DC6B60" d="M6.313 21.104a2.45 2.45 0 0 1-1.79-.738.62.62 0 0 1 .877-.878c.257.256.547.375.913.375.36 0 .648-.12.909-.378.258-.254.378-.543.378-.91 0-.365-.12-.654-.378-.909a1.223 1.223 0 0 0-.91-.377c-.366 0-.656.119-.911.375a.62.62 0 1 1-.878-.878 2.448 2.448 0 0 1 1.79-.738c.687 0 1.287.247 1.78.735.497.49.748 1.093.748 1.793s-.251 1.303-.747 1.793a2.457 2.457 0 0 1-1.781.735z"/>
        <path fill="#FAB6A8" d="M5.89 12.642a2.04 2.04 0 0 0-.623-1.497 2.038 2.038 0 0 0-1.497-.623c-.583 0-1.082.207-1.497.623a2.04 2.04 0 0 0-.622 1.497c0 .582.207 1.081.622 1.496.415.416.914.623 1.497.623.583 0 1.082-.207 1.497-.623.415-.415.623-.914.623-1.496z"/>
        <g fill="#DC6B60">
            <path d="M3.77 15.381a2.65 2.65 0 0 1-1.936-.804 2.65 2.65 0 0 1-.804-1.935c0-.751.27-1.402.804-1.936a2.65 2.65 0 0 1 1.936-.804c.752 0 1.403.27 1.936.804a2.65 2.65 0 0 1 .804 1.936c0 .75-.27 1.401-.805 1.935a2.646 2.646 0 0 1-1.935.804zm0-4.238c-.416 0-.762.144-1.058.44-.3.301-.44.637-.44 1.059 0 .42.14.757.44 1.058.296.296.642.44 1.058.44.416 0 .762-.144 1.057-.44.302-.302.442-.638.442-1.058 0-.421-.14-.757-.441-1.059a1.428 1.428 0 0 0-1.058-.44zM18.182 8.387c-.455 0-.866-.17-1.188-.493a1.647 1.647 0 0 1-.492-1.187c0-.454.17-.864.492-1.187a1.645 1.645 0 0 1 1.188-.494.62.62 0 0 1 0 1.242.402.402 0 0 0-.31.13.404.404 0 0 0-.13.309c0 .126.04.219.13.31.09.09.183.129.31.129a.403.403 0 0 0 .31-.13.62.62 0 1 1 .877.878 1.646 1.646 0 0 1-1.187.493z"/>
        </g>
        <path fill="#FAB6A8" d="M6.244 4.446c-.645 0-1.195.227-1.65.682a2.245 2.245 0 0 0-.681 1.648c0 .646.227 1.195.682 1.65a2.247 2.247 0 0 0 1.65.682c.644 0 1.193-.227 1.648-.682a2.247 2.247 0 0 0 .682-1.65c0-.644-.227-1.194-.682-1.648a2.246 2.246 0 0 0-1.649-.682z"/>
        <g fill="#DC6B60">
            <path d="M6.244 9.729c-.813 0-1.515-.291-2.088-.864a2.857 2.857 0 0 1-.864-2.089c0-.812.29-1.514.864-2.087a2.857 2.857 0 0 1 2.088-.864c.812 0 1.515.29 2.088.864.573.573.864 1.275.864 2.087 0 .813-.29 1.516-.864 2.089a2.857 2.857 0 0 1-2.088.864zm0-4.663c-.478 0-.874.164-1.21.5-.337.337-.5.733-.5 1.21 0 .479.163.875.5 1.211.336.337.732.5 1.21.5s.874-.163 1.21-.5c.337-.336.5-.732.5-1.21s-.163-.874-.5-1.21a1.635 1.635 0 0 0-1.21-.5zM20.726 14.533c-.517 0-.98-.191-1.34-.553a1.855 1.855 0 0 1-.553-1.338.62.62 0 0 1 1.242 0c0 .188.058.33.188.461s.273.19.462.19a.605.605 0 0 0 .461-.189.606.606 0 0 0 .19-.462.605.605 0 0 0-.188-.462.606.606 0 0 0-.463-.19.62.62 0 0 1 0-1.24c.516 0 .98.19 1.34.553.36.359.552.822.552 1.339 0 .516-.191.979-.553 1.34-.36.36-.823.551-1.338.551zM18.182 20.68a2.038 2.038 0 0 1-1.485-.618 2.036 2.036 0 0 1-.62-1.486c0-.568.214-1.081.619-1.486a2.063 2.063 0 0 1 1.486-.618c.567 0 1.08.213 1.485.618.411.412.62.912.62 1.486a.62.62 0 0 1-1.242 0 .816.816 0 0 0-.256-.609.812.812 0 0 0-.607-.254.814.814 0 0 0-.609.255.813.813 0 0 0-.254.608c0 .24.08.433.255.607a.815.815 0 0 0 .608.256.62.62 0 0 1 0 1.241zM12.248 23.436a2.243 2.243 0 0 1-1.638-.68c-.45-.45-.678-1-.678-1.637 0-.636.228-1.187.677-1.637a.62.62 0 1 1 .879.876 1.016 1.016 0 0 0-.315.76c0 .305.1.546.314.76.216.216.458.317.761.317s.544-.1.76-.316c.215-.215.315-.457.315-.76s-.1-.545-.316-.76a.62.62 0 0 1 .88-.877c.45.45.677 1.002.677 1.637 0 .636-.228 1.187-.678 1.637-.452.451-1.003.68-1.638.68z"/>
        </g>
        <path fill="#FAB6A8" d="M12.248 1.62c-.707 0-1.308.248-1.802.742a2.454 2.454 0 0 0-.742 1.802c0 .707.247 1.307.742 1.801a2.454 2.454 0 0 0 1.802.742c.706 0 1.307-.247 1.801-.742a2.453 2.453 0 0 0 .742-1.801c0-.706-.247-1.307-.742-1.802a2.456 2.456 0 0 0-1.8-.741z"/>
        <path fill="#DC6B60" d="M12.248 7.327c-.874 0-1.628-.31-2.241-.923a3.064 3.064 0 0 1-.923-2.24c0-.874.31-1.628.923-2.24A3.065 3.065 0 0 1 12.248 1c.873 0 1.626.31 2.24.923.613.614.923 1.368.923 2.241 0 .874-.31 1.627-.923 2.24a3.064 3.064 0 0 1-2.24.923zm0-5.086c-.54 0-.987.183-1.363.56a1.84 1.84 0 0 0-.56 1.363c0 .54.183.986.56 1.363.376.376.822.56 1.363.56.54 0 .986-.184 1.362-.56a1.84 1.84 0 0 0 .56-1.363c0-.54-.183-.986-.56-1.364a1.84 1.84 0 0 0-1.362-.559z"/>
    </g>
</svg>
