<svg xmlns="http://www.w3.org/2000/svg" width="24" height="24" viewBox="0 0 24 24">
    <path fill="#FFF" fill-rule="nonzero" d="M23.79 5.455a.937.937 0 0 0-.727-.346H6.08l-.07-.639-.002-.02A5.13 5.13 0 0 0 .938 0a.937.937 0 1 0 0 1.875 3.25 3.25 0 0 1 3.211 2.81l1.114 10.237a2.817 2.817 0 0 0-1.654 2.61 2.816 2.816 0 0 0 2.813 2.812h.381A2.769 2.769 0 0 0 9.422 24a2.769 2.769 0 0 0 2.618-3.656h4.045A2.769 2.769 0 0 0 18.704 24a2.769 2.769 0 0 0 2.765-2.766 2.769 2.769 0 0 0-2.766-2.765H6.422a.939.939 0 0 1-.938-.985c0-.517.42-.937.938-.937H18.39c1.664 0 3.191-1.03 3.89-2.623a.938.938 0 0 0-1.716-.754c-.395.898-1.268 1.502-2.174 1.502H7.122l-.837-7.688H21.91l-.458 2.2a.937.937 0 0 0 1.835.382l.694-3.328a.937.937 0 0 0-.19-.783zm-13.477 15.78a.892.892 0 0 1-1.782 0 .892.892 0 0 1 1.782 0zm8.39.89a.892.892 0 0 1 0-1.781.892.892 0 0 1 0 1.781z"/>
</svg>
