<svg xmlns="http://www.w3.org/2000/svg" width="16" height="16" viewBox="0 0 16 16">
    <g fill="none" fill-rule="evenodd">
        <rect width="16" height="16" fill="#59BFE4" rx="8"/>
        <path fill="#FFF" d="M11.482 4.518a1.764 1.764 0 0 0-2.497 0L4.406 9.095a.229.229 0 0 0-.065.131l-.339 2.513a.228.228 0 0 0 .065.193.233.233 0 0 0 .162.068c.01 0 .02 0 .03-.002l1.514-.204a.23.23 0 1 0-.061-.457l-1.214.163.237-1.752 1.845 1.845a.226.226 0 0 0 .324 0l4.578-4.578c.334-.334.518-.777.518-1.25 0-.472-.184-.915-.518-1.247zm-2.409.562l.769.77-4.178 4.178-.769-.77L9.073 5.08zm-2.33 6.025l-.752-.752 4.178-4.178.752.752-4.178 4.178zm4.498-4.507l-1.839-1.84c.234-.192.525-.298.832-.298a1.303 1.303 0 0 1 1.306 1.306c0 .308-.106.598-.299.832z"/>
    </g>
</svg>
