<?xml version="1.0" encoding="UTF-8"?>
<svg width="256px" height="256px" viewBox="0 0 256 256" version="1.1" xmlns="http://www.w3.org/2000/svg" xmlns:xlink="http://www.w3.org/1999/xlink">
    <!-- Generator: Sketch 48.2 (47327) - http://www.bohemiancoding.com/sketch -->
    <title>ic_car</title>
    <desc>Created with Sketch.</desc>
    <defs></defs>
    <g id="Symbols" stroke="none" stroke-width="1" fill="none" fill-rule="evenodd">
        <g id="ic_car" fill-rule="nonzero">
            <g id="car-2-copy" transform="translate(30.538462, 68.923077)">
                <g id="Group" fill="#28A4C9">
                    <path d="M45.6752182,66.4760704 C45.1150769,66.4760704 44.5460691,66.3765857 43.9890119,66.1680658 C41.4280909,65.2062478 40.1069595,62.2841833 41.0387292,59.6406761 L57.3456622,13.3536315 C60.1055046,5.52060463 67.3850274,0.257864327 75.4590795,0.257864327 L128.671724,0.257864327 C136.745391,0.257864327 144.024914,5.52060463 146.784756,13.3532336 L154.781707,36.0520593 C155.713477,38.6955665 154.392345,41.6184268 151.831424,42.5802449 C149.270503,43.541267 146.438571,42.1779288 145.507958,39.5344215 L137.511007,16.8355958 C136.164433,13.0137918 132.611988,10.4454949 128.672495,10.4454949 L75.4590795,10.4454949 C71.5188156,10.4454949 67.9663715,13.0137918 66.6197966,16.8355958 L50.3128636,63.1218445 C49.5838705,65.1903302 47.6910326,66.4760704 45.6752182,66.4760704 Z" id="Shape"></path>
                    <path d="M168.759794,65.9647191 C166.035033,65.9647191 163.825309,63.6841319 163.825309,60.8711027 L163.825309,30.8199602 C163.825309,28.006931 166.035033,25.7263439 168.759794,25.7263439 C171.484555,25.7263439 173.69428,28.006931 173.69428,30.8199602 L173.69428,60.8711027 C173.69428,63.6841319 171.484555,65.9647191 168.759794,65.9647191 Z" id="Shape"></path>
                    <path d="M168.759794,16.0468811 C166.035033,16.0468811 163.825309,13.766294 163.825309,10.9532648 L163.825309,7.89828882 C163.825309,5.08525961 166.035033,2.80467249 168.759794,2.80467249 C171.484555,2.80467249 173.69428,5.08525961 173.69428,7.89828882 L173.69428,10.9532648 C173.69428,13.7666919 171.484555,16.0468811 168.759794,16.0468811 Z" id="Shape"></path>
                    <path d="M27.632734,117.032202 L4.93448563,117.032202 C2.20972435,117.032202 0,114.751615 0,111.938586 C0,109.125557 2.20972435,106.844969 4.93448563,106.844969 L27.632734,106.844969 C30.3574953,106.844969 32.5672197,109.125557 32.5672197,111.938586 C32.5672197,114.751615 30.3574953,117.032202 27.632734,117.032202 Z" id="Shape"></path>
                    <path d="M192.44494,117.032202 L168.98493,117.032202 C166.260169,117.032202 164.050444,114.751615 164.050444,111.938586 C164.050444,109.125557 166.260169,106.844969 168.98493,106.844969 L192.44494,106.844969 C195.169701,106.844969 197.379425,109.125557 197.379425,111.938586 C197.379425,114.751615 195.170086,117.032202 192.44494,117.032202 Z" id="Shape"></path>
                    <path d="M46.2176261,135.837197 C33.653192,135.837197 23.4314821,125.286248 23.4314821,112.316628 C23.4314821,99.3470071 33.653192,88.7960584 46.2176261,88.7960584 C58.7812891,88.7960584 69.0033845,99.347405 69.0033845,112.316628 C69.0033845,125.28585 58.7812891,135.837197 46.2176261,135.837197 Z M46.2176261,98.983689 C39.0950045,98.983689 33.3004534,104.965107 33.3004534,112.316628 C33.3004534,119.668149 39.0950045,125.649566 46.2176261,125.649566 C53.3402477,125.649566 59.1340277,119.668547 59.1340277,112.316628 C59.1340277,104.964709 53.3402477,98.983689 46.2176261,98.983689 Z" id="Shape"></path>
                </g>
                <path d="M24.3867677,61.3804644 L167.985311,61.3804644 C178.360067,61.3804644 186.770667,70.0618967 186.770667,80.771623 L186.770667,111.297506 L168.984159,111.297506 C168.47105,101.594963 160.688826,93.8904706 151.161799,93.8904706 C141.634772,93.8904706 133.852163,101.594963 133.339439,111.297506 L64.0399859,111.297506 C63.5268764,101.594963 55.7446529,93.8904706 46.2176261,93.8904706 C36.6905992,93.8904706 28.9079902,101.594963 28.3952663,111.297506 L10.6087586,111.297506 L10.6087586,75.60399 C10.6087586,67.7486786 16.7772512,61.3804644 24.3867677,61.3804644 Z" id="Shape" fill="#BFE2F7"></path>
                <g id="Group" transform="translate(5.397094, 25.468082)" fill="#28A4C9">
                    <path d="M181.373959,90.9226432 L163.587451,90.9226432 C160.966776,90.9226432 158.803313,88.8075986 158.66029,86.1067881 C158.286734,79.0465584 152.622484,73.5160053 145.76432,73.5160053 C138.906156,73.5160053 133.242677,79.0465584 132.869121,86.1067881 C132.726098,88.8079965 130.562635,90.9226432 127.94196,90.9226432 L58.6428922,90.9226432 C56.0218322,90.9226432 53.8583687,88.8075986 53.7157312,86.1059923 C53.3425607,79.0457625 47.6783109,73.5156073 40.8205324,73.5156073 C33.9627539,73.5156073 28.2981186,79.0457625 27.9253336,86.1063902 C27.7826961,88.8075986 25.6188471,90.9222453 22.9981726,90.9222453 L5.21166494,90.9222453 C2.48690366,90.9222453 0.27717931,88.6416581 0.27717931,85.8286289 L0.27717931,50.1351125 C0.27717931,39.4842812 8.67158749,30.8191644 18.989674,30.8191644 L162.588989,30.8191644 C175.66846,30.8191644 186.30883,41.8026725 186.30883,55.3039393 L186.30883,85.8298227 C186.30883,88.642454 184.099105,90.9226432 181.373959,90.9226432 Z M167.772512,80.7354105 L176.439473,80.7354105 L176.439473,55.3035413 C176.439473,47.4199763 170.225876,41.0059991 162.588989,41.0059991 L18.989674,41.0059991 C14.1133999,41.0059991 10.1461506,45.101187 10.1461506,50.1347146 L10.1461506,80.7346147 L18.8127265,80.7346147 C21.4268473,70.6635801 30.3328229,63.3275788 40.8205324,63.3275788 C51.3082419,63.3275788 60.2142175,70.6635801 62.8283383,80.7346147 L123.757671,80.7346147 C126.371792,70.6639781 135.277767,63.3275788 145.765091,63.3275788 C156.252415,63.3279767 165.158391,70.664774 167.772512,80.7354105 Z" id="Shape"></path>
                    <path d="M90.3296146,41.006397 C87.6048533,41.006397 85.395129,38.7258099 85.395129,35.9127807 L85.395129,5.35108272 C85.395129,2.53805351 87.6048533,0.257466388 90.3296146,0.257466388 C93.0543759,0.257466388 95.2641002,2.53805351 95.2641002,5.35108272 L95.2641002,35.9127807 C95.2641002,38.7262078 93.0547614,41.006397 90.3296146,41.006397 Z" id="Shape"></path>
                    <path d="M145.863395,110.362748 C133.299732,110.362748 123.077637,99.8114016 123.077637,86.842179 C123.077637,73.8729564 133.299347,63.3216097 145.863395,63.3216097 C148.588157,63.3216097 150.797881,65.6021968 150.797881,68.4152261 C150.797881,71.2282553 148.588157,73.5088424 145.863395,73.5088424 C138.740774,73.5088424 132.946994,79.4902601 132.946994,86.8417811 C132.946994,94.193302 138.741159,100.17472 145.863395,100.17472 C148.588157,100.17472 150.797881,102.455307 150.797881,105.268336 C150.797881,108.081365 148.588928,110.362748 145.863395,110.362748 Z" id="Shape"></path>
                </g>
            </g>
        </g>
    </g>
</svg>