<?xml version="1.0" encoding="UTF-8"?>
<svg width="256px" height="256px" viewBox="0 0 256 256" version="1.1" xmlns="http://www.w3.org/2000/svg" xmlns:xlink="http://www.w3.org/1999/xlink">
    <!-- Generator: Sketch 48.2 (47327) - http://www.bohemiancoding.com/sketch -->
    <title>ic_child</title>
    <desc>Created with Sketch.</desc>
    <defs></defs>
    <g id="Symbols" stroke="none" stroke-width="1" fill="none" fill-rule="evenodd">
        <g id="ic_child" fill-rule="nonzero">
            <g id="books-copy" transform="translate(39.000000, 59.000000)">
                <path d="M175.432472,94.2202685 L144.641796,94.2202685 C133.545657,94.2202685 124.547522,84.931955 124.547522,73.47798 L124.547522,70.5063305 C124.547522,59.0523555 133.545657,49.764042 144.641796,49.764042 L175.432472,49.764042 C164.336333,49.764042 155.338198,59.0523555 155.338198,70.5063305 L155.338198,73.47798 C155.33855,84.931955 164.336333,94.2202685 175.432472,94.2202685 Z" id="Shape" fill="#BFE2F7"></path>
                <path d="M175.442334,99.25724 L175.432472,99.25724 L144.641796,99.25724 C130.871116,99.25724 119.667911,87.6927461 119.667911,73.47798 L119.667911,70.5063305 C119.667911,56.2915644 130.871116,44.7270705 144.641796,44.7270705 L175.432472,44.7270705 C178.12744,44.7270705 180.312083,46.9825285 180.312083,49.764042 C180.312083,52.5455554 178.12744,54.8010134 175.432472,54.8010134 C167.042923,54.8010134 160.217808,61.8462296 160.217808,70.5063305 L160.217808,73.47798 C160.217808,82.1373538 167.042923,89.183297 175.432472,89.183297 C175.433881,89.1829335 175.435994,89.1829335 175.437403,89.183297 L175.442334,89.183297 C178.137302,89.183297 180.321944,91.4387551 180.321944,94.2202685 C180.321944,97.0017819 178.137302,99.25724 175.442334,99.25724 Z M144.641796,54.8010134 C136.252247,54.8010134 129.427132,61.8462296 129.427132,70.5063305 L129.427132,73.47798 C129.427132,82.1373538 136.252247,89.183297 144.641796,89.183297 L155.64073,89.183297 C152.39247,84.831979 150.458587,79.3838336 150.458587,73.47798 L150.458587,70.5063305 C150.458587,64.6004769 152.391766,59.1523315 155.64073,54.8010134 L144.641796,54.8010134 L144.641796,54.8010134 Z" id="Shape" fill="#28A4C9"></path>
                <path d="M175.442334,144.42166 L175.432472,144.42166 L144.641796,144.42166 C130.871116,144.42166 119.667911,132.857166 119.667911,118.6424 L119.667911,115.67075 C119.667911,101.455984 130.871116,89.8914905 144.641796,89.8914905 L175.432472,89.8914905 C178.12744,89.8914905 180.312083,92.1469485 180.312083,94.9284619 C180.312083,97.7099754 178.12744,99.9654334 175.432472,99.9654334 C167.042923,99.9654334 160.217808,107.01065 160.217808,115.67075 L160.217808,118.6424 C160.217808,127.301774 167.042923,134.347717 175.432472,134.347717 C175.433881,134.347353 175.435994,134.347717 175.437403,134.347717 L175.442334,134.347717 C178.137302,134.347717 180.321944,136.603175 180.321944,139.384688 C180.321944,142.166202 178.137302,144.42166 175.442334,144.42166 Z M144.641796,99.9654334 C136.252247,99.9654334 129.427132,107.01065 129.427132,115.67075 L129.427132,118.6424 C129.427132,127.301774 136.252247,134.347717 144.641796,134.347717 L155.64073,134.347717 C152.39247,129.996399 150.458587,124.548254 150.458587,118.6424 L150.458587,115.67075 C150.458587,109.764897 152.391766,104.316751 155.64073,99.9654334 L144.641796,99.9654334 Z" id="Shape" fill="#28A4C9"></path>
                <path d="M124.547522,118.6424 L124.547522,115.67075 C124.547522,104.216775 133.545657,94.9284619 144.641796,94.9284619 L24.9738849,94.9284619 C13.8777459,94.9284619 4.87961042,104.216775 4.87961042,115.67075 L4.87961042,118.6424 C4.87961042,130.096375 13.8777459,139.384688 24.9738849,139.384688 L144.641796,139.384688 C133.545657,139.384688 124.547522,130.096738 124.547522,118.6424 Z" id="Shape" fill="#BFE2F7"></path>
                <path d="M144.641796,144.42166 L24.9738849,144.42166 C11.2032052,144.42166 0,132.857166 0,118.6424 L0,115.67075 C0,101.455984 11.2032052,89.8914905 24.9738849,89.8914905 L144.641796,89.8914905 C147.336764,89.8914905 149.521406,92.1469485 149.521406,94.9284619 C149.521406,97.7099754 147.336764,99.9654334 144.641796,99.9654334 C136.252247,99.9654334 129.427132,107.01065 129.427132,115.67075 L129.427132,118.6424 C129.427132,127.301774 136.252247,134.347717 144.641796,134.347717 C147.336764,134.347717 149.521406,136.603175 149.521406,139.384688 C149.521406,142.166202 147.336764,144.42166 144.641796,144.42166 Z M24.9738849,99.9654334 C16.584336,99.9654334 9.75922084,107.01065 9.75922084,115.67075 L9.75922084,118.6424 C9.75922084,127.301774 16.584336,134.347717 24.9738849,134.347717 L124.850054,134.347717 C121.601794,129.996399 119.667911,124.548254 119.667911,118.6424 L119.667911,115.67075 C119.667911,109.764897 121.601089,104.316751 124.850054,99.9654334 L24.9738849,99.9654334 Z" id="Shape" fill="#28A4C9"></path>
                <path d="M175.432472,54.8010134 L144.641796,54.8010134 C130.871116,54.8010134 119.667911,43.2365196 119.667911,29.0217535 L119.667911,26.0501039 C119.667911,11.8353379 130.871116,0.270844009 144.641796,0.270844009 C147.336764,0.270844009 149.521406,2.52630203 149.521406,5.30781547 C149.521406,8.08932891 147.336764,10.3447869 144.641796,10.3447869 C136.252247,10.3447869 129.427132,17.3900031 129.427132,26.0501039 L129.427132,29.0217535 C129.427132,37.6814908 136.252247,44.7270705 144.641796,44.7270705 L155.64073,44.7270705 C152.39247,40.3757525 150.458587,34.9276071 150.458587,29.0217535 L150.458587,26.0501039 C150.458587,11.8353379 161.661793,0.270844009 175.432472,0.270844009 C178.12744,0.270844009 180.312083,2.52630203 180.312083,5.30781547 C180.312083,8.08932891 178.12744,10.3447869 175.432472,10.3447869 C167.042923,10.3447869 160.217808,17.3900031 160.217808,26.0501039 L160.217808,29.0217535 C160.217808,37.6814908 167.042923,44.7270705 175.432472,44.7270705 C178.12744,44.7270705 180.312083,46.9825285 180.312083,49.764042 C180.312083,52.5455554 178.12744,54.8010134 175.432472,54.8010134 Z" id="Shape" fill="#28A4C9"></path>
                <path d="M37.2664177,82.0700972 C36.1313052,82.0704607 35.0004189,81.7498105 33.9868124,81.1132362 C32.0895578,79.9207955 30.957615,77.8405681 30.957615,75.548028 L30.957615,23.4281885 C30.957615,20.6466751 33.1422576,18.3912171 35.8372254,18.3912171 L70.6379519,18.3912171 C73.3329197,18.3912171 75.5175623,20.6466751 75.5175623,23.4281885 L75.5175623,49.7651326 C75.5175623,52.5466461 73.3329197,54.8021041 70.6379519,54.8021041 C67.9429841,54.8021041 65.7583415,52.5466461 65.7583415,49.7651326 L65.7583415,28.46516 L40.7161315,28.46516 L40.7161315,69.7043413 L50.3390543,64.57212 C52.1546004,63.603989 54.3198725,63.6050797 56.1329533,64.5710294 L65.7601024,69.7050684 C65.8358236,66.9915387 67.9905299,64.8160614 70.6375997,64.8160614 C73.3325675,64.8160614 75.5172101,67.0715195 75.5172101,69.8530329 L75.5172101,75.547301 C75.5172101,77.8394774 74.3845629,79.9204319 72.4880128,81.1125091 C70.5907583,82.3045863 68.2803833,82.3882026 66.3070555,81.3360918 L53.2368843,74.3650396 L40.1667131,81.3357282 C39.2481982,81.8268829 38.2557231,82.0700972 37.2664177,82.0700972 Z" id="Shape" fill="#28A4C9"></path>
                <path d="M170.55251,99.25724 L20.0935701,99.25724 C10.9922426,99.25724 0,87.7585485 0,73.47798 L0,70.5063305 C0,56.2915644 11.2032052,44.7270705 24.9738849,44.7270705 L35.8368732,44.7270705 C38.5318411,44.7270705 40.7164837,46.9825285 40.7164837,49.764042 C40.7164837,52.5455554 38.5318411,54.8010134 35.8368732,54.8010134 L24.9738849,54.8010134 C16.584336,54.8010134 9.75922084,61.8462296 9.75922084,70.5063305 L9.75922084,73.47798 C9.75922084,82.5510725 17.0111918,89.183297 20.0935701,89.183297 L155.208239,89.183297 C152.347742,84.8403406 150.458587,79.398012 150.458587,73.47798 L150.458587,70.5063305 C150.458587,64.5862985 152.348094,59.1439699 155.208239,54.8010134 L70.6375997,54.8010134 C67.9426319,54.8010134 65.7579893,52.5455554 65.7579893,49.764042 C65.7579893,46.9825285 67.9426319,44.7270705 70.6375997,44.7270705 L170.55251,44.7270705 C173.247478,44.7270705 175.43212,46.9825285 175.43212,49.764042 C175.43212,52.5455554 173.247478,54.8010134 170.55251,54.8010134 C167.470132,54.8010134 160.217808,61.4332379 160.217808,70.5063305 L160.217808,73.47798 C160.217808,82.5510725 167.469779,89.183297 170.55251,89.183297 C173.247478,89.183297 175.43212,91.4387551 175.43212,94.2202685 C175.43212,97.0017819 173.247478,99.25724 170.55251,99.25724 Z" id="Shape" fill="#28A4C9"></path>
                <path d="M144.641796,54.8010134 L70.6375997,54.8010134 C67.9426319,54.8010134 65.7579893,52.5455554 65.7579893,49.764042 L65.7579893,28.46516 L40.7164837,28.46516 L40.7164837,49.764042 C40.7164837,52.5455554 38.5318411,54.8010134 35.8368732,54.8010134 L24.9738849,54.8010134 C11.2032052,54.8010134 0,43.2365196 0,29.0224806 L0,26.050831 C0,11.836065 11.2032052,0.271571107 24.9738849,0.271571107 L144.641796,0.271571107 C147.336764,0.271571107 149.521406,2.52702913 149.521406,5.30854257 C149.521406,8.090056 147.336764,10.345514 144.641796,10.345514 C136.252247,10.345514 129.427132,17.3907302 129.427132,26.050831 L129.427132,29.0224806 C129.427132,37.6822179 136.252247,44.7277976 144.641796,44.7277976 C147.336764,44.7277976 149.521406,46.9832556 149.521406,49.7647691 C149.521406,52.5462825 147.336764,54.8010134 144.641796,54.8010134 Z M75.5172101,44.7270705 L124.850054,44.7270705 C121.601794,40.3757525 119.667911,34.9276071 119.667911,29.0217535 L119.667911,26.0501039 C119.667911,20.1442504 121.601089,14.696105 124.850054,10.3447869 L24.9738849,10.3447869 C16.584336,10.3447869 9.75922084,17.3903666 9.75922084,26.0501039 L9.75922084,29.0217535 C9.75922084,37.6814908 16.584336,44.7270705 24.9738849,44.7270705 L30.9572628,44.7270705 L30.9572628,23.4281885 C30.9572628,20.6466751 33.1419054,18.3912171 35.8368732,18.3912171 L70.6375997,18.3912171 C73.3325675,18.3912171 75.5172101,20.6466751 75.5172101,23.4281885 L75.5172101,44.7270705 L75.5172101,44.7270705 Z" id="Shape" fill="#28A4C9"></path>
            </g>
        </g>
    </g>
</svg>