<?xml version="1.0" encoding="UTF-8"?>
<svg width="256px" height="256px" viewBox="0 0 256 256" version="1.1" xmlns="http://www.w3.org/2000/svg" xmlns:xlink="http://www.w3.org/1999/xlink">
    <!-- Generator: Sketch 48.2 (47327) - http://www.bohemiancoding.com/sketch -->
    <title>ic_other</title>
    <desc>Created with Sketch.</desc>
    <defs></defs>
    <g id="Symbols" stroke="none" stroke-width="1" fill="none" fill-rule="evenodd">
        <g id="ic_other" fill-rule="nonzero">
            <g id="money-2-copy" transform="translate(46.769231, 39.384615)">
                <g id="Group" fill="#28A4C9">
                    <path d="M137.015798,148.098958 C135.713394,148.098958 134.411695,147.586354 133.418516,146.560782 L129.738469,142.762422 C127.751054,140.712006 127.751054,137.386623 129.738117,135.335116 C131.724476,133.283609 134.946674,133.283246 136.933385,135.334753 L140.613432,139.133113 C142.600847,141.183529 142.600847,144.508912 140.613784,146.560419 C139.620252,147.586354 138.317497,148.098958 137.015798,148.098958 Z" id="Shape"></path>
                    <path d="M118.583514,129.073348 C117.281111,129.073348 115.979412,128.56038 114.98588,127.535172 L29.1149502,38.8946538 C27.128239,36.8438739 27.128239,33.5181276 29.1149502,31.4669841 C31.1023656,29.4165677 34.3228029,29.4165677 36.3105705,31.4669841 L122.1815,120.107139 C124.168212,122.157919 124.168212,125.483665 122.1815,127.534809 C121.187264,128.560017 119.885918,129.073348 118.583514,129.073348 Z" id="Shape"></path>
                    <path d="M10.2889166,105.717506 C8.0975823,105.717506 6.07529988,104.244769 5.41564558,101.966407 C4.61159284,99.1874385 6.14256841,96.2615962 8.83507088,95.4312502 L127.875729,58.7313417 C130.56788,57.9006323 133.402315,59.4817069 134.20672,62.261039 C135.010773,65.0400076 133.479797,67.96585 130.787295,68.7961959 L11.7466363,105.496104 C11.2609645,105.645887 10.7707142,105.717506 10.2889166,105.717506 Z" id="Shape"></path>
                    <path d="M74.2479127,155.522992 C71.4384827,155.522992 69.1601572,153.171194 69.1601572,150.271163 L69.1601572,137.550947 C69.1601572,134.650917 71.4384827,132.299118 74.2479127,132.299118 C77.0573427,132.299118 79.3356682,134.650917 79.3356682,137.550947 L79.3356682,150.271163 C79.3356682,153.171194 77.0573427,155.522992 74.2479127,155.522992 Z" id="Shape"></path>
                    <path d="M73.7833724,49.3019712 C70.9739424,49.3019712 68.6956169,46.9501727 68.6956169,44.0501423 L68.6956169,5.25182892 C68.6952647,2.35179851 70.9735902,0 73.7833724,0 C76.5928023,0 78.8711278,2.35179851 78.8711278,5.25182892 L78.8711278,44.0501423 C78.8711278,46.9501727 76.5928023,49.3019712 73.7833724,49.3019712 Z" id="Shape"></path>
                    <path d="M147.080369,82.3420319 C133.988714,82.3420319 123.337744,71.3475828 123.337744,57.8337392 C123.337744,44.3198956 133.988714,33.3254466 147.080369,33.3254466 C160.171319,33.3254466 170.822288,44.3198956 170.822288,57.8337392 C170.822288,71.3475828 160.172023,82.3420319 147.080369,82.3420319 Z M147.080369,43.829468 C139.599825,43.829468 133.513608,50.1119584 133.513608,57.8337392 C133.513608,65.5555201 139.599825,71.8380105 147.080369,71.8380105 C154.56056,71.8380105 160.646777,65.5555201 160.646777,57.8337392 C160.646777,50.1119584 154.56056,43.829468 147.080369,43.829468 Z" id="Shape"></path>
                    <path d="M74.2479127,186.13709 C63.4779028,186.13709 54.7157355,177.092355 54.7157355,165.974299 C54.7157355,154.856971 63.4779028,145.812235 74.2479127,145.812235 C85.0179226,145.812235 93.7800898,154.856971 93.7800898,165.974299 C93.7793855,177.092355 85.0175704,186.13709 74.2479127,186.13709 Z M74.2479127,156.31662 C69.0886624,156.31662 64.8912465,160.649397 64.8912465,165.975026 C64.8912465,171.301019 69.0886624,175.633796 74.2479127,175.633796 C79.407163,175.633796 83.6045789,171.301019 83.6045789,165.975026 C83.6038745,160.649397 79.4064586,156.31662 74.2479127,156.31662 Z" id="Shape"></path>
                    <path d="M21.2896117,45.4530779 C9.73914594,45.4530779 0.342329941,35.7528633 0.342329941,23.8299102 C0.342329941,11.906957 9.73914594,2.20637891 21.2896117,2.20637891 C32.8400775,2.20637891 42.2372457,11.9065935 42.2372457,23.8295466 C42.2372457,35.7524998 32.8400775,45.4530779 21.2896117,45.4530779 Z M21.2896117,12.7100368 C15.3499055,12.7100368 10.5181931,17.6982927 10.5181931,23.8295466 C10.5181931,29.9608006 15.3502577,34.9490565 21.2896117,34.9490565 C27.2289658,34.9490565 32.0617347,29.9608006 32.0617347,23.8295466 C32.0617347,17.6982927 27.2293179,12.7100368 21.2896117,12.7100368 Z" id="Shape"></path>
                </g>
                <ellipse id="Oval" fill="#BFE2F7" cx="75.8655273" cy="80.165464" rx="38.169084" ry="39.3999869"></ellipse>
                <g id="Group" transform="translate(32.401599, 35.264253)" fill="#28A4C9">
                    <path d="M43.4625192,89.550118 C31.9088837,89.550118 21.0462475,84.9057794 12.8768182,76.4728967 C4.70738888,68.040014 0.208145057,56.827072 0.208145057,44.9004834 C0.208145057,32.9738947 4.70738888,21.7613163 12.8768182,13.3284336 C21.0462475,4.8955509 31.9088837,0.251212362 43.4625192,0.251212362 C55.0165069,0.251212362 65.8791431,4.8955509 74.0485724,13.3284336 C82.2180017,21.7613163 86.7172456,32.9738947 86.7172456,44.9004834 C86.7172456,56.827072 82.2180017,68.040014 74.0485724,76.4728967 C65.8791431,84.9057794 55.0165069,89.550118 43.4625192,89.550118 Z M43.4625192,10.7541431 C34.6270961,10.7541431 26.3206644,14.3060169 20.0720864,20.7553762 C13.8242128,27.204372 10.3833038,35.7790389 10.3833038,44.9001198 C10.3833038,54.0212008 13.8242128,62.5955041 20.0720864,69.045227 C26.31996,75.4953134 34.6263918,79.0464601 43.4625192,79.0464601 C52.2986467,79.0464601 60.6050784,75.4945863 66.8533042,69.045227 C73.1018822,62.5958677 76.5420868,54.0208373 76.5420868,44.9001198 C76.5420868,35.7794024 73.1011778,27.2047356 66.8533042,20.7553762 C60.6054306,14.3060169 52.2989989,10.7541431 43.4625192,10.7541431 Z" id="Shape"></path>
                    <path d="M42.613386,64.063515 C36.4236239,63.9050076 31.7680072,60.4727415 31.7680072,57.5152703 C31.7680072,56.0367165 33.047166,53.8190676 34.6330834,53.8190676 C36.5771794,53.8190676 38.1116768,57.2513337 42.613386,57.7795704 L42.613386,47.2708229 C37.9581214,45.4752544 32.6889874,43.4157493 32.6889874,36.6566462 C32.6889874,29.9506212 37.4981596,27.0455011 42.613386,26.3591206 L42.613386,24.8805668 C42.613386,24.1941863 43.3804586,23.5601568 44.3528588,23.5601568 C45.2224191,23.5601568 46.0919794,24.1934592 46.0919794,24.8805668 L46.0919794,26.2533278 C49.4173697,26.358757 54.8400591,27.3621523 54.8400591,30.4250527 C54.8400591,31.6396699 54.0215665,34.0689043 52.1288905,34.0689043 C50.6965285,34.0689043 49.5198573,32.378765 46.0919794,32.115192 L46.0919794,41.4089587 C50.6451085,43.1514491 55.7603349,45.527969 55.7603349,52.709516 C55.7603349,59.2046825 51.8214275,62.9539634 46.0919794,63.9046441 L46.0919794,65.5417052 C46.0919794,66.2280858 45.2224191,66.8621152 44.3528588,66.8621152 C43.381163,66.8621152 42.613386,66.2280858 42.613386,65.5417052 L42.613386,64.063515 L42.613386,64.063515 Z M43.0229845,40.2474197 L43.0229845,32.2733358 C40.4653713,32.6954162 38.9301694,33.9634751 38.9301694,35.9695385 C38.9301694,38.2937073 40.66929,39.2971026 43.0229845,40.2474197 Z M45.6827332,48.5381547 L45.6827332,57.7264923 C47.9335877,57.2513337 49.5195051,55.8782091 49.5195051,53.3962601 C49.5195051,50.8092454 47.88252,49.54155 45.6827332,48.5381547 Z" id="Shape"></path>
                </g>
            </g>
        </g>
    </g>
</svg>