<?xml version="1.0" encoding="UTF-8"?>
<svg width="256px" height="256px" viewBox="0 0 256 256" version="1.1" xmlns="http://www.w3.org/2000/svg" xmlns:xlink="http://www.w3.org/1999/xlink">
    <!-- Generator: Sketch 48.2 (47327) - http://www.bohemiancoding.com/sketch -->
    <title>ic_retired</title>
    <desc>Created with Sketch.</desc>
    <defs></defs>
    <g id="Symbols" stroke="none" stroke-width="1" fill="none" fill-rule="evenodd">
        <g id="ic_retired">
            <g id="Page-1" transform="translate(56.615385, 34.461538)">
                <path d="M56.0646519,42.5457865 L52.0209404,12.3562481 C51.5236519,8.64284423 54.4127481,5.34086346 58.1594019,5.34086346 L86.3849981,5.34086346 C90.1320173,5.34086346 93.0211135,8.64247885 92.5234596,12.3562481 L88.4797481,42.5457865 C88.0774596,45.5485173 85.5153827,47.7901519 82.4863442,47.7901519 L62.0584212,47.7901519 C59.0286519,47.7905173 56.466575,45.5485173 56.0646519,42.5457865" id="Fill-1" fill="#BFE2F7"></path>
                <path d="M58.1593654,10.6816904 C57.8392885,10.6816904 57.6343077,10.8399019 57.51775,10.9729019 C57.4019231,11.1059019 57.2722115,11.3302481 57.3149615,11.6470365 L61.3586731,41.8369404 C61.4050769,42.1858827 61.7065192,42.4489596 62.05875,42.4489596 L82.4866731,42.4489596 C82.8392692,42.4489596 83.1399808,42.1855173 83.18675,41.8362096 L87.2304615,11.6466712 C87.2732115,11.3298827 87.1435,11.1051712 87.0276731,10.9721712 C86.9103846,10.8395365 86.7050385,10.6816904 86.3853269,10.6816904 L58.1593654,10.6816904 Z M82.4859423,53.1309788 L62.0580192,53.1309788 C56.3781154,53.1309788 51.5250769,48.885575 50.7705577,43.2549981 L46.7268462,13.0650942 C46.2850962,9.76859423 47.2880769,6.44249808 49.4785577,3.93924808 C51.6690385,1.43563269 54.8329038,3.65384615e-05 58.1593654,3.65384615e-05 L86.3849615,3.65384615e-05 C89.7114231,3.65384615e-05 92.8752885,1.43563269 95.0654038,3.93888269 C97.2555192,6.44213269 98.2588654,9.76859423 97.8171154,13.0654596 L93.7734038,43.2549981 C93.0188846,48.8852096 88.1665769,53.1309788 82.4859423,53.1309788 Z" id="Fill-3" fill="#28A4C9"></path>
                <path d="M75.3242212,121.140419 L75.3242212,135.302362 C78.9057212,134.569765 81.4283365,132.453458 81.4283365,128.628246 C81.4283365,124.639708 78.823875,122.685996 75.3242212,121.140419 Z M71.0919712,108.361458 L71.0919712,96.0717462 C67.0219519,96.7228615 64.5808173,98.6765731 64.5808173,101.769188 C64.5808173,105.349958 67.3475096,106.896631 71.0919712,108.361458 Z M70.4404904,145.069092 C60.5922788,144.825015 53.1859327,139.534246 53.1859327,134.976438 C53.1859327,132.697535 55.2203942,129.278996 57.743375,129.278996 C60.8367212,129.278996 63.2785865,134.5694 70.440125,135.383112 L70.440125,119.186342 C63.0334135,116.418919 54.6503942,113.244823 54.6503942,102.826977 C54.6503942,92.4902462 62.3011827,88.0139192 70.440125,86.9554 L70.440125,84.6764962 C70.440125,83.6183423 71.6612404,82.6416692 73.2082788,82.6416692 C74.591625,82.6416692 75.9749712,83.6183423 75.9749712,84.6764962 L75.9749712,86.7924385 C81.2661058,86.9554 89.8928365,88.5017077 89.8928365,93.2224769 C89.8928365,95.0943423 88.5909712,98.8384385 85.5791058,98.8384385 C83.3002019,98.8384385 81.4279712,96.2336115 75.9749712,95.8273038 L75.9749712,110.152208 C83.2187212,112.83815 91.3583942,116.500765 91.3583942,127.570092 C91.3583942,137.5809 85.0909519,143.359823 75.9749712,144.825015 L75.9749712,147.347996 C75.9749712,148.40615 74.5912596,149.382823 73.2082788,149.382823 C71.6616058,149.382823 70.440125,148.40615 70.440125,147.347996 L70.440125,145.069092 L70.4404904,145.069092 Z" id="Fill-5" fill="#28A4C9"></path>
                <path d="M72.2719808,187.076996 C52.6617885,187.076996 34.6249423,180.851573 21.4838846,169.547304 C7.62996154,157.63065 0,140.595688 0,121.581438 C0,100.518477 11.1460577,78.3491308 33.1279615,55.6876115 C33.2057885,55.6068615 33.2872692,55.5283038 33.3705769,55.4530346 L52.8631154,37.7454 C52.9398462,37.6756115 53.0191346,37.60765 53.10025,37.5426115 C62.3620192,30.0686692 69.1139615,25.7377654 69.3971346,25.5572654 C71.8828462,23.9704 75.1851923,24.6978808 76.7735192,27.1835923 C78.3614808,29.6693038 77.6329038,32.97165 75.1471923,34.5599769 C75.0116346,34.6469385 68.5859808,38.7823615 59.9300192,45.7582846 L40.6793654,63.2466885 C26.9653846,77.4111885 10.68275,98.9900731 10.68275,121.583265 C10.68275,153.856592 36.0093846,176.396438 72.2723462,176.396438 C108.536038,176.396438 133.862673,153.856227 133.862673,121.583265 C133.862673,110.913669 130.238423,99.5136692 123.090038,87.6989577 C121.563096,85.1752462 122.371327,81.8911692 124.894673,80.3649577 C127.41875,78.8380154 130.702827,79.6462462 132.228673,82.1695923 C140.400865,95.6756692 144.544327,108.936573 144.544327,121.583265 C144.544327,140.597515 136.914365,157.631746 123.060442,169.549496 C109.919019,180.851573 91.8821731,187.076996 72.2719808,187.076996" id="Fill-7" fill="#28A4C9"></path>
                <path d="M80.2394481,55.2421712 C88.4668135,62.0251712 106.391852,71.4725558 113.858852,63.6507673 C117.96066,59.3523827 114.573544,51.6314404 114.758794,46.510575 C114.90641,42.4179019 116.318621,38.5291135 116.404852,34.4364404 L116.404852,34.4320558 C116.406679,34.2994212 116.405583,34.3396135 116.404852,34.4298635 C116.83564,13.1874981 89.4672365,24.3949404 78.7863135,32.5824788" id="Fill-10" fill="#BFE2F7"></path>
                <path d="M106.012619,71.9489077 C103.103427,71.9489077 99.6585808,71.3807346 95.5860038,69.9696192 C88.1102346,67.3797731 81.0020423,62.7923692 76.8425038,59.3625038 C74.5668885,57.4858885 74.2424269,54.1199654 76.1194077,51.8436192 C77.9963885,49.5680038 81.3619462,49.2431769 83.6386577,51.1205231 C92.4575808,58.3920423 106.182158,63.9590423 109.996042,59.9624654 C110.992812,58.9181962 110.453138,55.4835808 110.019427,52.7234654 C109.688754,50.6144654 109.345292,48.4331192 109.421658,46.3171769 C109.508619,43.9089269 109.928081,41.7217346 110.333292,39.6072538 C110.689908,37.74635 111.027523,35.9877538 111.065158,34.3522923 C111.065158,34.3427923 111.065158,34.3329269 111.065523,34.3234269 L111.065888,34.2898115 C111.157235,29.4013308 109.398273,28.5105231 108.819504,28.2171192 C103.628119,25.5892731 89.9225423,30.7755423 82.0368115,36.8208308 C79.6961577,38.6159654 76.3433885,38.1720231 74.5486192,35.8310038 C72.7542154,33.4899846 73.1963308,30.1375808 75.5384462,28.3424462 C82.9575808,22.6545038 102.034677,12.8121385 113.643312,18.6856962 C117.442946,20.6090808 121.930965,24.9144077 121.746446,34.5050231 C121.746446,34.5189077 121.746446,34.5331577 121.746081,34.5466769 C121.692369,37.0915808 121.251715,39.3920423 120.824946,41.6168692 C120.480023,43.4152923 120.154831,45.1128692 120.097465,46.7019269 C120.058004,47.7904077 120.307927,49.3809269 120.572465,51.0642538 C121.328446,55.8789269 122.364677,62.4733885 117.723196,67.3362923 C115.477177,69.6897346 111.810542,71.9489077 106.012619,71.9489077" id="Fill-12" fill="#28A4C9"></path>
                <path d="M64.3043308,55.2421712 C56.0773308,62.0251712 38.1519269,71.4725558 30.6856577,63.6507673 C26.5834846,59.3523827 29.9709654,51.6314404 29.7857154,46.510575 C29.6377346,42.4179019 28.2255231,38.5291135 28.1396577,34.4364404 L28.1396577,34.4320558 C28.1374654,34.2994212 28.1385615,34.3396135 28.1396577,34.4298635 C27.7085038,13.1874981 55.0769077,24.3949404 65.7578308,32.5824788" id="Fill-14" fill="#BFE2F7"></path>
                <path d="M38.5320731,71.9489077 C32.7334192,71.9489077 29.0675154,69.6901 26.8225923,67.3384846 C22.1807462,62.4752154 23.2169769,55.8807538 23.9733231,51.0657154 C24.2378615,49.3816577 24.4877846,47.7911385 24.4479577,46.7037538 C24.3909577,45.1143308 24.0650346,43.4163885 23.7204769,41.6179654 C23.2944385,39.3927731 22.8530538,37.0926769 22.7997077,34.5477731 C22.7993423,34.5335231 22.7993423,34.5185423 22.7993423,34.5035615 C22.6155538,24.9144077 27.1024769,20.6101769 30.9021115,18.6875231 C42.5089192,12.8125038 61.5871115,22.6563308 69.0073423,28.3442731 C71.3483615,30.1386769 71.7908423,33.4914462 69.9971692,35.8328308 C68.2027654,38.17385 64.8499962,38.6170615 62.5086115,36.8226577 C54.6228808,30.7773692 40.9191308,25.5929269 35.7262846,28.2189462 C35.14715,28.5119846 33.3881885,29.4031577 33.4795346,34.2916385 L33.4799,34.3252538 C33.4799,34.3347538 33.4799,34.3446192 33.4802654,34.3541192 C33.5175346,35.9895808 33.85515,37.7478115 34.2121308,39.6090808 C34.6173423,41.7239269 35.0368038,43.9111192 35.1237654,46.3193692 C35.2001308,48.4342154 34.8574,50.6155615 34.5259962,52.7252923 C34.0922846,55.4850423 33.5529769,58.9200231 34.5493808,59.9650231 C38.3643615,63.9601385 52.0874769,58.3949654 60.9067654,51.1227154 C63.1834769,49.2461 66.5490346,49.5701962 68.42565,51.8458115 C70.3019,54.1214269 69.9781692,57.4880808 67.7025538,59.3646962 C63.5430154,62.7941962 56.4344577,67.3819654 48.9590538,69.9718115 C44.8872077,71.3800038 41.4405346,71.9489077 38.5320731,71.9489077" id="Fill-16" fill="#28A4C9"></path>
                <path d="M57.8221519,47.4283481 C57.8221519,53.8642327 63.0398442,59.0815596 69.4753635,59.0815596 L75.0694019,59.0815596 C81.5049212,59.0815596 86.7226135,53.8638673 86.7226135,47.4283481 L86.7226135,41.1367904 C86.7226135,34.7009058 81.5045558,29.4835788 75.0694019,29.4835788 L69.4753635,29.4835788 C63.0402096,29.4835788 57.8221519,34.7012712 57.8221519,41.1367904 L57.8221519,47.4283481 Z" id="Fill-18" fill="#BFE2F7"></path>
                <path d="M69.4750346,34.8247346 C65.9943808,34.8247346 63.1630154,37.6564654 63.1630154,41.1367538 L63.1630154,47.4283115 C63.1630154,50.9089654 65.9947462,53.7406962 69.4750346,53.7406962 L75.0698038,53.7406962 C78.5500923,53.7406962 81.3814577,50.9089654 81.3814577,47.4283115 L81.3814577,41.1367538 C81.3814577,37.6561 78.5497269,34.8247346 75.0698038,34.8247346 L69.4750346,34.8247346 Z M75.0694385,64.42235 L69.4746692,64.42235 C60.1040154,64.42235 52.4809962,56.7986 52.4809962,47.4283115 L52.4809962,41.1367538 C52.4809962,31.7661 60.1040154,24.1430808 69.4746692,24.1430808 L75.0694385,24.1430808 C84.4400923,24.1430808 92.0631115,31.7661 92.0631115,41.1367538 L92.0631115,47.4283115 C92.0634769,56.7989654 84.4397269,64.42235 75.0694385,64.42235 Z" id="Fill-20" fill="#28A4C9"></path>
            </g>
        </g>
    </g>
</svg>