<?xml version="1.0" encoding="UTF-8"?>
<svg width="256px" height="256px" viewBox="0 0 256 256" version="1.1" xmlns="http://www.w3.org/2000/svg" xmlns:xlink="http://www.w3.org/1999/xlink">
    <!-- Generator: Sketch 48.2 (47327) - http://www.bohemiancoding.com/sketch -->
    <title>ic_studyabroad</title>
    <desc>Created with Sketch.</desc>
    <defs></defs>
    <g id="Symbols" stroke="none" stroke-width="1" fill="none" fill-rule="evenodd">
        <g id="ic_studyabroad" fill-rule="nonzero">
            <g id="airplane-copy" transform="translate(136.288462, 128.000000) rotate(41.000000) translate(-136.288462, -128.000000) translate(48.230769, 34.461538)">
                <g id="Group" transform="translate(5.115385, 52.250000)" fill="#BFE2F7">
                    <path d="M118.642577,28.1156154 L118.642577,9.53251923 C118.642577,4.32834615 114.423481,0.10925 109.219308,0.10925 C104.015135,0.10925 99.7960385,4.32834615 99.7960385,9.53251923 L99.7960385,13.1110962 L99.7960385,17.6407692 L99.7960385,66.1865 L165.707038,83.4490962 L165.707038,65.5847115 L118.642577,28.1156154 Z" id="Shape"></path>
                    <path d="M47.2431346,28.1156154 L47.2431346,9.53251923 C47.2431346,4.32834615 51.4622308,0.10925 56.6664038,0.10925 C61.8705769,0.10925 66.0896731,4.32834615 66.0896731,9.53251923 L66.0896731,13.1110962 L66.0896731,17.6407692 L66.0896731,66.1865 L0.179038462,83.4494615 L0.179038462,65.5850769 L47.2431346,28.1156154 Z" id="Shape"></path>
                </g>
                <path d="M173.962538,113.890019 L128.800269,77.9347115 L128.800269,61.7825192 C128.800269,53.8058077 122.310673,47.3169423 114.334692,47.3169423 C106.358712,47.3169423 99.8691154,53.8065385 99.8691154,61.7825192 L99.8691154,118.4365 L99.8691154,136.072885 L90.8689615,130.031981 C89.1691923,128.890885 86.9483846,128.89125 85.2486154,130.031981 L76.2484615,136.072885 L76.2484615,118.4365 L76.2484615,61.7825192 L76.2484615,21.8949423 C76.2484615,15.3826923 81.5465385,10.0846154 88.0587885,10.0846154 C94.5710385,10.0846154 99.8691154,15.3826923 99.8691154,21.8949423 L99.8691154,31.1811923 C99.8691154,33.9661538 102.126462,36.2235 104.911423,36.2235 C107.696385,36.2235 109.953731,33.9661538 109.953731,31.1811923 L109.953731,21.8949423 C109.953365,9.82190385 100.131096,0 88.0580577,0 C75.9850192,0 66.1631154,9.82190385 66.1631154,21.8949423 L66.1631154,47.9969231 C64.7805,47.5566346 63.3087308,47.3165769 61.7821538,47.3165769 C53.8054423,47.3165769 47.3165769,53.8061731 47.3165769,61.7821538 L47.3165769,77.9343462 L2.15394231,113.890019 C0.952192308,114.846596 0.252480769,116.298635 0.252480769,117.834712 L0.252480769,135.699096 C0.252480769,137.261846 0.977038462,138.736173 2.21386538,139.691288 C3.10576923,140.379673 4.19132692,140.741769 5.29478846,140.741769 C5.72155769,140.741769 6.15051923,140.687692 6.57217308,140.577346 L66.1631154,124.969942 L66.1631154,142.842365 L49.9104423,153.750923 C48.5150385,154.687404 47.6783077,156.257462 47.6783077,157.9375 L47.6783077,176.836288 C47.6783077,178.498788 48.4978654,180.054962 49.8691538,180.995096 C51.2400769,181.934865 52.9873462,182.139115 54.5380385,181.54025 L73.0414808,174.390769 C74.2578462,181.581173 80.5263846,187.076923 88.0576923,187.076923 C95.589,187.076923 101.857538,181.581538 103.073904,174.390769 L121.577346,181.54025 C122.17475,181.771173 122.788962,181.880423 123.393673,181.880423 C125.416808,181.880423 127.325577,180.654192 128.098731,178.653712 C129.102077,176.056192 127.810442,173.136769 125.212558,172.133058 L89.8751154,158.478635 C88.70625,158.027019 87.4095,158.027019 86.2406346,158.478635 L57.7625577,169.482192 L57.7625577,160.625635 L74.0137692,149.717442 C74.0199808,149.713423 74.0265577,149.709038 74.0324038,149.705019 L88.0573269,140.29125 L102.085173,149.707577 C102.089192,149.710135 102.092846,149.712692 102.096865,149.71525 L102.100519,149.717808 C102.11075,149.724385 102.121346,149.729865 102.131942,149.736442 C102.260923,149.821577 102.393558,149.901962 102.530212,149.975404 C102.579538,150.002077 102.630692,150.022904 102.680385,150.047385 C102.778308,150.095981 102.8755,150.144577 102.976712,150.186596 C103.051981,150.218019 103.127981,150.2425 103.203981,150.269904 C103.282173,150.298038 103.358904,150.328365 103.438558,150.352481 C103.537212,150.382808 103.637692,150.405462 103.737442,150.429577 C103.796269,150.443827 103.854365,150.461 103.914288,150.473058 C104.046558,150.499731 104.179192,150.518 104.311462,150.533712 C104.342154,150.537365 104.371385,150.543942 104.402077,150.546865 C104.741885,150.581212 105.082423,150.581212 105.419673,150.546865 C105.455481,150.543212 105.490192,150.535904 105.526,150.531154 C105.652058,150.515442 105.778115,150.498269 105.903077,150.473788 C105.980904,150.458077 106.055808,150.436519 106.132173,150.417154 C106.214385,150.396327 106.296962,150.378423 106.378077,150.353942 C106.454077,150.330923 106.527519,150.302058 106.602058,150.275385 C106.682808,150.246519 106.764288,150.219846 106.843577,150.187327 C106.904596,150.162115 106.963058,150.131788 107.022615,150.10475 C107.113231,150.062731 107.204577,150.021442 107.293365,149.974308 C107.334288,149.952019 107.373019,149.926808 107.412846,149.904154 C107.516615,149.844596 107.620019,149.784673 107.719769,149.717442 C107.740596,149.703192 107.759596,149.687846 107.779692,149.673596 C107.894058,149.594308 108.006596,149.512096 108.115115,149.422942 C108.1195,149.419288 108.123519,149.415269 108.127538,149.411981 C108.491096,149.110538 108.819942,148.754288 109.096538,148.3425 C109.142577,148.273808 109.180212,148.202192 109.222596,148.132404 C109.264981,148.062981 109.309192,147.994654 109.348288,147.923038 C109.395058,147.836442 109.434154,147.748019 109.475442,147.659962 C109.504308,147.598577 109.535365,147.539019 109.561673,147.476538 C109.605154,147.372769 109.640962,147.266808 109.677135,147.160846 C109.693942,147.111519 109.714038,147.064019 109.729019,147.013962 C109.76775,146.888269 109.798077,146.761846 109.826212,146.635423 C109.833885,146.602173 109.843385,146.570385 109.850327,146.537135 C109.882481,146.378923 109.906962,146.219615 109.923038,146.059942 C109.923404,146.055558 109.9245,146.051538 109.925231,146.046788 C109.943865,145.862269 109.953,145.67775 109.951538,145.493596 L109.951538,124.971404 L169.542481,140.578442 C169.964135,140.688788 170.393096,140.742865 170.819865,140.742865 C171.922962,140.742865 173.008885,140.380769 173.900788,139.692385 C175.138346,138.737269 175.862173,137.263308 175.862173,135.700192 L175.862173,117.835808 C175.864365,116.299365 175.163923,114.846596 173.962538,113.890019 Z M82.9094231,170.578346 L88.0580577,168.589192 L93.2066923,170.578346 L93.2066923,171.843308 C93.2066923,174.682346 90.8967308,176.991942 88.0580577,176.991942 C85.2190192,176.991942 82.9094231,174.681981 82.9094231,171.843308 L82.9094231,170.578346 Z M66.1631154,114.545154 L10.3367308,129.166019 L10.3367308,120.265615 L55.499,84.3103077 C56.70075,83.3537308 57.4004615,81.9016923 57.4004615,80.3656154 L57.4004615,61.7825192 C57.4004615,59.3665962 59.3655,57.4015577 61.7814231,57.4015577 C64.1973462,57.4015577 66.1623846,59.3665962 66.1623846,61.7825192 L66.1623846,114.545154 L66.1631154,114.545154 Z M165.77975,129.166019 L109.953365,114.544423 L109.953365,65.3610962 L109.953365,61.7821538 C109.953365,59.3662308 111.918404,57.4011923 114.334327,57.4011923 C116.75025,57.4011923 118.715288,59.3662308 118.715288,61.7821538 L118.715288,80.36525 C118.715288,81.9013269 119.415,83.3533654 120.61675,84.3099423 L165.779019,120.26525 L165.779019,129.166019 L165.77975,129.166019 Z" id="Shape" fill="#28A4C9"></path>
            </g>
        </g>
    </g>
</svg>