<?xml version="1.0" encoding="UTF-8"?>
<svg width="256px" height="256px" viewBox="0 0 256 256" version="1.1" xmlns="http://www.w3.org/2000/svg" xmlns:xlink="http://www.w3.org/1999/xlink">
    <!-- Generator: Sketch 48.2 (47327) - http://www.bohemiancoding.com/sketch -->
    <title>ic_trip</title>
    <desc>Created with Sketch.</desc>
    <defs></defs>
    <g id="Symbols" stroke="none" stroke-width="1" fill="none" fill-rule="evenodd">
        <g id="ic_trip" fill-rule="nonzero">
            <g id="suitcase-copy" transform="translate(36.923077, 34.461538)">
                <g id="Group" transform="translate(30.640643, 44.716528)" fill="#BFE2F7">
                    <rect id="Rectangle-path" x="0.0440239121" y="0.135603779" width="20.6398188" height="134.07142"></rect>
                    <rect id="Rectangle-path" x="98.3571679" y="0.135603779" width="20.6398188" height="134.07142"></rect>
                </g>
                <g id="Group" transform="translate(0.000000, 39.263293)" fill="#28A4C9">
                    <path d="M90.1606199,134.255739 L56.5622745,134.255739 L56.5622745,108.97854 L57.6568851,108.97854 C60.5487278,108.97854 62.8939697,106.558395 62.8939697,103.572567 C62.8939697,100.586739 60.5487278,98.1665929 57.6568851,98.1665929 L56.5622745,98.1665929 L56.5622745,5.59029305 C56.5622745,2.60446507 54.2170327,0.184319345 51.3251899,0.184319345 L51.3248377,0.184319345 L30.6857233,0.184319345 L11.0489454,0.184319345 C4.95638812,0.184319345 0,5.30018094 0,11.5888516 L0,133.663154 C0,139.951461 4.95638812,145.06805 11.0489454,145.06805 L30.6857233,145.06805 L51.3251899,145.06805 L90.1606199,145.06805 C93.0524626,145.06805 95.3977045,142.647904 95.3977045,139.662076 C95.3977045,136.676248 93.053167,134.255739 90.1606199,134.255739 Z M46.0881053,10.9966303 L46.0881053,98.1662294 L35.9231601,98.1662294 L35.9231601,10.9966303 L46.0881053,10.9966303 Z M10.4745214,133.663154 L10.4745214,11.5888516 C10.4745214,11.2623846 10.7323254,10.9962667 11.0489454,10.9962667 L25.4486387,10.9962667 L25.4486387,98.1658658 L24.3540282,98.1658658 C21.4621855,98.1658658 19.1169436,100.586012 19.1169436,103.57184 C19.1169436,106.557668 21.4621855,108.977813 24.3540282,108.977813 L25.4486387,108.977813 L25.4486387,134.255012 L11.0489454,134.255012 C10.7319732,134.255739 10.4745214,133.989621 10.4745214,133.663154 Z M35.9231601,134.255739 L35.9231601,108.97854 L46.0881053,108.97854 L46.0881053,134.255739 L35.9231601,134.255739 Z" id="Shape"></path>
                    <path d="M169.272999,0.184319345 L149.636221,0.184319345 L128.996754,0.184319345 L90.1613243,0.184319345 C87.2694815,0.184319345 84.9242397,2.60446507 84.9242397,5.59029305 C84.9242397,8.57612102 87.2694815,10.9962667 90.1613243,10.9962667 L123.75967,10.9962667 L123.75967,98.1658658 L122.665059,98.1658658 C119.773216,98.1658658 117.427974,100.586012 117.427974,103.57184 C117.427974,106.557668 119.773216,108.977813 122.665059,108.977813 L123.75967,108.977813 L123.75967,139.661349 C123.75967,142.647177 126.104911,145.067323 128.996754,145.067323 L128.997106,145.067323 L149.635869,145.067323 L169.272647,145.067323 C175.365204,145.067323 180.321592,139.951098 180.321592,133.662427 L180.321592,11.5888516 C180.321944,5.30018094 175.365556,0.184319345 169.272999,0.184319345 Z M134.233839,10.9966303 L144.398784,10.9966303 L144.398784,98.1662294 L134.233839,98.1662294 L134.233839,10.9966303 Z M134.233839,134.255739 L134.233839,108.97854 L144.398784,108.97854 L144.398784,134.255739 L134.233839,134.255739 Z M169.847423,133.663154 C169.847423,133.989621 169.589619,134.255739 169.272999,134.255739 L154.873305,134.255739 L154.873305,108.97854 L155.967916,108.97854 C158.859759,108.97854 161.205001,106.558395 161.205001,103.572567 C161.205001,100.586739 158.859759,98.1665929 155.967916,98.1665929 L154.873305,98.1665929 L154.873305,10.9966303 L169.272999,10.9966303 C169.589267,10.9966303 169.847423,11.2627482 169.847423,11.5892152 L169.847423,133.663154 Z" id="Shape"></path>
                </g>
                <rect id="Rectangle-path" fill="#BFE2F7" transform="translate(90.161302, 83.525857) rotate(135.000000) translate(-90.161302, -83.525857) " x="76.1912395" y="73.5112681" width="27.9401242" height="20.0291768"></rect>
                <g id="Group" transform="translate(58.111564, 0.000000)" fill="#28A4C9">
                    <path d="M29.0307764,106.210115 C27.6899842,106.210115 26.3502485,105.682605 25.3274849,104.626495 L11.606112,90.4629895 C9.56093714,88.3518605 9.56093714,84.928683 11.606112,82.8171904 L31.364396,62.4217277 C33.409923,60.3105986 36.7250997,60.3105986 38.7713311,62.4217277 L52.4923519,76.5852334 C54.5375267,78.6963624 54.5375267,82.1195399 52.4923519,84.2310325 L32.7340679,104.626495 C31.7113044,105.682605 30.3712165,106.210115 29.0307764,106.210115 Z M22.7163387,86.6406353 L29.0307764,93.1587054 L41.3821252,80.4090418 L35.0676875,73.8909717 L22.7163387,86.6406353 Z" id="Shape"></path>
                    <path d="M32.0490558,161.301604 C21.9077074,161.301604 13.6569219,152.784741 13.6569219,142.316348 C13.6569219,131.847954 21.9077074,123.331092 32.0490558,123.331092 C34.9408986,123.331092 37.2861404,125.751237 37.2861404,128.737065 C37.2861404,131.722893 34.9408986,134.143039 32.0490558,134.143039 C27.6832925,134.143039 24.1314433,137.809431 24.1314433,142.315984 C24.1314433,146.822538 27.6832925,150.488929 32.0490558,150.488929 C36.4148192,150.488929 39.9666684,146.822538 39.9666684,142.315984 C39.9666684,139.330156 42.3119102,136.91001 45.203753,136.91001 C48.0955957,136.91001 50.4408376,139.330156 50.4408376,142.315984 C50.4411898,152.785105 42.1911086,161.301604 32.0490558,161.301604 Z" id="Shape"></path>
                    <path d="M58.7965761,32.5409079 C55.9047334,32.5409079 53.5594915,30.1207621 53.5594915,27.1349342 L53.5594915,14.5026969 C53.5594915,12.6620483 52.1081112,11.1638628 50.325671,11.1638628 L13.7734972,11.1638628 C11.9907049,11.1638628 10.5396768,12.6620483 10.5396768,14.5026969 L10.5396768,27.1342071 C10.5396768,30.1200351 8.19443491,32.5401808 5.30259217,32.5401808 C2.41074943,32.5401808 0.0655075813,30.1200351 0.0655075813,27.1342071 L0.0655075813,14.5026969 C0.0655075813,6.69948106 6.21511982,0.351551888 13.7738494,0.351551888 L50.3260232,0.351551888 C57.8847528,0.351551888 64.0343651,6.69948106 64.0343651,14.5026969 L64.0343651,27.1342071 C64.0340129,30.1203986 61.688771,32.5409079 58.7965761,32.5409079 Z" id="Shape"></path>
                </g>
            </g>
        </g>
    </g>
</svg>