<?xml version="1.0" encoding="utf-8"?>
<!-- Generator: Adobe Illustrator 15.1.0, SVG Export Plug-In . SVG Version: 6.00 Build 0)  -->
<!DOCTYPE svg PUBLIC "-//W3C//DTD SVG 1.1//EN" "http://www.w3.org/Graphics/SVG/1.1/DTD/svg11.dtd">
<svg version="1.1"
	 id="svgRoot" sodipodi:version="0.32" inkscape:version="0.46" sodipodi:docname="Fubon.svg" inkscape:output_extension="org.inkscape.output.svg.inkscape" xmlns:dc="http://purl.org/dc/elements/1.1/" xmlns:cc="http://creativecommons.org/ns#" xmlns:rdf="http://www.w3.org/1999/02/22-rdf-syntax-ns#" xmlns:svg="http://www.w3.org/2000/svg" xmlns:sodipodi="http://sodipodi.sourceforge.net/DTD/sodipodi-0.dtd" xmlns:inkscape="http://www.inkscape.org/namespaces/inkscape"
	 xmlns="http://www.w3.org/2000/svg" xmlns:xlink="http://www.w3.org/1999/xlink" x="0px" y="0px" width="500px" height="519.487px"
	 viewBox="-224.13 -232.866 500 519.487" enable-background="new -224.13 -232.866 500 519.487" xml:space="preserve">
<sodipodi:namedview  id="base" inkscape:current-layer="svgRoot" inkscape:window-y="0" inkscape:window-x="88" inkscape:window-width="789" inkscape:pageopacity="0.0" inkscape:pageshadow="2" inkscape:window-height="667" pagecolor="#ffffff" bordercolor="#666666" borderopacity="1.0" inkscape:cy="26.995262" objecttolerance="10.0" gridtolerance="10.0" inkscape:cx="128" guidetolerance="10.0" inkscape:zoom="2.7070312" showgrid="false">
	</sodipodi:namedview>
<defs>
	
	
		<inkscape:perspective  id="perspective38" inkscape:vp_z="744.09448 : 526.18109 : 1" inkscape:vp_y="0 : 1000 : 0" inkscape:vp_x="0 : 526.18109 : 1" sodipodi:type="inkscape:persp3d" inkscape:persp3d-origin="372.04724 : 350.78739 : 1">
		</inkscape:perspective>
</defs>
<g>
	<path id="path9" fill="#00A29D" d="M151.813,24.136c0,0,0,1.51,4.351,4.539c27.608,22.31,42.359,43.874,42.17,87.747
		c-0.188,54.84-47.842,94.551-101.737,94.551v75.648c93.985,0,179.273-66.947,179.273-162.451c0-34.229-9.268-67.891-32.53-100.6
		c1.138-1.331,6.055-7.191,10.216-14.562c5.672-10.211,6.805-22.508,6.805-63.541v-178.334H19.438v142.02h-76.776v78.102H97.918
		v-140.123h86.614v120.833C184.532-32.034,188.123,1.817,151.813,24.136"/>
	<path id="path11" fill="#0095B8" d="M-56.583-232.866h-22.503l0,0c-40.849,1.132-83.585,13.995-112.142,46.525
		c-30.067,34.04-32.903,64.484-32.903,114.596c0,34.04,0,358.178,0,358.178H20.576v-140.51h77.531V66.877H-57.337V208.52h-88.879
		V-88.383c0,0-5.865-64.484,71.859-66.192l17.775-0.755V-232.866"/>
	<g id="xfrm1" transform="scale(200,100)">
		<g id="frm2" transform="scale(1e-2,1e-2)">
		</g>
	</g>
</g>
</svg>
