<?xml version="1.0" encoding="UTF-8"?>
<svg width="20px" height="20px" viewBox="0 0 20 20" version="1.1" xmlns="http://www.w3.org/2000/svg" xmlns:xlink="http://www.w3.org/1999/xlink">
    <!-- Generator: sketchtool 48.2 (47327) - http://www.bohemiancoding.com/sketch -->
    <title>A2F987F8-FBE0-493D-B09F-E94A5CA99849</title>
    <desc>Created with sketchtool.</desc>
    <defs></defs>
    <g id="Symbols" stroke="none" stroke-width="1" fill="none" fill-rule="evenodd">
        <g id="ic_delete" fill-rule="nonzero">
            <g id="rubbish" transform="translate(3.000000, 1.000000)">
                <g id="Group" transform="translate(1.578947, 0.280702)" fill="#DC6B60">
                    <path d="M7.20575439,0.0168421053 L4.16266667,0.0168421053 C3.79438596,0.0168421053 3.49582456,0.315368421 3.49582456,0.683684211 L3.49582456,2.7774386 L7.87252632,2.7774386 L7.87252632,0.683684211 C7.87252632,0.315403509 7.574,0.0168421053 7.20575439,0.0168421053 Z" id="Shape"></path>
                    <polygon id="Shape" points="10.5573333 17.3866667 0.811087719 17.3866667 0.0176140351 2.7774386 11.350807 2.7774386"></polygon>
                </g>
                <polygon id="Shape" fill="#000000" opacity="0.1" points="12.9297544 3.05814035 1.59652632 3.05814035 1.72582456 5.43852632 12.8004561 5.43852632"></polygon>
                <g id="Group" transform="translate(0.315789, 1.859649)">
                    <path d="M12.4213333,0.0304210526 L1.47333333,0.0304210526 C0.66677193,0.0304210526 0.012877193,0.684280702 0.012877193,1.49087719 L0.012877193,2.38873684 L13.8817544,2.38873684 L13.8817544,1.49084211 C13.8817895,0.684280702 13.2279298,0.0304210526 12.4213333,0.0304210526 Z" id="Shape" fill="#DC6B60"></path>
                    <path d="M6.94736842,13.5775789 C6.50912281,13.5775789 6.15389474,13.2223509 6.15389474,12.7841053 L6.15389474,5.4122807 C6.15389474,4.97403509 6.50912281,4.61880702 6.94736842,4.61880702 C7.38561404,4.61880702 7.74084211,4.97403509 7.74084211,5.4122807 L7.74084211,12.7841053 C7.74084211,13.2223509 7.38561404,13.5775789 6.94736842,13.5775789 Z" id="Shape" fill="#FFFFFF"></path>
                    <path d="M4.16985965,13.5775789 C3.74147368,13.5775789 3.38870175,13.2362807 3.37708772,12.8054737 L3.17873684,5.43368421 C3.16694737,4.99561404 3.51249123,4.63098246 3.9505614,4.61915789 C4.38929825,4.60705263 4.75326316,4.95291228 4.76508772,5.39098246 L4.9634386,12.7627719 C4.97522807,13.2008421 4.62968421,13.5654737 4.19161404,13.5772982 C4.18431579,13.5774737 4.17701754,13.5775789 4.16985965,13.5775789 Z" id="Shape" fill="#FFFFFF"></path>
                    <path d="M9.72484211,13.5775789 C9.71761404,13.5775789 9.71038596,13.5775088 9.70308772,13.5772982 C9.26501754,13.5654737 8.91947368,13.2008421 8.93126316,12.7627719 L9.12961404,5.39098246 C9.14122807,4.96021053 9.49410526,4.61887719 9.92238596,4.61887719 C9.92961404,4.61887719 9.93684211,4.61894737 9.94414035,4.61915789 C10.3822105,4.63098246 10.7277544,4.99561404 10.7159649,5.43368421 L10.517614,12.8054737 C10.5060351,13.2362105 10.153193,13.5775789 9.72484211,13.5775789 Z" id="Shape" fill="#FFFFFF"></path>
                </g>
                <path d="M8.35417544,14.6437544 L8.35417544,7.27192982 C8.35417544,6.67031579 7.86477193,6.18091228 7.26315789,6.18091228 C6.66154386,6.18091228 6.17214035,6.67031579 6.17214035,7.27192982 L6.17214035,14.6437544 C6.17214035,15.2453684 6.66154386,15.7347719 7.26315789,15.7347719 C7.86477193,15.7347719 8.35417544,15.2453333 8.35417544,14.6437544 Z M6.76722807,14.6437544 L6.76722807,7.27192982 C6.76722807,6.99845614 6.98968421,6.776 7.26315789,6.776 C7.53663158,6.776 7.75908772,6.99845614 7.75908772,7.27192982 L7.75908772,14.6437544 C7.75908772,14.9172281 7.53663158,15.1396842 7.26315789,15.1396842 C6.98968421,15.1396842 6.76722807,14.917193 6.76722807,14.6437544 Z" id="Shape" fill="#9B331D"></path>
                <path d="M4.48564912,15.7347719 C4.49554386,15.7347719 4.50547368,15.7346667 4.51540351,15.734386 C5.11677193,15.7181754 5.59284211,15.2157544 5.57666667,14.6144211 L5.37831579,7.24259649 C5.36224561,6.64726316 4.88361404,6.18091228 4.28866667,6.18091228 C4.2785614,6.18091228 4.26835088,6.18101754 4.25835088,6.18133333 C3.65698246,6.19754386 3.18091228,6.69996491 3.19708772,7.30129825 L3.3954386,14.6731228 C3.4114386,15.2684211 3.89035088,15.7347719 4.48564912,15.7347719 Z M4.27449123,6.77617544 L4.2885614,6.77596491 C4.55873684,6.77596491 4.77607018,6.98796491 4.78336842,7.25859649 L4.9817193,14.630386 C4.98905263,14.9037193 4.77263158,15.1321053 4.49929825,15.1395088 L4.48557895,15.1396842 C4.21512281,15.1396842 3.99750877,14.9277193 3.99021053,14.6570877 L3.79185965,7.28529825 C3.78452632,7.01196491 4.00098246,6.78354386 4.27449123,6.77617544 Z" id="Shape" fill="#9B331D"></path>
                <path d="M10.0406316,15.7347719 C10.6359298,15.7347719 11.114807,15.2684561 11.1308421,14.6731228 L11.329193,7.30133333 C11.3453684,6.7 10.8692982,6.19757895 10.2678246,6.18136842 C10.2578947,6.18112281 10.2480351,6.18101754 10.2381754,6.18101754 C9.64287719,6.18101754 9.164,6.64733333 9.14796491,7.24266667 L8.94961404,14.6144561 C8.9334386,15.2157895 9.40950877,15.7182105 10.0109825,15.7344211 C10.0209474,15.7346316 10.0308421,15.7347719 10.0406316,15.7347719 Z M9.54452632,14.630386 L9.74287719,7.25859649 C9.75017544,6.988 9.96778947,6.776 10.2382456,6.776 L10.2519649,6.77617544 C10.5252982,6.78354386 10.7417193,7.01196491 10.734386,7.28529825 L10.5360351,14.6570877 C10.5287368,14.9276842 10.3111228,15.1396842 10.0406667,15.1396842 L10.0269474,15.1395088 C9.75361404,15.1321404 9.53715789,14.9037193 9.54452632,14.630386 Z" id="Shape" fill="#9B331D"></path>
                <path d="M12.3070175,14.5243158 C12.1422807,14.5145965 12.0027018,14.641193 11.9937544,14.8052982 L11.8544561,17.3698596 L2.67182456,17.3698596 L2.12270175,7.2594386 C2.11382456,7.09540351 1.97407018,6.96922807 1.8094386,6.97845614 C1.64533333,6.98736842 1.51954386,7.12757895 1.52845614,7.2917193 L2.09287719,17.6835439 C2.1014386,17.8413684 2.23192982,17.9649474 2.39,17.9649474 L12.1362807,17.9649474 C12.2943509,17.9649474 12.424807,17.8413684 12.4334035,17.6835439 L12.5879649,14.8375789 C12.5969123,14.6734386 12.4710877,14.5332281 12.3070175,14.5243158 Z" id="Shape" fill="#9B331D"></path>
                <path d="M12.7371228,1.59252632 L9.74901754,1.59252632 L9.74901754,0.964385965 C9.74905263,0.432596491 9.31645614,0 8.78470175,0 L5.74161404,0 C5.20985965,0 4.77722807,0.432596491 4.77722807,0.964385965 L4.77722807,1.59252632 L1.78912281,1.59252632 C0.819754386,1.59252632 0.031122807,2.38115789 0.031122807,3.35052632 L0.031122807,4.24838596 C0.031122807,4.41270175 0.164350877,4.54592982 0.328666667,4.54592982 L1.37933333,4.54592982 L1.46378947,6.10154386 C1.47238596,6.26014035 1.60368421,6.38298246 1.76063158,6.38294737 C1.76607018,6.38294737 1.77154386,6.38284211 1.77701754,6.38252632 C1.94112281,6.37361404 2.06691228,6.23340351 2.058,6.06926316 L1.97529825,4.54592982 L9.48821053,4.54592982 C9.65252632,4.54592982 9.78575439,4.41270175 9.78575439,4.24838596 C9.78575439,4.08407018 9.65252632,3.95084211 9.48821053,3.95084211 L0.626280702,3.95084211 L0.626280702,3.35049123 C0.626280702,2.70926316 1.14792982,2.18757895 1.78919298,2.18757895 L5.07484211,2.18757895 L9.45154386,2.18757895 L12.737193,2.18757895 C13.3784211,2.18757895 13.9001053,2.70922807 13.9001053,3.35049123 L13.9001053,3.95077193 L10.6785263,3.95077193 C10.5142105,3.95077193 10.3809825,4.084 10.3809825,4.24831579 C10.3809825,4.41263158 10.5142105,4.54585965 10.6785263,4.54585965 L12.5510175,4.54585965 L12.0584912,13.6150526 C12.0495789,13.7791228 12.1753684,13.9193684 12.3394737,13.9283158 C12.3449825,13.9286316 12.3504211,13.9287368 12.3558947,13.9287368 C12.5128421,13.9287368 12.6441053,13.8058947 12.6527368,13.6473333 L13.1470175,4.54582456 L14.1976842,4.54582456 C14.362,4.54582456 14.4952281,4.41259649 14.4952281,4.2482807 L14.4952281,3.35049123 C14.4951228,2.38115789 13.7065263,1.59252632 12.7371228,1.59252632 Z M5.37235088,1.59252632 L5.37235088,0.964385965 C5.37235088,0.76077193 5.538,0.595122807 5.74161404,0.595122807 L8.78470175,0.595122807 C8.98831579,0.595122807 9.15396491,0.76077193 9.15396491,0.964385965 L9.15396491,1.59252632 L5.37235088,1.59252632 Z" id="Shape" fill="#9B331D"></path>
            </g>
        </g>
    </g>
</svg>