<?xml version="1.0" encoding="UTF-8"?>
<svg width="256px" height="256px" viewBox="0 0 256 256" version="1.1" xmlns="http://www.w3.org/2000/svg" xmlns:xlink="http://www.w3.org/1999/xlink">
    <!-- Generator: Sketch 48.2 (47327) - http://www.bohemiancoding.com/sketch -->
    <title>ic_house</title>
    <desc>Created with Sketch.</desc>
    <defs></defs>
    <g id="Symbols" stroke="none" stroke-width="1" fill="none" fill-rule="evenodd">
        <g id="ic_house" fill-rule="nonzero">
            <g id="church-copy" transform="translate(35.000000, 50.000000)">
                <g id="Group" transform="translate(27.134343, 8.476526)" fill="#BFE2F7">
                    <rect id="Rectangle-path" x="97.2191366" y="77.9007465" width="53.1029797" height="64.8244155"></rect>
                    <rect id="Rectangle-path" x="33.1003278" y="91.7038474" width="34.7251751" height="49.8961479"></rect>
                    <polygon id="Shape" points="18.4117226 19.7613615 0.10389597 33.6857136 0.10389597 0.0460680751 18.4117226 0.0460680751"></polygon>
                </g>
                <path d="M177.45753,80.8649507 L129.826048,80.8649507 L129.826048,72.1341291 C129.826048,69.0884765 127.434298,66.6195962 124.483795,66.6195962 C121.533293,66.6195962 119.141543,69.0884765 119.141543,72.1341291 L119.141543,85.1813451 C119.058712,85.5672113 119.011227,85.9678192 119.011227,86.3794836 L119.011227,145.687155 L100.304954,145.687155 L100.304954,100.180373 C100.304954,97.1347207 97.9132045,94.6658404 94.9627018,94.6658404 L60.2375267,94.6658404 C57.287024,94.6658404 54.8952745,97.1347207 54.8952745,100.180373 L54.8952745,145.687155 L32.5808479,145.687155 L32.5808479,45.2008897 L75.8611956,12.6233897 L143.231841,63.3336526 C144.181543,64.0482606 145.28334,64.3924812 146.375141,64.3924812 C148.023909,64.3924812 149.650541,63.6071127 150.695928,62.1270376 C152.434311,59.6658967 151.910903,56.2163192 149.527009,54.4218756 L79.0084223,1.34260798 C77.1325824,-0.069286385 74.5890948,-0.069286385 72.7136118,1.34260798 L50.8879605,17.7704836 L50.8879605,8.52296244 C50.8879605,5.47730986 48.496211,3.00842958 45.5457083,3.00842958 L27.2382387,3.00842958 C24.2877359,3.00842958 21.8959864,5.47730986 21.8959864,8.52296244 L21.8959864,39.5927465 L2.19502551,54.421507 C-0.189226337,56.2159507 -0.712276495,59.6655282 1.02610659,62.126669 C2.76448968,64.5874413 6.1062982,65.1277277 8.49055004,63.333284 L21.8959864,53.2425329 L21.8959864,151.201319 C21.8959864,154.246972 24.2877359,156.715852 27.2382387,156.715852 L124.353479,156.715852 L124.483795,156.715852 L177.457173,156.715852 C180.407676,156.715852 182.799425,154.246972 182.799425,151.201319 L182.799425,86.3794836 C182.799782,83.333831 180.408033,80.8649507 177.45753,80.8649507 Z M65.5797789,105.695643 L89.6204495,105.695643 L89.6204495,145.686418 L65.5797789,145.686418 L65.5797789,105.695643 L65.5797789,105.695643 Z M32.5808479,14.0374953 L40.2038131,14.0374953 L40.2038131,25.4509531 L32.5808479,31.2488967 L32.5808479,14.0374953 Z M172.114921,145.687155 L129.826048,145.687155 L129.826048,91.894385 L172.114921,91.894385 L172.114921,145.687155 Z" id="Shape" fill="#28A4C9"></path>
            </g>
        </g>
    </g>
</svg>