<?xml version="1.0" encoding="UTF-8"?>
<svg width="256px" height="256px" viewBox="0 0 256 256" version="1.1" xmlns="http://www.w3.org/2000/svg" xmlns:xlink="http://www.w3.org/1999/xlink">
    <!-- Generator: Sketch 48.2 (47327) - http://www.bohemiancoding.com/sketch -->
    <title>ic_marry</title>
    <desc>Created with Sketch.</desc>
    <defs></defs>
    <g id="Symbols" stroke="none" stroke-width="1" fill="none" fill-rule="evenodd">
        <g id="ic_marry" fill-rule="nonzero">
            <g id="wedding-rings-copy" transform="translate(38.384615, 54.153846)">
                <g id="Group" transform="translate(0.000000, 37.072173)" fill="#28A4C9">
                    <path d="M54.724131,113.148054 C24.549047,113.148054 0,87.8069545 0,56.6591419 C0,25.5113292 24.549047,0.170229365 54.724131,0.170229365 C69.3411264,0.170229365 83.0833596,6.04616876 93.4196268,16.7150105 C95.4150523,18.7747858 95.4150523,22.1150643 93.4196268,24.1748396 C91.4242013,26.2346149 88.1882772,26.2353715 86.1928518,24.1748396 C77.7871449,15.4980597 66.6112964,10.7199106 54.724131,10.7199106 C30.1846122,10.7199106 10.2204629,31.3278775 10.2204629,56.6587636 C10.2204629,81.9896497 30.1846122,102.597617 54.724131,102.597617 C79.2636498,102.597617 99.2277991,81.9896497 99.2277991,56.6587636 C99.2277991,53.7455717 101.516034,51.383923 104.337847,51.383923 C107.159661,51.383923 109.447896,53.7455717 109.447896,56.6587636 C109.448262,87.8069545 84.8988486,113.148054 54.724131,113.148054 Z" id="Shape"></path>
                    <path d="M54.724131,91.3950113 C45.7357379,91.3950113 37.2856883,87.7816093 30.9296444,81.2213478 C28.9342189,79.1615725 28.9342189,75.8212941 30.9296444,73.7611405 C32.9250698,71.7013652 36.1609939,71.7013652 38.1567859,73.7611405 C42.5822694,78.3293401 48.4659344,80.8453301 54.7237645,80.8453301 C67.6432741,80.8453301 78.1543472,69.9952886 78.1543472,56.6591419 C78.1543472,43.3229951 67.6432741,32.4729537 54.7237645,32.4729537 C41.804255,32.4729537 31.2931819,43.3226168 31.2931819,56.6591419 C31.2931819,59.5723338 29.005314,61.9339825 26.1831337,61.9339825 C23.3609534,61.9339825 21.0730855,59.5723338 21.0730855,56.6591419 C21.0730855,37.5056903 36.1690563,21.9232725 54.7237645,21.9232725 C73.2792058,21.9232725 88.3744436,37.5060686 88.3744436,56.6591419 C88.3744436,75.8122152 73.2788393,91.3950113 54.724131,91.3950113 Z" id="Shape"></path>
                    <path d="M132.908162,113.148054 C118.291167,113.148054 104.548934,107.272115 94.2130329,96.6036515 C92.2176074,94.5438762 92.2168745,91.2035978 94.2130329,89.1438225 C96.2091913,87.0840472 99.4436495,87.0832906 101.440174,89.1438225 C109.845515,97.8202241 121.021363,102.598751 132.908529,102.598751 C157.448047,102.598751 177.412197,81.9907846 177.412197,56.6598985 C177.412197,31.3290124 157.448047,10.7206671 132.908895,10.7206671 C108.369743,10.7206671 88.4052271,31.3286341 88.4052271,56.6595202 C88.4052271,59.572712 86.1173591,61.9343608 83.2951788,61.9343608 C80.4729986,61.9343608 78.1851306,59.572712 78.1851306,56.6595202 C78.1851306,25.5113292 102.734911,0.170607653 132.909262,0.170607653 C163.083613,0.170607653 187.633393,25.5113292 187.633393,56.6595202 C187.633393,87.8077111 163.083246,113.148054 132.908162,113.148054 Z" id="Shape"></path>
                    <path d="M132.908162,91.3950113 C114.352721,91.3950113 99.2574831,75.8122152 99.2574831,56.6591419 C99.2574831,37.5060686 114.352721,21.9232725 132.908162,21.9232725 C141.896922,21.9232725 150.346971,25.5366745 156.702649,32.0969359 C158.698074,34.1567113 158.698074,37.4969897 156.702649,39.556765 C154.70649,41.6172969 151.472032,41.6165403 149.475507,39.556765 C145.050757,34.9885654 139.166725,32.4729537 132.908529,32.4729537 C119.989019,32.4729537 109.477946,43.3226168 109.477946,56.6591419 C109.477946,69.9956669 119.988653,80.8453301 132.908529,80.8453301 C145.828405,80.8453301 156.339111,69.9952886 156.339111,56.6591419 C156.339111,53.74595 158.627346,51.3843013 161.44916,51.3843013 C164.270973,51.3843013 166.559208,53.74595 166.559208,56.6591419 C166.559208,75.8122152 151.463237,91.3950113 132.908162,91.3950113 Z" id="Shape"></path>
                </g>
                <path d="M67.9104302,5.61378617 C62.9546655,5.61378617 58.4672487,7.71441654 55.2097029,11.1076552 C51.9521571,7.71441654 47.4647402,5.61378617 42.5089756,5.61378617 C32.5721599,5.61378617 24.5175306,14.0473272 24.5175306,24.4449368 C24.5175306,25.8302256 24.6703483,27.245399 24.9514303,28.6685165 C27.6086994,42.0814556 42.0574853,56.8346673 55.2097029,63.2156205 C68.3615539,56.8346673 82.8107064,42.0814556 85.4679754,28.6685165 C85.7490574,27.245399 85.9018751,25.8302256 85.9018751,24.4449368 C85.9011422,14.0473272 77.8468794,5.61378617 67.9104302,5.61378617 Z" id="Shape" fill="#BFE2F7"></path>
                <path d="M55.2093364,68.490461 C54.4665031,68.490461 53.7244027,68.3236363 53.0354404,67.9892301 C39.3536747,61.3506632 23.1062573,45.6842656 19.9447264,29.7246952 C19.5881518,27.919129 19.4071159,26.1430693 19.4071159,24.4445585 C19.4071159,11.1522931 29.7705019,0.338567293 42.5086091,0.338567293 C47.0887427,0.338567293 51.468784,1.72309946 55.2093364,4.30150691 C58.9498888,1.72272117 63.3299301,0.338567293 67.9100637,0.338567293 C80.6481709,0.338567293 91.0115569,11.1522931 91.0115569,24.4445585 C91.0115569,26.1442042 90.830521,27.9195073 90.4750458,29.7220471 C87.312782,45.6838873 71.0657311,61.3506632 57.3835989,67.9892301 C56.6946366,68.323258 55.9521697,68.490461 55.2093364,68.490461 Z M42.5086091,10.8886268 C35.4060671,10.8886268 29.6275789,16.9699763 29.6275789,24.4445585 C29.6275789,25.4364283 29.7389855,26.5028207 29.9581342,27.613851 C32.1800377,38.8300748 44.3537821,51.2571967 55.2089699,57.3075266 C66.0637913,51.257575 78.2379022,38.8300748 80.4609051,27.6115813 C80.6796873,26.5039556 80.7910939,25.4379415 80.7910939,24.4449368 C80.7910939,16.9703546 75.0126057,10.8890051 67.9100637,10.8890051 C64.4949361,10.8890051 61.2736708,12.2852641 58.839215,14.8209251 C57.8794319,15.8203606 56.5729688,16.3824958 55.2093364,16.3824958 L55.2093364,16.3824958 C53.8460705,16.3824958 52.5392409,15.8203606 51.5794578,14.8205468 C49.1453685,12.2848858 45.9237367,10.8886268 42.5086091,10.8886268 Z" id="Shape" fill="#28A4C9"></path>
            </g>
        </g>
    </g>
</svg>