<svg id="圖層_1" data-name="圖層 1" xmlns="http://www.w3.org/2000/svg" xmlns:xlink="http://www.w3.org/1999/xlink" viewBox="0 0 88 88"><defs><style>.cls-1,.cls-10,.cls-11,.cls-17,.cls-19,.cls-20,.cls-24,.cls-3,.cls-30,.cls-34,.cls-35,.cls-36,.cls-37,.cls-38,.cls-39,.cls-4,.cls-40{stroke:#000;}.cls-1,.cls-10,.cls-11,.cls-17,.cls-19,.cls-20,.cls-3,.cls-30,.cls-34,.cls-35,.cls-36,.cls-37,.cls-38,.cls-39,.cls-4,.cls-40{stroke-linecap:round;}.cls-1{stroke-width:0.96px;fill:url(#linear-gradient);}.cls-2{fill:#b5001f;}.cls-10,.cls-11,.cls-17,.cls-19,.cls-20,.cls-3,.cls-30,.cls-35,.cls-36,.cls-37,.cls-38,.cls-39,.cls-4,.cls-40{stroke-width:0.88px;}.cls-3{fill:url(#linear-gradient-2);}.cls-4{fill:url(#linear-gradient-3);}.cls-5{fill:url(#linear-gradient-4);}.cls-6{fill:url(#linear-gradient-5);}.cls-7{fill:url(#linear-gradient-6);}.cls-8{fill:url(#linear-gradient-7);}.cls-9{fill:url(#linear-gradient-8);}.cls-10{fill:url(#linear-gradient-9);}.cls-11{fill:url(#linear-gradient-10);}.cls-12{fill:url(#linear-gradient-11);}.cls-13{fill:url(#linear-gradient-12);}.cls-14{fill:url(#linear-gradient-13);}.cls-15{fill:url(#linear-gradient-14);}.cls-16{fill:url(#linear-gradient-15);}.cls-17{fill:#ffe0ca;}.cls-18{fill:#f8ba96;}.cls-19{fill:none;}.cls-20{fill:url(#linear-gradient-16);}.cls-21{fill:url(#radial-gradient);}.cls-22{fill:url(#radial-gradient-2);}.cls-23{fill:#171717;}.cls-24,.cls-35,.cls-36,.cls-37,.cls-38,.cls-39,.cls-40{stroke-linejoin:round;}.cls-24{stroke-width:0.91px;fill:url(#linear-gradient-17);}.cls-25{fill:url(#linear-gradient-18);}.cls-26{fill:url(#linear-gradient-19);}.cls-27{fill:#00a8a0;}.cls-28{fill:#0093c1;}.cls-29,.cls-37{fill:#fff;}.cls-30{fill:#ff8678;}.cls-31{stroke:#fff014;stroke-miterlimit:10;stroke-width:1.13px;}.cls-32{fill:url(#linear-gradient-20);}.cls-33{fill:url(#linear-gradient-21);}.cls-34{stroke-width:0.7px;fill:url(#linear-gradient-22);}.cls-35{fill:url(#linear-gradient-23);}.cls-36{fill:url(#linear-gradient-24);}.cls-38{fill:#38adf2;}.cls-39{fill:url(#linear-gradient-25);}.cls-40{fill:url(#linear-gradient-26);}</style><linearGradient id="linear-gradient" x1="45.64" y1="54.88" x2="45.64" y2="72.68" gradientUnits="userSpaceOnUse"><stop offset="0" stop-color="#f70033"/><stop offset="1" stop-color="#b5001f"/></linearGradient><linearGradient id="linear-gradient-2" x1="245.31" y1="328.03" x2="256.79" y2="328.03" gradientTransform="matrix(0, -1, -1, 0, 400.88, 285.84)" gradientUnits="userSpaceOnUse"><stop offset="0" stop-color="#fff014"/><stop offset="1" stop-color="#df8800"/></linearGradient><linearGradient id="linear-gradient-3" x1="242.49" y1="314.84" x2="242.49" y2="338.28" gradientTransform="matrix(-0.98, -0.21, -0.21, 0.98, 387.31, -231.04)" xlink:href="#linear-gradient-2"/><linearGradient id="linear-gradient-4" x1="242.49" y1="332.49" x2="242.49" y2="313.1" gradientTransform="matrix(-0.98, -0.21, -0.21, 0.98, 387.31, -231.04)" xlink:href="#linear-gradient-2"/><linearGradient id="linear-gradient-5" x1="240.04" y1="315.65" x2="240.04" y2="324.51" gradientTransform="matrix(-0.98, -0.21, -0.21, 0.98, 387.31, -231.04)" xlink:href="#linear-gradient-2"/><linearGradient id="linear-gradient-6" x1="244.94" y1="315.65" x2="244.94" y2="324.51" gradientTransform="matrix(-0.98, -0.21, -0.21, 0.98, 387.31, -231.04)" xlink:href="#linear-gradient-2"/><linearGradient id="linear-gradient-7" x1="240.04" y1="315.65" x2="240.04" y2="324.51" gradientTransform="matrix(-0.98, -0.21, -0.21, 0.98, 387.31, -231.04)" xlink:href="#linear-gradient-2"/><linearGradient id="linear-gradient-8" x1="244.94" y1="315.65" x2="244.94" y2="324.51" gradientTransform="matrix(-0.98, -0.21, -0.21, 0.98, 387.31, -231.04)" xlink:href="#linear-gradient-2"/><linearGradient id="linear-gradient-9" x1="-782.59" y1="608.17" x2="-771.12" y2="608.17" gradientTransform="translate(793.16 -572.5)" xlink:href="#linear-gradient-2"/><linearGradient id="linear-gradient-10" x1="-785.41" y1="594.98" x2="-785.41" y2="618.42" gradientTransform="matrix(0.98, -0.19, 0.19, 0.98, 661.16, -711.2)" xlink:href="#linear-gradient-2"/><linearGradient id="linear-gradient-11" x1="-785.41" y1="612.63" x2="-785.41" y2="593.24" gradientTransform="matrix(0.98, -0.19, 0.19, 0.98, 661.16, -711.2)" xlink:href="#linear-gradient-2"/><linearGradient id="linear-gradient-12" x1="-787.86" y1="595.79" x2="-787.86" y2="604.65" gradientTransform="matrix(0.98, -0.19, 0.19, 0.98, 661.16, -711.2)" xlink:href="#linear-gradient-2"/><linearGradient id="linear-gradient-13" x1="-782.96" y1="595.79" x2="-782.96" y2="604.65" gradientTransform="matrix(0.98, -0.19, 0.19, 0.98, 661.16, -711.2)" xlink:href="#linear-gradient-2"/><linearGradient id="linear-gradient-14" x1="-787.86" y1="595.79" x2="-787.86" y2="604.65" gradientTransform="matrix(0.98, -0.19, 0.19, 0.98, 661.16, -711.2)" xlink:href="#linear-gradient-2"/><linearGradient id="linear-gradient-15" x1="-782.96" y1="595.79" x2="-782.96" y2="604.65" gradientTransform="matrix(0.98, -0.19, 0.19, 0.98, 661.16, -711.2)" xlink:href="#linear-gradient-2"/><linearGradient id="linear-gradient-16" x1="58.55" y1="127.63" x2="60.82" y2="139.4" gradientTransform="translate(10.43 -86.41) rotate(10.36)" gradientUnits="userSpaceOnUse"><stop offset="0" stop-color="#ffe0ca"/><stop offset="1" stop-color="#f8c4ab"/></linearGradient><radialGradient id="radial-gradient" cx="904.41" cy="730.28" r="12.12" gradientTransform="matrix(-0.54, 0, 0, 0.4, 520.79, -240.24)" gradientUnits="userSpaceOnUse"><stop offset="0" stop-color="#fb7260"/><stop offset="1" stop-color="#ffe0ca" stop-opacity="0"/></radialGradient><radialGradient id="radial-gradient-2" cx="851.71" cy="730.28" r="12.12" xlink:href="#radial-gradient"/><linearGradient id="linear-gradient-17" x1="44.85" y1="4.58" x2="44.85" y2="37.27" gradientUnits="userSpaceOnUse"><stop offset="0" stop-color="#fff"/><stop offset="0.96" stop-color="#171717"/><stop offset="1"/></linearGradient><linearGradient id="linear-gradient-18" x1="44.85" y1="2.04" x2="44.85" y2="30.58" xlink:href="#linear-gradient-17"/><linearGradient id="linear-gradient-19" x1="-74.84" y1="61.44" x2="-73.83" y2="81.19" gradientTransform="translate(118.17 -50.24) rotate(-0.96)" xlink:href="#linear-gradient-17"/><linearGradient id="linear-gradient-20" x1="102.23" y1="107.35" x2="102.23" y2="112.06" gradientTransform="translate(-55.82 -39.87) rotate(-0.07)" xlink:href="#linear-gradient-2"/><linearGradient id="linear-gradient-21" x1="102.23" y1="109.52" x2="102.23" y2="113" gradientTransform="translate(-55.82 -39.87) rotate(-0.07)" xlink:href="#linear-gradient-2"/><linearGradient id="linear-gradient-22" x1="108.96" y1="110.32" x2="108.96" y2="122.17" gradientTransform="matrix(1, -0.02, 0.02, 1, -65.77, -37.48)" xlink:href="#linear-gradient-2"/><linearGradient id="linear-gradient-23" x1="-287.92" y1="110.3" x2="-287.92" y2="116.73" gradientTransform="translate(346.93 109.53) rotate(30.11)" xlink:href="#linear-gradient-16"/><linearGradient id="linear-gradient-24" x1="-201.27" y1="68.27" x2="-201.27" y2="77.66" gradientTransform="translate(244.78 46.06) rotate(14.73)" xlink:href="#linear-gradient"/><linearGradient id="linear-gradient-25" x1="-206.15" y1="62.89" x2="-206.15" y2="69.32" gradientTransform="matrix(-0.87, 0.5, 0.5, 0.87, -161.21, 109.53)" xlink:href="#linear-gradient-16"/><linearGradient id="linear-gradient-26" x1="-109.8" y1="44.09" x2="-109.8" y2="53.62" gradientTransform="matrix(-0.97, 0.25, 0.25, 0.97, -59.06, 46.06)" xlink:href="#linear-gradient"/></defs><title>money11</title><path class="cls-1" d="M66.85,76.91c0-10.61-3.22-25.72-21.21-25.72S24.42,66.3,24.42,76.91"/><path class="cls-2" d="M47.78,51c-5.59.52-15.09,4.93-18.61,8.87C35,63,38.78,64,46,64c6.86,0,12.47-1,16.41-3.86C57.34,53.61,51.86,50.57,47.78,51Z"/><rect class="cls-3" x="70.46" y="28.33" width="4.8" height="15" transform="translate(22.25 99.33) rotate(-77.63)"/><path class="cls-4" d="M73.78,36a6.56,6.56,0,1,0,7.81-5A6.57,6.57,0,0,0,73.78,36Z"/><path class="cls-5" d="M76.06,36.54a4.22,4.22,0,1,0,5-3.23A4.22,4.22,0,0,0,76.06,36.54Z"/><path class="cls-6" d="M81.78,33.56v0a4.22,4.22,0,0,1,2.61,4.17A3.5,3.5,0,0,1,81.78,33.56Z"/><path class="cls-7" d="M76.25,35.92a4.23,4.23,0,0,1,4.11-2.7v0A3.49,3.49,0,0,1,76.25,35.92Z"/><path class="cls-8" d="M84.12,39A4.21,4.21,0,0,1,80,41.66v0A3.49,3.49,0,0,1,84.12,39Z"/><path class="cls-9" d="M76,37.17a3.5,3.5,0,0,1,2.62,4.15v0A4.22,4.22,0,0,1,76,37.17Z"/><rect class="cls-10" x="7.67" y="33.33" width="15" height="4.8" transform="translate(-6.61 3.6) rotate(-11.13)"/><path class="cls-11" d="M14.25,35.91a6.56,6.56,0,1,1-7.7-5.16A6.56,6.56,0,0,1,14.25,35.91Z"/><path class="cls-12" d="M12,36.36A4.22,4.22,0,1,1,7,33,4.22,4.22,0,0,1,12,36.36Z"/><path class="cls-13" d="M6.3,33.26v0a4.22,4.22,0,0,0-2.7,4.12A3.5,3.5,0,0,0,6.3,33.26Z"/><path class="cls-14" d="M11.79,35.75A4.23,4.23,0,0,0,7.73,33v0A3.5,3.5,0,0,0,11.79,35.75Z"/><path class="cls-15" d="M3.85,38.61A4.22,4.22,0,0,0,7.9,41.4v0A3.5,3.5,0,0,0,3.85,38.61Z"/><path class="cls-16" d="M12,37a3.5,3.5,0,0,0-2.7,4.09v0A4.22,4.22,0,0,0,12,37Z"/><path class="cls-17" d="M59.4,43.83c-.17,3.83,2.12,7,7.8,7.3s8.26-2.75,8.43-6.57-3.32-7.1-7.81-7.3S59.57,40,59.4,43.83Z"/><path class="cls-18" d="M67.87,37.52c-2.57-1-8.39,4.39-8.47,6.31-.17,3.83,2.12,7,7.8,7.3s8.26-2.75,8.43-6.57c-2.13,3.1-3.46,3.64-5.68,4C71,45.64,70.43,38.56,67.87,37.52Z"/><path class="cls-19" d="M59.4,43.83c-.17,3.83,2.12,7,7.8,7.3s8.26-2.75,8.43-6.57-3.32-7.1-7.81-7.3S59.57,40,59.4,43.83Z"/><path class="cls-17" d="M29.74,42.51c-.17,3.83-2.74,6.82-8.43,6.57s-8-3.47-7.8-7.29,3.94-6.77,8.42-6.57S29.91,38.68,29.74,42.51Z"/><path class="cls-18" d="M22.1,37.65c2.18-2,7.74,2.6,7.64,4.86-.17,3.83-2.74,6.82-8.43,6.57s-8-3.47-7.8-7.29c1.4,3.25,3.6,4.49,6,4.81A9.81,9.81,0,0,1,22.1,37.65Z"/><path class="cls-19" d="M29.74,42.51c-.17,3.83-2.74,6.82-8.43,6.57s-8-3.47-7.8-7.29,3.94-6.77,8.42-6.57S29.91,38.68,29.74,42.51Z"/><path class="cls-20" d="M21.7,39.65c-1,11,5.18,20.55,21.49,22.05s24.14-6.78,25.15-17.77S59.73,23.05,46.85,21.87,22.71,28.65,21.7,39.65Z"/><path class="cls-18" d="M25.69,30.78a18.18,18.18,0,0,0-4,10.89C35.08,36,54.65,35.4,68.4,39.44a17.93,17.93,0,0,0-3.77-8.95Z"/><path class="cls-18" d="M21.7,39.65c-1,11,5.18,20.55,21.49,22.05s24.14-6.78,25.15-17.77c-2.1,9.14-12.91,15.37-25.8,14.26C27.65,56.92,23.27,49,21.7,39.65Z"/><path class="cls-21" d="M24.31,51.29c0,2.67,2.94,4.84,6.56,4.84s6.57-2.17,6.57-4.84-2.94-4.84-6.57-4.84S24.31,48.62,24.31,51.29Z"/><path class="cls-22" d="M52.86,51.29c0,2.67,2.94,4.84,6.56,4.84S66,54,66,51.29s-2.94-4.84-6.57-4.84S52.86,48.62,52.86,51.29Z"/><path class="cls-19" d="M21.7,39.65c-1,11,5.18,20.55,21.49,22.05s24.14-6.78,25.15-17.77S59.73,23.05,46.85,21.87,22.71,28.65,21.7,39.65Z"/><path class="cls-23" d="M45.18,11.09c-8.48.09-17.77,5-17.59,19.44l17.79.31,15.74.05C61,16.49,54,11,45.18,11.09Z"/><path class="cls-24" d="M44.85,16.87c-15.68,0-22.88,9.85-23.71,21.49,0,0,2.17-7.57,23.71-7.57s23.7,7.57,23.7,7.57C67.73,26.72,60.19,16.87,44.85,16.87Z"/><path class="cls-25" d="M44.85,19.59c-12,.3-22.88,7.13-23.71,18.77,0,0,2.17-7.57,23.71-7.57s23.7,7.57,23.7,7.57C67.73,26.72,56.87,19.89,44.85,19.59Z"/><path class="cls-26" d="M50.53,19.5c0,1.06-2.51,2-5.65,2s-5.69-.77-5.71-1.83,2.51-2,5.65-2S50.51,18.44,50.53,19.5Z"/><path class="cls-27" d="M46.43,25.73h0l0,.05a1.16,1.16,0,0,1-.66,2.11v.88a1.91,1.91,0,0,0,1.66-3.06,1.27,1.27,0,0,0,.11-.18c.07-.11.08-.26.07-.73l0-2.06-2.78,0,0,1.65H44v.9l1.8,0,0-1.62,1,0,0,1.4a.75.75,0,0,1-.37.66"/><path class="cls-28" d="M44,22.79h-.26a1.76,1.76,0,0,0-1.29.56,1.71,1.71,0,0,0-.36,1.33l0,4.14,2.83,0,0-1.62.9,0,0-.91-1.79,0,0,1.64-1,0,0-3.44s-.07-.74.82-.78H44Z"/><path class="cls-23" d="M44.18,42.51a8,8,0,1,1-8.12-8A8,8,0,0,1,44.18,42.51Z"/><path class="cls-29" d="M36.31,40.7a2.56,2.56,0,1,1-2.39-2.81A2.63,2.63,0,0,1,36.31,40.7Z"/><path class="cls-29" d="M35.56,46.14a1.74,1.74,0,1,1-1.62-1.92A1.78,1.78,0,0,1,35.56,46.14Z"/><path class="cls-29" d="M41.58,44.39a2.64,2.64,0,1,1-2.47-2.91A2.7,2.7,0,0,1,41.58,44.39Z"/><path class="cls-23" d="M61.8,42.34a8,8,0,1,1-8.12-8A8,8,0,0,1,61.8,42.34Z"/><path class="cls-29" d="M53.92,40.53a2.55,2.55,0,1,1-2.39-2.82A2.6,2.6,0,0,1,53.92,40.53Z"/><path class="cls-29" d="M53.18,46a1.73,1.73,0,1,1-1.62-1.91A1.77,1.77,0,0,1,53.18,46Z"/><path class="cls-29" d="M59.2,44.22a2.64,2.64,0,1,1-2.47-2.92A2.71,2.71,0,0,1,59.2,44.22Z"/><path class="cls-19" d="M30.88,34.23c3-.13,7.13-.36,7.31-2.52"/><path class="cls-19" d="M58,34c-3-.07-7.14-.22-7.35-2.37"/><path class="cls-30" d="M47.65,54.62c-.83,0-2.07.06-2.07.06l-2.08,0c-.83,0-.09,2.15,2.1,2.15S48.49,54.61,47.65,54.62Z"/><path class="cls-31" d="M56,74.27l-19.57,0a9.79,9.79,0,1,1,19.57,0Z"/><path class="cls-32" d="M48.59,69.46a2,2,0,1,1-2.05-2A2,2,0,0,1,48.59,69.46Z"/><path class="cls-33" d="M50.31,68.1c-1.42-.52-1.84,1.36-3.77,1.36s-2.35-1.88-3.77-1.35c-2.5.92-.46,4.56,3.78,4.55S52.82,69,50.31,68.1Z"/><path class="cls-34" d="M66.54,71.73c.42.32.6,2.25.66,2.71-2.68.85-34.81.75-43.42.15,0,0,.44-3,.44-3.16C33.4,72.39,66.54,71.73,66.54,71.73Z"/><path class="cls-35" d="M38.94,60.62c1-1.13,6.46-2.56,6.61-.09.1,1.63-2,1.06-2.93,1.69,1.48,1.62.44,3.92-.33,4.64C40.19,68.8,37.45,62.32,38.94,60.62Z"/><path class="cls-36" d="M28.15,57.08c-2.86-3.5-8.88,2.83-5.42,7.72,3.87,5.47,12.61,8.41,19.56,2.06a57.15,57.15,0,0,0-3.18-6.36C37.88,61.43,33.22,63.29,28.15,57.08Z"/><path class="cls-37" d="M38.81,60a6.3,6.3,0,0,1-1.47.71l2.39,8a18,18,0,0,0,3-1.25C41.82,65.26,38.81,60,38.81,60Z"/><path class="cls-38" d="M35.75,61.5l1,8.38a12,12,0,0,0,3-1.17l-2.39-8C36.82,60.85,36.43,61.47,35.75,61.5Z"/><path class="cls-39" d="M52.26,60.62c-1-1.13-6.46-2.56-6.61-.09-.1,1.63,2,1.06,2.93,1.69-1.48,1.62-.45,3.92.32,4.64C51,68.8,53.74,62.32,52.26,60.62Z"/><path class="cls-40" d="M63,57.08c2.26-3.91,8.88,2.83,5.42,7.72-3.87,5.47-12.61,8.41-19.56,2.06a59.1,59.1,0,0,1,3.18-6.36C53.31,61.43,59.23,63.71,63,57.08Z"/><path class="cls-37" d="M52.38,60a6.3,6.3,0,0,0,1.47.71l-2.38,8a17.25,17.25,0,0,1-2.95-1.25C49.37,65.26,52.38,60,52.38,60Z"/><path class="cls-38" d="M55.44,61.5l-1,8.38a11.89,11.89,0,0,1-3-1.17l2.38-8C54.38,60.85,54.77,61.47,55.44,61.5Z"/></svg>