<svg id="圖層_1" data-name="圖層 1" xmlns="http://www.w3.org/2000/svg" xmlns:xlink="http://www.w3.org/1999/xlink" viewBox="0 0 88 88"><defs><style>.cls-1,.cls-31,.cls-4,.cls-40{fill:#fff;}.cls-2{fill:url(#radial-gradient);}.cls-3,.cls-8{fill:#f70033;}.cls-10,.cls-11,.cls-12,.cls-18,.cls-19,.cls-25,.cls-27,.cls-28,.cls-3,.cls-30,.cls-31,.cls-32,.cls-33,.cls-4,.cls-40,.cls-41,.cls-7,.cls-8{stroke:#000;stroke-linecap:round;}.cls-3,.cls-4{stroke-width:0.78px;}.cls-5{fill:url(#linear-gradient);}.cls-6{fill:url(#linear-gradient-2);}.cls-25,.cls-7{fill:#ffe0ca;}.cls-10,.cls-28,.cls-30,.cls-33,.cls-40,.cls-41,.cls-7,.cls-8{stroke-width:0.66px;}.cls-9{stroke:#fff014;stroke-miterlimit:10;stroke-width:1.1px;}.cls-10{fill:url(#linear-gradient-3);}.cls-11,.cls-12,.cls-18,.cls-19,.cls-25,.cls-27,.cls-31,.cls-32{stroke-width:0.66px;}.cls-11{fill:url(#linear-gradient-4);}.cls-12{fill:url(#linear-gradient-5);}.cls-13{fill:url(#linear-gradient-6);}.cls-14{fill:url(#linear-gradient-7);}.cls-15{fill:url(#linear-gradient-8);}.cls-16{fill:url(#linear-gradient-9);}.cls-17{fill:url(#linear-gradient-10);}.cls-18{fill:url(#linear-gradient-11);}.cls-19{fill:url(#linear-gradient-12);}.cls-20{fill:url(#linear-gradient-13);}.cls-21{fill:url(#linear-gradient-14);}.cls-22{fill:url(#linear-gradient-15);}.cls-23{fill:url(#linear-gradient-16);}.cls-24{fill:url(#linear-gradient-17);}.cls-26{fill:#f8ba96;}.cls-27,.cls-30{fill:none;}.cls-28{fill:url(#linear-gradient-18);}.cls-29,.cls-32{fill:#82a3a8;}.cls-33{fill:#ff8678;}.cls-34{fill:#171717;}.cls-35{fill:url(#linear-gradient-19);}.cls-36{fill:url(#linear-gradient-20);}.cls-37{fill:url(#linear-gradient-21);}.cls-38{fill:#00a8a0;}.cls-39{fill:#0093c1;}.cls-41{fill:#38adf2;}.cls-42{fill:url(#linear-gradient-22);}.cls-43{fill:url(#linear-gradient-23);}</style><radialGradient id="radial-gradient" cx="-169.91" cy="81.24" r="18.44" gradientTransform="translate(334 53.76) scale(1.67 0.24)" gradientUnits="userSpaceOnUse"><stop offset="0" stop-color="#231f20"/><stop offset="1" stop-color="#fff"/></radialGradient><linearGradient id="linear-gradient" x1="70.78" y1="72.53" x2="73.12" y2="72.53" gradientUnits="userSpaceOnUse"><stop offset="0" stop-color="#fff014"/><stop offset="1" stop-color="#df8800"/></linearGradient><linearGradient id="linear-gradient-2" x1="70.79" y1="72.55" x2="72.08" y2="72.55" xlink:href="#linear-gradient"/><linearGradient id="linear-gradient-3" x1="41.35" y1="66.03" x2="67.54" y2="66.03" xlink:href="#linear-gradient"/><linearGradient id="linear-gradient-4" x1="-802.21" y1="-208.97" x2="-793.61" y2="-208.97" gradientTransform="matrix(0, -1, -1, 0, -147.6, -764.33)" xlink:href="#linear-gradient"/><linearGradient id="linear-gradient-5" x1="-804.33" y1="-218.85" x2="-804.33" y2="-201.29" gradientTransform="matrix(-1, -0.09, -0.09, 1, -752.73, 171.94)" xlink:href="#linear-gradient"/><linearGradient id="linear-gradient-6" x1="-804.33" y1="-205.62" x2="-804.33" y2="-220.16" gradientTransform="matrix(-1, -0.09, -0.09, 1, -752.73, 171.94)" xlink:href="#linear-gradient"/><linearGradient id="linear-gradient-7" x1="-806.16" y1="-218.24" x2="-806.16" y2="-211.6" gradientTransform="matrix(-1, -0.09, -0.09, 1, -752.73, 171.94)" xlink:href="#linear-gradient"/><linearGradient id="linear-gradient-8" x1="-802.49" y1="-218.24" x2="-802.49" y2="-211.6" gradientTransform="matrix(-1, -0.09, -0.09, 1, -752.73, 171.94)" xlink:href="#linear-gradient"/><linearGradient id="linear-gradient-9" x1="-806.16" y1="-218.24" x2="-806.16" y2="-211.6" gradientTransform="matrix(-1, -0.09, -0.09, 1, -752.73, 171.94)" xlink:href="#linear-gradient"/><linearGradient id="linear-gradient-10" x1="-802.49" y1="-218.24" x2="-802.49" y2="-211.6" gradientTransform="matrix(-1, -0.09, -0.09, 1, -752.73, 171.94)" xlink:href="#linear-gradient"/><linearGradient id="linear-gradient-11" x1="-782.32" y1="1240.47" x2="-773.73" y2="1240.47" gradientTransform="translate(802.58 -1193.63)" xlink:href="#linear-gradient"/><linearGradient id="linear-gradient-12" x1="-784.44" y1="1230.59" x2="-784.44" y2="1248.15" gradientTransform="translate(-946.16 -1050.87) rotate(-73.58)" xlink:href="#linear-gradient"/><linearGradient id="linear-gradient-13" x1="-784.44" y1="1243.82" x2="-784.44" y2="1229.29" gradientTransform="translate(-946.16 -1050.87) rotate(-73.58)" xlink:href="#linear-gradient"/><linearGradient id="linear-gradient-14" x1="-786.27" y1="1231.2" x2="-786.27" y2="1237.84" gradientTransform="translate(-946.16 -1050.87) rotate(-73.58)" xlink:href="#linear-gradient"/><linearGradient id="linear-gradient-15" x1="-782.6" y1="1231.2" x2="-782.6" y2="1237.84" gradientTransform="translate(-946.16 -1050.87) rotate(-73.58)" xlink:href="#linear-gradient"/><linearGradient id="linear-gradient-16" x1="-786.27" y1="1231.2" x2="-786.27" y2="1237.84" gradientTransform="translate(-946.16 -1050.87) rotate(-73.58)" xlink:href="#linear-gradient"/><linearGradient id="linear-gradient-17" x1="-782.6" y1="1231.2" x2="-782.6" y2="1237.84" gradientTransform="translate(-946.16 -1050.87) rotate(-73.58)" xlink:href="#linear-gradient"/><linearGradient id="linear-gradient-18" x1="29.65" y1="144.54" x2="25.35" y2="127.31" gradientTransform="matrix(0.99, -0.15, 0.15, 0.99, -4.56, -83.86)" gradientUnits="userSpaceOnUse"><stop offset="0" stop-color="#ffe0ca"/><stop offset="1" stop-color="#9cadab"/></linearGradient><linearGradient id="linear-gradient-19" x1="23.81" y1="109.37" x2="25.7" y2="124.24" gradientTransform="matrix(0.99, -0.15, 0.15, 0.99, -4.56, -83.86)" gradientUnits="userSpaceOnUse"><stop offset="0" stop-color="#fff"/><stop offset="0.96" stop-color="#171717"/><stop offset="1"/></linearGradient><linearGradient id="linear-gradient-20" x1="-32.81" y1="107.51" x2="-32.81" y2="127.95" gradientTransform="matrix(-0.97, 0.24, 0.24, 0.97, -22.45, -80.88)" xlink:href="#linear-gradient-19"/><linearGradient id="linear-gradient-21" x1="-14.68" y1="150.49" x2="-13.94" y2="164.84" gradientTransform="translate(15.59 -128.69) rotate(-13.42)" xlink:href="#linear-gradient-19"/><linearGradient id="linear-gradient-22" x1="161.74" y1="384.86" x2="161.74" y2="387.62" gradientTransform="matrix(0.69, -0.39, 0.49, 0.87, -255.65, -207.52)" xlink:href="#linear-gradient"/><linearGradient id="linear-gradient-23" x1="161.74" y1="386.13" x2="161.74" y2="388.17" gradientTransform="matrix(0.69, -0.39, 0.49, 0.87, -255.65, -207.52)" xlink:href="#linear-gradient"/></defs><title>money06</title><rect y="73.71" width="88" height="14.29"/><path class="cls-1" d="M84.41,73.71c0,3.47-18,6.28-40.24,6.28S3.93,77.18,3.93,73.71s18-6.27,40.24-6.27S84.41,70.25,84.41,73.71Z"/><path class="cls-2" d="M81,73.33c0,2.45-13.79,4.44-30.79,4.44s-30.79-2-30.79-4.44,13.79-4.44,30.79-4.44S81,70.88,81,73.33Z"/><path class="cls-3" d="M66,69.25c2-.41,6.59.7,7.95,2.56s-.43,2.67-1.42,2.55L70,74S62.56,70,66,69.25Z"/><path class="cls-4" d="M74,71.81a3.66,3.66,0,0,0-.71-.71c-1.67.45-2.63,2.06-.34,3.26h0C73.93,74.28,75.2,73.46,74,71.81Z"/><path class="cls-5" d="M73.06,73c.31-1.5-.72-2.69-1.4-2.43-1,.36-.4,1.56-.53,2.21s-.77,1.59.09,1.76S72.83,74.07,73.06,73Z"/><path class="cls-6" d="M72.08,72.55a.66.66,0,1,1-1.29,0,.66.66,0,1,1,1.29,0Z"/><path class="cls-7" d="M35.52,70.51c-1.42-.33-7.26-.55-7,2.11.11,1.28,2.7,1,3.66.88a18.7,18.7,0,0,1,3.44-.39c.74.07,3.22,1,3.11-.49C38.62,71.54,36.44,70.73,35.52,70.51Z"/><path class="cls-8" d="M39.51,56.33c-1.8-.19-2.64,1.82-3.24,3.17a21.74,21.74,0,0,1-1,2.42c-.58,1-4.32,8.54-4.32,8.54l7.23.68S39.66,64,40.51,60.59c.23-1,.76-2.53.42-3.52C40.72,56.46,40.08,56.39,39.51,56.33Z"/><path class="cls-8" d="M65.91,58.61c1.64,2.76,1.1,4.73-.11,6.33A18.85,18.85,0,0,1,70,74.57c-4.07,1.38-11.33-.18-14.21-.18-5.78,0-11.18,0-14.76-4.1-5.85-7-4.31-13.51-1.61-16.48,2.11-2.32,7.47-4.16,8.62-4.42C53.69,48.14,64,55.39,65.91,58.61Z"/><path class="cls-9" d="M43.17,70.64c-2.53-3.13-2.2-6-.39-6.8,3-1.28,7,.33,8.42,2S44.21,71.93,43.17,70.64Z"/><path class="cls-10" d="M66.46,58.12c-9.65,3.92-19.91,9-25.11,14.05L44,74c5-4.64,14.78-9.89,23.54-13.27Z"/><rect class="cls-11" x="59.54" y="28.77" width="3.6" height="11.24" transform="matrix(0.09, -1, 1, 0.09, 21.66, 92.45)"/><path class="cls-12" d="M62,34.45A4.91,4.91,0,1,0,67.37,30,4.92,4.92,0,0,0,62,34.45Z"/><path class="cls-13" d="M63.78,34.61a3.17,3.17,0,1,0,3.44-2.88A3.16,3.16,0,0,0,63.78,34.61Z"/><path class="cls-14" d="M67.75,31.85v0a3.16,3.16,0,0,1,2.33,2.86A2.63,2.63,0,0,1,67.75,31.85Z"/><path class="cls-15" d="M63.86,34.13a3.19,3.19,0,0,1,2.81-2.4v0A2.62,2.62,0,0,1,63.86,34.13Z"/><path class="cls-16" d="M70,35.64a3.18,3.18,0,0,1-2.8,2.4v0A2.61,2.61,0,0,1,70,35.64Z"/><path class="cls-17" d="M63.78,35.09a2.62,2.62,0,0,1,2.34,2.83v0A3.17,3.17,0,0,1,63.78,35.09Z"/><rect class="cls-18" x="18.04" y="45.13" width="11.24" height="3.6" transform="translate(-28.05 56.36) rotate(-73.58)"/><path class="cls-19" d="M23.46,47.61a4.91,4.91,0,1,1-6.1,3.33A4.91,4.91,0,0,1,23.46,47.61Z"/><path class="cls-20" d="M23,49.29A3.16,3.16,0,1,1,19,51.43,3.17,3.17,0,0,1,23,49.29Z"/><path class="cls-21" d="M18.94,52h0a3.16,3.16,0,0,0,1.8,3.22A2.63,2.63,0,0,0,18.94,52Z"/><path class="cls-22" d="M22.49,49.19a3.16,3.16,0,0,0-3.25,1.73h0A2.61,2.61,0,0,0,22.49,49.19Z"/><path class="cls-23" d="M21.65,55.46a3.16,3.16,0,0,0,3.25-1.73h0A2.62,2.62,0,0,0,21.65,55.46Z"/><path class="cls-24" d="M23.41,49.46a2.63,2.63,0,0,0,1.78,3.22h0A3.16,3.16,0,0,0,23.41,49.46Z"/><path class="cls-25" d="M52.92,41.94c.69,2.79,3,4.61,7.15,3.59S65.42,41.8,64.74,39s-3.9-4.4-7.16-3.59S52.23,39.15,52.92,41.94Z"/><path class="cls-26" d="M57.67,35.61c-2.07-.21-5.1,4.93-4.75,6.33.69,2.79,3,4.61,7.15,3.59S65.42,41.8,64.74,39C63.86,41.7,63,42.37,61.5,43.1,61.64,40.78,59.73,35.81,57.67,35.61Z"/><path class="cls-27" d="M52.92,41.94c.69,2.79,3,4.61,7.15,3.59S65.42,41.8,64.74,39s-3.9-4.4-7.16-3.59S52.23,39.15,52.92,41.94Z"/><path class="cls-25" d="M31.32,47.27c.69,2.79-.52,5.49-4.66,6.51s-6.47-.8-7.16-3.59,1.4-5.7,4.67-6.5S30.63,44.49,31.32,47.27Z"/><path class="cls-26" d="M24.8,45.4c1.15-1.87,6.12.22,6.52,1.87.69,2.79-.52,5.49-4.66,6.51s-6.47-.8-7.16-3.59a5.45,5.45,0,0,0,5.31,2.2A7.35,7.35,0,0,1,24.8,45.4Z"/><path class="cls-27" d="M31.32,47.27c.69,2.79-.52,5.49-4.66,6.51s-6.47-.8-7.16-3.59,1.4-5.7,4.67-6.5S30.63,44.49,31.32,47.27Z"/><path class="cls-28" d="M25.15,47.68c2,8,8.71,13.28,20.63,10.34S61.2,47.3,59.22,39.26,48,26.6,38.59,28.93,23.17,39.65,25.15,47.68Z"/><path class="cls-29" d="M26.27,38.38A13.53,13.53,0,0,0,25,47c9-6.2,23.22-9.6,33.92-8.72a13.51,13.51,0,0,0-4.12-6Z"/><path class="cls-30" d="M25.15,47.68c2,8,8.71,13.28,20.63,10.34S61.2,47.3,59.22,39.26,48,26.6,38.59,28.93,23.17,39.65,25.15,47.68Z"/><path class="cls-29" d="M50.47,46.6a5.25,5.25,0,0,1-2-10.29,3.73,3.73,0,0,1,.46-.09,5.25,5.25,0,0,1,2,10.28l-.46.1Z"/><path class="cls-31" d="M45.45,42.45a4.35,4.35,0,1,0,3.19-5.25A4.34,4.34,0,0,0,45.45,42.45Z"/><path class="cls-29" d="M35.81,50.12a5.25,5.25,0,0,1-2.05-10.29,3.89,3.89,0,0,1,.47-.09A5.25,5.25,0,0,1,36.28,50l-.47.1Z"/><path class="cls-31" d="M30.79,46A4.36,4.36,0,1,0,34,40.72,4.35,4.35,0,0,0,30.79,46Z"/><path class="cls-32" d="M54,34.88a74.14,74.14,0,0,1-9.1,4.77c-1.62.54-2-.84-2.32-1.95"/><path class="cls-32" d="M28.58,41.15a71.69,71.69,0,0,0,10.28,0c1.67-.27,1.41-1.69,1.14-2.81"/><path class="cls-33" d="M49.42,49.41c-1.85-1.9-4.14-1.09-6.57-.45-1.79.47-3.75.83-4.48,2.79-.35.94-.47,3,.12,3.93.95,1.41,3,.42,4.09-.24a4,4,0,0,1,.68-.36c2.1-.91,4.54,0,6.54-1.24,1.75-1.11,1-2.81-.15-4.17A2.85,2.85,0,0,0,49.42,49.41Z"/><path class="cls-34" d="M55.18,34,40.73,37.58l-4-16C44,19.78,52.59,23.53,55.18,34Z"/><path class="cls-34" d="M26.28,41.15l14.45-3.57-4-16C29.58,23.34,23.69,30.67,26.28,41.15Z"/><path class="cls-35" d="M24.19,44.78a.34.34,0,0,1-.28-.25c-2.2-8.92,5.5-16.69,13.9-18.76a21,21,0,0,1,5-.61c8,0,14.2,4.24,15.82,10.8a.32.32,0,0,1-.14.35.3.3,0,0,1-.18.06.36.36,0,0,1-.2-.06s-.82-.54-3.63-.54A61.14,61.14,0,0,0,40.81,37.9c-14.24,3.52-16.27,6.69-16.29,6.72a.34.34,0,0,1-.29.16Z"/><path d="M42.8,25.49c7,0,13.78,3.59,15.5,10.55,0,0-.82-.6-3.83-.6-2.62,0-6.9.45-13.74,2.14-14.7,3.64-16.5,6.88-16.5,6.88-2.12-8.59,5.18-16.28,13.66-18.37a20.43,20.43,0,0,1,4.91-.6m0-.66a21.07,21.07,0,0,0-5.07.62c-8.55,2.11-16.39,10-14.14,19.16a.67.67,0,0,0,.56.5h.08a.67.67,0,0,0,.58-.34s2.12-3.11,16.08-6.56A61,61,0,0,1,54.47,36.1c2.65,0,3.45.48,3.46.49a.65.65,0,0,0,.75,0,.65.65,0,0,0,.26-.71c-1.89-7.63-9.46-11.05-16.14-11.05Z"/><path class="cls-36" d="M38.1,27.44c8.48-2.1,17.23.73,20.2,8.6,0,0-2.87-2.09-17.57,1.54s-16.5,6.88-16.5,6.88C23,36.07,29.62,29.53,38.1,27.44Z"/><path class="cls-37" d="M42.11,26.48c.18.75-1.47,1.79-3.69,2.31s-4.15.35-4.33-.4,1.47-1.78,3.68-2.31S41.93,25.73,42.11,26.48Z"/><path class="cls-31" d="M41.21,46l3.45-.85s2,.8,3.42,1.34a6.49,6.49,0,0,1-4.22,3,6.32,6.32,0,0,1-5-.69C39.84,47.62,41.21,46,41.21,46Z"/><path class="cls-25" d="M40.69,45.32c-.25,1.26.94,1.81,2.53,1.41s2.39-1.43,1.58-2.42"/><path class="cls-38" d="M41.61,33.21h0l.06,0a1,1,0,0,1-.13,1.95l.19.75a1.69,1.69,0,0,0,.79-3s0-.09.06-.17a1.45,1.45,0,0,0-.09-.65L42,30.39,39.66,31,40,32.4l-.76.2.19.77L41,33l-.36-1.39.86-.22.3,1.2a.64.64,0,0,1-.18.64"/><path class="cls-39" d="M38.91,31.19l-.22.06h0a1.54,1.54,0,0,0-1,.74,1.45,1.45,0,0,0,0,1.21l.9,3.54L41,36.13l-.36-1.39.77-.2-.2-.78-1.54.39.36,1.4-.88.23-.74-2.94s-.22-.62.54-.83l.17,0Z"/><path class="cls-7" d="M53.68,54.32c-2.36-3.1-7.75-.75-5.78,3S55.41,56.61,53.68,54.32Z"/><path class="cls-8" d="M55.58,54.32l-8.44,4.36s3.74,5.79,5,7.31c1.8,2.14,7.5.12,6.71-3.47A53.15,53.15,0,0,0,55.58,54.32Z"/><path class="cls-40" d="M55.58,54.32s.59,1.21,1.28,2.77l-8,4.15c-.94-1.41-1.68-2.56-1.68-2.56Z"/><path class="cls-41" d="M57.83,59.37l-7.9,3.52c-.38-.55-.76-1.12-1.11-1.65l8-4.15C57.18,57.8,57.52,58.59,57.83,59.37Z"/><path class="cls-40" d="M31,70.46l7.23.68s.16-.79.41-2l-6.49-1C31.48,69.46,31,70.46,31,70.46Z"/><path class="cls-41" d="M32.14,68.15l6.49,1c.11-.53.23-1.13.37-1.78l-5.85-1.27Z"/><path class="cls-8" d="M65.8,64.94a24.25,24.25,0,0,1-5.42,5"/><path class="cls-8" d="M53.56,70.14c-1.3,2.43-1.64,5.72,4.13,6.06S67.26,76,70,74.57"/><path class="cls-8" d="M53.56,70.14c-1,2.41-1.64,5.72,4.13,6.06S67.26,76,70,74.57"/><path class="cls-41" d="M65.8,64.94c-.61,1-1.45,1.36-1.92,2.14.59,1.71,2.56,6.46,2.93,8.65A6.34,6.34,0,0,0,70,74.57,18.85,18.85,0,0,0,65.8,64.94Z"/><path class="cls-42" d="M45.53,66.17a1.1,1.1,0,0,1-.23,1.51,1.24,1.24,0,0,1-1.18-2.1A1.1,1.1,0,0,1,45.53,66.17Z"/><path class="cls-43" d="M45.84,65.08c-.72,0-.35,1.11-1.13,1.55s-1.49-.43-1.91.16c-.75,1,1.12,2.43,2.83,1.47S47.11,65,45.84,65.08Z"/><polygon points="26.57 0 0 0 0 88 0.83 88 26.57 0"/><polygon points="61.43 0 88 0 88 88 87.17 88 61.43 0"/></svg>