<svg id="圖層_1" data-name="圖層 1" xmlns="http://www.w3.org/2000/svg" xmlns:xlink="http://www.w3.org/1999/xlink" viewBox="0 0 88 88"><defs><style>.cls-1,.cls-2{stroke:#b5d8eb;stroke-width:0.63px;}.cls-1,.cls-12,.cls-13,.cls-14,.cls-15,.cls-16,.cls-17,.cls-18,.cls-19,.cls-2,.cls-21,.cls-22,.cls-23,.cls-24,.cls-25,.cls-26,.cls-27,.cls-28,.cls-29,.cls-3,.cls-30,.cls-31,.cls-32,.cls-33,.cls-34,.cls-36,.cls-37,.cls-4,.cls-43,.cls-44,.cls-5,.cls-50,.cls-52,.cls-58,.cls-60,.cls-64,.cls-8,.cls-9{stroke-linecap:round;}.cls-1{fill:url(#linear-gradient);}.cls-2{fill:url(#linear-gradient-2);}.cls-12,.cls-13,.cls-14,.cls-15,.cls-16,.cls-17,.cls-18,.cls-19,.cls-21,.cls-22,.cls-23,.cls-24,.cls-25,.cls-26,.cls-27,.cls-28,.cls-29,.cls-3,.cls-30,.cls-31,.cls-32,.cls-33,.cls-34,.cls-36,.cls-37,.cls-4,.cls-43,.cls-44,.cls-5,.cls-50,.cls-52,.cls-58,.cls-60,.cls-64,.cls-8,.cls-9{stroke:#000;}.cls-12,.cls-13,.cls-14,.cls-15,.cls-16,.cls-17,.cls-19,.cls-21,.cls-22,.cls-23,.cls-24,.cls-25,.cls-26,.cls-27,.cls-28,.cls-29,.cls-3,.cls-30,.cls-31,.cls-32,.cls-33,.cls-34,.cls-36,.cls-37,.cls-4,.cls-5,.cls-50,.cls-52,.cls-58,.cls-64,.cls-8,.cls-9{stroke-width:0.49px;}.cls-3{fill:url(#linear-gradient-3);}.cls-4{fill:url(#linear-gradient-4);}.cls-18,.cls-5{fill:#fff;}.cls-6{fill:url(#linear-gradient-5);}.cls-7{fill:url(#linear-gradient-6);}.cls-8{fill:url(#linear-gradient-7);}.cls-9{fill:url(#linear-gradient-8);}.cls-10{fill:url(#linear-gradient-9);}.cls-11{fill:url(#linear-gradient-10);}.cls-12{fill:url(#linear-gradient-11);}.cls-13{fill:url(#linear-gradient-12);}.cls-14{fill:url(#linear-gradient-13);}.cls-15{fill:url(#linear-gradient-14);}.cls-16{fill:url(#linear-gradient-15);}.cls-17{fill:url(#linear-gradient-16);}.cls-18{stroke-width:0.67px;}.cls-19{fill:#38adf2;stroke-linejoin:round;}.cls-20,.cls-23,.cls-33{opacity:0.5;}.cls-21{fill:url(#linear-gradient-17);}.cls-22{fill:url(#linear-gradient-18);}.cls-23{fill:url(#linear-gradient-19);}.cls-24,.cls-60{fill:none;}.cls-25{fill:url(#linear-gradient-20);}.cls-26{fill:url(#linear-gradient-21);}.cls-27{fill:url(#linear-gradient-22);}.cls-28{fill:url(#linear-gradient-23);}.cls-29{fill:url(#linear-gradient-24);}.cls-30{fill:url(#linear-gradient-25);}.cls-31{fill:url(#linear-gradient-26);}.cls-32{fill:url(#linear-gradient-27);}.cls-33{fill:url(#linear-gradient-28);}.cls-34{fill:url(#linear-gradient-29);}.cls-35{stroke:#fff014;stroke-miterlimit:10;stroke-width:0.72px;}.cls-36{fill:url(#linear-gradient-30);}.cls-37{fill:url(#linear-gradient-31);}.cls-38{fill:url(#linear-gradient-32);}.cls-39{fill:url(#linear-gradient-33);}.cls-40{fill:url(#linear-gradient-34);}.cls-41{fill:url(#linear-gradient-35);}.cls-42{fill:url(#linear-gradient-36);}.cls-43,.cls-44{stroke-width:0.52px;}.cls-43{fill:url(#linear-gradient-37);}.cls-44{fill:url(#linear-gradient-38);}.cls-45{fill:url(#linear-gradient-39);}.cls-46{fill:url(#linear-gradient-40);}.cls-47{fill:url(#linear-gradient-41);}.cls-48{fill:url(#linear-gradient-42);}.cls-49{fill:url(#linear-gradient-43);}.cls-50{fill:#ffe0ca;}.cls-51{fill:#f8ba96;}.cls-52{fill:url(#linear-gradient-44);}.cls-53{fill:url(#radial-gradient);}.cls-54{fill:#171717;}.cls-55{fill:url(#linear-gradient-45);}.cls-56{fill:url(#linear-gradient-46);}.cls-57{fill:url(#linear-gradient-47);}.cls-58{fill:url(#linear-gradient-48);}.cls-59{fill:#ff8678;}.cls-60{stroke-width:0.46px;}.cls-61{fill:url(#radial-gradient-2);}.cls-62{fill:#00a8a0;}.cls-63{fill:#0093c1;}.cls-64{fill:url(#linear-gradient-49);}.cls-65{fill:url(#linear-gradient-50);}.cls-66{fill:url(#linear-gradient-51);}</style><linearGradient id="linear-gradient" x1="40.76" y1="54.46" x2="51.12" y2="73.77" gradientUnits="userSpaceOnUse"><stop offset="0" stop-color="#f1f9ff"/><stop offset="1" stop-color="#cfedff"/></linearGradient><linearGradient id="linear-gradient-2" x1="43.76" y1="56.82" x2="55.89" y2="84.18" xlink:href="#linear-gradient"/><linearGradient id="linear-gradient-3" x1="165.42" y1="177.44" x2="165.53" y2="181.34" gradientTransform="translate(-151.96 -69.33) rotate(-14.42)" gradientUnits="userSpaceOnUse"><stop offset="0" stop-color="#f70033"/><stop offset="1" stop-color="#b5001f"/></linearGradient><linearGradient id="linear-gradient-4" x1="-780.63" y1="171.75" x2="-780.48" y2="176.79" gradientTransform="matrix(-0.97, 0.25, 0.25, 0.97, -746.77, 84.16)" xlink:href="#linear-gradient-3"/><linearGradient id="linear-gradient-5" x1="-697.39" y1="-163.38" x2="-697.39" y2="-161.66" gradientTransform="matrix(0.48, 0.46, -0.48, 0.5, 314.87, 466.78)" gradientUnits="userSpaceOnUse"><stop offset="0" stop-color="#fff014"/><stop offset="1" stop-color="#df8800"/></linearGradient><linearGradient id="linear-gradient-6" x1="-541.07" y1="136.07" x2="-541.07" y2="137.8" gradientTransform="matrix(0.72, 0.69, -0.69, 0.72, 541.45, 340.5)" xlink:href="#linear-gradient-5"/><linearGradient id="linear-gradient-7" x1="-866.86" y1="399.23" x2="-866.75" y2="403.13" gradientTransform="matrix(-0.78, 0.62, 0.62, 0.78, -882.45, 295.14)" xlink:href="#linear-gradient-3"/><linearGradient id="linear-gradient-8" x1="252.32" y1="393.88" x2="252.47" y2="398.92" gradientTransform="matrix(0.78, -0.62, 0.62, 0.78, -403.12, -87.95)" xlink:href="#linear-gradient-3"/><linearGradient id="linear-gradient-9" x1="-1224.23" y1="1282.63" x2="-1224.23" y2="1284.36" gradientTransform="matrix(0.08, 0.66, 0.68, -0.08, -735.06, 990.6)" xlink:href="#linear-gradient-5"/><linearGradient id="linear-gradient-10" x1="-892.56" y1="1131.68" x2="-892.56" y2="1133.4" gradientTransform="matrix(0.12, 0.99, 0.99, -0.12, -971.55, 1095.4)" xlink:href="#linear-gradient-5"/><linearGradient id="linear-gradient-11" x1="549.91" y1="275.41" x2="557" y2="275.41" gradientTransform="translate(-592.83 75.24) rotate(-27.27)" gradientUnits="userSpaceOnUse"><stop offset="0" stop-color="#ffe0ca"/><stop offset="1" stop-color="#f8c4ab"/></linearGradient><linearGradient id="linear-gradient-12" x1="553.17" y1="275.64" x2="556.74" y2="275.64" xlink:href="#linear-gradient-11"/><linearGradient id="linear-gradient-13" x1="553.31" y1="268.71" x2="567.28" y2="268.71" gradientTransform="translate(-592.83 75.24) rotate(-27.27)" xlink:href="#linear-gradient-3"/><linearGradient id="linear-gradient-14" x1="326.36" y1="1.45" x2="333.45" y2="1.45" gradientTransform="translate(-315.35 59.84) rotate(-2.06)" xlink:href="#linear-gradient-11"/><linearGradient id="linear-gradient-15" x1="329.62" y1="1.68" x2="333.19" y2="1.68" gradientTransform="translate(-315.35 59.84) rotate(-2.06)" xlink:href="#linear-gradient-11"/><linearGradient id="linear-gradient-16" x1="339.16" y1="-2.75" x2="339.16" y2="3.66" gradientTransform="translate(-315.35 59.84) rotate(-2.06)" xlink:href="#linear-gradient-3"/><linearGradient id="linear-gradient-17" x1="589.78" y1="328.93" x2="595.83" y2="328.93" gradientTransform="matrix(0.82, -0.57, 0.57, 0.82, -657.58, 131.23)" xlink:href="#linear-gradient-11"/><linearGradient id="linear-gradient-18" x1="593.04" y1="328.89" x2="596.62" y2="328.89" gradientTransform="matrix(0.82, -0.57, 0.57, 0.82, -657.58, 131.23)" xlink:href="#linear-gradient-11"/><linearGradient id="linear-gradient-19" x1="602.58" y1="324.46" x2="602.58" y2="330.87" gradientTransform="matrix(0.82, -0.57, 0.57, 0.82, -657.58, 131.23)" xlink:href="#linear-gradient-3"/><linearGradient id="linear-gradient-20" x1="-445.39" y1="231.06" x2="-438.31" y2="231.06" gradientTransform="matrix(-0.92, 0.38, 0.38, 0.92, -434.82, 2.57)" xlink:href="#linear-gradient-11"/><linearGradient id="linear-gradient-21" x1="-442.14" y1="231.29" x2="-438.56" y2="231.29" gradientTransform="matrix(-0.92, 0.38, 0.38, 0.92, -434.82, 2.57)" xlink:href="#linear-gradient-11"/><linearGradient id="linear-gradient-22" x1="-442" y1="224.35" x2="-428.03" y2="224.35" gradientTransform="matrix(-0.92, 0.38, 0.38, 0.92, -434.82, 2.57)" xlink:href="#linear-gradient-3"/><linearGradient id="linear-gradient-23" x1="-591.39" y1="386.02" x2="-584.31" y2="386.02" gradientTransform="matrix(-0.67, 0.74, 0.74, 0.67, -624.87, 203.17)" xlink:href="#linear-gradient-11"/><linearGradient id="linear-gradient-24" x1="-588.14" y1="386.25" x2="-584.56" y2="386.25" gradientTransform="matrix(-0.67, 0.74, 0.74, 0.67, -624.87, 203.17)" xlink:href="#linear-gradient-11"/><linearGradient id="linear-gradient-25" x1="-578.6" y1="381.82" x2="-578.6" y2="388.23" gradientTransform="matrix(-0.67, 0.74, 0.74, 0.67, -624.87, 203.17)" xlink:href="#linear-gradient-3"/><linearGradient id="linear-gradient-26" x1="-390.55" y1="151.06" x2="-384.49" y2="151.06" gradientTransform="matrix(-0.97, 0.26, 0.26, 0.97, -350.5, -11.27)" xlink:href="#linear-gradient-11"/><linearGradient id="linear-gradient-27" x1="-387.29" y1="151.03" x2="-383.71" y2="151.03" gradientTransform="matrix(-0.97, 0.26, 0.26, 0.97, -350.5, -11.27)" xlink:href="#linear-gradient-11"/><linearGradient id="linear-gradient-28" x1="-377.75" y1="146.6" x2="-377.75" y2="153.01" gradientTransform="matrix(-0.97, 0.26, 0.26, 0.97, -350.5, -11.27)" xlink:href="#linear-gradient-3"/><linearGradient id="linear-gradient-29" x1="278.15" y1="253.29" x2="278.15" y2="272" gradientTransform="translate(-324.19 -58.98) rotate(-26.53)" xlink:href="#linear-gradient-3"/><linearGradient id="linear-gradient-30" x1="-1617.23" y1="776.22" x2="-1610.79" y2="776.22" gradientTransform="matrix(-1, 0, 0, 1, -1569.82, -750.84)" xlink:href="#linear-gradient-5"/><linearGradient id="linear-gradient-31" x1="-1618.81" y1="768.82" x2="-1618.81" y2="781.97" gradientTransform="matrix(-0.95, 0.3, 0.3, 0.95, -1728.81, -227.85)" xlink:href="#linear-gradient-5"/><linearGradient id="linear-gradient-32" x1="-1618.81" y1="778.72" x2="-1618.81" y2="767.85" gradientTransform="matrix(-0.95, 0.3, 0.3, 0.95, -1728.81, -227.85)" xlink:href="#linear-gradient-5"/><linearGradient id="linear-gradient-33" x1="-1620.18" y1="769.28" x2="-1620.18" y2="774.25" gradientTransform="matrix(-0.95, 0.3, 0.3, 0.95, -1728.81, -227.85)" xlink:href="#linear-gradient-5"/><linearGradient id="linear-gradient-34" x1="-1617.43" y1="769.28" x2="-1617.43" y2="774.25" gradientTransform="matrix(-0.95, 0.3, 0.3, 0.95, -1728.81, -227.85)" xlink:href="#linear-gradient-5"/><linearGradient id="linear-gradient-35" x1="-1620.18" y1="769.28" x2="-1620.18" y2="774.25" gradientTransform="matrix(-0.95, 0.3, 0.3, 0.95, -1728.81, -227.85)" xlink:href="#linear-gradient-5"/><linearGradient id="linear-gradient-36" x1="-1617.43" y1="769.28" x2="-1617.43" y2="774.25" gradientTransform="matrix(-0.95, 0.3, 0.3, 0.95, -1728.81, -227.85)" xlink:href="#linear-gradient-5"/><linearGradient id="linear-gradient-37" x1="-838.73" y1="1064.02" x2="-831.95" y2="1064.02" gradientTransform="matrix(1, 0, 0, 1, 853.7, -1022.63)" xlink:href="#linear-gradient-5"/><linearGradient id="linear-gradient-38" x1="-840.4" y1="1056.22" x2="-840.4" y2="1070.08" gradientTransform="matrix(0.7, -0.71, 0.71, 0.7, -152.51, -1300.92)" xlink:href="#linear-gradient-5"/><linearGradient id="linear-gradient-39" x1="-840.4" y1="1066.66" x2="-840.4" y2="1055.19" gradientTransform="matrix(0.7, -0.71, 0.71, 0.7, -152.51, -1300.92)" xlink:href="#linear-gradient-5"/><linearGradient id="linear-gradient-40" x1="-841.85" y1="1056.7" x2="-841.85" y2="1061.94" gradientTransform="matrix(0.7, -0.71, 0.71, 0.7, -152.51, -1300.92)" xlink:href="#linear-gradient-5"/><linearGradient id="linear-gradient-41" x1="-838.95" y1="1056.7" x2="-838.95" y2="1061.94" gradientTransform="matrix(0.7, -0.71, 0.71, 0.7, -152.51, -1300.92)" xlink:href="#linear-gradient-5"/><linearGradient id="linear-gradient-42" x1="-841.85" y1="1056.69" x2="-841.85" y2="1061.94" gradientTransform="matrix(0.7, -0.71, 0.71, 0.7, -152.51, -1300.92)" xlink:href="#linear-gradient-5"/><linearGradient id="linear-gradient-43" x1="-838.95" y1="1056.7" x2="-838.95" y2="1061.94" gradientTransform="matrix(0.7, -0.71, 0.71, 0.7, -152.51, -1300.92)" xlink:href="#linear-gradient-5"/><linearGradient id="linear-gradient-44" x1="214.31" y1="317.29" x2="215.58" y2="323.89" gradientTransform="translate(-292.08 -158.69) rotate(-24.81)" xlink:href="#linear-gradient-11"/><radialGradient id="radial-gradient" cx="204.77" cy="315.26" r="3.55" gradientTransform="translate(-292.08 -158.69) rotate(-24.81)" gradientUnits="userSpaceOnUse"><stop offset="0" stop-color="#fb7260"/><stop offset="1" stop-color="#ffe0ca" stop-opacity="0"/></radialGradient><linearGradient id="linear-gradient-45" x1="146.65" y1="219.06" x2="150.9" y2="234.28" gradientTransform="translate(-178.72 -148.16) rotate(-16.31)" gradientUnits="userSpaceOnUse"><stop offset="0" stop-color="#fff"/><stop offset="0.96" stop-color="#171717"/><stop offset="1"/></linearGradient><linearGradient id="linear-gradient-46" x1="145.98" y1="214.71" x2="150.1" y2="231.12" xlink:href="#linear-gradient-45"/><linearGradient id="linear-gradient-47" x1="-54.3" y1="415.7" x2="-53.75" y2="426.44" gradientTransform="translate(-141.39 -362.68) rotate(-30.75)" xlink:href="#linear-gradient-45"/><linearGradient id="linear-gradient-48" x1="126.12" y1="224.26" x2="125.39" y2="214.29" gradientTransform="translate(-140 -145.86) rotate(-13.98)" xlink:href="#linear-gradient-3"/><radialGradient id="radial-gradient-2" cx="223.47" cy="314.3" r="3" xlink:href="#radial-gradient"/><linearGradient id="linear-gradient-49" x1="233.14" y1="352.26" x2="233.14" y2="359.84" gradientTransform="translate(-325.53 -156.65) rotate(-26.98)" xlink:href="#linear-gradient-5"/><linearGradient id="linear-gradient-50" x1="233.24" y1="349.94" x2="233.24" y2="352.96" gradientTransform="translate(-325.53 -156.65) rotate(-26.98)" xlink:href="#linear-gradient-5"/><linearGradient id="linear-gradient-51" x1="233.24" y1="351.33" x2="233.24" y2="353.57" gradientTransform="translate(-325.53 -156.65) rotate(-26.98)" xlink:href="#linear-gradient-5"/></defs><title>money20</title><path class="cls-1" d="M.28,70c-.07-3.66,6.21-3.58,7.55-.09.07-4.71,3.86-6.39,7.4-7.52,3.07-1,8.16-.7,9.89,2.43.11-2.57,1.56-5.65,4.45-5.58,1.09-4.53.73-7.82,6-10.08,4.43-1.92,8.72-.86,13.22-.36.34-4.14,4.19-5.19,7.91-5.07-2.45-12,10-16.92,19.14-9.88.07-3.62,4.35-3.43,5.78-.55,1.93-2,4.33-1.42,6.42,0V87.72H0Z"/><path class="cls-2" d="M9.31,88c0-6.34,3.82-13.44,11-10.54-1-4.44,5.68-5.26,8.44-3.87,1.11-3.47,1.27-5.89,4.79-7.93,3.83-2.22,8.3-1.75,12.14,0,.8-4,4-6.67,8.4-4.8.23-3.81,0-7.08,3.14-9.85s7.8-2.74,11.32-.66c.35-8.44,16.19-11.11,19.16-3.28V87.72Z"/><path class="cls-3" d="M50.41,60.94c-.79.79-1.46,2-.36,3s5.64,3.15,6.56,1.59-1.2-2.56-1.84-3.2S50.9,60.45,50.41,60.94Z"/><path class="cls-4" d="M54.23,55.14c1.1,1.39,3,3.75,1.12,7.33-2.14-.73-5.49-1.69-5.49-1.69a3.6,3.6,0,0,0-1-3.81C48.21,56.31,53,53.54,54.23,55.14Z"/><path class="cls-5" d="M54.38,65.9c1,.22,1.88.18,2.23-.42a1.45,1.45,0,0,0-.23-1.83A13.27,13.27,0,0,1,54.38,65.9Z"/><path class="cls-6" d="M58.15,63.32a.67.67,0,0,1-.95-.06l-.06-.06a.69.69,0,0,1-.1-1h0a.69.69,0,0,1,1,.06l.07.07a.67.67,0,0,1,.09.94Z"/><path class="cls-7" d="M57.86,64.08a1,1,0,0,1-1.4-.12l-.09-.09a1,1,0,0,1-.17-1.4h0a1,1,0,0,1,1.4.12l.1.09a1,1,0,0,1,.16,1.4Z"/><path class="cls-8" d="M44.82,63.73c1.11-.16,2.5.05,2.58,1.49s-.87,6.4-2.67,6.2-1.33-2.5-1.46-3.4S44.13,63.83,44.82,63.73Z"/><path class="cls-9" d="M37.89,63.3c.45,1.71,1.21,4.62,5.19,5.3.69-2.15,2-5.4,2-5.4a3.59,3.59,0,0,1-2.46-3.08C42.44,59.19,37.37,61.34,37.89,63.3Z"/><path class="cls-5" d="M46.4,69.89c-.43.93-1,1.6-1.67,1.53a1.46,1.46,0,0,1-1.33-1.29A13.86,13.86,0,0,0,46.4,69.89Z"/><path class="cls-10" d="M42.07,71.35a.68.68,0,0,0,.52-.8v-.08a.68.68,0,0,0-.7-.65h0a.68.68,0,0,0-.52.8l0,.09a.67.67,0,0,0,.69.64Z"/><path class="cls-11" d="M42.85,71.58a1,1,0,0,0,.75-1.19l0-.14a1,1,0,0,0-1-1h0a1,1,0,0,0-.75,1.19v.14a1,1,0,0,0,1,1Z"/><path class="cls-12" d="M25.73,62.94c-1.22,2-3.35,7.11-2.2,7.64s3.58-4.72,4.21-5.92S26.55,61.6,25.73,62.94Z"/><path class="cls-13" d="M26.44,64.32c-.67,1.33-1.12,3.54-.53,3.82s1.22-1.26,2-2.42S27,63.29,26.44,64.32Z"/><path class="cls-14" d="M29,48.81c-1.13,1.91-5.33,11.41-5.24,15,1,.74,4,1.2,5.65,1.48.12-2,1.25-11.17,2.57-13.48S30.34,46.53,29,48.81Z"/><path class="cls-15" d="M16.31,46.48c-2,1.28-6.06,5-5.24,6s5.24-2.75,6.33-3.57S17.62,45.61,16.31,46.48Z"/><path class="cls-16" d="M16.36,48c-1.18.92-2.52,2.72-2.11,3.23s1.65-.63,2.88-1.32S17.28,47.32,16.36,48Z"/><path class="cls-17" d="M29.78,46.82c-2-2-9.4-4.84-14.38-.87a32.41,32.41,0,0,1,1.73,4.73c2.6-2.1,8.11-3.75,12.49-.27C32.44,52.64,32.66,49.8,29.78,46.82Z"/><path class="cls-18" d="M23.75,63.8c1,.74,4,1.2,5.65,1.48,0-.42.1-1.17.21-2.12l-5.68-1.07A8.22,8.22,0,0,0,23.75,63.8Z"/><path class="cls-19" d="M23.93,62.09l5.68,1.07c.08-.71.19-1.53.31-2.4L24.45,60C24.23,60.71,24.05,61.44,23.93,62.09Z"/><path class="cls-18" d="M15.4,46a32.41,32.41,0,0,1,1.73,4.73,9.63,9.63,0,0,1,1.31-.88l-1.7-4.73A9.36,9.36,0,0,0,15.4,46Z"/><path class="cls-19" d="M16.74,45.07l1.7,4.73A11.46,11.46,0,0,1,20.35,49l-1.28-4.76A9.38,9.38,0,0,0,16.74,45.07Z"/><g class="cls-20"><path class="cls-21" d="M16.64,56.79c-.94,2.14-2.13,7-.91,7.32s2.94-4.17,3.61-5.21A24.44,24.44,0,0,1,16.64,56.79Z"/><path class="cls-22" d="M17.77,57.52c-.5,1.41-.64,3.65,0,3.85s1-1.42,1.69-2.67S18.15,56.42,17.77,57.52Z"/></g><path class="cls-23" d="M28.36,49.2c-2.73-.63-10.52,1.06-12.54,7.1a32.61,32.61,0,0,1,4,3c1-3.17,4.76-7.55,10.33-7C33.75,52.63,32.4,50.13,28.36,49.2Z"/><g class="cls-20"><path class="cls-18" d="M15.82,56.3a32.61,32.61,0,0,1,4,3,9.71,9.71,0,0,1,.62-1.45l-4-3A9.34,9.34,0,0,0,15.82,56.3Z"/><path class="cls-19" d="M16.47,54.83l4,3a11.87,11.87,0,0,1,1.15-1.74L18,52.84A9,9,0,0,0,16.47,54.83Z"/></g><path class="cls-24" d="M12.68,54.17c-2.32,6.52,2.42,13.44,8.07,16.6"/><path class="cls-24" d="M14.74,54.46c-2.47,5.24,3.09,12.74,6.43,14.22"/><path class="cls-24" d="M25.34,71.5c1.42-.55,1.81-1.75,2.7-2.77"/><path class="cls-24" d="M25.85,72.74c1.5-.42,2.14-1.65,3.06-2.83"/><path class="cls-24" d="M9.93,49.75a5.36,5.36,0,0,0-.6,3.69"/><path class="cls-24" d="M8.33,49.32A5.74,5.74,0,0,0,8.09,54"/><path class="cls-25" d="M59,44.24c2.31.34,7.59,2,7.26,3.25s-5.92-.32-7.25-.61S57.39,44,59,44.24Z"/><path class="cls-26" d="M59.54,45.68c1.46.33,3.43,1.41,3.27,2s-1.75.11-3.16,0S58.42,45.41,59.54,45.68Z"/><path class="cls-27" d="M46,37.62c2.19.37,12.16,3.28,14.84,5.66-.08,1.24-1.66,3.83-2.51,5.27-1.57-1.16-9.35-6.24-12-6.72S43.42,37.18,46,37.62Z"/><path class="cls-28" d="M52.43,26.42c2.24-.67,7.74-1.4,8-.15s-5.48,2.24-6.81,2.54S50.92,26.87,52.43,26.42Z"/><path class="cls-29" d="M53.59,27.47c1.46-.31,3.7-.18,3.83.46s-1.54.86-2.87,1.35S52.46,27.71,53.59,27.47Z"/><path class="cls-30" d="M44,37c-.28-2.79,2.36-10.31,8.61-11.56a32,32,0,0,0,2.5,4.37c-3.28.63-8.09,3.78-8.26,9.38C46.75,42.72,44.43,41.07,44,37Z"/><path class="cls-18" d="M60.88,43.28c-.08,1.24-1.66,3.83-2.51,5.27-.33-.25-1-.68-1.75-1.21l2.84-5A8.08,8.08,0,0,1,60.88,43.28Z"/><path class="cls-19" d="M59.46,42.31l-2.84,5c-.6-.39-1.29-.84-2-1.31l2.9-4.7A21.52,21.52,0,0,1,59.46,42.31Z"/><path class="cls-18" d="M52.62,25.39a32,32,0,0,0,2.5,4.37,9.1,9.1,0,0,0-1.52.44l-2.52-4.35A8.58,8.58,0,0,1,52.62,25.39Z"/><path class="cls-19" d="M51.08,25.85,53.6,30.2a10.78,10.78,0,0,0-1.87.92l-2.81-4A8.83,8.83,0,0,1,51.08,25.85Z"/><g class="cls-20"><path class="cls-31" d="M60.1,33.33c2.25.66,6.69,2.85,6.19,4s-5.09-.43-6.32-.59A22,22,0,0,0,60.1,33.33Z"/><path class="cls-32" d="M59.94,34.65c1.39.53,3.2,1.87,3,2.48s-1.75-.13-3.13-.43S58.85,34.24,59.94,34.65Z"/></g><path class="cls-33" d="M46.74,37.39c1.28-2.49,7.6-7.36,13.51-5a32.6,32.6,0,0,0-.28,5c-3.09-1.26-8.84-1.23-12,3.37C45.89,43.73,44.85,41.08,46.74,37.39Z"/><g class="cls-20"><path class="cls-18" d="M60.25,32.38a32.6,32.6,0,0,0-.28,5A8.65,8.65,0,0,0,58.46,37l.25-5A8.7,8.7,0,0,1,60.25,32.38Z"/><path class="cls-19" d="M58.71,31.93l-.25,5a10.4,10.4,0,0,0-2.07-.24l-.15-4.92A9,9,0,0,1,58.71,31.93Z"/></g><path class="cls-24" d="M60.66,28.61c6.47,2.42,8.71,10.51,7.48,16.87"/><path class="cls-24" d="M59.54,30.37c5.61,1.48,7.76,10.57,6.73,14.08"/><path class="cls-24" d="M65.74,49.46c-1.34.73-2.5.25-3.86.28"/><path class="cls-24" d="M66.36,50.65c-1.28.87-2.64.57-4.13.51"/><path class="cls-24" d="M59.05,23.65a5.41,5.41,0,0,1,3.21,1.92"/><path class="cls-24" d="M59.75,22.15A5.77,5.77,0,0,1,63.45,25"/><path class="cls-34" d="M45.93,38.22c-1.62-2-8.26,1.9-9.45,2.49s-8.3,3.56-7.68,6.06c.75,3,5.67,14.34,7.06,17.38,2.24,0,8.42-2.58,10.51-3.63s7.87-4.43,9.21-6.22C54,51.37,47.87,40.61,45.93,38.22Z"/><path class="cls-35" d="M48.49,50.58l-11.2,5.7a6.28,6.28,0,0,1,11.2-5.7Z"/><rect class="cls-36" x="40.46" y="24.29" width="8.42" height="2.69" transform="translate(-5.65 14.66) rotate(-17.55)"/><path class="cls-37" d="M45.17,25.48a3.68,3.68,0,1,0,2.4-4.62A3.69,3.69,0,0,0,45.17,25.48Z"/><path class="cls-38" d="M46.42,25.08a2.37,2.37,0,1,0,1.54-3A2.36,2.36,0,0,0,46.42,25.08Z"/><path class="cls-39" d="M48.37,22v0a2.38,2.38,0,0,1,2.44,1.3A2,2,0,0,1,48.37,22Z"/><path class="cls-40" d="M46.34,24.73a2.37,2.37,0,0,1,1.24-2.46h0A2,2,0,0,1,46.34,24.73Z"/><path class="cls-41" d="M51,24a2.38,2.38,0,0,1-1.25,2.46h0A2,2,0,0,1,51,24Z"/><path class="cls-42" d="M46.55,25.42A2,2,0,0,1,49,26.7v0A2.39,2.39,0,0,1,46.55,25.42Z"/><rect class="cls-43" x="13.35" y="40.15" width="8.87" height="2.84" transform="translate(-24.3 25.03) rotate(-45.38)"/><path class="cls-44" d="M17.39,42a3.88,3.88,0,1,1-5.48,0A3.87,3.87,0,0,1,17.39,42Z"/><path class="cls-45" d="M16.42,43a2.5,2.5,0,1,1-3.53,0A2.5,2.5,0,0,1,16.42,43Z"/><path class="cls-46" d="M12.63,43.32h0a2.51,2.51,0,0,0,.06,2.91A2.07,2.07,0,0,0,12.63,43.32Z"/><path class="cls-47" d="M16.13,42.71a2.49,2.49,0,0,0-2.91,0h0A2.07,2.07,0,0,0,16.13,42.71Z"/><path class="cls-48" d="M13.21,46.75a2.49,2.49,0,0,0,2.91,0h0A2.07,2.07,0,0,0,13.21,46.75Z"/><path class="cls-49" d="M16.67,43.24a2.07,2.07,0,0,0,0,2.9h0A2.49,2.49,0,0,0,16.67,43.24Z"/><path class="cls-50" d="M40.42,32.46c1.07,1.86,3.13,2.69,5.89,1.1s3.08-3.78,2-5.64-3.71-2.36-5.89-1.1S39.35,30.6,40.42,32.46Z"/><path class="cls-51" d="M42.53,26.93c-1.53.28-2.65,4.6-2.11,5.53,1.07,1.86,3.13,2.69,5.89,1.1s3.08-3.78,2-5.64c-.08,2.1-.54,2.76-1.48,3.6C46.46,29.82,44.05,26.65,42.53,26.93Z"/><path class="cls-24" d="M40.42,32.46c1.07,1.86,3.13,2.69,5.89,1.1s3.08-3.78,2-5.64-3.71-2.36-5.89-1.1S39.35,30.6,40.42,32.46Z"/><path class="cls-50" d="M26,40.77c1.07,1.86.76,4-2,5.64s-4.82.77-5.89-1.09-.17-4.4,2-5.65S24.92,38.91,26,40.77Z"/><path class="cls-51" d="M20.91,40.77c.44-1.58,4.45-1.1,5.08,0,1.07,1.86.76,4-2,5.64s-4.82.77-5.89-1.09a4.08,4.08,0,0,0,4.27.48A5.52,5.52,0,0,1,20.91,40.77Z"/><path class="cls-24" d="M26,40.77c1.07,1.86.76,4-2,5.64s-4.82.77-5.89-1.09-.17-4.4,2-5.65S24.92,38.91,26,40.77Z"/><path class="cls-52" d="M21.64,42.34c3.09,5.37,9,7.75,17,3.17S47.49,34.6,44.4,29.23s-10.69-6.78-17-3.16S18.55,37,21.64,42.34Z"/><path class="cls-53" d="M29.29,40.06a3.55,3.55,0,1,1-4.71-1.73A3.54,3.54,0,0,1,29.29,40.06Z"/><path class="cls-51" d="M20.2,35.59A10.25,10.25,0,0,0,21.08,42c5.14-6.33,14.69-11.75,22.56-13.36a10,10,0,0,0-4.21-3.44Z"/><path class="cls-51" d="M21.64,42.34c3.09,5.37,9,7.75,17,3.17S47.49,34.6,44.4,29.23c2,4.88-.95,11.22-7.22,14.88C29.94,48.34,25.36,46.1,21.64,42.34Z"/><path class="cls-24" d="M21.64,42.34c3.09,5.37,9,7.75,17,3.17S47.49,34.6,44.4,29.23s-10.69-6.78-17-3.16S18.55,37,21.64,42.34Z"/><path class="cls-54" d="M24.43,21.14c-4.28,2.64-6.41,9-2.29,15.92l8.59-5.31,8.59-5.31C35.2,19.49,28.7,18.49,24.43,21.14Z"/><path class="cls-55" d="M20.54,41.12a.24.24,0,0,1-.21-.11c-3.57-5.89.2-13.16,5.74-16.51a15.42,15.42,0,0,1,7.85-2.24,10.48,10.48,0,0,1,9.29,4.88.26.26,0,0,1,0,.31.29.29,0,0,1-.18.07.33.33,0,0,1-.13,0h0a1.29,1.29,0,0,0-.39,0c-1,0-3.84.55-10.88,4.25-9.77,5.14-10.81,9.2-10.82,9.24a.27.27,0,0,1-.2.19Z"/><path d="M33.92,22.51A10.23,10.23,0,0,1,43,27.27a1.06,1.06,0,0,0-.52-.08c-1,0-3.85.53-11,4.28-10,5.28-10.95,9.41-10.95,9.41-3.43-5.67.07-12.78,5.66-16.17a15.16,15.16,0,0,1,7.72-2.2m0-.49a15.53,15.53,0,0,0-8,2.27c-5.65,3.41-9.48,10.83-5.84,16.84a.51.51,0,0,0,.43.24h.08A.5.5,0,0,0,21,41s1.08-4,10.7-9.07c7.25-3.81,9.94-4.22,10.76-4.22a2.66,2.66,0,0,1,.31,0,.41.41,0,0,0,.21.05.47.47,0,0,0,.35-.14.51.51,0,0,0,.08-.61,10.76,10.76,0,0,0-9.51-5Z"/><path class="cls-56" d="M26.65,25.62c5.59-3.38,12.47-3.31,16.35,1.65,0,0-2.33-.57-12,4.56-10,5.33-10.5,9.05-10.5,9.05C17.78,35.16,21.06,29,26.65,25.62Z"/><path class="cls-57" d="M29.3,24.05c.3.49-.65,1.6-2.12,2.47S24.29,27.7,24,27.2s.65-1.6,2.12-2.47S29,23.55,29.3,24.05Z"/><path class="cls-58" d="M37.66,35.56l-5.59,2.72s2.78,6.61,6.1,4.87S37.66,35.56,37.66,35.56Z"/><path class="cls-59" d="M38.44,43a2.69,2.69,0,0,0,1.11-3c-1.46-.3-3.7.88-5,2C35.64,43.14,37.05,43.86,38.44,43Z"/><path class="cls-60" d="M37.66,35.56l-5.59,2.72s2.78,6.61,6.1,4.87S37.66,35.56,37.66,35.56Z"/><path class="cls-5" d="M33,36l2.3-1.3s1.51.26,2.63.43a5.33,5.33,0,0,1-2.47,2.49,7.38,7.38,0,0,1-3.72,1C32.32,37.57,33,36,33,36Z"/><path class="cls-50" d="M32.47,35.63c.29.95,1.36,1.12,2.35.54s1.18-1.48.22-2"/><path class="cls-61" d="M45.37,31.57a3,3,0,1,1-4-1.46A3,3,0,0,1,45.37,31.57Z"/><path class="cls-24" d="M25.33,38.33c-.38-2.11,3.49-4.4,5.29-2.7"/><path class="cls-24" d="M41,30.46c-1.46-1.58-5.62.14-5.34,2.6"/><path class="cls-62" d="M30.24,28.09h0s0,0,0,0a.65.65,0,0,1,.51.37.63.63,0,0,1-.29.85l.23.43a1.11,1.11,0,0,0,.53-1.48,1.14,1.14,0,0,0-.5-.47,1.05,1.05,0,0,0,0-.12c0-.07,0-.15-.15-.38l-.55-1L28.69,27l.44.81-.44.24.24.45.89-.48-.43-.8.49-.27.37.69a.39.39,0,0,1,0,.42"/><path class="cls-63" d="M28.26,27.27l-.13.06h0a1,1,0,0,0-.5.61,1,1,0,0,0,.17.76l1.1,2.05L30.3,30l-.44-.8.45-.24-.25-.45-.88.48.43.81-.51.27-.91-1.69a.41.41,0,0,1,.21-.6l.1-.06Z"/><path class="cls-64" d="M52.07,47.44c.37.07.94,1,1.12,1.23C51.76,50,38.52,56.81,33,58.39c0,0-.73-1.53-.78-1.64C38.29,55.7,52.07,47.44,52.07,47.44Z"/><path class="cls-65" d="M42.87,50a1.31,1.31,0,1,1-1.76-.57A1.31,1.31,0,0,1,42.87,50Z"/><path class="cls-66" d="M43.46,48.69c-1,.12-.65,1.32-1.76,1.88s-1.89-.39-2.55.32c-1.17,1.25,1.06,2.74,3.48,1.51S45.16,48.49,43.46,48.69Z"/><path class="cls-19" d="M34.39,60.82c.62,1.43,1.14,2.61,1.47,3.33,2.24,0,8.42-2.58,10.51-3.63s7.87-4.43,9.21-6.22c-.36-.66-.95-1.73-1.68-3C50,54.08,39.2,59.23,34.39,60.82Z"/><path class="cls-24" d="M59.23,68c3.1,3.67,9.59,14.67,11.56,19.75"/><path class="cls-24" d="M54.44,68.54c1.69,2.54,4.23,5.36,5.64,9"/><path class="cls-24" d="M49.08,72.77c1.41,2.82,7.05,11.56,7.89,15"/></svg>