<?xml version="1.0" encoding="UTF-8" standalone="no"?>
<svg
   xmlns:dc="http://purl.org/dc/elements/1.1/"
   xmlns:cc="http://creativecommons.org/ns#"
   xmlns:rdf="http://www.w3.org/1999/02/22-rdf-syntax-ns#"
   xmlns:svg="http://www.w3.org/2000/svg"
   xmlns="http://www.w3.org/2000/svg"
   xmlns:xlink="http://www.w3.org/1999/xlink"
   xmlns:sodipodi="http://sodipodi.sourceforge.net/DTD/sodipodi-0.dtd"
   xmlns:inkscape="http://www.inkscape.org/namespaces/inkscape"
   id="圖層_1"
   data-name="圖層 1"
   viewBox="0 0 88 88"
   version="1.1"
   sodipodi:docname="money_thumbup.svg"
   inkscape:version="0.92.3 (2405546, 2018-03-11)">
  <metadata
     id="metadata4091">
    <rdf:RDF>
      <cc:Work
         rdf:about="">
        <dc:format>image/svg+xml</dc:format>
        <dc:type
           rdf:resource="http://purl.org/dc/dcmitype/StillImage" />
        <dc:title>money08</dc:title>
      </cc:Work>
    </rdf:RDF>
  </metadata>
  <sodipodi:namedview
     pagecolor="#ffffff"
     bordercolor="#666666"
     borderopacity="1"
     objecttolerance="10"
     gridtolerance="10"
     guidetolerance="10"
     inkscape:pageopacity="0"
     inkscape:pageshadow="2"
     inkscape:window-width="1920"
     inkscape:window-height="1001"
     id="namedview4089"
     showgrid="false"
     inkscape:zoom="8.8295455"
     inkscape:cx="44"
     inkscape:cy="44"
     inkscape:window-x="-9"
     inkscape:window-y="1341"
     inkscape:window-maximized="1"
     inkscape:current-layer="圖層_1" />
  <defs
     id="defs3954">
    <style
       id="style3903">.cls-1{fill:#ffe0ca;}.cls-1,.cls-12,.cls-13,.cls-19,.cls-2,.cls-20,.cls-27,.cls-28,.cls-3,.cls-33,.cls-34,.cls-35,.cls-36,.cls-37,.cls-38,.cls-39,.cls-4,.cls-42,.cls-43,.cls-5,.cls-6,.cls-9{stroke:#000;}.cls-1,.cls-12,.cls-13,.cls-19,.cls-2,.cls-20,.cls-27,.cls-28,.cls-3,.cls-33,.cls-34,.cls-35,.cls-36,.cls-37,.cls-38,.cls-39,.cls-4,.cls-5,.cls-6,.cls-9{stroke-linecap:round;}.cls-1,.cls-12,.cls-13,.cls-19,.cls-2,.cls-20,.cls-27,.cls-28,.cls-3,.cls-33,.cls-34,.cls-35,.cls-36,.cls-37,.cls-38,.cls-39,.cls-4,.cls-42,.cls-43{stroke-width:0.88px;}.cls-2{fill:url(#linear-gradient);}.cls-3{fill:#38adf2;}.cls-4,.cls-44{fill:#fff;}.cls-5,.cls-6{stroke-width:0.97px;}.cls-5{fill:url(#linear-gradient-2);}.cls-27,.cls-6{fill:none;}.cls-7{fill:#b5001f;}.cls-8{stroke:#fff014;stroke-miterlimit:10;stroke-width:1.03px;}.cls-9{stroke-width:0.7px;fill:url(#linear-gradient-3);}.cls-10{fill:url(#linear-gradient-4);}.cls-11{fill:url(#linear-gradient-5);}.cls-12{fill:url(#linear-gradient-6);}.cls-13{fill:url(#linear-gradient-7);}.cls-14{fill:url(#linear-gradient-8);}.cls-15{fill:url(#linear-gradient-9);}.cls-16{fill:url(#linear-gradient-10);}.cls-17{fill:url(#linear-gradient-11);}.cls-18{fill:url(#linear-gradient-12);}.cls-19{fill:url(#linear-gradient-13);}.cls-20{fill:url(#linear-gradient-14);}.cls-21{fill:url(#linear-gradient-15);}.cls-22{fill:url(#linear-gradient-16);}.cls-23{fill:url(#linear-gradient-17);}.cls-24{fill:url(#linear-gradient-18);}.cls-25{fill:url(#linear-gradient-19);}.cls-26{fill:#f8ba96;}.cls-28{fill:url(#linear-gradient-20);}.cls-29{fill:#171717;}.cls-30{fill:url(#linear-gradient-21);}.cls-31{fill:url(#linear-gradient-22);}.cls-32{fill:url(#linear-gradient-23);}.cls-33{fill:url(#linear-gradient-24);}.cls-34{fill:#ff8678;}.cls-35{fill:url(#linear-gradient-25);}.cls-36{fill:url(#linear-gradient-26);}.cls-37{fill:url(#linear-gradient-27);}.cls-38{fill:url(#linear-gradient-28);}.cls-39{fill:url(#linear-gradient-29);}.cls-40{fill:#00a8a0;}.cls-41{fill:#0093c1;}.cls-42,.cls-43{stroke-linejoin:round;}.cls-42{fill:url(#linear-gradient-30);}.cls-43{fill:url(#linear-gradient-31);}</style>
    <linearGradient
       id="linear-gradient"
       x1="49.17"
       y1="62.59"
       x2="69.53"
       y2="62.59"
       gradientUnits="userSpaceOnUse">
      <stop
         offset="0"
         stop-color="#f70033"
         id="stop3905" />
      <stop
         offset="1"
         stop-color="#b5001f"
         id="stop3907" />
    </linearGradient>
    <linearGradient
       id="linear-gradient-2"
       x1="40.11"
       y1="71.51"
       x2="40.11"
       y2="86.99"
       xlink:href="#linear-gradient"
       gradientTransform="translate(6)" />
    <linearGradient
       id="linear-gradient-3"
       x1="106.24"
       y1="125.73"
       x2="106.24"
       y2="135.12"
       gradientTransform="matrix(1, -0.02, 0.02, 1, -68.68, -52.8)"
       gradientUnits="userSpaceOnUse">
      <stop
         offset="0"
         stop-color="#fff014"
         id="stop3911" />
      <stop
         offset="1"
         stop-color="#df8800"
         id="stop3913" />
    </linearGradient>
    <linearGradient
       id="linear-gradient-4"
       x1="111.4"
       y1="121.93"
       x2="111.4"
       y2="126.22"
       xlink:href="#linear-gradient-3"
       gradientTransform="translate(6)" />
    <linearGradient
       id="linear-gradient-5"
       x1="111.4"
       y1="123.91"
       x2="111.4"
       y2="127.08"
       xlink:href="#linear-gradient-3"
       gradientTransform="translate(6)" />
    <linearGradient
       id="linear-gradient-6"
       x1="-1306.85"
       y1="275.36"
       x2="-1295.38"
       y2="275.36"
       gradientTransform="matrix(0,-1,-1,0,243.84735,-1228.2801)"
       xlink:href="#linear-gradient-3" />
    <linearGradient
       id="linear-gradient-7"
       x1="-1309.68"
       y1="262.17"
       x2="-1309.68"
       y2="285.61"
       gradientTransform="matrix(-1,-0.04,-0.04,1,-1216.53,-296.95)"
       xlink:href="#linear-gradient-3" />
    <linearGradient
       id="linear-gradient-8"
       x1="-1309.68"
       y1="279.83"
       x2="-1309.68"
       y2="260.43"
       gradientTransform="matrix(-1,-0.04,-0.04,1,-1216.53,-296.95)"
       xlink:href="#linear-gradient-3" />
    <linearGradient
       id="linear-gradient-9"
       x1="-1312.13"
       y1="262.98"
       x2="-1312.13"
       y2="271.84"
       gradientTransform="matrix(-1,-0.04,-0.04,1,-1216.53,-296.95)"
       xlink:href="#linear-gradient-3" />
    <linearGradient
       id="linear-gradient-10"
       x1="-1307.23"
       y1="262.98"
       x2="-1307.23"
       y2="271.84"
       gradientTransform="matrix(-1,-0.04,-0.04,1,-1216.53,-296.95)"
       xlink:href="#linear-gradient-3" />
    <linearGradient
       id="linear-gradient-11"
       x1="-1312.13"
       y1="262.98"
       x2="-1312.13"
       y2="271.84"
       gradientTransform="matrix(-1,-0.04,-0.04,1,-1216.53,-296.95)"
       xlink:href="#linear-gradient-3" />
    <linearGradient
       id="linear-gradient-12"
       x1="-1307.23"
       y1="262.98"
       x2="-1307.23"
       y2="271.84"
       gradientTransform="matrix(-1,-0.04,-0.04,1,-1216.53,-296.95)"
       xlink:href="#linear-gradient-3" />
    <linearGradient
       id="linear-gradient-13"
       x1="-823.78"
       y1="629.13"
       x2="-812.31"
       y2="629.13"
       gradientTransform="translate(833.46153,-594.78393)"
       xlink:href="#linear-gradient-3" />
    <linearGradient
       id="linear-gradient-14"
       x1="-826.6"
       y1="615.94"
       x2="-826.6"
       y2="639.38"
       gradientTransform="rotate(-3.09,-11442.802,-15153.026)"
       xlink:href="#linear-gradient-3" />
    <linearGradient
       id="linear-gradient-15"
       x1="-826.6"
       y1="633.59"
       x2="-826.6"
       y2="614.2"
       gradientTransform="rotate(-3.09,-11442.802,-15153.026)"
       xlink:href="#linear-gradient-3" />
    <linearGradient
       id="linear-gradient-16"
       x1="-829.05"
       y1="616.75"
       x2="-829.05"
       y2="625.61"
       gradientTransform="rotate(-3.09,-11442.802,-15153.026)"
       xlink:href="#linear-gradient-3" />
    <linearGradient
       id="linear-gradient-17"
       x1="-824.15"
       y1="616.75"
       x2="-824.15"
       y2="625.61"
       gradientTransform="rotate(-3.09,-11442.802,-15153.026)"
       xlink:href="#linear-gradient-3" />
    <linearGradient
       id="linear-gradient-18"
       x1="-829.05"
       y1="616.75"
       x2="-829.05"
       y2="625.61"
       gradientTransform="rotate(-3.09,-11442.802,-15153.026)"
       xlink:href="#linear-gradient-3" />
    <linearGradient
       id="linear-gradient-19"
       x1="-824.15"
       y1="616.75"
       x2="-824.15"
       y2="625.61"
       gradientTransform="rotate(-3.09,-11442.802,-15153.026)"
       xlink:href="#linear-gradient-3" />
    <linearGradient
       id="linear-gradient-20"
       x1="49.5"
       y1="33.72"
       x2="51.76"
       y2="45.49"
       gradientTransform="matrix(0.99, 0.12, -0.12, 0.99, -4.72, 9.84)"
       gradientUnits="userSpaceOnUse">
      <stop
         offset="0"
         stop-color="#ffe0ca"
         id="stop3932" />
      <stop
         offset="1"
         stop-color="#f8c4ab"
         id="stop3934" />
    </linearGradient>
    <linearGradient
       id="linear-gradient-21"
       x1="44.81"
       y1="-11.63"
       x2="52.39"
       y2="15.5"
       gradientTransform="translate(-9.72 13.51) rotate(10.11)"
       gradientUnits="userSpaceOnUse">
      <stop
         offset="0"
         stop-color="#fff"
         id="stop3937" />
      <stop
         offset="0.96"
         stop-color="#171717"
         id="stop3939" />
      <stop
         offset="1"
         id="stop3941" />
    </linearGradient>
    <linearGradient
       id="linear-gradient-22"
       x1="43.61"
       y1="-19.38"
       x2="50.96"
       y2="9.87"
       xlink:href="#linear-gradient-21"
       gradientTransform="translate(6)" />
    <linearGradient
       id="linear-gradient-23"
       x1="-53.62"
       y1="119.63"
       x2="-52.64"
       y2="138.78"
       gradientTransform="rotate(-4.32,-1418.2084,-1211.1131)"
       xlink:href="#linear-gradient-21" />
    <linearGradient
       id="linear-gradient-24"
       x1="52.15"
       y1="40.02"
       x2="54.35"
       y2="47.79"
       xlink:href="#linear-gradient-20"
       gradientTransform="translate(6)" />
    <linearGradient
       id="linear-gradient-25"
       x1="13.45"
       y1="51.6"
       x2="22.4"
       y2="51.6"
       gradientTransform="rotate(-0.39,-155.48462,-934.89834)"
       xlink:href="#linear-gradient-20" />
    <linearGradient
       id="linear-gradient-26"
       x1="13.28"
       y1="66.57"
       x2="28.95"
       y2="66.57"
       xlink:href="#linear-gradient-20"
       gradientTransform="translate(6)" />
    <linearGradient
       id="linear-gradient-27"
       x1="20.29"
       y1="61.85"
       x2="26.54"
       y2="61.85"
       xlink:href="#linear-gradient-20"
       gradientTransform="translate(6)" />
    <linearGradient
       id="linear-gradient-28"
       x1="20.51"
       y1="67.28"
       x2="27.4"
       y2="67.28"
       xlink:href="#linear-gradient-20"
       gradientTransform="translate(6)" />
    <linearGradient
       id="linear-gradient-29"
       x1="21.09"
       y1="72.4"
       x2="27.42"
       y2="72.4"
       xlink:href="#linear-gradient-20"
       gradientTransform="translate(6)" />
    <linearGradient
       id="linear-gradient-30"
       x1="33.19"
       y1="30.15"
       x2="33.48"
       y2="33.09"
       xlink:href="#linear-gradient-21"
       gradientTransform="translate(6)" />
    <linearGradient
       id="linear-gradient-31"
       x1="46.98"
       y1="29.57"
       x2="47.27"
       y2="32.5"
       xlink:href="#linear-gradient-21"
       gradientTransform="translate(6)" />
    <linearGradient
       inkscape:collect="always"
       xlink:href="#linear-gradient"
       id="linearGradient4093"
       gradientUnits="userSpaceOnUse"
       x1="49.17"
       y1="62.59"
       x2="69.53"
       y2="62.59"
       gradientTransform="translate(6)" />
    <linearGradient
       inkscape:collect="always"
       xlink:href="#linear-gradient-3"
       id="linearGradient4095"
       gradientUnits="userSpaceOnUse"
       gradientTransform="matrix(1,-0.02,0.02,1,-62.68,-52.8)"
       x1="106.24"
       y1="125.73"
       x2="106.24"
       y2="135.12" />
    <linearGradient
       inkscape:collect="always"
       xlink:href="#linear-gradient-20"
       id="linearGradient4097"
       gradientUnits="userSpaceOnUse"
       gradientTransform="matrix(0.99,0.12,-0.12,0.99,1.28,9.84)"
       x1="49.5"
       y1="33.72"
       x2="51.76"
       y2="45.49" />
    <linearGradient
       inkscape:collect="always"
       xlink:href="#linear-gradient-21"
       id="linearGradient4099"
       gradientUnits="userSpaceOnUse"
       gradientTransform="rotate(10.11,-78.22563,-14.272397)"
       x1="44.81"
       y1="-11.63"
       x2="52.39"
       y2="15.5" />
  </defs>
  <title
     id="title3956">money08</title>
  <path
     class="cls-1"
     d="m 74.83,66.26 c 0.18,-3.23 -5.69,-1.19 -7.06,-0.4 -2.4,1.4 1.06,3.43 2.79,3.55 2.06,0.15 4.14,-0.9 4.27,-3.15 z"
     id="path3958"
     inkscape:connector-curvature="0"
     style="fill:#ffe0ca;stroke:#000000;stroke-width:0.88px;stroke-linecap:round" />
  <path
     class="cls-2"
     d="m 55.17,57.81 c 6.55,-2.24 17.44,1.36 20.36,6.62 C 74.66,65 66.25,68 66.25,68 64.88,65.27 61.72,61.94 57.78,62.63"
     id="path3960"
     style="fill:url(#linearGradient4093);stroke:#000000;stroke-width:0.88px;stroke-linecap:round"
     inkscape:connector-curvature="0" />
  <path
     class="cls-3"
     d="m 68.46,59 -5.08,5.43 A 10.76,10.76 0 0 1 65,66.12 l 8,-4.55 A 19.34,19.34 0 0 0 68.46,59 Z"
     id="path3962"
     inkscape:connector-curvature="0"
     style="fill:#38adf2;stroke:#000000;stroke-width:0.88px;stroke-linecap:round" />
  <path
     class="cls-4"
     d="M 75.53,64.43 A 10,10 0 0 0 73,61.57 l -8,4.55 A 13,13 0 0 1 66.25,68 c 0,0 8.41,-3 9.28,-3.57 z"
     id="path3964"
     inkscape:connector-curvature="0"
     style="fill:#ffffff;stroke:#000000;stroke-width:0.88px;stroke-linecap:round" />
  <path
     class="cls-5"
     d="M 64.85,77.15 C 62.29,59.92 53.23,53.15 47.31,53.65 42.77,54 33.85,56 30.24,57.8 29.59,60.12 27.37,77.15 27.37,77.15"
     id="path3966"
     style="fill:url(#linear-gradient-2);stroke:#000000;stroke-width:0.97000003px;stroke-linecap:round"
     inkscape:connector-curvature="0" />
  <path
     class="cls-6"
     d="M 64.85,77.15 C 62.29,59.92 53.23,53.15 47.31,53.65 42.77,54 33.85,56 30.24,57.8 29.59,60.12 27.37,77.15 27.37,77.15"
     id="path3968"
     inkscape:connector-curvature="0"
     style="fill:none;stroke:#000000;stroke-width:0.97000003px;stroke-linecap:round" />
  <path
     class="cls-7"
     d="m 29.32,58 c 0.65,-0.59 -0.62,0.35 0,0 z"
     id="path3970"
     inkscape:connector-curvature="0"
     style="fill:#b5001f" />
  <path
     class="cls-7"
     d="m 46.39,53.88 c -4.54,0.39 -13.46,2.39 -17.07,4.15 4.93,3.72 9.84,4.92 16.89,5.1 5.57,0.15 8.83,-0.26 12,-2.43 -4.06,-4.83 -8.51,-7.1 -11.82,-6.82 z"
     id="path3972"
     inkscape:connector-curvature="0"
     style="fill:#b5001f" />
  <path
     class="cls-6"
     d="M 64.85,77.15 C 62.29,59.92 53.23,53.15 47.31,53.65"
     id="path3974"
     inkscape:connector-curvature="0"
     style="fill:none;stroke:#000000;stroke-width:0.97000003px;stroke-linecap:round" />
  <path
     class="cls-8"
     d="M 59.88,73 42.05,73.37 A 8.92,8.92 0 1 1 59.88,73 Z"
     id="path3976"
     inkscape:connector-curvature="0"
     style="stroke:#fff014;stroke-width:1.02999997px;stroke-miterlimit:10" />
  <path
     class="cls-9"
     d="m 65.23,71.28 c 0.42,0.32 0.62,1.8 0.68,2.26 -2.67,0.85 -30.9,1.1 -39.5,0.49 0,0 0,-2.4 0,-2.57 9.19,0.96 38.82,-0.18 38.82,-0.18 z"
     id="path3978"
     style="fill:url(#linearGradient4095);stroke:#000000;stroke-width:0.69999999px;stroke-linecap:round"
     inkscape:connector-curvature="0" />
  <path
     class="cls-10"
     d="m 53.08,68.74 a 1.87,1.87 0 1 1 -1.9,-1.82 1.87,1.87 0 0 1 1.9,1.82 z"
     id="path3980"
     style="fill:url(#linear-gradient-4)"
     inkscape:connector-curvature="0" />
  <path
     class="cls-11"
     d="m 54.62,67.47 c -1.3,-0.45 -1.65,1.28 -3.4,1.31 -1.75,0.03 -2.22,-1.67 -3.46,-1.17 -2.27,0.88 -0.35,4.17 3.51,4.09 3.86,-0.08 5.65,-3.44 3.35,-4.23 z"
     id="path3982"
     style="fill:url(#linear-gradient-5)"
     inkscape:connector-curvature="0" />
  <path
     class="cls-7"
     d="m 46.37,63.26 c 5,-0.45 8.67,-0.77 11.87,-2.56 -4.09,-4 -8.54,-6.55 -11.85,-6.31 -4.54,0.32 -13.45,2 -17.06,3.42 a 10.69,10.69 0 0 0 -2,1.16 31.74,31.74 0 0 0 19.04,4.29 z"
     id="path3984"
     inkscape:connector-curvature="0"
     style="fill:#b5001f" />
  <rect
     class="cls-12"
     x="-34.03265"
     y="66.429878"
     width="4.8000002"
     height="15"
     transform="rotate(-87.51)"
     id="rect3986"
     style="fill:url(#linear-gradient-6);stroke:#000000;stroke-width:0.88px;stroke-linecap:round" />
  <path
     class="cls-13"
     d="m 73.44,34.85 a 6.56,6.56 0 1 0 6.83,-6.27 6.56,6.56 0 0 0 -6.83,6.27 z"
     id="path3988"
     style="fill:url(#linear-gradient-7);stroke:#000000;stroke-width:0.88px;stroke-linecap:round"
     inkscape:connector-curvature="0" />
  <path
     class="cls-14"
     d="m 75.77,35 a 4.22,4.22 0 1 0 4.4,-4 4.22,4.22 0 0 0 -4.4,4 z"
     id="path3990"
     style="fill:url(#linear-gradient-8)"
     inkscape:connector-curvature="0" />
  <path
     class="cls-15"
     d="m 80.9,31 v 0 A 4.23,4.23 0 0 1 84.19,34.66 3.49,3.49 0 0 1 80.9,31 Z"
     id="path3992"
     style="fill:url(#linear-gradient-9)"
     inkscape:connector-curvature="0" />
  <path
     class="cls-16"
     d="M 75.85,34.31 A 4.22,4.22 0 0 1 79.44,31 v 0 a 3.49,3.49 0 0 1 -3.59,3.31 z"
     id="path3994"
     style="fill:url(#linear-gradient-10)"
     inkscape:connector-curvature="0" />
  <path
     class="cls-17"
     d="m 84.13,36 a 4.22,4.22 0 0 1 -3.59,3.37 v 0 A 3.49,3.49 0 0 1 84.13,36 Z"
     id="path3996"
     style="fill:url(#linear-gradient-11)"
     inkscape:connector-curvature="0" />
  <path
     class="cls-18"
     d="m 75.79,35.59 a 3.49,3.49 0 0 1 3.29,3.64 v 0 a 4.22,4.22 0 0 1 -3.29,-3.64 z"
     id="path3998"
     style="fill:url(#linear-gradient-12)"
     inkscape:connector-curvature="0" />
  <rect
     class="cls-19"
     x="6.8115363"
     y="31.976065"
     width="15"
     height="4.8000002"
     transform="rotate(-3.09)"
     id="rect4000"
     style="fill:url(#linear-gradient-13);stroke:#000000;stroke-width:0.88px;stroke-linecap:round" />
  <path
     class="cls-20"
     d="m 15.19,33.6 a 6.55,6.55 0 1 1 -6.9,-6.19 6.54,6.54 0 0 1 6.9,6.19 z"
     id="path4002"
     style="fill:url(#linear-gradient-14);stroke:#000000;stroke-width:0.88px;stroke-linecap:round"
     inkscape:connector-curvature="0" />
  <path
     class="cls-21"
     d="m 12.87,33.73 a 4.23,4.23 0 1 1 -4.45,-4 4.23,4.23 0 0 1 4.45,4 z"
     id="path4004"
     style="fill:url(#linear-gradient-15)"
     inkscape:connector-curvature="0" />
  <path
     class="cls-22"
     d="m 7.7,29.87 v 0 a 4.23,4.23 0 0 0 -3.24,3.7 3.49,3.49 0 0 0 3.24,-3.7 z"
     id="path4006"
     style="fill:url(#linear-gradient-16)"
     inkscape:connector-curvature="0" />
  <path
     class="cls-23"
     d="M 12.78,33.09 A 4.22,4.22 0 0 0 9.15,29.77 v 0 a 3.49,3.49 0 0 0 3.63,3.32 z"
     id="path4008"
     style="fill:url(#linear-gradient-17)"
     inkscape:connector-curvature="0" />
  <path
     class="cls-24"
     d="m 4.52,34.82 a 4.22,4.22 0 0 0 3.62,3.33 v 0 A 3.5,3.5 0 0 0 4.52,34.82 Z"
     id="path4010"
     style="fill:url(#linear-gradient-18)"
     inkscape:connector-curvature="0" />
  <path
     class="cls-25"
     d="M 12.85,34.37 A 3.5,3.5 0 0 0 9.6,38.05 v 0 a 4.23,4.23 0 0 0 3.25,-3.68 z"
     id="path4012"
     style="fill:url(#linear-gradient-19)"
     inkscape:connector-curvature="0" />
  <path
     class="cls-1"
     d="m 60.13,43.4 c -0.13,3.83 2.21,7 7.89,7.2 5.68,0.2 8.22,-2.84 8.35,-6.67 0.13,-3.83 -3.41,-7 -7.9,-7.2 -4.49,-0.2 -8.22,2.84 -8.34,6.67 z"
     id="path4014"
     inkscape:connector-curvature="0"
     style="fill:#ffe0ca;stroke:#000000;stroke-width:0.88px;stroke-linecap:round" />
  <path
     class="cls-26"
     d="m 68.52,37 c -2.58,-1 -8.33,4.49 -8.39,6.41 -0.13,3.83 2.21,7 7.89,7.2 5.68,0.2 8.22,-2.84 8.35,-6.67 -2.1,3.12 -3.37,3.68 -5.64,4.06 1.02,-2.93 0.36,-10 -2.21,-11 z"
     id="path4016"
     inkscape:connector-curvature="0"
     style="fill:#f8ba96" />
  <path
     class="cls-27"
     d="m 60.13,43.4 c -0.13,3.83 2.21,7 7.89,7.2 5.68,0.2 8.22,-2.84 8.35,-6.67 0.13,-3.83 -3.41,-7 -7.9,-7.2 -4.49,-0.2 -8.22,2.84 -8.34,6.67 z"
     id="path4018"
     inkscape:connector-curvature="0"
     style="fill:none;stroke:#000000;stroke-width:0.88px;stroke-linecap:round" />
  <path
     class="cls-1"
     d="m 30.46,42.42 c -0.13,3.83 -2.67,6.86 -8.35,6.67 -5.68,-0.19 -8,-3.37 -7.89,-7.2 0.11,-3.83 3.86,-6.81 8.34,-6.67 4.48,0.14 8.02,3.38 7.9,7.2 z"
     id="path4020"
     inkscape:connector-curvature="0"
     style="fill:#ffe0ca;stroke:#000000;stroke-width:0.88px;stroke-linecap:round" />
  <path
     class="cls-26"
     d="m 22.76,37.65 c 2.15,-2 7.77,2.51 7.7,4.77 -0.13,3.83 -2.67,6.86 -8.35,6.67 -5.68,-0.19 -8,-3.37 -7.89,-7.2 1.43,3.24 3.65,4.46 6,4.75 a 9.83,9.83 0 0 1 2.54,-8.99 z"
     id="path4022"
     inkscape:connector-curvature="0"
     style="fill:#f8ba96" />
  <path
     class="cls-27"
     d="m 30.46,42.42 c -0.13,3.83 -2.67,6.86 -8.35,6.67 -5.68,-0.19 -8,-3.37 -7.89,-7.2 0.11,-3.83 3.86,-6.81 8.34,-6.67 4.48,0.14 8.02,3.38 7.9,7.2 z"
     id="path4024"
     inkscape:connector-curvature="0"
     style="fill:none;stroke:#000000;stroke-width:0.88px;stroke-linecap:round" />
  <path
     class="cls-28"
     d="m 22.38,40.71 c -0.36,11 6.37,20.22 22.75,20.76 16.38,0.54 23.7,-8.18 24.06,-19.22 C 69.55,31.21 59.37,21.92 46.44,21.49 33.51,21.06 22.75,29.67 22.38,40.71 Z"
     id="path4026"
     style="fill:url(#linearGradient4097);stroke:#000000;stroke-width:0.88px;stroke-linecap:round"
     inkscape:connector-curvature="0" />
  <path
     class="cls-26"
     d="m 25.84,31.63 a 18.14,18.14 0 0 0 -3.33,11.1 c 13,-6.46 32.51,-8.19 46.47,-5 a 17.85,17.85 0 0 0 -4.28,-8.7 z"
     id="path4028"
     inkscape:connector-curvature="0"
     style="fill:#f8ba96" />
  <path
     class="cls-26"
     d="m 22.38,40.71 c -0.36,11 6.37,20.22 22.75,20.76 16.38,0.54 23.7,-8.18 24.06,-19.22 C 67.63,51.5 57.2,58.35 44.27,58 29.33,57.61 24.49,49.91 22.38,40.71 Z"
     id="path4030"
     inkscape:connector-curvature="0"
     style="fill:#f8ba96" />
  <path
     class="cls-27"
     d="m 22.38,40.71 c -0.36,11 6.37,20.22 22.75,20.76 16.38,0.54 23.7,-8.18 24.06,-19.22 C 69.55,31.21 59.37,21.92 46.44,21.49 33.51,21.06 22.75,29.67 22.38,40.71 Z"
     id="path4032"
     inkscape:connector-curvature="0"
     style="fill:none;stroke:#000000;stroke-width:0.88px;stroke-linecap:round" />
  <path
     class="cls-29"
     d="m 42.84,10.92 c -8.45,0.83 -16.43,9.26 -15.42,23.62 l 17,-1.67 17,-1.67 C 60.35,16.84 51.28,10.09 42.84,10.92 Z"
     id="path4034"
     inkscape:connector-curvature="0"
     style="fill:#171717" />
  <path
     class="cls-30"
     d="m 21.75,39.9 h -0.13 a 0.44,0.44 0 0 1 -0.31,-0.38 c -1,-12.23 10.77,-20.83 22.28,-21.8 0.75,-0.06 1.52,-0.09 2.29,-0.09 10.41,0 22,6.28 23,17.92 A 0.44,0.44 0 0 1 68.57,36 0.3,0.3 0 0 1 68.44,36 0.43,0.43 0 0 1 68.06,35.79 v 0 c 0,0 -2,-2.26 -17.22,-2.26 -1.28,0 -2.65,0 -4.11,0 C 27,34 22.14,39.68 22.09,39.74 a 0.46,0.46 0 0 1 -0.34,0.16 z"
     id="path4036"
     style="fill:url(#linearGradient4099)"
     inkscape:connector-curvature="0" />
  <path
     d="m 45.88,18.05 c 10.88,0 21.62,6.51 22.54,17.51 0,0 -1.52,-2.47 -17.6,-2.47 -1.28,0 -2.65,0 -4.12,0 -20.21,0.46 -25,6.32 -25,6.32 C 20.77,27.7 32,19.11 43.62,18.14 c 0.75,-0.06 1.5,-0.09 2.26,-0.09 m 0,-0.88 c -0.78,0 -1.56,0 -2.33,0.1 -11.72,1 -23.72,9.77 -22.68,22.27 a 0.88,0.88 0 0 0 0.62,0.76 0.78,0.78 0 0 0 0.26,0 0.87,0.87 0 0 0 0.68,-0.32 c 0,-0.05 4.91,-5.56 24.29,-6 1.42,0 2.8,-0.05 4.1,-0.05 14.33,0 16.72,2 16.9,2.13 a 0.88,0.88 0 0 0 0.7,0.34 0.84,0.84 0 0 0 0.27,0 0.87,0.87 0 0 0 0.6,-0.91 c -1,-11.9 -12.8,-18.32 -23.41,-18.32 z"
     id="path4038"
     inkscape:connector-curvature="0" />
  <path
     class="cls-31"
     d="m 43.61,20 c 11.62,-1 22.55,4.61 24.81,15.6 0,0 -3.28,-2.76 -22.72,-2.21 -20.2,0.57 -24,6.11 -24,6.11 C 21.88,28.15 32,20.93 43.61,20 Z"
     id="path4040"
     style="fill:url(#linear-gradient-22)"
     inkscape:connector-curvature="0" />
  <path
     class="cls-32"
     d="m 49.1,19.55 c 0.08,1 -2.32,2 -5.35,2.27 -3.03,0.27 -5.55,-0.42 -5.62,-1.45 -0.07,-1.03 2.31,-2 5.34,-2.27 3.03,-0.27 5.53,0.42 5.63,1.45 z"
     id="path4042"
     style="fill:url(#linear-gradient-23)"
     inkscape:connector-curvature="0" />
  <path
     class="cls-33"
     d="m 42,57.68 c 1.78,4.8 4.92,8.35 6.78,8.15 2.17,-0.24 4.08,-5.07 5.78,-10.72"
     id="path4044"
     style="fill:url(#linear-gradient-24);stroke:#000000;stroke-width:0.88px;stroke-linecap:round"
     inkscape:connector-curvature="0" />
  <path
     class="cls-34"
     d="m 41.14,45.28 c 2.3,8.91 5.59,17.16 7.27,17 1.68,-0.16 3.44,-8.92 5.28,-17.44 C 51,44.42 41.14,45.28 41.14,45.28 Z"
     id="path4046"
     inkscape:connector-curvature="0"
     style="fill:#ff8678;stroke:#000000;stroke-width:0.88px;stroke-linecap:round" />
  <path
     class="cls-27"
     d="m 39,44.22 a 3.57,3.57 0 0 0 2.13,1.06 c 1.29,0 3.78,1 6.15,0.37 a 24.24,24.24 0 0 1 6.4,-0.83 c 1.05,0 1.71,-1.5 1.71,-1.5"
     id="path4048"
     inkscape:connector-curvature="0"
     style="fill:none;stroke:#000000;stroke-width:0.88px;stroke-linecap:round" />
  <path
     class="cls-4"
     d="m 45.17,42 4.7,-0.37 c 0,0 2.24,1.58 3.92,2.68 A 9.53,9.53 0 0 1 47.92,46.48 13.09,13.09 0 0 1 41.14,45.3 C 42.86,43.91 45.17,42 45.17,42 Z"
     id="path4050"
     inkscape:connector-curvature="0"
     style="fill:#ffffff;stroke:#000000;stroke-width:0.88px;stroke-linecap:round" />
  <path
     class="cls-1"
     d="m 44.56,40.89 c -0.24,1.75 1.35,2.83 3.39,2.65 2.04,-0.18 3,-1.5 1.89,-3.13"
     id="path4052"
     inkscape:connector-curvature="0"
     style="fill:#ffe0ca;stroke:#000000;stroke-width:0.88px;stroke-linecap:round" />
  <path
     class="cls-27"
     d="m 80.08,49.32 c 1.47,4.25 0.17,9.88 -2.54,13.41"
     id="path4054"
     inkscape:connector-curvature="0"
     style="fill:none;stroke:#000000;stroke-width:0.88px;stroke-linecap:round" />
  <path
     class="cls-27"
     d="m 75.66,51 c 0.46,2.31 0,6.5 -1.67,8.31"
     id="path4056"
     inkscape:connector-curvature="0"
     style="fill:none;stroke:#000000;stroke-width:0.88px;stroke-linecap:round" />
  <path
     class="cls-27"
     d="m 36.14,42.87 c 1.9,1.53 3.58,4.71 1.7,8.8"
     id="path4058"
     inkscape:connector-curvature="0"
     style="fill:none;stroke:#000000;stroke-width:0.88px;stroke-linecap:round" />
  <path
     class="cls-27"
     d="m 57.7,42.24 c -1.48,2.72 -1.4,6.38 -0.54,7.61"
     id="path4060"
     inkscape:connector-curvature="0"
     style="fill:none;stroke:#000000;stroke-width:0.88px;stroke-linecap:round" />
  <path
     class="cls-35"
     d="m 23.55,57.46 a 38.29,38.29 0 0 0 -1.56,-7 c -0.8,-1.72 -3.08,-5 -1,-6.42 2.08,-1.42 5.63,-0.32 6.86,1.68 C 29.3,48.1 29.28,56 29,56.69"
     id="path4062"
     style="fill:url(#linear-gradient-25);stroke:#000000;stroke-width:0.88px;stroke-linecap:round"
     inkscape:connector-curvature="0" />
  <path
     class="cls-36"
     d="m 30.73,56.28 c 2.64,0.34 3.25,3.06 1.81,5.13 1.78,0.64 3.13,4.26 0.86,5.8 2.52,1 1.55,4.27 0,5.39 3.25,5 -7.28,5.24 -10.29,3 C 19,72.58 19,67 19.47,62.44 20,57.41 26.55,55.74 30.73,56.28 Z"
     id="path4064"
     style="fill:url(#linear-gradient-26);stroke:#000000;stroke-width:0.88px;stroke-linecap:round"
     inkscape:connector-curvature="0" />
  <path
     class="cls-37"
     d="m 32.54,61.41 a 48.73,48.73 0 0 0 -6.25,0.88"
     id="path4066"
     style="fill:url(#linear-gradient-27);stroke:#000000;stroke-width:0.88px;stroke-linecap:round"
     inkscape:connector-curvature="0" />
  <path
     class="cls-38"
     d="m 33.4,67.21 c -1.61,0.07 -5.87,0.07 -6.89,0.14"
     id="path4068"
     style="fill:url(#linear-gradient-28);stroke:#000000;stroke-width:0.88px;stroke-linecap:round"
     inkscape:connector-curvature="0" />
  <path
     class="cls-39"
     d="M 33.42,72.6 C 32.15,72.49 27.9,72.19 27.09,72.19"
     id="path4070"
     style="fill:url(#linear-gradient-29);stroke:#000000;stroke-width:0.88px;stroke-linecap:round"
     inkscape:connector-curvature="0" />
  <path
     class="cls-40"
     d="m 47,28.21 v 0 c 0,0 0,0 0.05,0.05 a 1.16,1.16 0 0 1 -0.53,2.15 l 0.06,0.88 a 2,2 0 0 0 1.93,-2 1.94,1.94 0 0 0 -0.46,-1.13 1.27,1.27 0 0 0 0.11,-0.18 c 0.06,-0.12 0.06,-0.26 0,-0.74 L 48,25.16 l -2.78,0.2 0.16,1.64 -0.88,0.06 0.06,0.9 1.79,-0.13 -0.11,-1.62 1,-0.07 0.1,1.4 a 0.71,0.71 0 0 1 -0.33,0.67"
     id="path4072"
     inkscape:connector-curvature="0"
     style="fill:#00a8a0" />
  <path
     class="cls-41"
     d="m 44.39,25.42 h -0.26 v 0 a 1.79,1.79 0 0 0 -1.26,0.63 1.76,1.76 0 0 0 -0.28,1.35 l 0.3,4.13 2.82,-0.2 -0.11,-1.62 0.89,-0.07 -0.07,-0.91 -1.79,0.13 0.12,1.64 -1,0.07 -0.25,-3.42 c 0,0 -0.12,-0.74 0.78,-0.83 h 0.2 z"
     id="path4074"
     inkscape:connector-curvature="0"
     style="fill:#0093c1" />
  <path
     class="cls-27"
     d="M 40.73,32.38 A 14.23,14.23 0 0 0 45,36.19"
     id="path4076"
     inkscape:connector-curvature="0"
     style="fill:none;stroke:#000000;stroke-width:0.88px;stroke-linecap:round" />
  <path
     class="cls-27"
     d="m 48.65,36 a 14.33,14.33 0 0 0 3.52,-4"
     id="path4078"
     inkscape:connector-curvature="0"
     style="fill:none;stroke:#000000;stroke-width:0.88px;stroke-linecap:round" />
  <ellipse
     class="cls-42"
     cx="40.07"
     cy="38.98"
     rx="2.27"
     ry="3.3699999"
     id="ellipse4080"
     style="fill:url(#linear-gradient-30);stroke:#000000;stroke-width:0.88px;stroke-linejoin:round" />
  <ellipse
     class="cls-43"
     cx="53.860001"
     cy="38.389999"
     rx="2.27"
     ry="3.3699999"
     id="ellipse4082"
     style="fill:url(#linear-gradient-31);stroke:#000000;stroke-width:0.88px;stroke-linejoin:round" />
  <ellipse
     class="cls-44"
     cx="39.630001"
     cy="37.990002"
     rx="0.81"
     ry="0.83999997"
     id="ellipse4084"
     style="fill:#ffffff" />
  <ellipse
     class="cls-44"
     cx="53.419998"
     cy="37.509998"
     rx="0.81"
     ry="0.83999997"
     id="ellipse4086"
     style="fill:#ffffff" />
</svg>
