<svg id="圖層_1" data-name="圖層 1" xmlns="http://www.w3.org/2000/svg" xmlns:xlink="http://www.w3.org/1999/xlink" viewBox="0 0 88 88"><defs><style>.cls-1,.cls-10,.cls-11,.cls-12,.cls-18,.cls-19,.cls-2,.cls-20,.cls-26,.cls-28,.cls-29,.cls-32,.cls-6,.cls-7,.cls-8,.cls-9{stroke:#000;stroke-linecap:round;}.cls-1,.cls-10,.cls-11,.cls-12,.cls-18,.cls-19,.cls-2,.cls-20,.cls-26,.cls-28,.cls-29{stroke-width:0.85px;}.cls-1{fill:url(#linear-gradient);}.cls-2{fill:url(#linear-gradient-2);}.cls-3{stroke:#fff014;stroke-miterlimit:10;stroke-width:1.05px;}.cls-4{fill:url(#linear-gradient-3);}.cls-5{fill:url(#linear-gradient-4);}.cls-32,.cls-6{stroke-width:0.88px;}.cls-6{fill:url(#linear-gradient-5);}.cls-32,.cls-7,.cls-8,.cls-9{stroke-linejoin:round;}.cls-7,.cls-8,.cls-9{stroke-width:0.57px;}.cls-7{fill:url(#linear-gradient-6);}.cls-8{fill:#7fd3ff;}.cls-9{fill:url(#linear-gradient-7);}.cls-10{fill:url(#linear-gradient-8);}.cls-11{fill:url(#linear-gradient-9);}.cls-12{fill:url(#linear-gradient-10);}.cls-13{fill:url(#linear-gradient-11);}.cls-14{fill:url(#linear-gradient-12);}.cls-15{fill:url(#linear-gradient-13);}.cls-16{fill:url(#linear-gradient-14);}.cls-17{fill:url(#linear-gradient-15);}.cls-18{fill:url(#linear-gradient-16);}.cls-19{fill:url(#linear-gradient-17);}.cls-20{fill:url(#linear-gradient-18);}.cls-21{fill:url(#linear-gradient-19);}.cls-22{fill:url(#linear-gradient-20);}.cls-23{fill:url(#linear-gradient-21);}.cls-24{fill:url(#linear-gradient-22);}.cls-25{fill:url(#linear-gradient-23);}.cls-26{fill:#ffe0ca;}.cls-27{fill:#f8ba96;}.cls-28{fill:none;}.cls-29{fill:#ff8678;}.cls-30{fill:#ff4d4f;}.cls-31{fill:#fff;}.cls-32{fill:url(#linear-gradient-24);}</style><linearGradient id="linear-gradient" x1="43.53" y1="46.67" x2="43.53" y2="63.29" gradientUnits="userSpaceOnUse"><stop offset="0" stop-color="#f70033"/><stop offset="1" stop-color="#b5001f"/></linearGradient><linearGradient id="linear-gradient-2" x1="43.53" y1="46.67" x2="43.53" y2="63.29" xlink:href="#linear-gradient"/><linearGradient id="linear-gradient-3" x1="99.32" y1="95.94" x2="99.32" y2="100.32" gradientTransform="translate(-55.82 -40.43) rotate(-0.07)" gradientUnits="userSpaceOnUse"><stop offset="0" stop-color="#fff014"/><stop offset="1" stop-color="#df8800"/></linearGradient><linearGradient id="linear-gradient-4" x1="99.32" y1="97.95" x2="99.32" y2="101.19" xlink:href="#linear-gradient-3"/><linearGradient id="linear-gradient-5" x1="107.28" y1="107.93" x2="107.28" y2="118.43" gradientTransform="matrix(1, -0.02, 0.02, 1, -65.85, -46.25)" xlink:href="#linear-gradient-3"/><linearGradient id="linear-gradient-6" x1="17.46" y1="20.44" x2="17.46" y2="49.67" gradientUnits="userSpaceOnUse"><stop offset="0" stop-color="#fff"/><stop offset="1" stop-color="#7fd3ff"/></linearGradient><linearGradient id="linear-gradient-7" x1="1526.97" y1="20.44" x2="1526.97" y2="49.67" gradientTransform="matrix(-1, 0, 0, 1, 1597.37, 0)" xlink:href="#linear-gradient-6"/><linearGradient id="linear-gradient-8" x1="-204.83" y1="1487.54" x2="-189.42" y2="1487.54" gradientTransform="matrix(-1.07, -0.5, 0.35, 0.52, -665.82, -824.25)" xlink:href="#linear-gradient-3"/><linearGradient id="linear-gradient-9" x1="66.21" y1="80.73" x2="64.17" y2="83.27" gradientTransform="translate(19.38 -43.69) rotate(2.79)" xlink:href="#linear-gradient-3"/><linearGradient id="linear-gradient-10" x1="-202.62" y1="1479.97" x2="-202.62" y2="1502.45" gradientTransform="matrix(-1.07, -0.5, 0.35, 0.52, -665.82, -824.25)" xlink:href="#linear-gradient-3"/><linearGradient id="linear-gradient-11" x1="-202.62" y1="1496.9" x2="-202.62" y2="1478.3" gradientTransform="matrix(-1.07, -0.5, 0.35, 0.52, -665.82, -824.25)" xlink:href="#linear-gradient-3"/><linearGradient id="linear-gradient-12" x1="-204.97" y1="1480.75" x2="-204.97" y2="1489.25" gradientTransform="matrix(-1.07, -0.5, 0.35, 0.52, -665.82, -824.25)" xlink:href="#linear-gradient-3"/><linearGradient id="linear-gradient-13" x1="-200.27" y1="1480.75" x2="-200.27" y2="1489.25" gradientTransform="matrix(-1.07, -0.5, 0.35, 0.52, -665.82, -824.25)" xlink:href="#linear-gradient-3"/><linearGradient id="linear-gradient-14" x1="-204.97" y1="1480.75" x2="-204.97" y2="1489.25" gradientTransform="matrix(-1.07, -0.5, 0.35, 0.52, -665.82, -824.25)" xlink:href="#linear-gradient-3"/><linearGradient id="linear-gradient-15" x1="-200.27" y1="1480.75" x2="-200.27" y2="1489.25" gradientTransform="matrix(-1.07, -0.5, 0.35, 0.52, -665.82, -824.25)" xlink:href="#linear-gradient-3"/><linearGradient id="linear-gradient-16" x1="-1902.68" y1="-28.1" x2="-1887.27" y2="-28.1" gradientTransform="matrix(1.12, -0.39, -0.4, 0.48, 2129.04, -688.12)" xlink:href="#linear-gradient-3"/><linearGradient id="linear-gradient-17" x1="1359.09" y1="83.46" x2="1357.05" y2="85.99" gradientTransform="matrix(-1, -0.05, -0.05, 1, 1370.85, 21.59)" xlink:href="#linear-gradient-3"/><linearGradient id="linear-gradient-18" x1="-1900.47" y1="-35.67" x2="-1900.47" y2="-13.19" gradientTransform="matrix(1.12, -0.39, -0.4, 0.48, 2129.04, -688.12)" xlink:href="#linear-gradient-3"/><linearGradient id="linear-gradient-19" x1="-1900.47" y1="-18.74" x2="-1900.47" y2="-37.34" gradientTransform="matrix(1.12, -0.39, -0.4, 0.48, 2129.04, -688.12)" xlink:href="#linear-gradient-3"/><linearGradient id="linear-gradient-20" x1="-1902.82" y1="-34.89" x2="-1902.82" y2="-26.4" gradientTransform="matrix(1.12, -0.39, -0.4, 0.48, 2129.04, -688.12)" xlink:href="#linear-gradient-3"/><linearGradient id="linear-gradient-21" x1="-1898.12" y1="-34.9" x2="-1898.12" y2="-26.4" gradientTransform="matrix(1.12, -0.39, -0.4, 0.48, 2129.04, -688.12)" xlink:href="#linear-gradient-3"/><linearGradient id="linear-gradient-22" x1="-1902.82" y1="-34.89" x2="-1902.82" y2="-26.4" gradientTransform="matrix(1.12, -0.39, -0.4, 0.48, 2129.04, -688.12)" xlink:href="#linear-gradient-3"/><linearGradient id="linear-gradient-23" x1="-1898.12" y1="-34.89" x2="-1898.12" y2="-26.4" gradientTransform="matrix(1.12, -0.39, -0.4, 0.48, 2129.04, -688.12)" xlink:href="#linear-gradient-3"/><linearGradient id="linear-gradient-24" x1="44" y1="85.58" x2="44" y2="75.16" xlink:href="#linear-gradient-6"/></defs><title>money15</title><path class="cls-1" d="M67.82,67.24c0-9.09-3.69-24-24.29-24s-24.29,14.92-24.29,24"/><path class="cls-2" d="M61.72,67.24c0-9.09-2.77-24-18.19-24s-18.19,14.92-18.19,24"/><path class="cls-3" d="M52.38,61.81l-18.2,0a9.1,9.1,0,1,1,18.2,0Z"/><path class="cls-4" d="M45.53,57.35a1.91,1.91,0,1,1-1.9-1.91A1.9,1.9,0,0,1,45.53,57.35Z"/><path class="cls-5" d="M47.13,56.08c-1.32-.49-1.71,1.27-3.5,1.27s-2.19-1.75-3.51-1.26c-2.33.85-.43,4.24,3.51,4.23S49.46,56.92,47.13,56.08Z"/><path class="cls-6" d="M62.32,60.47c.37.29.53,2,.58,2.41-2.37.75-30.84.66-38.46.13,0,0,.39-2.65.39-2.8C33,61.07,62.32,60.47,62.32,60.47Z"/><path class="cls-7" d="M29.94,16.42C25.36,9.55,2.5,15.15,2.5,64.69,2.5,73.06,15,74.48,15,65s.85-51.1,10.93-45.42S31.82,19.26,29.94,16.42Z"/><path class="cls-8" d="M3.26,29.49a1.37,1.37,0,1,0,1.37-1.38A1.37,1.37,0,0,0,3.26,29.49Z"/><path class="cls-8" d="M10.78,16.29a1.38,1.38,0,1,0,1.37-1.38A1.38,1.38,0,0,0,10.78,16.29Z"/><path class="cls-9" d="M57.92,16.42c4.58-6.87,27.44-1.27,27.44,48.27,0,8.37-12.49,9.79-12.49.28S72,13.87,61.94,19.55,56,19.26,57.92,16.42Z"/><path class="cls-8" d="M84.6,29.49a1.37,1.37,0,1,1-1.37-1.38A1.37,1.37,0,0,1,84.6,29.49Z"/><path class="cls-8" d="M77.08,16.29a1.38,1.38,0,1,1-1.37-1.38A1.38,1.38,0,0,1,77.08,16.29Z"/><polygon class="cls-10" points="61.42 39.5 76.88 46.67 79.02 43.61 63.56 36.44 61.42 39.5"/><path class="cls-11" d="M83.49,50.21a14.84,14.84,0,0,0,1.16-2.06c.17-.55-2.15-3.48-5.5-5.55s-7.81-3.05-8.33-2.52a20.66,20.66,0,0,0-1.4,1.8Z"/><path class="cls-12" d="M69.63,43.07c1.22,1.79,5.23,4.64,9,6.37s5.77,1.69,4.55-.1-5.23-4.65-9-6.38S68.41,41.28,69.63,43.07Z"/><path class="cls-13" d="M72,44.18c.79,1.16,3.37,3,5.78,4.11s3.72,1.09,2.93-.07-3.37-3-5.78-4.1S71.25,43,72,44.18Z"/><path class="cls-14" d="M75.74,44.51h0a18.29,18.29,0,0,1,4.73,3.38A14.15,14.15,0,0,1,75.74,44.51Z"/><path class="cls-15" d="M71.87,43.89c-.32-.75.64-.79,2.36-.09h0C74.89,44.76,73.83,44.79,71.87,43.89Z"/><path class="cls-16" d="M80.9,48.52c.32.75-.64.78-2.36.09h0C77.88,47.65,78.94,47.62,80.9,48.52Z"/><path class="cls-17" d="M72.3,44.53A14,14,0,0,1,77,47.9h0A18.19,18.19,0,0,1,72.3,44.53Z"/><polygon class="cls-18" points="29.45 40.05 13.37 45.69 11.53 42.43 27.61 36.8 29.45 40.05"/><path class="cls-19" d="M6.44,48.56a14.21,14.21,0,0,1-1-2.15c-.12-.57,2.48-3.26,6-5s8.07-2.28,8.53-1.7a20.19,20.19,0,0,1,1.22,1.92Z"/><path class="cls-20" d="M20.93,42.81c-1.39,1.66-5.66,4.11-9.54,5.47s-5.9,1.12-4.52-.55,5.67-4.11,9.55-5.47S22.32,41.15,20.93,42.81Z"/><path class="cls-21" d="M18.43,43.69c-.89,1.07-3.65,2.65-6.15,3.52s-3.8.72-2.91-.35,3.65-2.65,6.15-3.53S19.33,42.61,18.43,43.69Z"/><path class="cls-22" d="M14.71,43.65h0a18,18,0,0,0-5,2.91A14.18,14.18,0,0,0,14.71,43.65Z"/><path class="cls-23" d="M18.62,43.41c.39-.72-.56-.85-2.34-.32h0C15.53,44,16.59,44.11,18.62,43.41Z"/><path class="cls-24" d="M9.18,47.13c-.39.72.56.85,2.34.33l0,0C12.27,46.57,11.22,46.43,9.18,47.13Z"/><path class="cls-25" d="M18.13,44a14,14,0,0,0-5,2.9h0A18.25,18.25,0,0,0,18.13,44Z"/><path class="cls-26" d="M60.11,30.65c-.56,1.75,1.22,3.88,6.41,5.53s7.88,1,8.44-.8-2.32-4.22-6.42-5.53S60.66,28.9,60.11,30.65Z"/><path class="cls-26" d="M29,31.86c.5,1.77-1.35,3.83-6.61,5.3s-7.9.66-8.4-1.11,2.47-4.14,6.61-5.3S28.49,30.09,29,31.86Z"/><path class="cls-26" d="M66.07,31.19c.18,10.59-6.42,19.29-22.13,19.56S21.34,42.55,21.16,32,30.88,12.61,43.29,12.4,65.89,20.6,66.07,31.19Z"/><path class="cls-27" d="M66.07,31.19c.18,10.59-6.42,19.29-22.13,19.56S21.34,42.55,21.16,32C24,38.05,29,43.15,43.56,43.34,58.62,43.52,63.35,37.42,66.07,31.19Z"/><path class="cls-28" d="M66.07,31.19c.18,10.59-6.42,19.29-22.13,19.56S21.34,42.55,21.16,32,30.88,12.61,43.29,12.4,65.89,20.6,66.07,31.19Z"/><path class="cls-29" d="M58.39,23.32C54.17,17,46.72,19.24,43.06,19.24S32,17,27.73,23.32s.21,16.74,3.44,14.49,8.51-2.67,11.89-2.67,8.65.42,11.89,2.67S62.61,29.65,58.39,23.32Z"/><path class="cls-30" d="M42.93,30c-4,0-11.5,2.41-10,7h0c3.06-1.46,7.12-1.82,10-1.85s7,.39,10,1.85h0C54.42,32.38,46.93,30,42.93,30Z"/><path class="cls-31" d="M57.92,23.32c-4.13-6.2-11.36-4.17-15.1-4.08-3.73-.09-11-2.12-15.09,4.08a9.69,9.69,0,0,0-1.13,2.31,2.73,2.73,0,0,0,4.4-.08c2-2.46,3.09-4.93,11.82-4.93s9.87,2.47,11.82,4.93a2.74,2.74,0,0,0,4.41.08A10.09,10.09,0,0,0,57.92,23.32Z"/><path class="cls-28" d="M58.39,23.32C54.17,17,46.72,19.24,43.06,19.24S32,17,27.73,23.32s.21,16.74,3.44,14.49,8.51-2.67,11.89-2.67,8.65.42,11.89,2.67S62.61,29.65,58.39,23.32Z"/><path class="cls-32" d="M82.18,64.6a4.48,4.48,0,0,1-5.87,0,4.48,4.48,0,0,1-5.87,0,4.49,4.49,0,0,1-5.88,0,4.48,4.48,0,0,1-5.87,0,4.49,4.49,0,0,1-5.88,0,4.48,4.48,0,0,1-5.87,0,4.49,4.49,0,0,1-5.88,0,4.48,4.48,0,0,1-5.87,0,4.49,4.49,0,0,1-5.88,0,4.48,4.48,0,0,1-5.87,0,4.49,4.49,0,0,1-5.88,0,4.48,4.48,0,0,1-5.87,0,4.49,4.49,0,0,1-5.88,0,4.48,4.48,0,0,1-5.87,0v11H88.06v-11A4.49,4.49,0,0,1,82.18,64.6Z"/></svg>