<svg id="圖層_1" data-name="圖層 1" xmlns="http://www.w3.org/2000/svg" xmlns:xlink="http://www.w3.org/1999/xlink" viewBox="0 0 88 88"><defs><style>.cls-1,.cls-3{fill:#f70033;}.cls-1,.cls-15,.cls-16,.cls-2,.cls-22,.cls-26,.cls-3,.cls-5,.cls-8,.cls-9{stroke:#000;stroke-linecap:round;}.cls-1,.cls-15,.cls-16,.cls-2,.cls-22,.cls-26,.cls-8,.cls-9{stroke-width:0.88px;}.cls-2{fill:none;}.cls-3{stroke-width:0.96px;}.cls-4{stroke:#fff014;stroke-miterlimit:10;stroke-width:1.03px;}.cls-5{stroke-width:0.7px;fill:url(#linear-gradient);}.cls-6{fill:url(#linear-gradient-2);}.cls-7{fill:url(#linear-gradient-3);}.cls-8{fill:url(#linear-gradient-4);}.cls-9{fill:url(#linear-gradient-5);}.cls-10{fill:url(#linear-gradient-6);}.cls-11{fill:url(#linear-gradient-7);}.cls-12{fill:url(#linear-gradient-8);}.cls-13{fill:url(#linear-gradient-9);}.cls-14{fill:url(#linear-gradient-10);}.cls-15{fill:url(#linear-gradient-11);}.cls-16{fill:url(#linear-gradient-12);}.cls-17{fill:url(#linear-gradient-13);}.cls-18{fill:url(#linear-gradient-14);}.cls-19{fill:url(#linear-gradient-15);}.cls-20{fill:url(#linear-gradient-16);}.cls-21{fill:url(#linear-gradient-17);}.cls-22{fill:#ffe0ca;}.cls-23{fill:#f8ba96;}.cls-24{fill:url(#radial-gradient);}.cls-25{fill:url(#radial-gradient-2);}.cls-26{fill:#fff;}.cls-27{fill:#171717;}.cls-28{fill:url(#linear-gradient-18);}.cls-29{fill:url(#linear-gradient-19);}.cls-30{fill:url(#linear-gradient-20);}.cls-31{fill:#00a8a0;}.cls-32{fill:#0093c1;}</style><linearGradient id="linear-gradient" x1="112.26" y1="120.63" x2="112.26" y2="131.6" gradientTransform="matrix(1, -0.02, 0.02, 1, -68.61, -46.22)" gradientUnits="userSpaceOnUse"><stop offset="0" stop-color="#fff014"/><stop offset="1" stop-color="#df8800"/></linearGradient><linearGradient id="linear-gradient-2" x1="112.25" y1="117.4" x2="112.25" y2="121.69" xlink:href="#linear-gradient"/><linearGradient id="linear-gradient-3" x1="112.25" y1="119.38" x2="112.25" y2="122.55" xlink:href="#linear-gradient"/><linearGradient id="linear-gradient-4" x1="-374.14" y1="-839.19" x2="-359.27" y2="-839.19" gradientTransform="translate(926.66 187.52) rotate(-57.69)" xlink:href="#linear-gradient"/><linearGradient id="linear-gradient-5" x1="-1148.51" y1="-430.52" x2="-1148.51" y2="-407.5" gradientTransform="translate(1230.94 -26.52) rotate(-23.77)" xlink:href="#linear-gradient"/><linearGradient id="linear-gradient-6" x1="-1148.51" y1="-413.19" x2="-1148.51" y2="-432.23" gradientTransform="translate(1230.94 -26.52) rotate(-23.77)" xlink:href="#linear-gradient"/><linearGradient id="linear-gradient-7" x1="-1150.92" y1="-429.73" x2="-1150.92" y2="-421.02" gradientTransform="translate(1230.94 -26.52) rotate(-23.77)" xlink:href="#linear-gradient"/><linearGradient id="linear-gradient-8" x1="-1146.1" y1="-429.73" x2="-1146.1" y2="-421.03" gradientTransform="translate(1230.94 -26.52) rotate(-23.77)" xlink:href="#linear-gradient"/><linearGradient id="linear-gradient-9" x1="-1150.92" y1="-429.73" x2="-1150.92" y2="-421.02" gradientTransform="translate(1230.94 -26.52) rotate(-23.77)" xlink:href="#linear-gradient"/><linearGradient id="linear-gradient-10" x1="-1146.1" y1="-429.72" x2="-1146.1" y2="-421.02" gradientTransform="translate(1230.94 -26.52) rotate(-23.77)" xlink:href="#linear-gradient"/><linearGradient id="linear-gradient-11" x1="619.51" y1="86.95" x2="634.38" y2="86.95" gradientTransform="matrix(-0.88, -0.47, -0.47, 0.88, 658.51, 257.87)" xlink:href="#linear-gradient"/><linearGradient id="linear-gradient-12" x1="193.8" y1="-216.31" x2="193.8" y2="-193.29" gradientTransform="matrix(-1, 0.1, 0.1, 1, 289.3, 220.45)" xlink:href="#linear-gradient"/><linearGradient id="linear-gradient-13" x1="193.8" y1="-198.98" x2="193.8" y2="-218.02" gradientTransform="matrix(-1, 0.1, 0.1, 1, 289.3, 220.45)" xlink:href="#linear-gradient"/><linearGradient id="linear-gradient-14" x1="191.39" y1="-215.52" x2="191.39" y2="-206.82" gradientTransform="matrix(-1, 0.1, 0.1, 1, 289.3, 220.45)" xlink:href="#linear-gradient"/><linearGradient id="linear-gradient-15" x1="196.21" y1="-215.52" x2="196.21" y2="-206.82" gradientTransform="matrix(-1, 0.1, 0.1, 1, 289.3, 220.45)" xlink:href="#linear-gradient"/><linearGradient id="linear-gradient-16" x1="191.39" y1="-215.52" x2="191.39" y2="-206.81" gradientTransform="matrix(-1, 0.1, 0.1, 1, 289.3, 220.45)" xlink:href="#linear-gradient"/><linearGradient id="linear-gradient-17" x1="196.21" y1="-215.52" x2="196.21" y2="-206.81" gradientTransform="matrix(-1, 0.1, 0.1, 1, 289.3, 220.45)" xlink:href="#linear-gradient"/><radialGradient id="radial-gradient" cx="-29.35" cy="-34.95" r="8.21" gradientTransform="matrix(0.97, -0.25, 0.1, 0.39, 64.5, 62.38)" gradientUnits="userSpaceOnUse"><stop offset="0" stop-color="#fb7260"/><stop offset="1" stop-color="#ffe0ca" stop-opacity="0"/></radialGradient><radialGradient id="radial-gradient-2" cx="-3.02" cy="-34.95" r="8.21" xlink:href="#radial-gradient"/><linearGradient id="linear-gradient-18" x1="2.82" y1="-195.59" x2="5.34" y2="-175.74" gradientTransform="translate(67.25 213.1) rotate(-10.1)" gradientUnits="userSpaceOnUse"><stop offset="0" stop-color="#fff"/><stop offset="0.96" stop-color="#171717"/><stop offset="1"/></linearGradient><linearGradient id="linear-gradient-19" x1="176.76" y1="-208.92" x2="176.76" y2="-181.64" gradientTransform="matrix(-0.96, 0.26, 0.26, 0.96, 260.34, 168.61)" xlink:href="#linear-gradient-18"/><linearGradient id="linear-gradient-20" x1="-9.95" y1="-163.37" x2="-8.96" y2="-144.22" gradientTransform="translate(87.77 176.14) rotate(-14.76)" xlink:href="#linear-gradient-18"/></defs><title>money05</title><path class="cls-1" d="M35.33,61.71c-.61.27-6.12,9.66-6.25,14.78"/><path class="cls-1" d="M64.2,76.49c-.12-5.12-6-14.51-6.59-14.78"/><path class="cls-2" d="M35.33,61.71c-.61.27-6.12,9.66-6.25,14.78"/><path class="cls-2" d="M64.2,76.49c-.12-5.12-6-14.51-6.59-14.78"/><path class="cls-3" d="M70.13,78.2c-.57-16.51-8.3-19-25.41-19.05-13,0-21.11,2.93-21.9,19.05"/><path class="cls-3" d="M63.86,78.38c-.13-6-6-19.36-6.59-19.68s-6-.53-11.14-.05C41,58.17,35.6,58.39,35,58.7s-6.12,13.64-6.25,19.68"/><path class="cls-4" d="M54.7,75l-17.84.37A8.92,8.92,0,0,1,54.7,75Z"/><path class="cls-5" d="M64.19,73.23c.42.32.62,1.79.68,2.26-2.68.85-29.4,1.34-37.44-.07,0,0,0-2.4,0-2.57C35.87,75.27,64.19,73.23,64.19,73.23Z"/><path class="cls-6" d="M47.9,70.77A1.87,1.87,0,1,1,46,69,1.87,1.87,0,0,1,47.9,70.77Z"/><path class="cls-7" d="M49.44,69.5c-1.3-.45-1.65,1.28-3.41,1.31s-2.17-1.67-3.46-1.17c-2.26.88-.34,4.17,3.52,4.09S51.74,70.29,49.44,69.5Z"/><path class="cls-8" d="M31.41,47.18c-12.64,3.39-18.92,9.15-18.92,9.15L10.59,52s5.7-5.54,17.93-8.55C29.59,44.83,30.55,45.86,31.41,47.18Z"/><path class="cls-9" d="M17.44,51.58A6.44,6.44,0,1,1,9,48.28,6.44,6.44,0,0,1,17.44,51.58Z"/><path class="cls-10" d="M15.34,52.5a4.15,4.15,0,1,1-5.47-2.13A4.15,4.15,0,0,1,15.34,52.5Z"/><path class="cls-11" d="M9.25,50.74v0a4.16,4.16,0,0,0-1.7,4.53A3.44,3.44,0,0,0,9.25,50.74Z"/><path class="cls-12" d="M15,52a4.16,4.16,0,0,0-4.49-1.81,0,0,0,0,1,0,0A3.44,3.44,0,0,0,15,52Z"/><path class="cls-13" d="M8.05,56.4a4.14,4.14,0,0,0,4.48,1.8v0A3.42,3.42,0,0,0,8.05,56.4Z"/><path class="cls-14" d="M15.55,53.1a3.43,3.43,0,0,0-1.72,4.5v0A4.14,4.14,0,0,0,15.55,53.1Z"/><path class="cls-15" d="M55.72,40.8c12.68-3.25,21-1.32,21-1.32l-.46-4.69s-7.69-2-19.82,1.35C56.15,37.86,55.82,39.23,55.72,40.8Z"/><path class="cls-16" d="M70.05,37.77a6.44,6.44,0,1,0,5.78-7A6.43,6.43,0,0,0,70.05,37.77Z"/><path class="cls-17" d="M72.33,37.54A4.15,4.15,0,1,0,76.05,33,4.15,4.15,0,0,0,72.33,37.54Z"/><path class="cls-18" d="M76.77,33v0a4.13,4.13,0,0,1,3.7,3.11A3.44,3.44,0,0,1,76.77,33Z"/><path class="cls-19" d="M72.32,36.91a4.16,4.16,0,0,1,3-3.77,0,0,0,0,1,0,0A3.43,3.43,0,0,1,72.32,36.91Z"/><path class="cls-20" d="M80.6,37.36a4.13,4.13,0,0,1-3,3.77v0A3.44,3.44,0,0,1,80.6,37.36Z"/><path class="cls-21" d="M72.44,38.17a3.44,3.44,0,0,1,3.71,3.08v0A4.15,4.15,0,0,1,72.44,38.17Z"/><path class="cls-22" d="M59.22,46.58c1.08,3.68,4.3,6,9.75,4.36s6.92-5.27,5.84-8.95-5.45-5.63-9.75-4.36S58.14,42.91,59.22,46.58Z"/><path class="cls-23" d="M65.07,37.69c-2.76-.26-6.76,6.62-6.29,8.48.94,3.72,4.07,6.13,9.58,4.73s7.11-5,6.17-8.72C73.39,45.77,72,46.75,70,47.73,70.13,44.63,67.82,37.94,65.07,37.69Z"/><path class="cls-2" d="M59.22,46.58c1.08,3.68,4.3,6,9.75,4.36s6.92-5.27,5.84-8.95-5.45-5.63-9.75-4.36S58.14,42.91,59.22,46.58Z"/><path class="cls-22" d="M31.16,53.94c.86,3.74-.81,7.31-6.35,8.59s-8.62-1.19-9.48-4.93,2-7.58,6.35-8.59S30.3,50.21,31.16,53.94Z"/><path class="cls-23" d="M21.69,49.07c2.28-1.58,9.15,2.45,9.65,4.3,1,3.7-.53,7.34-6,8.83s-8.65-.87-9.66-4.57c2.76,2.56,4.46,2.73,6.7,2.59C20.7,57.6,19.42,50.64,21.69,49.07Z"/><path class="cls-2" d="M31.16,53.94c.86,3.74-.81,7.31-6.35,8.59s-8.62-1.19-9.48-4.93,2-7.58,6.35-8.59S30.3,50.21,31.16,53.94Z"/><path class="cls-22" d="M67,43c3.06,10.41-1.08,20.79-16.52,25.34S25.94,66.43,22.88,56s4.33-21.75,16.51-25.34S63.94,32.64,67,43Z"/><path class="cls-24" d="M40.51,54.25C41,56,37.79,58.35,33.4,59.5s-8.31.67-8.77-1.08,2.72-4.11,7.11-5.26S40.05,52.5,40.51,54.25Z"/><path class="cls-25" d="M66,47.57c.46,1.75-2.72,4.1-7.11,5.25s-8.31.66-8.77-1.09,2.72-4.1,7.11-5.25S65.52,45.82,66,47.57Z"/><path class="cls-23" d="M67,43c-3.06-10.4-15.42-15.93-27.61-12.35S19.81,45.62,22.88,56c.13.45.28.89.43,1.33a95.21,95.21,0,0,1,21.36-8.84,94.56,94.56,0,0,1,23-2.78A23.94,23.94,0,0,0,67,43Z"/><path class="cls-23" d="M67.3,42.58c3.12,10.6-1.1,21.17-16.82,25.8s-25-2-28.11-12.58c4.51,5.35,10.72,12.75,26.45,8C65.21,58.9,66.3,49.6,67.3,42.58Z"/><path class="cls-2" d="M67,43c3.06,10.41-1.08,20.79-16.52,25.34S25.94,66.43,22.88,56s4.33-21.75,16.51-25.34S63.94,32.64,67,43Z"/><path class="cls-26" d="M48,51.64,43.56,53s-1.7,2.2-3,3.78a8.24,8.24,0,0,0,6.61.35,8.25,8.25,0,0,0,5.39-3.89C50.64,52.57,48,51.64,48,51.64Z"/><path class="cls-22" d="M48.16,50.53c1.12,1.26.13,2.66-1.93,3.27s-3.65,0-3.39-1.7"/><path class="cls-27" d="M37.27,21.29C27.73,23.88,20.1,33.85,23.88,47.76L62.22,37.33C58.43,23.42,46.81,18.69,37.27,21.29Z"/><path class="cls-28" d="M21.25,52.66a.39.39,0,0,1-.15,0,.47.47,0,0,1-.28-.3c-3.21-11.84,6.82-22.44,18-25.47a28,28,0,0,1,7.3-1c10.32,0,18.48,5.46,20.78,13.92a.42.42,0,0,1-.09.4.41.41,0,0,1-.33.15h-.22c-1.07,0-5.84.35-22.46,4.87-19,5.17-22.13,7.26-22.25,7.34A.42.42,0,0,1,21.25,52.66Z"/><path d="M46.08,26.34c9.13,0,17.91,4.58,20.36,13.59h-.22c-1,0-5.77.31-22.58,4.88-19.5,5.31-22.39,7.42-22.39,7.42-3.1-11.39,6.4-21.88,17.65-24.94a27.71,27.71,0,0,1,7.18-.95m0-.88a28.39,28.39,0,0,0-7.41,1c-11.35,3.09-21.56,13.91-18.27,26a.89.89,0,0,0,.56.6.93.93,0,0,0,.29,0,.9.9,0,0,0,.52-.17c.11-.08,3.31-2.17,22.1-7.28,17-4.62,21.6-4.85,22.35-4.85h.2a.91.91,0,0,0,.69-.31.92.92,0,0,0,.18-.8c-2.35-8.65-10.68-14.24-21.21-14.24Z"/><path class="cls-29" d="M39.22,29.08c11.24-3,23,.45,27.22,10.85,0,0-3.29-.42-22.8,4.88s-22.39,7.42-22.39,7.42C19.33,41.08,28,32.14,39.22,29.08Z"/><path class="cls-30" d="M44.54,27.68c.26,1-1.91,2.43-4.85,3.21s-5.53.59-5.79-.4,1.91-2.43,4.84-3.21S44.28,26.69,44.54,27.68Z"/><path class="cls-31" d="M43.59,38.3h0s0,0,.06,0a1.16,1.16,0,0,1-.13,2.21l.22.85a2,2,0,0,0,1.53-2.34,1.91,1.91,0,0,0-.66-1,.82.82,0,0,0,.07-.2c0-.12,0-.27-.11-.73l-.52-2-2.7.71.42,1.59-.86.22.23.87,1.74-.45-.42-1.57,1-.26.36,1.36a.71.71,0,0,1-.2.72"/><path class="cls-32" d="M40.5,36l-.25.06h0a1.79,1.79,0,0,0-1.12.84,1.73,1.73,0,0,0,0,1.38l1,4,2.74-.72-.41-1.57.86-.23-.23-.88-1.74.45L41.79,41l-1,.26-.88-3.32s-.25-.7.61-1l.2-.06Z"/><path d="M39.63,51.16a1,1,0,1,1-1-1A1,1,0,0,1,39.63,51.16Z"/><path d="M50.85,47.94a1,1,0,1,1-1.05-1A1,1,0,0,1,50.85,47.94Z"/><path d="M15.2,38.23l-.37-.36a4.52,4.52,0,0,1-1.31-3.38,4.36,4.36,0,0,0-.73-2.94,1.65,1.65,0,0,0-2.53-.05,3.55,3.55,0,0,0-1.1,1.76L8,32.64A5.16,5.16,0,0,1,9.6,30.19c1.71-1.48,3.4-1.1,4.39,0s.94,2.23,1,3.7A3.84,3.84,0,0,0,16,36.85l.35.37Zm1.48,2.37a1.16,1.16,0,0,1,.08-1.71,1.23,1.23,0,0,1,1.6,1.87A1.16,1.16,0,0,1,16.68,40.6Z"/><path d="M63.83,25.36a1.38,1.38,0,1,1,2.62.85,1.34,1.34,0,0,1-1.76.93A1.36,1.36,0,0,1,63.83,25.36Zm1.49-2.92.15-.58a5.28,5.28,0,0,1,2.6-3.36c1.37-.84,2.2-1.52,2.52-2.5a1.93,1.93,0,0,0-1.47-2.57,4.08,4.08,0,0,0-2.44,0l-.07-1.55A6,6,0,0,1,70,12c2.53.82,3.16,2.75,2.62,4.42-.49,1.5-1.68,2.3-3.14,3.2a4.58,4.58,0,0,0-2.31,2.82L67,23Z"/><path d="M29.84,17.34,29.69,17a3.59,3.59,0,0,1,.15-2.85,3.43,3.43,0,0,0,.43-2.35,1.31,1.31,0,0,0-1.8-.85,2.81,2.81,0,0,0-1.36.91L26.48,11a4,4,0,0,1,1.94-1.24,2.3,2.3,0,0,1,3.14,1.44,4.26,4.26,0,0,1-.5,3,3,3,0,0,0-.19,2.43L31,17Zm.3,2.18a.91.91,0,0,1,.61-1.2A.89.89,0,0,1,31.9,19a.92.92,0,1,1-1.76.53Z"/></svg>