<svg id="圖層_1" data-name="圖層 1" xmlns="http://www.w3.org/2000/svg" xmlns:xlink="http://www.w3.org/1999/xlink" viewBox="0 0 88 88"><defs><style>.cls-1,.cls-10,.cls-13,.cls-15,.cls-16,.cls-18,.cls-2,.cls-20,.cls-21,.cls-25,.cls-26,.cls-27,.cls-28,.cls-29,.cls-30,.cls-31,.cls-32,.cls-33,.cls-34,.cls-37,.cls-38,.cls-9{stroke:#000;}.cls-1,.cls-10,.cls-13,.cls-15,.cls-16,.cls-18,.cls-2,.cls-20,.cls-21,.cls-25,.cls-27,.cls-28,.cls-29,.cls-30,.cls-31,.cls-32,.cls-33,.cls-34,.cls-37,.cls-38,.cls-9{stroke-linecap:round;}.cls-1,.cls-13,.cls-15,.cls-16,.cls-18,.cls-2,.cls-25,.cls-38{stroke-width:0.88px;}.cls-1{fill:url(#linear-gradient);}.cls-2{fill:url(#linear-gradient-2);}.cls-3{fill:url(#linear-gradient-3);}.cls-4{fill:url(#linear-gradient-4);}.cls-5{fill:url(#linear-gradient-5);}.cls-6{fill:url(#linear-gradient-6);}.cls-7{fill:url(#linear-gradient-7);}.cls-8{fill:url(#radial-gradient);}.cls-13,.cls-9{fill:#f70033;}.cls-9{stroke-width:0.97px;}.cls-10{fill:#fff;}.cls-10,.cls-21{stroke-width:0.98px;}.cls-11{fill:url(#linear-gradient-8);}.cls-12{fill:url(#linear-gradient-9);}.cls-14{fill:#b5001f;}.cls-15{fill:#38adf2;}.cls-16{fill:url(#linear-gradient-10);}.cls-17{fill:#f8ba96;}.cls-18,.cls-20,.cls-21,.cls-27,.cls-28,.cls-37{fill:none;}.cls-19{fill:#c2e6eb;}.cls-20,.cls-22,.cls-26,.cls-29,.cls-37{stroke-miterlimit:10;}.cls-20,.cls-26,.cls-27,.cls-30,.cls-31,.cls-32,.cls-33,.cls-34{stroke-width:0.79px;}.cls-22{stroke:#fff014;stroke-width:0.95px;}.cls-23{fill:url(#linear-gradient-11);}.cls-24{fill:url(#linear-gradient-12);}.cls-25{fill:url(#linear-gradient-13);}.cls-26{fill:url(#linear-gradient-14);}.cls-28,.cls-29,.cls-37{stroke-width:0.71px;}.cls-29{fill:url(#linear-gradient-15);}.cls-30{fill:url(#linear-gradient-16);}.cls-31{fill:url(#linear-gradient-17);}.cls-32{fill:url(#linear-gradient-18);}.cls-33{fill:url(#linear-gradient-19);}.cls-34{fill:url(#linear-gradient-20);}.cls-35{fill:url(#linear-gradient-21);}.cls-36{fill:url(#linear-gradient-22);}.cls-38{fill:#ff8678;}.cls-39{fill:#00a8a0;}.cls-40{fill:#0093c1;}</style><linearGradient id="linear-gradient" x1="181.12" y1="348.95" x2="192.59" y2="348.95" gradientTransform="matrix(0, -1, -1, 0, 397.13, 209.31)" gradientUnits="userSpaceOnUse"><stop offset="0" stop-color="#fff014"/><stop offset="1" stop-color="#df8800"/></linearGradient><linearGradient id="linear-gradient-2" x1="178.3" y1="335.76" x2="178.3" y2="359.19" gradientTransform="matrix(-0.98, -0.19, -0.19, 0.98, 296.1, -284.42)" xlink:href="#linear-gradient"/><linearGradient id="linear-gradient-3" x1="178.3" y1="353.41" x2="178.3" y2="334.02" gradientTransform="matrix(-0.98, -0.19, -0.19, 0.98, 296.1, -284.42)" xlink:href="#linear-gradient"/><linearGradient id="linear-gradient-4" x1="175.85" y1="336.57" x2="175.85" y2="345.43" gradientTransform="matrix(-0.98, -0.19, -0.19, 0.98, 296.1, -284.42)" xlink:href="#linear-gradient"/><linearGradient id="linear-gradient-5" x1="180.75" y1="336.57" x2="180.75" y2="345.43" gradientTransform="matrix(-0.98, -0.19, -0.19, 0.98, 296.1, -284.42)" xlink:href="#linear-gradient"/><linearGradient id="linear-gradient-6" x1="175.85" y1="336.57" x2="175.85" y2="345.43" gradientTransform="matrix(-0.98, -0.19, -0.19, 0.98, 296.1, -284.42)" xlink:href="#linear-gradient"/><linearGradient id="linear-gradient-7" x1="180.75" y1="336.57" x2="180.75" y2="345.43" gradientTransform="matrix(-0.98, -0.19, -0.19, 0.98, 296.1, -284.42)" xlink:href="#linear-gradient"/><radialGradient id="radial-gradient" cx="130.53" cy="509.98" r="16.01" gradientTransform="translate(-249.83 -49.48) scale(2.25 0.24)" gradientUnits="userSpaceOnUse"><stop offset="0" stop-color="#231f20"/><stop offset="1" stop-color="#fff"/></radialGradient><linearGradient id="linear-gradient-8" x1="165.67" y1="16.77" x2="166.66" y2="18.26" gradientTransform="matrix(0.98, -0.21, 0.21, 0.98, -93.65, 88.4)" xlink:href="#linear-gradient"/><linearGradient id="linear-gradient-9" x1="397.81" y1="7.35" x2="397.81" y2="9.79" gradientTransform="matrix(0.75, -0.66, 0.66, 0.75, -231.63, 326.7)" xlink:href="#linear-gradient"/><linearGradient id="linear-gradient-10" x1="75.4" y1="68.28" x2="77.44" y2="78.89" gradientTransform="translate(-46.13 -32.52) rotate(3.24)" gradientUnits="userSpaceOnUse"><stop offset="0" stop-color="#ffe0ca"/><stop offset="1" stop-color="#f8c4ab"/></linearGradient><linearGradient id="linear-gradient-11" x1="316.91" y1="26.57" x2="316.91" y2="30.55" gradientTransform="matrix(0.86, -0.51, 0.51, 0.86, -245.44, 190.07)" xlink:href="#linear-gradient"/><linearGradient id="linear-gradient-12" x1="316.91" y1="28.4" x2="316.91" y2="31.34" gradientTransform="matrix(0.86, -0.51, 0.51, 0.86, -245.44, 190.07)" xlink:href="#linear-gradient"/><linearGradient id="linear-gradient-13" x1="327.63" y1="37.41" x2="327.63" y2="47.44" gradientTransform="translate(-254.21 194.53) rotate(-31.68)" xlink:href="#linear-gradient"/><linearGradient id="linear-gradient-14" x1="65.71" y1="-27.36" x2="70.13" y2="-0.71" gradientTransform="translate(-46.62 35.36) rotate(-7.12)" gradientUnits="userSpaceOnUse"><stop offset="0" stop-color="#fff"/><stop offset="0.96" stop-color="#171717"/><stop offset="1"/></linearGradient><linearGradient id="linear-gradient-15" x1="39.01" y1="31.06" x2="89.49" y2="31.06" gradientUnits="userSpaceOnUse"><stop offset="0" stop-color="#fff"/><stop offset="1" stop-color="#7fd3ff"/></linearGradient><linearGradient id="linear-gradient-16" x1="95.82" y1="8.2" x2="95.82" y2="20.99" gradientTransform="translate(-46.62 35.36) rotate(-7.12)" xlink:href="#linear-gradient-10"/><linearGradient id="linear-gradient-17" x1="50.49" y1="35.72" x2="50.49" y2="36.28" gradientTransform="matrix(1, 0, 0, 1, 0, 0)" xlink:href="#linear-gradient-10"/><linearGradient id="linear-gradient-18" x1="90.58" y1="13.64" x2="90.58" y2="18.39" gradientTransform="translate(-46.62 35.36) rotate(-7.12)" xlink:href="#linear-gradient-10"/><linearGradient id="linear-gradient-19" x1="93.71" y1="11.75" x2="93.71" y2="17.56" gradientTransform="translate(-46.62 35.36) rotate(-7.12)" xlink:href="#linear-gradient-10"/><linearGradient id="linear-gradient-20" x1="157.94" y1="-15.68" x2="157.94" y2="-12.09" gradientTransform="translate(-95.16 94.03) rotate(-16.82)" xlink:href="#linear-gradient-10"/><linearGradient id="linear-gradient-21" x1="264.55" y1="-9.23" x2="264.55" y2="-6.79" gradientTransform="matrix(0.87, -0.49, 0.49, 0.87, -186.51, 202.36)" xlink:href="#linear-gradient"/><linearGradient id="linear-gradient-22" x1="264.55" y1="-8.11" x2="264.55" y2="-6.31" gradientTransform="matrix(0.87, -0.49, 0.49, 0.87, -186.51, 202.36)" xlink:href="#linear-gradient"/></defs><title>money12</title><rect class="cls-1" x="45.76" y="16.01" width="4.8" height="15" transform="translate(16.03 66.41) rotate(-79.19)"/><path class="cls-2" d="M49.09,23.69a6.56,6.56,0,1,0,7.67-5.21A6.55,6.55,0,0,0,49.09,23.69Z"/><path class="cls-3" d="M51.38,24.13a4.22,4.22,0,1,0,4.94-3.36A4.22,4.22,0,0,0,51.38,24.13Z"/><path class="cls-4" d="M57,21v0a4.25,4.25,0,0,1,2.73,4.11A3.5,3.5,0,0,1,57,21Z"/><path class="cls-5" d="M51.55,23.51a4.22,4.22,0,0,1,4-2.81v0A3.5,3.5,0,0,1,51.55,23.51Z"/><path class="cls-6" d="M59.51,26.33a4.22,4.22,0,0,1-4,2.81v0A3.5,3.5,0,0,1,59.51,26.33Z"/><path class="cls-7" d="M51.31,24.77A3.49,3.49,0,0,1,54,28.85v0A4.21,4.21,0,0,1,51.31,24.77Z"/><path class="cls-8" d="M79.62,73.38c0,2.13-16.11,3.85-36,3.85s-36-1.72-36-3.85,16.11-3.86,36-3.86S79.62,71.25,79.62,73.38Z"/><path class="cls-9" d="M63.74,69.11S72,73.68,74.25,71s-2.41-5.53-4.54-7.1C65,60.37,58.68,65.19,63.74,69.11Z"/><path class="cls-10" d="M70.66,71.71c1.51.24,2.87.13,3.59-.76,1-1.16.65-2.34-.17-3.43A3.5,3.5,0,0,0,70.66,71.71Z"/><path class="cls-11" d="M73.19,67.68a2,2,0,0,1-.47,2.58,2,2,0,0,1-2.63.18c-.52-.58-.1-1.53.76-2.29S72.68,67.1,73.19,67.68Z"/><path class="cls-12" d="M72.25,68.16a1.06,1.06,0,0,1-1.59,1.41,1.06,1.06,0,1,1,1.59-1.41Z"/><path class="cls-13" d="M26.42,51.47c-.34-1.74-7.55-1.37-9.6-4.22a28.49,28.49,0,0,1-8.63-.84c-1.26,6.21-1.73,14.16,4.7,16C18.62,64.1,27.83,58.71,26.42,51.47Z"/><path class="cls-9" d="M33,69.17c-1.3-1.87-7.75-12.22-10.59-19-1.45-3.47,13-10.91,18.21-10.7C53,40,64.66,52.37,76.44,59.93c1.74,1.12-1.66,5.89-7.53,5.81s-10.08-.84-10.54,1.38c-.57,2.77-3.06,3-8.6,1.85s-8.32-2.06-9.68.3C38.47,72.06,35.13,72.24,33,69.17Z"/><path class="cls-14" d="M46.35,41.16a20.58,20.58,0,0,1-7.33-2L22.69,49.71,25,54.28C31.93,54.7,46.89,47.12,46.35,41.16Z"/><path class="cls-15" d="M76.44,59.93c-1.71-1.1-3.42-2.3-5.12-3.54C69.94,59.47,63.8,60.42,59,61c-5.28.58-5.57,3.61-10,3.32s-8.41.1-9.3,2.12S36.18,69.76,33,69.17c2.15,3.07,5.49,2.89,7.11.1,1.36-2.36,4.14-1.45,9.68-.3s8,.92,8.6-1.85c.46-2.22,4.67-1.46,10.54-1.38S78.18,61.05,76.44,59.93Z"/><path class="cls-16" d="M3.26,33.56C3.59,43.51,10.19,51.37,25,50.88s20.84-8.76,20.51-18.71-10-17.71-21.69-17.32S2.94,23.6,3.26,33.56Z"/><path class="cls-17" d="M25,50.88c14.77-.48,20.84-8.76,20.51-18.71-.31-9.48-9.15-17-20.07-17.32a10.62,10.62,0,0,1,3.91,5c2.8,7.55,1.63,12.5-1.95,18.42S9.87,47.08,5.91,42.85C9.11,47.94,15.28,51.2,25,50.88Z"/><path class="cls-18" d="M3.26,33.56C3.59,43.51,10.19,51.37,25,50.88s20.84-8.76,20.51-18.71-10-17.71-21.69-17.32S2.94,23.6,3.26,33.56Z"/><path class="cls-10" d="M12.77,41.16a7.92,7.92,0,0,0-9.19,4.6c-1.35,3.25-1.29,7-1.12,10.48.11,2.1,1,4.82,3.62,4.74,2.3-.07,2.94-2.9,5.23-3.38,1.36-.28,2.73.64,4.08.13s1.62-2.22,2.85-2.89,2.57-.33,3.6-1.12c.17-.14-1.34-1.91-1.45-2-1.25-1.71-2.79-3.26-3.58-5.26C15.94,44.23,15.36,41.77,12.77,41.16Z"/><path class="cls-19" d="M6.08,61c2.3-.07,2.94-2.9,5.23-3.38,1.36-.28,2.73.64,4.08.13s1.62-2.22,2.85-2.89,2.57-.33,3.6-1.12c.17-.14-1.34-1.91-1.45-2l-.19-.26a8.4,8.4,0,0,1-4.25,1c-1,2-5.47,2.06-7.22,1.73-1.06,1.65-5.58,4-6.2,2.82C2.79,58.93,3.74,61.05,6.08,61Z"/><path class="cls-20" d="M18.31,54.68c-1.32-2.1-3.57-3.5-4.71-5.79"/><path class="cls-20" d="M10.62,57.57a12.8,12.8,0,0,1-1.74-3,6.19,6.19,0,0,1-.57-3.48"/><path class="cls-21" d="M12.77,41.16a7.92,7.92,0,0,0-9.19,4.6c-1.35,3.25-1.29,7-1.12,10.48.11,2.1,1,4.82,3.62,4.74,2.3-.07,2.94-2.9,5.23-3.38,1.36-.28,2.73.64,4.08.13s1.62-2.22,2.85-2.89,2.57-.33,3.6-1.12c.17-.14-1.34-1.91-1.45-2-1.25-1.71-2.79-3.26-3.58-5.26C15.94,44.23,15.36,41.77,12.77,41.16Z"/><path class="cls-22" d="M50.73,52.69,36.49,61.11a8.27,8.27,0,1,1,14.24-8.42Z"/><path class="cls-23" d="M43.3,52.35a1.73,1.73,0,0,1-3,1.76,1.73,1.73,0,1,1,3-1.76Z"/><path class="cls-24" d="M44,50.62c-1.25.23-.75,1.78-2.16,2.61s-2.52-.35-3.33.63c-1.42,1.75,1.63,3.53,4.71,1.7S46.19,50.21,44,50.62Z"/><path class="cls-25" d="M60.11,46.08c.45.05,1.4,1.38,1.65,1.69-1.59,1.76-25,15.49-31.56,18.74,0,0-1-2.36-1-2.48C36.26,60.79,60.11,46.08,60.11,46.08Z"/><path class="cls-26" d="M46.48,30.52c-5.81-11.2-37.58-12.93-43,5.34-2.77-10,4.86-19.63,18-21.4.55-2.2,3-4.21,7.29-3.57C33.59,11.61,44.5,20,46.48,30.52Z"/><path class="cls-27" d="M9.26,32s6.19-5,9.21-6"/><line class="cls-28" x1="7.29" y1="35.05" x2="6.22" y2="39.82"/><path class="cls-29" d="M88,45.31c-2.48-2.67-7.37-5-10.85-3.26-5,2.44-10.15,2.28-14.57-1.36C59,37.75,52.25,38.87,48.43,37.14,39.29,33,22.56,30.89,12.56,29.88l4.58-3.12c9.67,1,28.08-.6,31.07-1.83,8.25-3.42,10.51,1.18,14.55-.52,3.33-1.4,8.16-3.93,12.89-2.15,3.86,1.45,12.06-5.45,12.06-5.45"/><path class="cls-27" d="M6.46,27.21c3.39,1.42,7-1,9.36-2.63"/><path class="cls-28" d="M4.49,34.14c.45.86.94,2.6-.48,5.1"/><path class="cls-13" d="M53.05,35.78c2.35.37,8.93,3.36,11.44,5.13s.63,7.48-5.2,6.09-10.5-2.28-10.5-2.28Z"/><path class="cls-30" d="M53.56,44.07c-1.71.89-3.58.55-5.42.67-1.53.11-3,.25-4.21-.89-.83-.75-2.28-5.88.11-5.16,1,.31.85,1.73,1.9,2.13a11.41,11.41,0,0,0-.84-2.4c-1-1.79-2.24-2.38-1.49-4,.59-1.27,2-.95,3-.19.68-1.75,4.32-3,5.09-2.4,1.3-.28,1,.66.46,3.46,1.44-8.84,5.6-6.39,4.91-4.1a44.84,44.84,0,0,0-1.46,7C55.71,40.3,55.71,42.94,53.56,44.07Z"/><path class="cls-31" d="M47,35.66a34.5,34.5,0,0,1,7,.64"/><path class="cls-32" d="M43.61,34.41c-.42.18-1.65,3.79,0,4.22,2.6.64,2.21-3,3-4.41"/><path class="cls-33" d="M49.57,32.8c-1.07,1.66-.39,4.37-3,3.72-1.7-.42-1.07-3.28-.05-4.6C47.75,30.36,50.21,31.67,49.57,32.8Z"/><path class="cls-34" d="M52.86,32.14c-.26.76-.55,2-1.89,2-1.75.09-1.55-1.68-1.24-2.38C50.51,30,53.3,30.93,52.86,32.14Z"/><path class="cls-27" d="M45.94,40.82a4.49,4.49,0,0,1,2.64.61,4.13,4.13,0,0,1,1.52,1.63"/><path class="cls-9" d="M38.75,74l8.82-4.93c-2-2.63-4.63-2.31-6.72-1.15A5.2,5.2,0,0,0,38.75,74Z"/><path class="cls-35" d="M41.4,65.72A1,1,0,0,1,41,67.16a1.06,1.06,0,1,1-1-1.85A1.05,1.05,0,0,1,41.4,65.72Z"/><path class="cls-36" d="M41.84,64.66c-.77.13-.49,1.09-1.36,1.57s-1.54-.25-2,.34c-.9,1,.94,2.18,2.86,1.11S43.2,64.45,41.84,64.66Z"/><path class="cls-10" d="M40.58,73l5.16-2.89a2.82,2.82,0,0,0-3.94-.67A3,3,0,0,0,40.58,73Z"/><line class="cls-37" x1="36.56" y1="15.12" x2="79.4" y2="15.12"/><line class="cls-37" x1="38.72" y1="18.43" x2="67.27" y2="18.43"/><line class="cls-37" x1="59.08" y1="48.87" x2="79" y2="48.87"/><line class="cls-37" x1="62.77" y1="51.67" x2="74.51" y2="51.67"/><line class="cls-37" x1="72.36" y1="58.51" x2="80.76" y2="58.51"/><path class="cls-20" d="M11.32,34.31c-1.11.22-2,1.35-.59,2.06"/><path class="cls-38" d="M16,37a54.2,54.2,0,0,1,7.67,5.79c2.14,2-1,3.72-2.48,2.36s-4-4.21-6.87-6.58C12.35,37,13.57,35.38,16,37Z"/><path class="cls-39" d="M9.53,22.44h0c.28,0,.44.07.48.43a2,2,0,0,1-.88,1.46l.07.62a3.43,3.43,0,0,0,1.55-2.55.68.68,0,0,0-.4-.6,1.51,1.51,0,0,0,.08-.19,1.08,1.08,0,0,0,0-.57l-.16-1.45L8.05,21.24l.12,1.16-.72.52.07.64L9,22.5l-.12-1.14.82-.59.1,1s.07.25-.25.68"/><path class="cls-40" d="M7.33,21.76l-.21.15h0a3.51,3.51,0,0,0-1,1.14,1.78,1.78,0,0,0-.21,1.17l.32,2.93,2.31-1.67L8.4,24.33l.73-.53-.07-.65L7.59,24.21l.13,1.16L6.88,26l-.27-2.43s-.11-.49.62-1l.17-.13Z"/><path class="cls-18" d="M27.28,43.94c.65,2.5-2,5.25-4.5,3.91"/></svg>