<svg id="圖層_1" data-name="圖層 1" xmlns="http://www.w3.org/2000/svg" xmlns:xlink="http://www.w3.org/1999/xlink" viewBox="0 0 88 88"><defs><style>.cls-1,.cls-15,.cls-17,.cls-2,.cls-20,.cls-22,.cls-28,.cls-32,.cls-33,.cls-36,.cls-8,.cls-9{stroke:#000;stroke-linecap:round;}.cls-1,.cls-2,.cls-20,.cls-22,.cls-28,.cls-32,.cls-33,.cls-36,.cls-8,.cls-9{stroke-width:0.88px;}.cls-1{fill:url(#linear-gradient);}.cls-2{fill:url(#linear-gradient-2);}.cls-3{fill:url(#linear-gradient-3);}.cls-4{fill:url(#linear-gradient-4);}.cls-5{fill:url(#linear-gradient-5);}.cls-6{fill:url(#linear-gradient-6);}.cls-7{fill:url(#linear-gradient-7);}.cls-8{fill:url(#linear-gradient-8);}.cls-9{fill:url(#linear-gradient-9);}.cls-10{fill:url(#linear-gradient-10);}.cls-11{fill:url(#linear-gradient-11);}.cls-12{fill:url(#linear-gradient-12);}.cls-13{fill:url(#linear-gradient-13);}.cls-14{fill:url(#linear-gradient-14);}.cls-15,.cls-33{fill:#f70033;}.cls-15{stroke-width:0.96px;}.cls-16{stroke:#fff014;stroke-miterlimit:10;stroke-width:1.03px;}.cls-17{stroke-width:0.7px;fill:url(#linear-gradient-15);}.cls-18{fill:url(#linear-gradient-16);}.cls-19{fill:url(#linear-gradient-17);}.cls-20{fill:#ffe0ca;}.cls-21{fill:#f8ba96;}.cls-22{fill:none;}.cls-23{fill:#b5001f;}.cls-24{fill:#171717;}.cls-25{fill:url(#linear-gradient-18);}.cls-26{fill:url(#linear-gradient-19);}.cls-27{fill:url(#linear-gradient-20);}.cls-28{fill:#ff8678;}.cls-29,.cls-32{fill:#fff;}.cls-30{fill:#8c3333;}.cls-31{fill:#ff4d4f;}.cls-34{fill:#00a8a0;}.cls-35{fill:#0093c1;}.cls-36{fill:#38adf2;}</style><linearGradient id="linear-gradient" x1="-119.59" y1="94.37" x2="-104.72" y2="94.37" gradientTransform="matrix(-0.58, 0.82, -0.82, -0.58, 82.49, 183.1)" gradientUnits="userSpaceOnUse"><stop offset="0" stop-color="#fff014"/><stop offset="1" stop-color="#df8800"/></linearGradient><linearGradient id="linear-gradient-2" x1="-507.86" y1="-99.57" x2="-507.86" y2="-76.56" gradientTransform="translate(-425.21 132.28) rotate(159.13)" xlink:href="#linear-gradient"/><linearGradient id="linear-gradient-3" x1="-507.87" y1="-82.24" x2="-507.87" y2="-101.28" gradientTransform="translate(-425.21 132.28) rotate(159.13)" xlink:href="#linear-gradient"/><linearGradient id="linear-gradient-4" x1="-510.27" y1="-98.78" x2="-510.27" y2="-90.08" gradientTransform="translate(-425.21 132.28) rotate(159.13)" xlink:href="#linear-gradient"/><linearGradient id="linear-gradient-5" x1="-505.46" y1="-98.78" x2="-505.46" y2="-90.08" gradientTransform="translate(-425.21 132.28) rotate(159.13)" xlink:href="#linear-gradient"/><linearGradient id="linear-gradient-6" x1="-510.27" y1="-98.78" x2="-510.27" y2="-90.08" gradientTransform="translate(-425.21 132.28) rotate(159.13)" xlink:href="#linear-gradient"/><linearGradient id="linear-gradient-7" x1="-505.46" y1="-98.78" x2="-505.46" y2="-90.07" gradientTransform="translate(-425.21 132.28) rotate(159.13)" xlink:href="#linear-gradient"/><linearGradient id="linear-gradient-8" x1="-808.99" y1="-709.92" x2="-794.13" y2="-709.92" gradientTransform="matrix(0.65, 0.76, 0.76, -0.65, 1092.72, 175.07)" xlink:href="#linear-gradient"/><linearGradient id="linear-gradient-9" x1="-1529.01" y1="-381.5" x2="-1529.01" y2="-358.49" gradientTransform="matrix(0.96, 0.26, 0.26, -0.96, 1592.89, 75.09)" xlink:href="#linear-gradient"/><linearGradient id="linear-gradient-10" x1="-1529.01" y1="-364.17" x2="-1529.01" y2="-383.22" gradientTransform="matrix(0.96, 0.26, 0.26, -0.96, 1592.89, 75.09)" xlink:href="#linear-gradient"/><linearGradient id="linear-gradient-11" x1="-1531.42" y1="-380.71" x2="-1531.42" y2="-372.01" gradientTransform="matrix(0.96, 0.26, 0.26, -0.96, 1592.89, 75.09)" xlink:href="#linear-gradient"/><linearGradient id="linear-gradient-12" x1="-1526.6" y1="-380.71" x2="-1526.6" y2="-372.01" gradientTransform="matrix(0.96, 0.26, 0.26, -0.96, 1592.89, 75.09)" xlink:href="#linear-gradient"/><linearGradient id="linear-gradient-13" x1="-1531.42" y1="-380.71" x2="-1531.42" y2="-372.01" gradientTransform="matrix(0.96, 0.26, 0.26, -0.96, 1592.89, 75.09)" xlink:href="#linear-gradient"/><linearGradient id="linear-gradient-14" x1="-1526.6" y1="-380.71" x2="-1526.6" y2="-372" gradientTransform="matrix(0.96, 0.26, 0.26, -0.96, 1592.89, 75.09)" xlink:href="#linear-gradient"/><linearGradient id="linear-gradient-15" x1="116" y1="131.09" x2="116" y2="142.18" gradientTransform="matrix(1, -0.02, 0.02, 1, -68.72, -57.18)" xlink:href="#linear-gradient"/><linearGradient id="linear-gradient-16" x1="115.31" y1="127.89" x2="115.31" y2="132.18" gradientTransform="matrix(1, -0.02, 0.02, 1, -68.72, -57.18)" xlink:href="#linear-gradient"/><linearGradient id="linear-gradient-17" x1="115.31" y1="129.86" x2="115.31" y2="133.04" gradientTransform="matrix(1, -0.02, 0.02, 1, -68.72, -57.18)" xlink:href="#linear-gradient"/><linearGradient id="linear-gradient-18" x1="95.91" y1="9.19" x2="98.43" y2="29.03" gradientTransform="matrix(0.98, 0.19, -0.19, 0.98, -40.63, -12.77)" gradientUnits="userSpaceOnUse"><stop offset="0" stop-color="#fff"/><stop offset="0.96" stop-color="#171717"/><stop offset="1"/></linearGradient><linearGradient id="linear-gradient-19" x1="-975.06" y1="51.54" x2="-975.06" y2="78.82" gradientTransform="matrix(-1, -0.1, -0.1, 1, -911.71, -139.1)" xlink:href="#linear-gradient-18"/><linearGradient id="linear-gradient-20" x1="64.23" y1="91.37" x2="65.21" y2="110.52" gradientTransform="matrix(0.99, 0.11, -0.11, 0.99, -1.77, -82.65)" xlink:href="#linear-gradient-18"/></defs><title>money10</title><path class="cls-1" d="M60,38.25c12.79-2.75,19.35-8.19,19.35-8.19L81,34.47s-6,5.25-18.34,7.64C61.71,40.69,60.79,39.61,60,38.25Z"/><path class="cls-2" d="M74.18,34.56a6.44,6.44,0,1,1,8.31,3.72A6.44,6.44,0,0,1,74.18,34.56Z"/><path class="cls-3" d="M76.32,33.75a4.15,4.15,0,1,1,5.36,2.4A4.16,4.16,0,0,1,76.32,33.75Z"/><path class="cls-4" d="M82.32,35.81v0a4.13,4.13,0,0,0,1.93-4.43A3.42,3.42,0,0,0,82.32,35.81Z"/><path class="cls-5" d="M76.6,34.31a4.13,4.13,0,0,0,4.38,2v0A3.43,3.43,0,0,0,76.6,34.31Z"/><path class="cls-6" d="M83.8,30.22a4.15,4.15,0,0,0-4.38-2v0A3.44,3.44,0,0,0,83.8,30.22Z"/><path class="cls-7" d="M76.15,33.14a3.44,3.44,0,0,0,1.94-4.41v0A4.12,4.12,0,0,0,76.15,33.14Z"/><path class="cls-8" d="M41.48,33.93c-13-1.47-20.07-6.22-20.07-6.22l-1.23,4.55s6.46,4.63,19,5.79C40,36.53,40.83,35.37,41.48,33.93Z"/><path class="cls-9" d="M27,31.67a6.44,6.44,0,1,0-7.9,4.52A6.43,6.43,0,0,0,27,31.67Z"/><path class="cls-10" d="M24.8,31.07A4.15,4.15,0,1,0,19.71,34,4.14,4.14,0,0,0,24.8,31.07Z"/><path class="cls-11" d="M19,33.71v0a4.12,4.12,0,0,1-2.36-4.21A3.42,3.42,0,0,1,19,33.71Z"/><path class="cls-12" d="M24.59,31.66a4.15,4.15,0,0,1-4.17,2.45v0A3.45,3.45,0,0,1,24.59,31.66Z"/><path class="cls-13" d="M17,28.3a4.16,4.16,0,0,1,4.16-2.45v0A3.43,3.43,0,0,1,17,28.3Z"/><path class="cls-14" d="M24.92,30.45a3.44,3.44,0,0,1-2.37-4.2s0,0,0,0A4.15,4.15,0,0,1,24.92,30.45Z"/><path class="cls-15" d="M69.31,77.84c-.13-6-8.26-19.36-8.87-19.68s-6-.53-11.14,0c-5.13-.48-10.53-.27-11.15,0s-7.88,3.59-8,19.68"/><path class="cls-16" d="M57.86,74.48,40,74.85a8.92,8.92,0,1,1,17.83-.37Z"/><path class="cls-17" d="M69.63,72.68c.43.33.62,1.8.68,2.27-2.67.85-32.6,1.34-40.64-.07,0,0,0-2.4,0-2.57C38.1,74.72,69.63,72.68,69.63,72.68Z"/><path class="cls-18" d="M51.06,70.23a1.87,1.87,0,1,1-1.9-1.82A1.87,1.87,0,0,1,51.06,70.23Z"/><path class="cls-19" d="M52.61,69c-1.3-.45-1.65,1.28-3.41,1.31S47,68.6,45.74,69.1c-2.26.88-.34,4.17,3.52,4.09S54.9,69.75,52.61,69Z"/><path class="cls-20" d="M65,47.34c-.29,3.82,1.9,7.1,7.57,7.54s8.34-2.47,8.64-6.29S78.1,41.39,73.62,41,65.28,43.51,65,47.34Z"/><path class="cls-21" d="M73.62,41.11c-2.49-1.23-8.68,3.78-8.9,5.69C64.28,50.6,66.34,54,72,54.63s8.43-2.15,8.87-6c-2.35,2.94-4,3.36-6.24,3.56C75.88,49.39,76.1,42.32,73.62,41.11Z"/><path class="cls-22" d="M65,47.34c-.29,3.82,1.9,7.1,7.57,7.54s8.34-2.47,8.64-6.29S78.1,41.39,73.62,41,65.28,43.51,65,47.34Z"/><path class="cls-23" d="M49.39,66.83c8.41.9,11.63-.92,15.09-2.87-4.73-4.66-12-4.16-15.36-4.16-5.93,0-12.15.12-12.86.39a12.45,12.45,0,0,0-2.85,1.94C37.23,64.63,42.61,66.1,49.39,66.83Z"/><path class="cls-20" d="M35.23,44.14c-.52,3.8-3.36,6.54-9,5.77s-7.62-4.19-7.1-8,4.55-6.38,9-5.77S35.75,40.34,35.23,44.14Z"/><path class="cls-21" d="M28.11,36.22c2.69-.67,7.68,5.54,7.49,7.45-.38,3.81-3.11,6.66-8.77,6.11s-7.78-3.89-7.4-7.71c1.67,3.38,3.2,4.14,5.34,4.81C24.15,43.84,25.43,36.88,28.11,36.22Z"/><path class="cls-22" d="M35.23,44.14c-.52,3.8-3.36,6.54-9,5.77s-7.62-4.19-7.1-8,4.55-6.38,9-5.77S35.75,40.34,35.23,44.14Z"/><path class="cls-20" d="M73.2,46.52c-.86,11-8.56,19.39-24.9,18.13S25.65,53.91,26.51,42.9s12-19.13,24.89-18.13S74.05,35.51,73.2,46.52Z"/><path class="cls-21" d="M73.2,46.52c-.86,11-8.56,19.39-24.9,18.13S25.65,53.91,26.51,42.9c2.3,6.6,6.76,14.76,21.91,16.38C64,61,69.77,52.72,73.2,46.52Z"/><path class="cls-22" d="M73.2,46.52c-.86,11-8.56,19.39-24.9,18.13S25.65,53.91,26.51,42.9s12-19.13,24.89-18.13S74.05,35.51,73.2,46.52Z"/><path class="cls-24" d="M52.88,15.83c-9.83-1-20.43,4.84-21.68,17.72l19.81-8L70.74,37.48C72,24.59,62.72,16.8,52.88,15.83Z"/><path class="cls-25" d="M73.52,44.07a.44.44,0,0,1-.43-.36c0-.1-2.19-10.12-21.69-12-1.77-.17-3.49-.26-5.11-.26-15.27,0-18.94,7.74-19,7.82a.43.43,0,0,1-.4.25H26.8a.44.44,0,0,1-.33-.47C27.6,27.6,39.23,21.45,49.61,21.45c.9,0,1.82.05,2.71.13C63.66,22.7,75.16,31.46,74,43.67a.45.45,0,0,1-.42.4Z"/><path d="M49.61,21.89a26.51,26.51,0,0,1,2.67.13c11.59,1.14,22.39,9.86,21.24,21.61,0,0-2-10.41-22.08-12.39-1.85-.18-3.56-.27-5.15-.27C30.55,31,26.91,39,26.91,39,28,28.19,38.82,21.89,49.61,21.89m0-.88a27.21,27.21,0,0,0-15.5,4.67A18.09,18.09,0,0,0,26,39a.86.86,0,0,0,.65.93.83.83,0,0,0,.22,0,.87.87,0,0,0,.8-.51c0-.07,3.69-7.56,18.58-7.56,1.61,0,3.31.09,5.06.26C70.47,34,72.64,43.7,72.66,43.8a.88.88,0,0,0,.86.71h0a.88.88,0,0,0,.83-.79,18.56,18.56,0,0,0-6.11-15.51,27.47,27.47,0,0,0-15.92-7.07c-.9-.08-1.83-.13-2.75-.13Z"/><path class="cls-26" d="M51.94,23.81C63.53,25,73.28,32.41,73.52,43.63c0,0-2-10.41-22.08-12.39S26.91,39,26.91,39C29.09,27.94,40.34,22.67,51.94,23.81Z"/><path class="cls-27" d="M57.41,24.39c-.11,1-2.65,1.59-5.67,1.27s-5.38-1.41-5.28-2.44,2.65-1.59,5.67-1.27S57.52,23.37,57.41,24.39Z"/><path class="cls-28" d="M31.5,39.64s5.29-1.17,18.58.26,19.1,3.78,19.1,3.78-.93,15.76-20.5,13.44S31.5,39.64,31.5,39.64Z"/><path class="cls-29" d="M50.08,39.9c-13.29-1.43-18.58-.26-18.58-.26a14.71,14.71,0,0,0,.35,5.22l3.26-.52L34.72,42c7.33-.19,25.52,1.57,30.41,3.72-.29.49-1.08,1.95-1.08,1.95l3.54,1.43a15.46,15.46,0,0,0,1.59-5.41S63.37,41.32,50.08,39.9Z"/><path class="cls-30" d="M52.45,50.47c.79,1.85-1.26,3.28-2.79,3.66a3.33,3.33,0,0,1-2.38.1,3.71,3.71,0,0,1-1.53-2.43c-.13-.86,0-2.22,1.13-2.21s1.21,2.89,2.45,2.06c.65-.43.64-1.31,1.45-1.67A1.23,1.23,0,0,1,52.45,50.47Z"/><path class="cls-31" d="M40.24,54.84a26.84,26.84,0,0,0,8.44,2.28,25.75,25.75,0,0,0,8.92-.33A13.73,13.73,0,0,0,40.24,54.84Z"/><path class="cls-22" d="M31.5,39.64s5.29-1.17,18.58.26,19.1,3.78,19.1,3.78-.93,15.76-20.5,13.44S31.5,39.64,31.5,39.64Z"/><path class="cls-32" d="M52.62,37.14l-4.72-.37s-2.42,1.48-4.21,2.52c1.64,1.71,3.25,2.2,6.2,2.43s4.6,0,6.5-1.45C54.77,39,52.62,37.14,52.62,37.14Z"/><path class="cls-20" d="M53.24,36.19c.6,1.6-.84,2.58-3,2.41s-3.46-1.36-2.61-2.85"/><path class="cls-20" d="M19.61,35.92c1.87-.55,3.68-.87,4.13-3s-.78-3.82-1.33-5.75a74.61,74.61,0,0,1-1.76-7.93c-.33-1.94-.64-6.08-1.63-7.78s-3.5-1.86-4.14.19.64,6.06.87,8c-2.09.76-5.36,1.74-7.16,3C7.53,20.77,5.08,14.91,2,17.29c-1.19.93-.45,2.65-.1,3.81a15,15,0,0,0,2.35,4.83,30.35,30.35,0,0,1,3.21,5.72c1.34,3,2.73,5.58,6.34,5.69C16,37.41,17.61,36.51,19.61,35.92Z"/><path class="cls-20" d="M13.34,25.12c-.35-1.14-.71-2.35-1.16-3.46-.38-.92-.51-2-1.82-2.08a3.29,3.29,0,0,0-1.87.47c-1.12.75-.57,2.54-.09,3.56s1,2.81,2.19,3.53a1.8,1.8,0,0,0,2.77-1.93S13.35,25.15,13.34,25.12Z"/><path class="cls-20" d="M17.42,23.86c-.35-1.15-.71-2.36-1.16-3.47-.37-.92-.5-2-1.82-2.07a3.1,3.1,0,0,0-1.86.47c-1.12.74-.57,2.53-.09,3.55s1,2.82,2.19,3.53a1.8,1.8,0,0,0,2.77-1.93Z"/><path class="cls-20" d="M21.76,31.84A5.89,5.89,0,0,0,26,27.93a4.57,4.57,0,0,0-.42-4.22c-1.08-1.39-2.62-1.48-4.24-1.33-1.13.11-2.8.25-3.43,1.32a1.79,1.79,0,0,0,.74,2.47c.74.48,1.54.32,2.36.5a6.56,6.56,0,0,0-4.1,3.77"/><path class="cls-33" d="M32.18,69.79S20.74,54.12,8.93,36.52c5-.53,16.29-4.63,16.29-4.63,3.1,10.66,11,30.9,12,32.15"/><path class="cls-34" d="M52.86,26.19h0s0,0,0,.06a1.16,1.16,0,0,1-.91,2l-.09.87a2,2,0,0,0,2.26-1.64,2,2,0,0,0-.25-1.2,1,1,0,0,0,.13-.16c.08-.1.11-.25.16-.72l.22-2.05-2.77-.3-.18,1.64-.88-.1-.1.9,1.79.19.17-1.61,1,.11-.15,1.39a.71.71,0,0,1-.45.6"/><path class="cls-35" d="M50.78,23l-.25,0h0a1.76,1.76,0,0,0-1.35.4,1.69,1.69,0,0,0-.52,1.28l-.44,4.11,2.81.31.17-1.62.9.1.09-.91-1.78-.19-.18,1.63-1-.11.37-3.42s0-.75.9-.67h.21Z"/><path class="cls-20" d="M71.31,60c-1.26-4.24-7.93-3.9-7.33.86S72.24,63.16,71.31,60Z"/><path class="cls-33" d="M73.33,60.79l-10.7,1.26s1.65,7.65,2.4,9.77c1.06,3,7.93,3.13,8.52-1C74,67.67,73.33,60.79,73.33,60.79Z"/><path class="cls-32" d="M73.33,60.79s.15,1.52.26,3.46l-10.2,1.19c-.43-1.87-.76-3.39-.76-3.39Z"/><path class="cls-36" d="M73.7,67.06l-9.8.58c-.17-.74-.35-1.49-.51-2.2l10.2-1.19C73.64,65.13,73.69,66.1,73.7,67.06Z"/><path class="cls-22" d="M43,28.6c1.07,0,2.67,2,3.35,2.72a19.48,19.48,0,0,1,1.93,2.17"/><path class="cls-22" d="M52.22,34c.5-1,3.29-2.11,4.38-2.73a4.77,4.77,0,0,1,2.66-1"/><path d="M54.32,34.68a24.75,24.75,0,0,1,6.13-1.15A20.25,20.25,0,0,1,61.37,36a18.67,18.67,0,0,0-6.66.64A13.57,13.57,0,0,0,54.32,34.68Z"/><path d="M47.06,33.94A25.06,25.06,0,0,0,41.2,31.8a19.68,19.68,0,0,0-1.31,2.26,19,19,0,0,1,6.46,1.73A14.11,14.11,0,0,1,47.06,33.94Z"/></svg>