<svg id="圖層_1" data-name="圖層 1" xmlns="http://www.w3.org/2000/svg" xmlns:xlink="http://www.w3.org/1999/xlink" viewBox="0 0 88 88"><defs><style>.cls-1,.cls-12,.cls-13,.cls-19,.cls-21,.cls-22,.cls-23,.cls-24,.cls-25,.cls-26,.cls-30,.cls-34,.cls-38,.cls-39,.cls-4,.cls-40,.cls-41,.cls-42,.cls-43,.cls-44,.cls-45,.cls-46,.cls-47,.cls-48,.cls-49,.cls-5,.cls-50,.cls-51,.cls-52,.cls-53,.cls-54,.cls-55,.cls-56,.cls-57,.cls-6{stroke:#000;}.cls-1,.cls-12,.cls-13,.cls-19,.cls-21,.cls-22,.cls-23,.cls-24,.cls-25,.cls-26,.cls-34,.cls-38,.cls-39,.cls-4,.cls-40,.cls-41,.cls-42,.cls-43,.cls-44,.cls-45,.cls-46,.cls-47,.cls-48,.cls-49,.cls-5,.cls-50,.cls-51,.cls-52,.cls-53,.cls-54,.cls-55,.cls-56,.cls-57,.cls-6{stroke-linecap:round;}.cls-1,.cls-12,.cls-13,.cls-19,.cls-21,.cls-22,.cls-23,.cls-24,.cls-25,.cls-26,.cls-34,.cls-35,.cls-38,.cls-39,.cls-4,.cls-40,.cls-41,.cls-42,.cls-43,.cls-44,.cls-45,.cls-46,.cls-47,.cls-48,.cls-49,.cls-5,.cls-50,.cls-51,.cls-52,.cls-53,.cls-54,.cls-55,.cls-56,.cls-57,.cls-6{stroke-width:0.88px;}.cls-1{fill:url(#linear-gradient);}.cls-2{fill:#b5001f;}.cls-3{fill:url(#linear-gradient-2);}.cls-4{fill:url(#linear-gradient-3);}.cls-5{fill:url(#linear-gradient-4);}.cls-6{fill:url(#linear-gradient-5);}.cls-7{fill:url(#linear-gradient-6);}.cls-8{fill:url(#linear-gradient-7);}.cls-9{fill:url(#linear-gradient-8);}.cls-10{fill:url(#linear-gradient-9);}.cls-11{fill:url(#linear-gradient-10);}.cls-12{fill:url(#linear-gradient-11);}.cls-13{fill:url(#linear-gradient-12);}.cls-14{fill:url(#linear-gradient-13);}.cls-15{fill:url(#linear-gradient-14);}.cls-16{fill:url(#linear-gradient-15);}.cls-17{fill:url(#linear-gradient-16);}.cls-18{fill:url(#linear-gradient-17);}.cls-19{fill:#ffe0ca;}.cls-20{fill:#f8ba96;}.cls-21{fill:none;}.cls-22{fill:url(#linear-gradient-18);}.cls-23{fill:#38adf2;}.cls-24{fill:#fff;}.cls-25{fill:url(#linear-gradient-19);}.cls-26{fill:url(#linear-gradient-20);}.cls-27{fill:url(#radial-gradient);}.cls-28{fill:url(#radial-gradient-2);}.cls-29{fill:#171717;}.cls-30,.cls-50,.cls-51,.cls-52,.cls-53,.cls-54,.cls-55,.cls-56,.cls-57{stroke-linejoin:round;}.cls-30{stroke-width:0.91px;fill:url(#linear-gradient-21);}.cls-31{fill:url(#linear-gradient-22);}.cls-32{fill:#00a8a0;}.cls-33{fill:#0093c1;}.cls-34{fill:#ff8678;}.cls-35{stroke:#fff014;stroke-miterlimit:10;}.cls-36{fill:url(#linear-gradient-23);}.cls-37{fill:url(#linear-gradient-24);}.cls-38{fill:url(#linear-gradient-25);}.cls-39{fill:url(#linear-gradient-26);}.cls-40{fill:url(#linear-gradient-27);}.cls-41{fill:url(#linear-gradient-28);}.cls-42{fill:url(#linear-gradient-29);}.cls-43{fill:url(#linear-gradient-30);}.cls-44{fill:url(#linear-gradient-31);}.cls-45{fill:url(#linear-gradient-32);}.cls-46{fill:url(#linear-gradient-33);}.cls-47{fill:url(#linear-gradient-34);}.cls-48{fill:url(#linear-gradient-35);}.cls-49{fill:url(#linear-gradient-36);}.cls-50{fill:url(#linear-gradient-37);}.cls-51{fill:url(#linear-gradient-38);}.cls-52{fill:url(#linear-gradient-39);}.cls-53{fill:url(#linear-gradient-40);}.cls-54{fill:url(#linear-gradient-41);}.cls-55{fill:url(#linear-gradient-42);}.cls-56{fill:url(#linear-gradient-43);}.cls-57{fill:url(#linear-gradient-44);}</style><linearGradient id="linear-gradient" x1="45.64" y1="48.5" x2="45.64" y2="73.53" gradientUnits="userSpaceOnUse"><stop offset="0" stop-color="#f70033"/><stop offset="1" stop-color="#b5001f"/></linearGradient><linearGradient id="linear-gradient-2" x1="-74.92" y1="69.68" x2="-73.9" y2="89.43" gradientTransform="translate(118.11 -61.06) rotate(-0.96)" gradientUnits="userSpaceOnUse"><stop offset="0" stop-color="#fff"/><stop offset="0.96" stop-color="#171717"/><stop offset="1"/></linearGradient><linearGradient id="linear-gradient-3" x1="109.23" y1="122.74" x2="109.23" y2="134.3" gradientTransform="matrix(1, -0.02, 0.02, 1, -65.9, -50.63)" gradientUnits="userSpaceOnUse"><stop offset="0" stop-color="#fff014"/><stop offset="1" stop-color="#df8800"/></linearGradient><linearGradient id="linear-gradient-4" x1="-1035.09" y1="186.71" x2="-1023.62" y2="186.71" gradientTransform="matrix(0, -1, -1, 0, 259.6, -997.15)" xlink:href="#linear-gradient-3"/><linearGradient id="linear-gradient-5" x1="-1037.91" y1="173.52" x2="-1037.91" y2="196.96" gradientTransform="matrix(-0.98, -0.21, -0.21, 0.98, -893.65, -369.84)" xlink:href="#linear-gradient-3"/><linearGradient id="linear-gradient-6" x1="-1037.91" y1="191.17" x2="-1037.91" y2="171.78" gradientTransform="matrix(-0.98, -0.21, -0.21, 0.98, -893.65, -369.84)" xlink:href="#linear-gradient-3"/><linearGradient id="linear-gradient-7" x1="-1040.36" y1="174.33" x2="-1040.36" y2="183.19" gradientTransform="matrix(-0.98, -0.21, -0.21, 0.98, -893.65, -369.84)" xlink:href="#linear-gradient-3"/><linearGradient id="linear-gradient-8" x1="-1035.46" y1="174.33" x2="-1035.46" y2="183.19" gradientTransform="matrix(-0.98, -0.21, -0.21, 0.98, -893.65, -369.84)" xlink:href="#linear-gradient-3"/><linearGradient id="linear-gradient-9" x1="-1040.36" y1="174.33" x2="-1040.36" y2="183.19" gradientTransform="matrix(-0.98, -0.21, -0.21, 0.98, -893.65, -369.84)" xlink:href="#linear-gradient-3"/><linearGradient id="linear-gradient-10" x1="-1035.46" y1="174.33" x2="-1035.46" y2="183.19" gradientTransform="matrix(-0.98, -0.21, -0.21, 0.98, -893.65, -369.84)" xlink:href="#linear-gradient-3"/><linearGradient id="linear-gradient-11" x1="-794.33" y1="730.68" x2="-782.86" y2="730.68" gradientTransform="translate(804.91 -697.6)" xlink:href="#linear-gradient-3"/><linearGradient id="linear-gradient-12" x1="-797.16" y1="717.49" x2="-797.16" y2="740.93" gradientTransform="matrix(0.98, -0.19, 0.19, 0.98, 649.04, -836.27)" xlink:href="#linear-gradient-3"/><linearGradient id="linear-gradient-13" x1="-797.16" y1="735.14" x2="-797.16" y2="715.75" gradientTransform="matrix(0.98, -0.19, 0.19, 0.98, 649.04, -836.27)" xlink:href="#linear-gradient-3"/><linearGradient id="linear-gradient-14" x1="-799.61" y1="718.3" x2="-799.61" y2="727.16" gradientTransform="matrix(0.98, -0.19, 0.19, 0.98, 649.04, -836.27)" xlink:href="#linear-gradient-3"/><linearGradient id="linear-gradient-15" x1="-794.71" y1="718.3" x2="-794.71" y2="727.16" gradientTransform="matrix(0.98, -0.19, 0.19, 0.98, 649.04, -836.27)" xlink:href="#linear-gradient-3"/><linearGradient id="linear-gradient-16" x1="-799.61" y1="718.3" x2="-799.61" y2="727.16" gradientTransform="matrix(0.98, -0.19, 0.19, 0.98, 649.04, -836.27)" xlink:href="#linear-gradient-3"/><linearGradient id="linear-gradient-17" x1="-794.71" y1="718.3" x2="-794.71" y2="727.16" gradientTransform="matrix(0.98, -0.19, 0.19, 0.98, 649.04, -836.27)" xlink:href="#linear-gradient-3"/><linearGradient id="linear-gradient-18" x1="27.44" y1="46.45" x2="27.44" y2="119.12" xlink:href="#linear-gradient"/><linearGradient id="linear-gradient-19" x1="-463.39" y1="45.18" x2="-463.39" y2="121.11" gradientTransform="matrix(-1, 0, 0, 1, -399.87, 0)" xlink:href="#linear-gradient"/><linearGradient id="linear-gradient-20" x1="47.53" y1="8.58" x2="49.79" y2="20.36" gradientTransform="translate(-0.14 30.1) rotate(10.36)" gradientUnits="userSpaceOnUse"><stop offset="0" stop-color="#ffe0ca"/><stop offset="1" stop-color="#f8c4ab"/></linearGradient><radialGradient id="radial-gradient" cx="-939.82" cy="709.61" r="12.12" gradientTransform="matrix(-0.54, 0, 0, 0.4, -478.23, -240.24)" gradientUnits="userSpaceOnUse"><stop offset="0" stop-color="#fb7260"/><stop offset="1" stop-color="#ffe0ca" stop-opacity="0"/></radialGradient><radialGradient id="radial-gradient-2" cx="-992.52" cy="709.61" r="12.12" xlink:href="#radial-gradient"/><linearGradient id="linear-gradient-21" x1="44.85" y1="2.01" x2="44.85" y2="34.69" gradientTransform="matrix(1, 0, 0, 1, 0, 0)" xlink:href="#linear-gradient-2"/><linearGradient id="linear-gradient-22" x1="44.85" y1="-0.54" x2="44.85" y2="28" gradientTransform="matrix(1, 0, 0, 1, 0, 0)" xlink:href="#linear-gradient-2"/><linearGradient id="linear-gradient-23" x1="101.83" y1="108.27" x2="101.83" y2="112.98" gradientTransform="translate(-55.82 -40.71) rotate(-0.07)" xlink:href="#linear-gradient-3"/><linearGradient id="linear-gradient-24" x1="101.83" y1="110.44" x2="101.83" y2="113.92" gradientTransform="translate(-55.82 -40.71) rotate(-0.07)" xlink:href="#linear-gradient-3"/><linearGradient id="linear-gradient-25" x1="45.64" y1="63.82" x2="45.64" y2="69.35" gradientUnits="userSpaceOnUse"><stop offset="0" stop-color="#fffabf"/><stop offset="1" stop-color="#ffe47f"/></linearGradient><linearGradient id="linear-gradient-26" x1="45.64" y1="59.84" x2="45.64" y2="68.48" gradientTransform="matrix(1, 0, 0, 1, 0, 0)" xlink:href="#linear-gradient-3"/><linearGradient id="linear-gradient-27" x1="45.64" y1="56.37" x2="45.64" y2="63.21" gradientTransform="matrix(1, 0, 0, 1, 0, 0)" xlink:href="#linear-gradient-3"/><linearGradient id="linear-gradient-28" x1="45.64" y1="55.24" x2="45.64" y2="62.77" gradientTransform="matrix(1, 0, 0, 1, 0, 0)" xlink:href="#linear-gradient-3"/><linearGradient id="linear-gradient-29" x1="45.64" y1="62.19" x2="45.64" y2="81.2" xlink:href="#linear-gradient"/><linearGradient id="linear-gradient-30" x1="45.64" y1="61.09" x2="45.64" y2="63.34" xlink:href="#linear-gradient"/><linearGradient id="linear-gradient-31" x1="45.64" y1="66.76" x2="45.64" y2="82.71" xlink:href="#linear-gradient"/><linearGradient id="linear-gradient-32" x1="50.72" y1="56.56" x2="50.72" y2="64.66" xlink:href="#linear-gradient"/><linearGradient id="linear-gradient-33" x1="50.4" y1="61.82" x2="50.4" y2="72.06" xlink:href="#linear-gradient"/><linearGradient id="linear-gradient-34" x1="-606.95" y1="56.56" x2="-606.95" y2="64.66" gradientTransform="matrix(-1, 0, 0, 1, -565.79, 0)" xlink:href="#linear-gradient"/><linearGradient id="linear-gradient-35" x1="-607.27" y1="61.82" x2="-607.27" y2="72.06" gradientTransform="matrix(-1, 0, 0, 1, -565.79, 0)" xlink:href="#linear-gradient"/><linearGradient id="linear-gradient-36" x1="45.67" y1="60.1" x2="45.67" y2="64.16" xlink:href="#linear-gradient"/><linearGradient id="linear-gradient-37" x1="-462.84" y1="71.91" x2="-455.15" y2="71.91" gradientTransform="matrix(-1, 0, 0, 1, -399.87, 0)" xlink:href="#linear-gradient-20"/><linearGradient id="linear-gradient-38" x1="-459.42" y1="76.38" x2="-456.27" y2="76.38" gradientTransform="matrix(-1, 0, 0, 1, -399.87, 0)" xlink:href="#linear-gradient-20"/><linearGradient id="linear-gradient-39" x1="-459.57" y1="73.96" x2="-456.12" y2="73.96" gradientTransform="matrix(-1, 0, 0, 1, -399.87, 0)" xlink:href="#linear-gradient-20"/><linearGradient id="linear-gradient-40" x1="-459.27" y1="71.43" x2="-456.12" y2="71.43" gradientTransform="matrix(-1, 0, 0, 1, -399.87, 0)" xlink:href="#linear-gradient-20"/><linearGradient id="linear-gradient-41" x1="93.1" y1="71.91" x2="100.78" y2="71.91" gradientTransform="translate(-64.8)" xlink:href="#linear-gradient-20"/><linearGradient id="linear-gradient-42" x1="96.52" y1="76.38" x2="99.67" y2="76.38" gradientTransform="translate(-64.8)" xlink:href="#linear-gradient-20"/><linearGradient id="linear-gradient-43" x1="96.37" y1="73.96" x2="99.82" y2="73.96" gradientTransform="translate(-64.8)" xlink:href="#linear-gradient-20"/><linearGradient id="linear-gradient-44" x1="96.67" y1="71.43" x2="99.82" y2="71.43" gradientTransform="translate(-64.8)" xlink:href="#linear-gradient-20"/></defs><title>money17</title><path class="cls-1" d="M66.85,79.49c0-10.61-3.22-36.18-21.21-36.18S24.42,68.88,24.42,79.49"/><path class="cls-2" d="M47.41,53.36C42.86,53.75,35.15,57,32.29,60c4.72,2.35,7.81,3.08,13.64,3.08,5.58,0,10.13-.71,13.32-2.88C55.16,55.35,50.72,53.08,47.41,53.36Z"/><path class="cls-3" d="M50.53,16.92c0,1.06-2.51,2-5.65,2s-5.69-.77-5.71-1.83,2.51-2,5.65-2S50.51,15.86,50.53,16.92Z"/><path class="cls-4" d="M67.32,70.83c.42.32.6,2.25.66,2.71-2.67.85-35.59.9-44.2.3,0,0,.44-3,.44-3.15C33.4,71.65,67.32,70.83,67.32,70.83Z"/><rect class="cls-5" x="70.46" y="25.76" width="4.8" height="15" transform="translate(24.77 97.3) rotate(-77.63)"/><path class="cls-6" d="M73.78,33.46a6.56,6.56,0,1,0,7.81-5A6.56,6.56,0,0,0,73.78,33.46Z"/><path class="cls-7" d="M76.06,34a4.22,4.22,0,1,0,5-3.22A4.22,4.22,0,0,0,76.06,34Z"/><path class="cls-8" d="M81.78,31v0a4.23,4.23,0,0,1,2.61,4.17A3.49,3.49,0,0,1,81.78,31Z"/><path class="cls-9" d="M76.25,33.34a4.22,4.22,0,0,1,4.11-2.69v0A3.49,3.49,0,0,1,76.25,33.34Z"/><path class="cls-10" d="M84.12,36.38A4.21,4.21,0,0,1,80,39.08v0A3.49,3.49,0,0,1,84.12,36.38Z"/><path class="cls-11" d="M76,34.6a3.49,3.49,0,0,1,2.62,4.15v0A4.22,4.22,0,0,1,76,34.6Z"/><rect class="cls-12" x="7.67" y="30.75" width="15" height="4.8" transform="translate(-6.11 3.55) rotate(-11.13)"/><path class="cls-13" d="M14.25,33.34a6.56,6.56,0,1,1-7.7-5.17A6.55,6.55,0,0,1,14.25,33.34Z"/><path class="cls-14" d="M12,33.78a4.23,4.23,0,1,1-5-3.33A4.23,4.23,0,0,1,12,33.78Z"/><path class="cls-15" d="M6.3,30.68v0a4.22,4.22,0,0,0-2.7,4.12A3.5,3.5,0,0,0,6.3,30.68Z"/><path class="cls-16" d="M11.79,33.17a4.23,4.23,0,0,0-4.06-2.79v0A3.5,3.5,0,0,0,11.79,33.17Z"/><path class="cls-17" d="M3.85,36A4.21,4.21,0,0,0,7.9,38.82v0A3.5,3.5,0,0,0,3.85,36Z"/><path class="cls-18" d="M12,34.42a3.5,3.5,0,0,0-2.7,4.1v0A4.22,4.22,0,0,0,12,34.42Z"/><path class="cls-19" d="M59.4,40.67c-.17,3.83,2.12,7,7.8,7.29s8.26-2.74,8.43-6.57-3.32-7.09-7.81-7.29S59.57,36.84,59.4,40.67Z"/><path class="cls-20" d="M67.87,34.94c-2.57-1-8.39,4.4-8.47,6.31-.17,3.83,2.12,7,7.8,7.3s8.26-2.74,8.43-6.57c-2.13,3.1-3.46,3.65-5.68,4C71,43.06,70.43,36,67.87,34.94Z"/><path class="cls-21" d="M59.4,40.67c-.17,3.83,2.12,7,7.8,7.29s8.26-2.74,8.43-6.57-3.32-7.09-7.81-7.29S59.57,36.84,59.4,40.67Z"/><path class="cls-19" d="M29.74,39.93c-.17,3.83-2.74,6.83-8.43,6.57s-8-3.46-7.8-7.29,3.94-6.77,8.42-6.57S29.91,36.1,29.74,39.93Z"/><path class="cls-20" d="M22.1,35.07c2.18-2,7.74,2.6,7.64,4.86-.17,3.83-2.74,6.83-8.43,6.57s-8-3.46-7.8-7.29c1.4,3.25,3.6,4.49,6,4.81A9.81,9.81,0,0,1,22.1,35.07Z"/><path class="cls-21" d="M29.74,39.93c-.17,3.83-2.74,6.83-8.43,6.57s-8-3.46-7.8-7.29,3.94-6.77,8.42-6.57S29.91,36.1,29.74,39.93Z"/><path class="cls-22" d="M25.76,53.11C23.18,57,18,64.62,28.53,74.69,29.9,71,31.65,63.84,31.65,63.84c-2.73-1.37-2.54-5.54-1.66-7.07C37,44.58,28.47,49.05,25.76,53.11Z"/><path class="cls-23" d="M29.89,61.93c-2.33,1.09-5.48,3.51-6.21,6.66a21.09,21.09,0,0,0,2,3,15.63,15.63,0,0,1,5.54-8A3.87,3.87,0,0,1,29.89,61.93Z"/><path class="cls-24" d="M25.71,71.62a27.92,27.92,0,0,0,2.82,3.07C29.9,71,31.65,63.84,31.65,63.84a3.26,3.26,0,0,1-.4-.24A15.63,15.63,0,0,0,25.71,71.62Z"/><path class="cls-25" d="M65.3,53.11c3.45,4.69,7.79,11.51-2.77,21.58C61.16,71,59.4,63.84,59.4,63.84c2.74-1.37,2.55-5.54,1.67-7.07C53.88,44.29,60.28,46.29,65.3,53.11Z"/><path class="cls-23" d="M61.17,61.93c2.33,1.09,5.47,3.51,6.21,6.66a22.89,22.89,0,0,1-2,3,15.63,15.63,0,0,0-5.54-8A3.87,3.87,0,0,0,61.17,61.93Z"/><path class="cls-24" d="M65.35,71.62a29,29,0,0,1-2.82,3.07C61.16,71,59.4,63.84,59.4,63.84a2.75,2.75,0,0,0,.41-.24A15.63,15.63,0,0,1,65.35,71.62Z"/><path class="cls-26" d="M21.7,37.07c-1,11,5.18,20.55,21.49,22s24.14-6.78,25.15-17.77S59.73,20.48,46.85,19.29,22.71,26.07,21.7,37.07Z"/><path class="cls-20" d="M25.69,28.2a18.18,18.18,0,0,0-4,10.89c13.37-5.69,32.94-6.27,46.69-2.23a18,18,0,0,0-3.77-8.95Z"/><path class="cls-20" d="M21.7,37.07c-1,11,5.18,20.55,21.49,22s24.14-6.78,25.15-17.77c-2.1,9.15-12.91,15.37-25.8,14.27C27.65,54.34,23.27,46.37,21.7,37.07Z"/><path class="cls-27" d="M24.31,43c0,2.67,2.94,4.84,6.56,4.84s6.57-2.17,6.57-4.84S34.5,38.2,30.87,38.2,24.31,40.37,24.31,43Z"/><path class="cls-28" d="M52.86,43c0,2.67,2.94,4.84,6.56,4.84S66,45.71,66,43s-2.94-4.84-6.57-4.84S52.86,40.37,52.86,43Z"/><path class="cls-21" d="M21.7,37.07c-1,11,5.18,20.55,21.49,22s24.14-6.78,25.15-17.77S59.73,20.48,46.85,19.29,22.71,26.07,21.7,37.07Z"/><path class="cls-29" d="M45.18,8.52c-8.48.08-17.77,5-17.59,19.43l17.79.31,15.74,0C61,13.92,54,8.43,45.18,8.52Z"/><path class="cls-30" d="M44.85,14.29c-15.68,0-22.88,9.85-23.71,21.49,0,0,2.17-7.56,23.71-7.56s23.7,7.56,23.7,7.56C67.73,24.14,60.19,14.29,44.85,14.29Z"/><path class="cls-31" d="M44.85,17c-12,.29-22.88,7.12-23.71,18.76,0,0,2.17-7.56,23.71-7.56s23.7,7.56,23.7,7.56C67.73,24.14,56.87,17.31,44.85,17Z"/><path class="cls-32" d="M46.43,23.15h0s0,0,0,.05a1.12,1.12,0,0,1,.5,1,1.14,1.14,0,0,1-1.16,1.11v.87a2,2,0,0,0,2.05-1.9,2,2,0,0,0-.39-1.16A1.73,1.73,0,0,0,47.6,23c.07-.12.08-.26.07-.74l0-2.06-2.78,0,0,1.64H44v.91l1.8,0,0-1.62,1,0,0,1.4a.75.75,0,0,1-.37.66"/><path class="cls-33" d="M44,20.21h-.26a1.76,1.76,0,0,0-1.29.56,1.71,1.71,0,0,0-.36,1.33l0,4.14,2.83,0,0-1.62h.9l0-.92-1.79,0,0,1.63-1,0,0-3.43s-.07-.75.82-.78H44Z"/><path class="cls-21" d="M30.88,31.65c3-.12,7.13-.36,7.31-2.51"/><path class="cls-21" d="M58,31.38c-3-.06-7.14-.22-7.35-2.37"/><path class="cls-34" d="M52.46,44.45c-2.68,0-6.71.2-6.71.2s-4-.09-6.72-.06-.29,6.92,6.79,6.92S55.15,44.43,52.46,44.45Z"/><path class="cls-35" d="M55.57,74.35,36,74.37a9.79,9.79,0,1,1,19.57,0Z"/><path class="cls-36" d="M48.2,69.54a2,2,0,1,1-2.05-2A2,2,0,0,1,48.2,69.54Z"/><path class="cls-37" d="M49.92,68.18c-1.42-.52-1.84,1.36-3.77,1.37s-2.35-1.88-3.77-1.36c-2.5.92-.46,4.56,3.78,4.55S52.42,69.09,49.92,68.18Z"/><rect class="cls-38" x="33.02" y="63.06" width="25.23" height="4.69"/><rect class="cls-39" x="33.02" y="58.66" width="25.23" height="7.33"/><rect class="cls-40" x="34.05" y="67.61" width="23.17" height="9.73"/><rect class="cls-41" x="33.02" y="64.82" width="25.23" height="2.93"/><rect class="cls-42" x="43.88" y="59.59" width="3.52" height="16.13"/><rect class="cls-43" x="33.02" y="60.79" width="25.23" height="1.91"/><rect class="cls-44" x="43.88" y="64.57" width="3.52" height="13.54"/><path class="cls-45" d="M54.12,56.9c-3.48-3.92-6.53,1.18-7.46,3-.8,1.59-.51,2.42.66,2.42C49.82,62.33,58.25,61.54,54.12,56.9Zm-4.71,3.37c-.49.2-.74.06-.14-.47s2-2,2.49-1.25S50.51,59.83,49.41,60.27Z"/><path class="cls-46" d="M48.21,60.59s6.41.45,6.89,8.26c-.74-.44-2.17-1.06-2.17-1.06l-1,1.32c-.22-1.69-1.65-5.46-4.59-6.45S45.89,59.87,48.21,60.59Z"/><path class="cls-47" d="M44.56,62.33c1.18,0,1.47-.83.66-2.42-.92-1.83-4-6.93-7.46-3C33.64,61.54,42.07,62.33,44.56,62.33Zm-4.43-3.78c.52-.76,1.83.66,2.49,1.25s.34.67-.15.47C41.37,59.83,39.51,59.43,40.13,58.55Z"/><path class="cls-48" d="M43.67,60.59s-6.4.45-6.88,8.26c.73-.44,2.16-1.06,2.16-1.06l1,1.32c.22-1.69,1.65-5.46,4.58-6.45S46,59.87,43.67,60.59Z"/><path class="cls-49" d="M48.35,61.26A1.73,1.73,0,0,1,46.63,63H44.72A1.73,1.73,0,0,1,43,61.26h0a1.72,1.72,0,0,1,1.72-1.72h1.91a1.72,1.72,0,0,1,1.72,1.72Z"/><path class="cls-50" d="M59.62,65c-2.45,1.56-.28,2.8-3.66,5.42a1.32,1.32,0,0,0,.29,2.42,1.25,1.25,0,0,0,0,2.35,1.2,1.2,0,0,0,.15,2.12c-.51.54-.07,1.54,1.1,1.47s5.44-2.35,5.47-6C63,68.93,61,65.94,59.62,65Z"/><path class="cls-51" d="M56.4,77.33a5.35,5.35,0,0,0,3.15-1.9"/><path class="cls-52" d="M56.25,75.21c1.1-.44,2.72-1,3.45-2.5"/><path class="cls-53" d="M56.25,72.86A5.78,5.78,0,0,0,59.41,70"/><path class="cls-54" d="M31.65,65c2.45,1.56.29,2.8,3.66,5.42A1.32,1.32,0,0,1,35,72.86a1.25,1.25,0,0,1,0,2.35,1.2,1.2,0,0,1-.15,2.12c.52.54.08,1.54-1.1,1.47s-5.44-2.35-5.47-6C28.27,68.93,30.27,65.94,31.65,65Z"/><path class="cls-55" d="M34.87,77.33a5.35,5.35,0,0,1-3.15-1.9"/><path class="cls-56" d="M35,75.21c-1.1-.44-2.71-1-3.45-2.5"/><path class="cls-57" d="M35,72.86A5.73,5.73,0,0,1,31.87,70"/><path class="cls-21" d="M28.48,40.1c1.56-3.73,11.39-2.77,12.76.55"/><path class="cls-21" d="M62.73,40.1c-1.56-3.73-11.39-2.77-12.76.55"/></svg>