<svg id="圖層_1" data-name="圖層 1" xmlns="http://www.w3.org/2000/svg" xmlns:xlink="http://www.w3.org/1999/xlink" viewBox="0 0 88 88"><defs><style>.cls-1{fill:url(#radial-gradient);}.cls-15,.cls-16,.cls-17,.cls-2,.cls-23,.cls-25,.cls-26,.cls-27,.cls-28,.cls-29,.cls-30,.cls-31,.cls-6,.cls-7,.cls-8,.cls-9{stroke:#000;}.cls-15,.cls-16,.cls-17,.cls-2,.cls-23,.cls-27,.cls-28,.cls-29,.cls-30,.cls-31,.cls-6,.cls-7,.cls-8,.cls-9{stroke-linecap:round;}.cls-15,.cls-16,.cls-17,.cls-2,.cls-23,.cls-26,.cls-27,.cls-28,.cls-29,.cls-30,.cls-31,.cls-7,.cls-8,.cls-9{stroke-width:0.88px;}.cls-2{fill:url(#linear-gradient);}.cls-3{stroke:#fff014;stroke-miterlimit:10;stroke-width:1.03px;}.cls-4{fill:url(#linear-gradient-2);}.cls-5{fill:url(#linear-gradient-3);}.cls-6{stroke-width:0.7px;fill:url(#linear-gradient-4);}.cls-7{fill:url(#linear-gradient-5);}.cls-8{fill:url(#linear-gradient-6);}.cls-9{fill:url(#linear-gradient-7);}.cls-10{fill:url(#linear-gradient-8);}.cls-11{fill:url(#linear-gradient-9);}.cls-12{fill:url(#linear-gradient-10);}.cls-13{fill:url(#linear-gradient-11);}.cls-14{fill:url(#linear-gradient-12);}.cls-15{fill:url(#linear-gradient-13);}.cls-16{fill:url(#linear-gradient-14);}.cls-17{fill:url(#linear-gradient-15);}.cls-18{fill:url(#linear-gradient-16);}.cls-19{fill:url(#linear-gradient-17);}.cls-20{fill:url(#linear-gradient-18);}.cls-21{fill:url(#linear-gradient-19);}.cls-22{fill:url(#linear-gradient-20);}.cls-23{fill:#ffe0ca;}.cls-24{fill:url(#linear-gradient-21);}.cls-25,.cls-27,.cls-31{stroke-linejoin:round;}.cls-25{stroke-width:0.9px;fill:url(#linear-gradient-22);}.cls-26{fill:#171717;}.cls-27{fill:url(#linear-gradient-23);}.cls-28{fill:#f70033;}.cls-29{fill:#fff;}.cls-30{fill:#38adf2;}.cls-31{fill:url(#linear-gradient-24);}</style><radialGradient id="radial-gradient" cx="-289.3" cy="83.72" r="17.33" gradientTransform="translate(693.81 53.76) scale(2.25 0.24)" gradientUnits="userSpaceOnUse"><stop offset="0" stop-color="#231f20"/><stop offset="1" stop-color="#fff"/></radialGradient><linearGradient id="linear-gradient" x1="43.37" y1="54.06" x2="43.37" y2="73.88" gradientUnits="userSpaceOnUse"><stop offset="0" stop-color="#f70033"/><stop offset="1" stop-color="#b5001f"/></linearGradient><linearGradient id="linear-gradient-2" x1="110.6" y1="118.88" x2="110.6" y2="123.16" gradientTransform="matrix(1, 0.01, -0.01, 1, -65.25, -62.04)" gradientUnits="userSpaceOnUse"><stop offset="0" stop-color="#fff014"/><stop offset="1" stop-color="#df8800"/></linearGradient><linearGradient id="linear-gradient-3" x1="110.6" y1="120.85" x2="110.6" y2="124.02" xlink:href="#linear-gradient-2"/><linearGradient id="linear-gradient-4" x1="43.29" y1="63.02" x2="43.29" y2="67.08" gradientTransform="matrix(1, 0, 0, 1, 0, 0)" xlink:href="#linear-gradient-2"/><linearGradient id="linear-gradient-5" x1="-1409.3" y1="562.95" x2="-1393.23" y2="562.95" gradientTransform="matrix(-1.1, -0.45, 0.38, 0.5, -1679.86, -870.04)" xlink:href="#linear-gradient-2"/><linearGradient id="linear-gradient-6" x1="82.99" y1="33.25" x2="80.87" y2="35.89" gradientTransform="matrix(1, 0, 0, 1, 0, 0)" xlink:href="#linear-gradient-2"/><linearGradient id="linear-gradient-7" x1="-1407" y1="555.05" x2="-1407" y2="578.49" gradientTransform="matrix(-1.1, -0.45, 0.38, 0.5, -1679.86, -870.04)" xlink:href="#linear-gradient-2"/><linearGradient id="linear-gradient-8" x1="-1407" y1="572.71" x2="-1407" y2="553.31" gradientTransform="matrix(-1.1, -0.45, 0.38, 0.5, -1679.86, -870.04)" xlink:href="#linear-gradient-2"/><linearGradient id="linear-gradient-9" x1="-1409.45" y1="555.87" x2="-1409.45" y2="564.73" gradientTransform="matrix(-1.1, -0.45, 0.38, 0.5, -1679.86, -870.04)" xlink:href="#linear-gradient-2"/><linearGradient id="linear-gradient-10" x1="-1404.55" y1="555.87" x2="-1404.55" y2="564.73" gradientTransform="matrix(-1.1, -0.45, 0.38, 0.5, -1679.86, -870.04)" xlink:href="#linear-gradient-2"/><linearGradient id="linear-gradient-11" x1="-1409.45" y1="555.87" x2="-1409.45" y2="564.73" gradientTransform="matrix(-1.1, -0.45, 0.38, 0.5, -1679.86, -870.04)" xlink:href="#linear-gradient-2"/><linearGradient id="linear-gradient-12" x1="-1404.55" y1="555.87" x2="-1404.55" y2="564.73" gradientTransform="matrix(-1.1, -0.45, 0.38, 0.5, -1679.86, -870.04)" xlink:href="#linear-gradient-2"/><linearGradient id="linear-gradient-13" x1="-1936.19" y1="91.3" x2="-1920.13" y2="91.3" gradientTransform="matrix(1.1, -0.45, -0.38, 0.5, 2168.69, -870.04)" xlink:href="#linear-gradient-2"/><linearGradient id="linear-gradient-14" x1="483.82" y1="33.25" x2="481.69" y2="35.89" gradientTransform="matrix(-1, 0, 0, 1, 488.83, 0)" xlink:href="#linear-gradient-2"/><linearGradient id="linear-gradient-15" x1="-1933.89" y1="83.41" x2="-1933.89" y2="106.85" gradientTransform="matrix(1.1, -0.45, -0.38, 0.5, 2168.69, -870.04)" xlink:href="#linear-gradient-2"/><linearGradient id="linear-gradient-16" x1="-1933.89" y1="101.06" x2="-1933.89" y2="81.67" gradientTransform="matrix(1.1, -0.45, -0.38, 0.5, 2168.69, -870.04)" xlink:href="#linear-gradient-2"/><linearGradient id="linear-gradient-17" x1="-1936.34" y1="84.22" x2="-1936.34" y2="93.08" gradientTransform="matrix(1.1, -0.45, -0.38, 0.5, 2168.69, -870.04)" xlink:href="#linear-gradient-2"/><linearGradient id="linear-gradient-18" x1="-1931.44" y1="84.22" x2="-1931.44" y2="93.08" gradientTransform="matrix(1.1, -0.45, -0.38, 0.5, 2168.69, -870.04)" xlink:href="#linear-gradient-2"/><linearGradient id="linear-gradient-19" x1="-1936.34" y1="84.22" x2="-1936.34" y2="93.08" gradientTransform="matrix(1.1, -0.45, -0.38, 0.5, 2168.69, -870.04)" xlink:href="#linear-gradient-2"/><linearGradient id="linear-gradient-20" x1="-1931.44" y1="84.22" x2="-1931.44" y2="93.08" gradientTransform="matrix(1.1, -0.45, -0.38, 0.5, 2168.69, -870.04)" xlink:href="#linear-gradient-2"/><linearGradient id="linear-gradient-21" x1="48.56" y1="-3.89" x2="48.56" y2="51.59" gradientTransform="matrix(1.05, 0, 0, 1, -7.28, -0.02)" gradientUnits="userSpaceOnUse"><stop offset="0" stop-color="#fff"/><stop offset="0.96" stop-color="#171717"/><stop offset="1"/></linearGradient><linearGradient id="linear-gradient-22" x1="48.56" y1="-34.78" x2="48.56" y2="60.95" gradientTransform="matrix(1.05, 0, 0, 1, -7.28, -0.02)" gradientUnits="userSpaceOnUse"><stop offset="0" stop-color="#fff"/><stop offset="0.76" stop-color="#171717"/><stop offset="1"/></linearGradient><linearGradient id="linear-gradient-23" x1="39.07" y1="31.65" x2="39.07" y2="50.72" gradientUnits="userSpaceOnUse"><stop offset="0" stop-color="#ffe0ca"/><stop offset="1" stop-color="#f8c4ab"/></linearGradient><linearGradient id="linear-gradient-24" x1="130.58" y1="31.65" x2="130.58" y2="50.72" gradientTransform="matrix(-1, 0, 0, 1, 178.82, 0)" xlink:href="#linear-gradient-23"/></defs><title>money09</title><path class="cls-1" d="M82.38,73.93c0,2.3-17.45,4.17-39,4.17s-39-1.87-39-4.17,17.45-4.18,39-4.18S82.38,71.62,82.38,73.93Z"/><path class="cls-2" d="M25.83,52c-1.56-2-4.81,10.33-4.07,15.2-.23,2.94-4.55,6.33-4.55,6.33,12.73,1.57,48,1.57,52.31-.19A8.39,8.39,0,0,1,65,66.22c1.1-3.25-1.57-15.1-3.45-13.85Z"/><path class="cls-3" d="M52.39,64.59l-17.83-.21a8.92,8.92,0,0,1,17.83.21Z"/><path class="cls-4" d="M45.74,60.12a1.87,1.87,0,1,1-3.73,0,1.87,1.87,0,0,1,3.73,0Z"/><path class="cls-5" d="M47.32,58.9c-1.29-.49-1.69,1.22-3.45,1.2s-2.12-1.74-3.42-1.28c-2.29.8-.48,4.15,3.38,4.2S49.59,59.76,47.32,58.9Z"/><path class="cls-6" d="M66,65.92c-15.1,1.57-29.91,2-45.32,0V62.55c0,2.14,45.32,1.77,45.32,0Z"/><polygon class="cls-7" points="61.97 33.57 78.43 40.25 80.51 36.95 64.05 30.27 61.97 33.57"/><path class="cls-8" d="M85.5,43.6a15.06,15.06,0,0,0,1.1-2.2c.15-.59-2.42-3.52-6-5.5s-8.29-2.79-8.8-2.2a20.93,20.93,0,0,0-1.37,1.94Z"/><path class="cls-9" d="M70.7,36.87c1.36,1.8,5.69,4.57,9.66,6.19s6.09,1.46,4.73-.35-5.69-4.57-9.66-6.18S69.34,35.07,70.7,36.87Z"/><path class="cls-10" d="M73.26,37.91c.87,1.16,3.66,3,6.22,4s3.93.94,3-.22-3.67-3-6.23-4S72.38,36.75,73.26,37.91Z"/><path class="cls-11" d="M77.14,38.06h0a18.64,18.64,0,0,1,5.1,3.28A14.73,14.73,0,0,1,77.14,38.06Z"/><path class="cls-12" d="M73.07,37.62c-.37-.77.63-.86,2.46-.22h0C76.26,38.36,75.16,38.45,73.07,37.62Z"/><path class="cls-13" d="M82.71,42c.38.77-.62.86-2.45.22h0C79.53,41.22,80.63,41.14,82.71,42Z"/><path class="cls-14" d="M73.56,38.25a14.73,14.73,0,0,1,5.09,3.28h0A18.64,18.64,0,0,1,73.56,38.25Z"/><polygon class="cls-15" points="26.04 33.57 9.57 40.25 7.49 36.95 23.95 30.27 26.04 33.57"/><path class="cls-16" d="M2.5,43.6a15.06,15.06,0,0,1-1.1-2.2c-.15-.59,2.42-3.52,6-5.5s8.29-2.79,8.8-2.2a20.93,20.93,0,0,1,1.37,1.94Z"/><path class="cls-17" d="M17.3,36.87c-1.36,1.8-5.69,4.57-9.66,6.19s-6.09,1.46-4.73-.35,5.69-4.57,9.66-6.18S18.66,35.07,17.3,36.87Z"/><path class="cls-18" d="M14.74,37.91c-.87,1.16-3.66,3-6.22,4s-3.93.94-3-.22,3.67-3,6.23-4S15.62,36.75,14.74,37.91Z"/><path class="cls-19" d="M10.86,38.06h0a18.64,18.64,0,0,0-5.1,3.28A14.73,14.73,0,0,0,10.86,38.06Z"/><path class="cls-20" d="M14.93,37.62c.37-.77-.63-.86-2.46-.22h0C11.74,38.36,12.84,38.45,14.93,37.62Z"/><path class="cls-21" d="M5.29,42c-.38.77.62.86,2.45.22h0C8.47,41.22,7.37,41.14,5.29,42Z"/><path class="cls-22" d="M14.44,38.25a14.73,14.73,0,0,0-5.09,3.28h0A18.64,18.64,0,0,0,14.44,38.25Z"/><path class="cls-23" d="M59.15,38.47c-.58,1.83,1.27,4.05,6.69,5.77s8.21,1,8.79-.83S72.22,39,67.94,37.64,59.73,36.65,59.15,38.47Z"/><path class="cls-23" d="M28.75,39.15c.52,1.84-1.41,4-6.89,5.52s-8.24.69-8.76-1.15S15.67,39.2,20,38,28.24,37.3,28.75,39.15Z"/><path class="cls-23" d="M66.86,37.05c.32,10.84-6.32,19.83-22.41,20.31s-23.24-8.11-23.56-19S30.6,18.47,43.29,18.1,66.54,26.2,66.86,37.05Z"/><path class="cls-24" d="M68.12,33.88c.32,10.84-6.7,19.85-23.67,20.35S20,46.16,19.63,35.32,29.9,15.36,43.29,15,67.8,23,68.12,33.88Z"/><path class="cls-25" d="M68.12,33.88c.32,10.84-6.7,19.85-23.67,20.35S20,46.16,19.63,35.32,29.9,15.36,43.29,15,67.8,23,68.12,33.88Z"/><path class="cls-26" d="M44,9.9c-9.88.07-23.88,5.28-23.88,20.91,0,2.91,8.67-4.29,23.53-4.29h.71c14.86,0,23.52,7.2,23.52,4.29C67.89,15.18,53.9,10,44,9.9Z"/><path class="cls-27" d="M43.66,48.23V31.51c0-3.08-3.52-1.91-4,.14s-1.32,9-1.61,10-1.76,1.17-2.79,1.46S34,52,35.89,51.6,43.66,50.72,43.66,48.23Z"/><path class="cls-28" d="M35.89,40.6l1,13.17S20.78,55,17.7,54.83s-6-7.18-1-9.1S35.89,40.6,35.89,40.6Z"/><path class="cls-29" d="M36.84,53.77l-1-13.17s-1.78.4-4.3,1L33.25,54Z"/><path class="cls-30" d="M31.59,41.61c-1.4.33-3,.73-4.7,1.16l1.74,11.57L33.25,54Z"/><path class="cls-31" d="M43.66,48.23V31.51c0-3.08,3.52-1.91,4,.14s1.32,9,1.61,10S51,42.8,52,43.09s1.32,8.95-.59,8.51S43.66,50.72,43.66,48.23Z"/><path class="cls-28" d="M51.43,40.6l-1,13.17S66.54,55,69.62,54.83s6-7.18,1-9.1S51.43,40.6,51.43,40.6Z"/><path class="cls-29" d="M50.47,53.77l1-13.17s1.78.4,4.3,1L54.07,54Z"/><path class="cls-30" d="M55.73,41.61c1.39.33,3,.73,4.7,1.16L58.68,54.34,54.07,54Z"/><path class="cls-30" d="M66.26,70.33c-8.24,1.64-39.32.79-45.78-.2a18.92,18.92,0,0,1-3.27,3.39c12.73,1.57,48,1.57,52.31-.19A9.46,9.46,0,0,1,66.26,70.33Z"/></svg>