<svg id="圖層_1" data-name="圖層 1" xmlns="http://www.w3.org/2000/svg" xmlns:xlink="http://www.w3.org/1999/xlink" viewBox="0 0 88 88"><defs><style>.cls-1,.cls-15,.cls-17,.cls-2,.cls-20,.cls-22,.cls-25,.cls-26,.cls-28,.cls-30,.cls-31,.cls-36,.cls-8,.cls-9{stroke:#000;}.cls-1,.cls-15,.cls-17,.cls-2,.cls-20,.cls-22,.cls-25,.cls-26,.cls-27,.cls-28,.cls-30,.cls-31,.cls-36,.cls-8,.cls-9{stroke-linecap:round;}.cls-1,.cls-2,.cls-20,.cls-22,.cls-25,.cls-26,.cls-27,.cls-28,.cls-30,.cls-31,.cls-36,.cls-8,.cls-9{stroke-width:0.88px;}.cls-1{fill:url(#linear-gradient);}.cls-2{fill:url(#linear-gradient-2);}.cls-3{fill:url(#linear-gradient-3);}.cls-4{fill:url(#linear-gradient-4);}.cls-5{fill:url(#linear-gradient-5);}.cls-6{fill:url(#linear-gradient-6);}.cls-7{fill:url(#linear-gradient-7);}.cls-8{fill:url(#linear-gradient-8);}.cls-9{fill:url(#linear-gradient-9);}.cls-10{fill:url(#linear-gradient-10);}.cls-11{fill:url(#linear-gradient-11);}.cls-12{fill:url(#linear-gradient-12);}.cls-13{fill:url(#linear-gradient-13);}.cls-14{fill:url(#linear-gradient-14);}.cls-15,.cls-30{fill:#f70033;}.cls-15{stroke-width:0.96px;}.cls-16{stroke:#fff014;stroke-miterlimit:10;stroke-width:1.03px;}.cls-17{stroke-width:0.7px;fill:url(#linear-gradient-15);}.cls-18{fill:url(#linear-gradient-16);}.cls-19{fill:url(#linear-gradient-17);}.cls-20{fill:#ffe0ca;}.cls-21{fill:#f8ba96;}.cls-22{fill:none;}.cls-23{fill:url(#radial-gradient);}.cls-24{fill:url(#radial-gradient-2);}.cls-25{fill:#ff8678;}.cls-26,.cls-36{fill:#fff;}.cls-27{fill:#d4f0ff;stroke:#94b3db;}.cls-28{fill:#c7a14f;}.cls-29{fill:#a1752b;}.cls-31{fill:#38adf2;}.cls-32{fill:#171717;}.cls-33{fill:url(#linear-gradient-18);}.cls-34{fill:url(#linear-gradient-19);}.cls-35{fill:url(#linear-gradient-20);}.cls-36{stroke-linejoin:round;}.cls-37{fill:#00a8a0;}.cls-38{fill:#0093c1;}</style><linearGradient id="linear-gradient" x1="-450.3" y1="-713.41" x2="-435.44" y2="-713.41" gradientTransform="translate(831.74 254.68) rotate(-42.99)" gradientUnits="userSpaceOnUse"><stop offset="0" stop-color="#fff014"/><stop offset="1" stop-color="#df8800"/></linearGradient><linearGradient id="linear-gradient-2" x1="-1122.55" y1="-223.48" x2="-1122.55" y2="-200.46" gradientTransform="matrix(0.99, -0.16, 0.16, 0.99, 1152.12, 68.47)" xlink:href="#linear-gradient"/><linearGradient id="linear-gradient-3" x1="-1122.55" y1="-206.14" x2="-1122.55" y2="-225.19" gradientTransform="matrix(0.99, -0.16, 0.16, 0.99, 1152.12, 68.47)" xlink:href="#linear-gradient"/><linearGradient id="linear-gradient-4" x1="-1124.95" y1="-222.68" x2="-1124.95" y2="-213.98" gradientTransform="matrix(0.99, -0.16, 0.16, 0.99, 1152.12, 68.47)" xlink:href="#linear-gradient"/><linearGradient id="linear-gradient-5" x1="-1120.14" y1="-222.69" x2="-1120.14" y2="-213.98" gradientTransform="matrix(0.99, -0.16, 0.16, 0.99, 1152.12, 68.47)" xlink:href="#linear-gradient"/><linearGradient id="linear-gradient-6" x1="-1124.95" y1="-222.68" x2="-1124.95" y2="-213.98" gradientTransform="matrix(0.99, -0.16, 0.16, 0.99, 1152.12, 68.47)" xlink:href="#linear-gradient"/><linearGradient id="linear-gradient-7" x1="-1120.14" y1="-222.68" x2="-1120.14" y2="-213.98" gradientTransform="matrix(0.99, -0.16, 0.16, 0.99, 1152.12, 68.47)" xlink:href="#linear-gradient"/><linearGradient id="linear-gradient-8" x1="614.75" y1="279.28" x2="629.62" y2="279.28" gradientTransform="matrix(-0.73, -0.68, -0.68, 0.73, 712.17, 254.68)" xlink:href="#linear-gradient"/><linearGradient id="linear-gradient-9" x1="315.21" y1="5.84" x2="315.21" y2="28.85" gradientTransform="matrix(-0.99, -0.16, -0.16, 0.99, 391.79, 68.47)" xlink:href="#linear-gradient"/><linearGradient id="linear-gradient-10" x1="315.21" y1="23.17" x2="315.21" y2="4.13" gradientTransform="matrix(-0.99, -0.16, -0.16, 0.99, 391.79, 68.47)" xlink:href="#linear-gradient"/><linearGradient id="linear-gradient-11" x1="312.8" y1="6.63" x2="312.8" y2="15.33" gradientTransform="matrix(-0.99, -0.16, -0.16, 0.99, 391.79, 68.47)" xlink:href="#linear-gradient"/><linearGradient id="linear-gradient-12" x1="317.62" y1="6.63" x2="317.62" y2="15.33" gradientTransform="matrix(-0.99, -0.16, -0.16, 0.99, 391.79, 68.47)" xlink:href="#linear-gradient"/><linearGradient id="linear-gradient-13" x1="312.8" y1="6.63" x2="312.8" y2="15.33" gradientTransform="matrix(-0.99, -0.16, -0.16, 0.99, 391.79, 68.47)" xlink:href="#linear-gradient"/><linearGradient id="linear-gradient-14" x1="317.62" y1="6.63" x2="317.62" y2="15.34" gradientTransform="matrix(-0.99, -0.16, -0.16, 0.99, 391.79, 68.47)" xlink:href="#linear-gradient"/><linearGradient id="linear-gradient-15" x1="111.48" y1="115.91" x2="111.48" y2="126.97" gradientTransform="matrix(1, -0.02, 0.02, 1, -68.59, -44.03)" xlink:href="#linear-gradient"/><linearGradient id="linear-gradient-16" x1="111.78" y1="112.72" x2="111.78" y2="117.01" gradientTransform="matrix(1, -0.02, 0.02, 1, -68.59, -44.03)" xlink:href="#linear-gradient"/><linearGradient id="linear-gradient-17" x1="111.78" y1="114.69" x2="111.78" y2="117.86" gradientTransform="matrix(1, -0.02, 0.02, 1, -68.59, -44.03)" xlink:href="#linear-gradient"/><radialGradient id="radial-gradient" cx="30.23" cy="509.35" r="8.21" gradientTransform="translate(0 -158.53) scale(1 0.4)" gradientUnits="userSpaceOnUse"><stop offset="0" stop-color="#fb7260"/><stop offset="1" stop-color="#ffe0ca" stop-opacity="0"/></radialGradient><radialGradient id="radial-gradient-2" cx="56.57" cy="509.35" r="8.21" xlink:href="#radial-gradient"/><linearGradient id="linear-gradient-18" x1="79.47" y1="25.01" x2="81.99" y2="44.85" gradientTransform="translate(-34.72 -20.79) rotate(4.6)" gradientUnits="userSpaceOnUse"><stop offset="0" stop-color="#fff"/><stop offset="0.96" stop-color="#171717"/><stop offset="1"/></linearGradient><linearGradient id="linear-gradient-19" x1="335.31" y1="8.14" x2="335.31" y2="35.42" gradientTransform="matrix(-1, 0.01, 0.01, 1, 378.64, -7.22)" xlink:href="#linear-gradient-18"/><linearGradient id="linear-gradient-20" x1="49.26" y1="53.6" x2="50.25" y2="72.75" gradientTransform="translate(-6.19 -42.21) rotate(-0.05)" xlink:href="#linear-gradient-18"/></defs><title>money04</title><path class="cls-1" d="M31.43,35.66c-13.08.07-20.62,4.05-20.62,4.05l-.74-4.66S17,31.13,29.59,31.33C30.27,32.92,30.94,34.17,31.43,35.66Z"/><path class="cls-2" d="M16.8,36.37A6.43,6.43,0,1,1,9.43,31,6.44,6.44,0,0,1,16.8,36.37Z"/><path class="cls-3" d="M14.54,36.73a4.15,4.15,0,1,1-4.75-3.45A4.15,4.15,0,0,1,14.54,36.73Z"/><path class="cls-4" d="M9.1,33.48v0A4.15,4.15,0,0,0,6.3,37.4,3.44,3.44,0,0,0,9.1,33.48Z"/><path class="cls-5" d="M14.39,36.11a4.15,4.15,0,0,0-3.88-2.88v0A3.43,3.43,0,0,0,14.39,36.11Z"/><path class="cls-6" d="M6.5,38.65a4.15,4.15,0,0,0,3.88,2.88v0A3.43,3.43,0,0,0,6.5,38.65Z"/><path class="cls-7" d="M14.59,37.36a3.42,3.42,0,0,0-2.8,3.92v0A4.15,4.15,0,0,0,14.59,37.36Z"/><path class="cls-8" d="M56.57,35.66c13.08.07,20.62,4.05,20.62,4.05l.74-4.66S71,31.13,58.41,31.33C57.73,32.92,57.06,34.17,56.57,35.66Z"/><path class="cls-9" d="M71.2,36.37A6.43,6.43,0,1,0,78.57,31,6.44,6.44,0,0,0,71.2,36.37Z"/><path class="cls-10" d="M73.46,36.73a4.15,4.15,0,1,0,4.75-3.45A4.15,4.15,0,0,0,73.46,36.73Z"/><path class="cls-11" d="M78.9,33.48v0A4.15,4.15,0,0,1,81.7,37.4,3.44,3.44,0,0,1,78.9,33.48Z"/><path class="cls-12" d="M73.61,36.11a4.15,4.15,0,0,1,3.88-2.88v0A3.43,3.43,0,0,1,73.61,36.11Z"/><path class="cls-13" d="M81.5,38.65a4.15,4.15,0,0,1-3.88,2.88v0A3.43,3.43,0,0,1,81.5,38.65Z"/><path class="cls-14" d="M73.41,37.36a3.42,3.42,0,0,1,2.8,3.92v0A4.15,4.15,0,0,1,73.41,37.36Z"/><path class="cls-15" d="M64.37,75.9c0-12.69-7-19.36-7.63-19.68s-6-.53-11.15,0c-5.12-.48-10.52-.27-11.14,0s-7.94,4.21-7.94,19.68"/><path class="cls-16" d="M54.16,72.54l-17.83.36a8.92,8.92,0,0,1,17.83-.36Z"/><path class="cls-17" d="M64.7,70.74c.43.32.62,1.8.68,2.26-2.67.85-32.14,1.34-40.18-.06,0,0,0-2.4,0-2.57C33.63,72.78,64.7,70.74,64.7,70.74Z"/><path class="cls-18" d="M47.36,68.29a1.87,1.87,0,1,1-1.9-1.83A1.86,1.86,0,0,1,47.36,68.29Z"/><path class="cls-19" d="M48.91,67c-1.3-.45-1.65,1.27-3.41,1.31S43.32,66.66,42,67.16c-2.27.88-.34,4.16,3.52,4.08S51.2,67.81,48.91,67Z"/><path class="cls-20" d="M58.49,42.14C58.6,46,61.13,49,66.81,48.83s8-3.34,7.92-7.17S70.89,34.83,66.4,35,58.37,38.31,58.49,42.14Z"/><path class="cls-21" d="M66.4,35c-2.6-1-8.22,4.69-8.24,6.61,0,3.83,2.38,7,8.07,7s8.15-3,8.18-6.87c-2,3.18-3.62,3.77-5.82,4.21C69.53,43,69,36,66.4,35Z"/><path class="cls-22" d="M58.49,42.14C58.6,46,61.13,49,66.81,48.83s8-3.34,7.92-7.17S70.89,34.83,66.4,35,58.37,38.31,58.49,42.14Z"/><path class="cls-20" d="M29.48,42.14C29.36,46,26.83,49,21.15,48.83s-8-3.34-7.92-7.17,3.84-6.83,8.33-6.7S29.59,38.31,29.48,42.14Z"/><path class="cls-21" d="M21.56,35c2.6-1,8.22,4.69,8.24,6.61,0,3.83-2.38,7-8.07,7s-8.15-3-8.18-6.87c2,3.18,3.62,3.77,5.82,4.21C18.43,43,19,36,21.56,35Z"/><path class="cls-22" d="M29.48,42.14C29.36,46,26.83,49,21.15,48.83s-8-3.34-7.92-7.17,3.84-6.83,8.33-6.7S29.59,38.31,29.48,42.14Z"/><path class="cls-20" d="M66.91,40.69C67.23,51.53,60.59,60.53,44.5,61s-23.25-8.11-23.57-19,9.71-19.93,22.41-20.31S66.59,29.85,66.91,40.69Z"/><ellipse class="cls-23" cx="30.23" cy="44.81" rx="8.21" ry="3.28"/><ellipse class="cls-24" cx="56.57" cy="44.81" rx="8.21" ry="3.28"/><path class="cls-21" d="M66.91,40.69C66.59,29.85,56,21.36,43.34,21.74S20.61,31.21,20.93,42.05c0,.47.05.94.09,1.4a94.86,94.86,0,0,1,22.9-3.13,94.37,94.37,0,0,1,22.91,3.14A23.12,23.12,0,0,0,66.91,40.69Z"/><path class="cls-21" d="M67.32,40.32c.32,11-6.44,20.2-22.82,20.68s-23.67-8.25-24-19.29c3,6.32,8.3,13,23.53,13C59.75,54.7,64.57,46.85,67.32,40.32Z"/><path class="cls-22" d="M66.91,40.69C67.23,51.53,60.59,60.53,44.5,61s-23.25-8.11-23.57-19,9.71-19.93,22.41-20.31S66.59,29.85,66.91,40.69Z"/><path class="cls-25" d="M47,50.51a2.3,2.3,0,1,1-2.26-1.88A2.1,2.1,0,0,1,47,50.51Z"/><path class="cls-26" d="M46.37,44.19l-4.65.14s-2.2,1.7-3.85,2.9a8.25,8.25,0,0,0,6.31,2,8.29,8.29,0,0,0,6.2-2.39C48.67,45.76,46.37,44.19,46.37,44.19Z"/><path class="cls-20" d="M46.78,43.15c.77,1.5-.54,2.61-2.69,2.68s-3.52-1-2.85-2.51"/><path class="cls-25" d="M61.26,41.26c-1.54-.47-10.87-1.34-12.91-.81"/><path class="cls-25" d="M27.25,41.42c1.54-.48,10.87-1.34,12.9-.81"/><path class="cls-27" d="M53.24,54.1a2.89,2.89,0,0,0-2.89-2.89,2.81,2.81,0,0,0-1.23.28A1.75,1.75,0,0,0,46,52.56a1.8,1.8,0,0,0,.1.57,2.1,2.1,0,0,0,.67,4.1,2,2,0,0,0,.78-.15,1.82,1.82,0,0,0,3.61-.21A2.89,2.89,0,0,0,53.24,54.1Z"/><path class="cls-27" d="M65.29,40.21a2.9,2.9,0,0,0-4.09.15,3,3,0,0,0-.63,1.1,1.74,1.74,0,0,0-.86,3.34,2.1,2.1,0,0,0,3.45,2.3,2,2,0,0,0,.42-.67,1.82,1.82,0,0,0,2.31-2.79A2.91,2.91,0,0,0,65.29,40.21Z"/><path class="cls-28" d="M46.32,57.28H40.41s.19,4.38.42,6.57,3.13,3.2,5.49,3.2,5.26-1,5.5-3.2.42-6.57.42-6.57Z"/><path class="cls-29" d="M51.93,62.61c0-.66.1-1.38.14-2.08l-8.15,1.26Z"/><path class="cls-29" d="M52.09,60.22c0-.6.07-1.18.09-1.66l-8.5,1Z"/><path class="cls-29" d="M51.91,62.91,44,64.09l7.25,1.08a2.56,2.56,0,0,0,.55-1.32C51.85,63.57,51.88,63.25,51.91,62.91Z"/><path class="cls-22" d="M46.32,57.28H40.41s.19,4.38.42,6.57,3.13,3.2,5.49,3.2,5.26-1,5.5-3.2.42-6.57.42-6.57Z"/><path class="cls-20" d="M53.57,58.4c-4.51-.22-5,6.11,0,7.12S56.9,58.56,53.57,58.4Z"/><path class="cls-30" d="M54.6,56.76v10.4s8.07,1,10.35,1c3.21,0,4.18-6.36,0-8.27C61.76,58.4,54.6,56.76,54.6,56.76Z"/><path class="cls-26" d="M54.6,56.76s1.58.36,3.59.9v9.91l-3.59-.41Z"/><path class="cls-31" d="M61.09,58.48l-.58,9.33-2.32-.24V57.66C59.1,57.9,60.11,58.18,61.09,58.48Z"/><path class="cls-20" d="M39.13,58.4c4.51-.22,5,6.11,0,7.12S35.8,58.56,39.13,58.4Z"/><path class="cls-30" d="M38.23,56.76v10.4s-8.08,1-10.36,1c-3.21,0-4.17-6.36,0-8.27C31.06,58.4,38.23,56.76,38.23,56.76Z"/><path class="cls-26" d="M38.23,56.76s-1.58.36-3.59.9v9.91l3.59-.41Z"/><path class="cls-31" d="M31.73,58.48l.59,9.33,2.32-.24V57.66C33.72,57.9,32.72,58.18,31.73,58.48Z"/><path class="cls-32" d="M43.67,12.1c-9.89.09-19.8,7.79-19.67,22.21L63.73,34C63.6,19.54,53.56,12,43.67,12.1Z"/><path class="cls-33" d="M20.33,38.4a.44.44,0,0,1-.25-.08.42.42,0,0,1-.19-.36C19.78,25.7,32.17,18,43.72,17.89H44c14.69,0,23.55,10,23.64,19.65a.46.46,0,0,1-.2.37.42.42,0,0,1-.24.07A.47.47,0,0,1,67,38c-.11,0-3-1.05-19.27-1.05-1.2,0-2.49,0-3.85,0-19.71.17-23.25,1.4-23.39,1.45A.4.4,0,0,1,20.33,38.4Z"/><path d="M44,18.33c11.58,0,23.09,7.49,23.2,19.21,0,0-2.68-1.08-19.43-1.08-1.21,0-2.5,0-3.86,0C23.66,36.66,20.33,38,20.33,38c-.11-11.8,11.74-19.53,23.4-19.63H44m0-.88h-.24c-11.76.1-24.39,8-24.27,20.52a.86.86,0,0,0,.38.72.89.89,0,0,0,.5.15,1,1,0,0,0,.32-.06c.13-.05,3.75-1.25,23.23-1.42,1.35,0,2.64,0,3.85,0,16.13,0,19.07,1,19.09,1a1,1,0,0,0,.34.06.88.88,0,0,0,.49-.15.91.91,0,0,0,.39-.74A18.62,18.62,0,0,0,60.4,22.84,27.4,27.4,0,0,0,44,17.45Z"/><path class="cls-34" d="M43.58,20.14c11.65-.11,22.14,6.27,23.58,17.4,0,0-3.08-1.24-23.29-1.06S20.33,38,20.33,38C21.3,26.69,31.93,20.24,43.58,20.14Z"/><path class="cls-35" d="M49.08,20.13c0,1-2.46,1.87-5.5,1.87s-5.5-.83-5.5-1.86,2.46-1.86,5.5-1.87S49.08,19.1,49.08,20.13Z"/><path class="cls-36" d="M76,50.37a3.55,3.55,0,0,0-1.54.35,2.19,2.19,0,0,0-3.93,1.34c0,.25,0,.45,0,.45-4,1-8.54.58-13.94-.91a23.55,23.55,0,0,0,12.3,4,2.63,2.63,0,0,0,3.59,2.08A2.28,2.28,0,0,0,77,57.45a3.61,3.61,0,0,0-1-7.08Z"/><path class="cls-37" d="M45.47,30.16h0s0,0,.05.06a1.09,1.09,0,0,1,.48,1,1.13,1.13,0,0,1-1.17,1.09v.88a2,2,0,0,0,2.07-1.88,2,2,0,0,0-.37-1.16l.11-.17c.07-.12.08-.26.08-.74V27.19H43.94v1.64h-.89v.91h1.79V28.12h1v1.39a.72.72,0,0,1-.38.65"/><path class="cls-38" d="M43.06,27.19H42.8a1.73,1.73,0,0,0-1.3.54,1.69,1.69,0,0,0-.38,1.32V33.2H44V31.57h.89v-.91H43.05V32.3H42V28.86s-.07-.74.83-.76h.21Z"/></svg>