<svg id="圖層_1" data-name="圖層 1" xmlns="http://www.w3.org/2000/svg" xmlns:xlink="http://www.w3.org/1999/xlink" viewBox="0 0 88 88"><defs><style>.cls-1,.cls-11,.cls-12,.cls-18,.cls-19,.cls-2,.cls-25,.cls-27,.cls-3,.cls-32,.cls-33,.cls-36,.cls-37,.cls-38,.cls-39,.cls-4,.cls-40,.cls-6,.cls-8{stroke:#000;stroke-linecap:round;}.cls-1,.cls-11,.cls-12,.cls-18,.cls-19,.cls-2,.cls-25,.cls-27,.cls-3,.cls-32,.cls-33,.cls-36,.cls-37,.cls-38,.cls-39,.cls-4,.cls-40,.cls-6{stroke-width:0.88px;}.cls-1{fill:url(#linear-gradient);}.cls-2{fill:#fff;}.cls-3{fill:#38adf2;}.cls-4{fill:url(#linear-gradient-2);}.cls-5{fill:#b5001f;}.cls-6{fill:none;}.cls-7{stroke:#fff014;stroke-miterlimit:10;stroke-width:1.03px;}.cls-8{stroke-width:0.7px;fill:url(#linear-gradient-3);}.cls-9{fill:url(#linear-gradient-4);}.cls-10{fill:url(#linear-gradient-5);}.cls-11{fill:url(#linear-gradient-6);}.cls-12{fill:url(#linear-gradient-7);}.cls-13{fill:url(#linear-gradient-8);}.cls-14{fill:url(#linear-gradient-9);}.cls-15{fill:url(#linear-gradient-10);}.cls-16{fill:url(#linear-gradient-11);}.cls-17{fill:url(#linear-gradient-12);}.cls-18{fill:url(#linear-gradient-13);}.cls-19{fill:url(#linear-gradient-14);}.cls-20{fill:url(#linear-gradient-15);}.cls-21{fill:url(#linear-gradient-16);}.cls-22{fill:url(#linear-gradient-17);}.cls-23{fill:url(#linear-gradient-18);}.cls-24{fill:url(#linear-gradient-19);}.cls-25{fill:#ffe0ca;}.cls-26{fill:#f8ba96;}.cls-27{fill:url(#linear-gradient-20);}.cls-28{fill:#171717;}.cls-29{fill:url(#linear-gradient-21);}.cls-30{fill:url(#linear-gradient-22);}.cls-31{fill:url(#linear-gradient-23);}.cls-32{fill:#ff8678;}.cls-33{fill:url(#linear-gradient-24);}.cls-34{fill:#00a8a0;}.cls-35{fill:#0093c1;}.cls-36{fill:url(#linear-gradient-25);}.cls-37{fill:url(#linear-gradient-26);}.cls-38{fill:url(#linear-gradient-27);}.cls-39{fill:url(#linear-gradient-28);}.cls-40{fill:url(#linear-gradient-29);}</style><linearGradient id="linear-gradient" x1="58.12" y1="61.37" x2="74.14" y2="61.37" gradientUnits="userSpaceOnUse"><stop offset="0" stop-color="#f70033"/><stop offset="1" stop-color="#b5001f"/></linearGradient><linearGradient id="linear-gradient-2" x1="27.45" y1="63.41" x2="70.29" y2="63.41" xlink:href="#linear-gradient"/><linearGradient id="linear-gradient-3" x1="112.28" y1="123.84" x2="112.28" y2="133.44" gradientTransform="matrix(1, -0.02, 0.02, 1, -65.92, -52.82)" gradientUnits="userSpaceOnUse"><stop offset="0" stop-color="#fff014"/><stop offset="1" stop-color="#df8800"/></linearGradient><linearGradient id="linear-gradient-4" x1="118.34" y1="120.13" x2="118.34" y2="124.42" xlink:href="#linear-gradient-3"/><linearGradient id="linear-gradient-5" x1="118.34" y1="122.1" x2="118.34" y2="125.27" xlink:href="#linear-gradient-3"/><linearGradient id="linear-gradient-6" x1="-1391.18" y1="302.85" x2="-1379.71" y2="302.85" gradientTransform="matrix(-1, 0, 0, 1, -1314.89, -275.32)" xlink:href="#linear-gradient-3"/><linearGradient id="linear-gradient-7" x1="-1394.01" y1="289.66" x2="-1394.01" y2="313.1" gradientTransform="matrix(-0.99, 0.16, 0.16, 0.99, -1345.8, -43.87)" xlink:href="#linear-gradient-3"/><linearGradient id="linear-gradient-8" x1="-1394.01" y1="307.31" x2="-1394.01" y2="287.92" gradientTransform="matrix(-0.99, 0.16, 0.16, 0.99, -1345.8, -43.87)" xlink:href="#linear-gradient-3"/><linearGradient id="linear-gradient-9" x1="-1396.46" y1="290.47" x2="-1396.46" y2="299.33" gradientTransform="matrix(-0.99, 0.16, 0.16, 0.99, -1345.8, -43.87)" xlink:href="#linear-gradient-3"/><linearGradient id="linear-gradient-10" x1="-1391.56" y1="290.47" x2="-1391.56" y2="299.33" gradientTransform="matrix(-0.99, 0.16, 0.16, 0.99, -1345.8, -43.87)" xlink:href="#linear-gradient-3"/><linearGradient id="linear-gradient-11" x1="-1396.46" y1="290.47" x2="-1396.46" y2="299.33" gradientTransform="matrix(-0.99, 0.16, 0.16, 0.99, -1345.8, -43.87)" xlink:href="#linear-gradient-3"/><linearGradient id="linear-gradient-12" x1="-1391.56" y1="290.47" x2="-1391.56" y2="299.33" gradientTransform="matrix(-0.99, 0.16, 0.16, 0.99, -1345.8, -43.87)" xlink:href="#linear-gradient-3"/><linearGradient id="linear-gradient-13" x1="-755.55" y1="663.86" x2="-744.08" y2="663.86" gradientTransform="matrix(1, 0, 0, 1, 767.15, -625.81)" xlink:href="#linear-gradient-3"/><linearGradient id="linear-gradient-14" x1="-758.38" y1="650.67" x2="-758.38" y2="674.11" gradientTransform="translate(569.49 -797.71) rotate(-15.02)" xlink:href="#linear-gradient-3"/><linearGradient id="linear-gradient-15" x1="-758.38" y1="668.32" x2="-758.38" y2="648.93" gradientTransform="translate(569.49 -797.71) rotate(-15.02)" xlink:href="#linear-gradient-3"/><linearGradient id="linear-gradient-16" x1="-760.83" y1="651.48" x2="-760.83" y2="660.34" gradientTransform="translate(569.49 -797.71) rotate(-15.02)" xlink:href="#linear-gradient-3"/><linearGradient id="linear-gradient-17" x1="-755.93" y1="651.48" x2="-755.93" y2="660.34" gradientTransform="translate(569.49 -797.71) rotate(-15.02)" xlink:href="#linear-gradient-3"/><linearGradient id="linear-gradient-18" x1="-760.83" y1="651.48" x2="-760.83" y2="660.34" gradientTransform="translate(569.49 -797.71) rotate(-15.02)" xlink:href="#linear-gradient-3"/><linearGradient id="linear-gradient-19" x1="-755.93" y1="651.48" x2="-755.93" y2="660.34" gradientTransform="translate(569.49 -797.71) rotate(-15.02)" xlink:href="#linear-gradient-3"/><linearGradient id="linear-gradient-20" x1="146.46" y1="54.56" x2="148.73" y2="66.33" gradientTransform="translate(-101.61 5.52) rotate(-4.93)" gradientUnits="userSpaceOnUse"><stop offset="0" stop-color="#ffe0ca"/><stop offset="1" stop-color="#f8c4ab"/></linearGradient><linearGradient id="linear-gradient-21" x1="150.82" y1="2.93" x2="158.4" y2="30.07" gradientTransform="translate(-113.77 11.36) rotate(-1.81)" gradientUnits="userSpaceOnUse"><stop offset="0" stop-color="#fff"/><stop offset="0.96" stop-color="#171717"/><stop offset="1"/></linearGradient><linearGradient id="linear-gradient-22" x1="149.62" y1="-4.82" x2="156.97" y2="24.44" xlink:href="#linear-gradient-21"/><linearGradient id="linear-gradient-23" x1="10.46" y1="156.15" x2="11.44" y2="175.3" gradientTransform="translate(-15.72 -134.47) rotate(-16.25)" xlink:href="#linear-gradient-21"/><linearGradient id="linear-gradient-24" x1="-160.69" y1="708.46" x2="-153.22" y2="708.46" gradientTransform="translate(-174.51 730.91) rotate(-174.58)" xlink:href="#linear-gradient-20"/><linearGradient id="linear-gradient-25" x1="-69.5" y1="31.29" x2="-53.62" y2="31.29" gradientTransform="translate(81.27 46.12) rotate(10.48)" xlink:href="#linear-gradient-20"/><linearGradient id="linear-gradient-26" x1="85.94" y1="100.36" x2="114.39" y2="100.36" gradientTransform="translate(-91.23 -18.03) rotate(-11.33)" xlink:href="#linear-gradient-20"/><linearGradient id="linear-gradient-27" x1="91.7" y1="94.19" x2="92.99" y2="94.19" gradientTransform="translate(-91.23 -18.03) rotate(-11.33)" xlink:href="#linear-gradient-20"/><linearGradient id="linear-gradient-28" x1="98.65" y1="96.05" x2="99.67" y2="96.05" gradientTransform="translate(-91.23 -18.03) rotate(-11.33)" xlink:href="#linear-gradient-20"/><linearGradient id="linear-gradient-29" x1="105.92" y1="97.71" x2="106.28" y2="97.71" gradientTransform="translate(-91.23 -18.03) rotate(-11.33)" xlink:href="#linear-gradient-20"/></defs><title>money18</title><path class="cls-1" d="M58.12,55.1c7.63,0,14.08,1.32,15.69,4.55,2,3.9-5.34,8-5.34,8Z"/><path class="cls-2" d="M68.47,67.64a20.69,20.69,0,0,0,2.71-1.92,27.49,27.49,0,0,0-5.82-1.85Z"/><path class="cls-3" d="M73.28,63.46c-2.93-1.58-7-2.11-10.12-2.26l2.2,2.67a27.49,27.49,0,0,1,5.82,1.85A11,11,0,0,0,73.28,63.46Z"/><path class="cls-4" d="M70.29,75.17C67.73,58,56.89,51.17,51,51.68c-4.54.39-13.46,2.38-17.07,4.14-4.74,6.62-5.69,11.58-6.45,19.35"/><path class="cls-5" d="M60.39,55.66c.84,1.18,1.65,1.62,2.16,2.64-2.27,1.17-14.2,5.6-28.06,3.4A8.85,8.85,0,0,1,35,57.52Z"/><path class="cls-6" d="M70.29,75.17C67.73,58,56.89,51.17,51,51.68c-4.54.39-13.46,2.38-17.07,4.14-4.74,6.62-5.69,11.58-6.45,19.35"/><path class="cls-7" d="M63.54,71l-17.83.36A8.92,8.92,0,0,1,63.54,71Z"/><path class="cls-8" d="M70.67,69.31c.42.32.62,1.8.68,2.26-2.67.85-36.26,1.09-44.86.49,0,0,0-2.41,0-2.57C35.68,70.45,70.67,69.31,70.67,69.31Z"/><path class="cls-9" d="M56.74,66.77a1.87,1.87,0,1,1-1.9-1.83A1.87,1.87,0,0,1,56.74,66.77Z"/><path class="cls-10" d="M58.29,65.5c-1.31-.45-1.66,1.27-3.41,1.31s-2.18-1.67-3.46-1.17c-2.27.88-.35,4.16,3.52,4.08S60.58,66.29,58.29,65.5Z"/><rect class="cls-11" x="64.12" y="25.25" width="15" height="4.8" transform="translate(-3.56 12.12) rotate(-9.44)"/><path class="cls-12" d="M72.56,27.49A6.55,6.55,0,1,0,78,20,6.55,6.55,0,0,0,72.56,27.49Z"/><path class="cls-13" d="M74.85,27.11a4.23,4.23,0,1,0,3.48-4.86A4.23,4.23,0,0,0,74.85,27.11Z"/><path class="cls-14" d="M79.06,22.22v0a4.23,4.23,0,0,1,4,2.91A3.51,3.51,0,0,1,79.06,22.22Z"/><path class="cls-15" d="M74.8,26.47a4.24,4.24,0,0,1,2.82-4v0A3.5,3.5,0,0,1,74.8,26.47Z"/><path class="cls-16" d="M83.24,26.36a4.22,4.22,0,0,1-2.82,4v0A3.5,3.5,0,0,1,83.24,26.36Z"/><path class="cls-17" d="M75,27.73a3.49,3.49,0,0,1,4,2.88v0A4.23,4.23,0,0,1,75,27.73Z"/><rect class="cls-18" x="8.72" y="35.67" width="15" height="4.8" transform="translate(-9.31 5.5) rotate(-15.02)"/><path class="cls-19" d="M15.31,38.31a6.55,6.55,0,1,1-8-4.63A6.56,6.56,0,0,1,15.31,38.31Z"/><path class="cls-20" d="M13.06,38.91a4.22,4.22,0,1,1-5.18-3A4.23,4.23,0,0,1,13.06,38.91Z"/><path class="cls-21" d="M7.2,36.2v0a4.22,4.22,0,0,0-2.42,4.29A3.49,3.49,0,0,0,7.2,36.2Z"/><path class="cls-22" d="M12.84,38.31A4.22,4.22,0,0,0,8.61,35.8v0A3.5,3.5,0,0,0,12.84,38.31Z"/><path class="cls-23" d="M5.11,41.71a4.22,4.22,0,0,0,4.24,2.5v0A3.5,3.5,0,0,0,5.11,41.71Z"/><path class="cls-24" d="M13.17,39.55a3.5,3.5,0,0,0-2.42,4.26v0A4.21,4.21,0,0,0,13.17,39.55Z"/><path class="cls-25" d="M61.3,38.61C62,42.38,64.91,45,70.51,44S78,39.55,77.3,35.77s-4.8-6.19-9.21-5.41S60.63,34.83,61.3,38.61Z"/><path class="cls-26" d="M68.19,30.6c-2.74-.45-7.23,6.12-6.89,8C62,42.38,64.91,45,70.51,44S78,39.55,77.3,35.77c-1.41,3.5-2.59,4.32-4.67,5.15C73,37.84,70.91,31.06,68.19,30.6Z"/><path class="cls-6" d="M61.3,38.61C62,42.38,64.91,45,70.51,44S78,39.55,77.3,35.77s-4.8-6.19-9.21-5.41S60.63,34.83,61.3,38.61Z"/><path class="cls-25" d="M32.07,43.79c.66,3.77-1.2,7.25-6.79,8.25s-8.55-1.65-9.22-5.42,2.38-7.47,6.8-8.25S31.4,40,32.07,43.79Z"/><path class="cls-26" d="M23.55,40.71c1.69-2.39,8.12.84,8.52,3.08.66,3.77-1.2,7.25-6.79,8.25s-8.55-1.65-9.22-5.42c2.08,2.87,4.5,3.6,6.87,3.4A9.82,9.82,0,0,1,23.55,40.71Z"/><path class="cls-6" d="M32.07,43.79c.66,3.77-1.2,7.25-6.79,8.25s-8.55-1.65-9.22-5.42,2.38-7.47,6.8-8.25S31.4,40,32.07,43.79Z"/><path class="cls-27" d="M23.81,43.78c1.93,10.87,10.41,18.46,26.55,15.6s21.49-12.9,19.57-23.77S56.12,17.75,43.38,20,21.89,32.9,23.81,43.78Z"/><path class="cls-26" d="M25.32,34.18a18.12,18.12,0,0,0-1,11.55c11.4-9,30.12-14.73,44.45-14.47a18,18,0,0,0-6-7.63Z"/><path class="cls-26" d="M23.81,43.78c1.93,10.87,10.41,18.46,26.55,15.6s21.49-12.9,19.57-23.77C70.32,45,61.52,53.84,48.8,56.18,34.1,58.87,27.78,52.34,23.81,43.78Z"/><path class="cls-6" d="M23.81,43.78c1.93,10.87,10.41,18.46,26.55,15.6s21.49-12.9,19.57-23.77S56.12,17.75,43.38,20,21.89,32.9,23.81,43.78Z"/><path class="cls-28" d="M37.67,10.4C29.58,13,23.51,22.86,27.47,36.7l16.26-5.14L60,26.42C56,12.57,45.76,7.84,37.67,10.4Z"/><path class="cls-29" d="M22.89,43.12a.41.41,0,0,1-.38-.31C19,31.06,28.74,20.2,39.81,16.88a27.86,27.86,0,0,1,8-1.16c10,0,18,5.25,20.42,13.38a.43.43,0,0,1-.2.51.43.43,0,0,1-.22.06.45.45,0,0,1-.32-.14h0S66.76,29,63.86,29c-2.73,0-8,.48-17.72,2.76C26.89,36.3,23.36,42.82,23.33,42.89a.45.45,0,0,1-.4.24Z"/><path d="M47.79,16.16c8.87,0,17.38,4.35,20,13.07,0,0-.62-.66-3.93-.66-3.07,0-8.46.57-17.82,2.77C26.36,36,22.93,42.69,22.93,42.69c-3.39-11.31,5.84-22,17-25.38a27.34,27.34,0,0,1,7.86-1.15m0-.88a28.42,28.42,0,0,0-8.11,1.18C28.41,19.84,18.49,30.93,22.09,42.94a.88.88,0,0,0,.76.62h.08a.9.9,0,0,0,.79-.48c0-.06,3.65-6.45,22.52-10.89,9.66-2.27,14.92-2.75,17.62-2.75,2.5,0,3.27.39,3.36.45a.86.86,0,0,0,.57.21A.88.88,0,0,0,68.63,29C66.14,20.65,58,15.28,47.79,15.28Z"/><path class="cls-30" d="M40.3,19.09c11.16-3.35,23-.15,27.49,10.14,0,0-3.78-2-22.69,2.53C25.45,36.49,22.93,42.69,22.93,42.69,20.73,31.59,29.13,22.44,40.3,19.09Z"/><path class="cls-31" d="M45.58,17.55c.29,1-1.84,2.48-4.76,3.33s-5.52.73-5.81-.25,1.85-2.48,4.77-3.33S45.29,16.56,45.58,17.55Z"/><path class="cls-32" d="M43.56,45.89c3.16,5,7.39,8.14,9,7.62s2.71-4.18,3.19-10.67C53,43,43.56,45.89,43.56,45.89Z"/><path class="cls-6" d="M41.26,45.29a3.65,3.65,0,0,0,2.3.6c1.27-.25,3.91.22,6.1-.92a24.4,24.4,0,0,1,6.08-2.13c1-.23,1.37-1.82,1.37-1.82"/><path class="cls-2" d="M46.82,41.82l4.52-1.33s2.53,1.08,4.39,1.81a9.52,9.52,0,0,1-5.29,3.33,13,13,0,0,1-6.88.26C45,44.19,46.82,41.82,46.82,41.82Z"/><path class="cls-33" d="M45,39.75c-.1,3.14,2.19,3.85,4.77,3.06s3.64-3,1.75-4.79"/><path class="cls-34" d="M45.32,26.46h0s0,0,.06,0a1.13,1.13,0,0,1,.75.84,1.12,1.12,0,0,1-.82,1.37l.24.84a1.91,1.91,0,0,0,.79-3.39s0-.1.06-.19,0-.27-.12-.73l-.58-2L43,24l.45,1.58-.85.24.25.87,1.72-.5-.44-1.56,1-.27.39,1.34a.74.74,0,0,1-.19.73"/><path class="cls-35" d="M42.18,24.27l-.25.07h0a1.77,1.77,0,0,0-1.1.88,1.7,1.7,0,0,0,0,1.38l1.14,4,2.72-.78-.45-1.57.86-.24-.25-.88-1.73.49.46,1.58-1,.28-1-3.29s-.27-.7.59-1l.19-.07Z"/><path class="cls-6" d="M40.5,33.34a14,14,0,0,0,5,2.85"/><path class="cls-6" d="M49,35.29a14.33,14.33,0,0,0,2.63-4.6"/><path class="cls-6" d="M30.86,42.82c3-2.26,10.64-6.5,13.87-5.3"/><path class="cls-6" d="M65.9,33c-3.71-.33-12.47.19-14.55,2.94"/><path class="cls-36" d="M22.2,63.61a92.18,92.18,0,0,1-11-1.89c-3.52-.85-5.7,3.6-2.09,5s8,2.14,10.1,3C22.45,71.17,24.36,63.84,22.2,63.61Z"/><path class="cls-37" d="M27.94,72.58c7.68.35,12.18-3.09,13.52-6.5,1.16-2.95-.53-4.56-2.28-5.57s-1.6-3.86-1.88-5.46c-.44-2.57-4.84-5.1-5.86-1.76-1.35-4.18-5.73-3.7-6.93-.93-1.14-3.35-5.94-4.45-7-.75C16.3,49.24,12,50,11.8,53.93S10.91,71.81,27.94,72.58Z"/><path class="cls-38" d="M17.56,51.61c-.38,2.51-.34,7.07.75,9.09"/><path class="cls-39" d="M24.51,52.36c-.31,2.79,0,6.62.94,8.56"/><path class="cls-40" d="M31.44,53.29a29.08,29.08,0,0,0,1.23,7.26"/><path class="cls-6" d="M24.62,48.54c2.92-.26,10.17,0,12.46,3.18"/><path class="cls-6" d="M28.4,45.78c2.67-.25,7.27,1.68,8.42,2.82"/><path class="cls-6" d="M17.1,65.42c-.76,3-.39,8.52,1.14,12.84"/><path class="cls-6" d="M22.05,68.35c-.38,1.78-.25,6,.89,7.75"/></svg>