<svg id="圖層_1" data-name="圖層 1" xmlns="http://www.w3.org/2000/svg" xmlns:xlink="http://www.w3.org/1999/xlink" viewBox="0 0 88 88"><defs><style>.cls-1,.cls-2,.cls-34{fill:#f70033;}.cls-1,.cls-10,.cls-11,.cls-17,.cls-18,.cls-2,.cls-24,.cls-26,.cls-27,.cls-3,.cls-32,.cls-33,.cls-34,.cls-36,.cls-5,.cls-9{stroke:#000;stroke-linecap:round;}.cls-1,.cls-9{stroke-width:0.96px;}.cls-2,.cls-3{stroke-width:1.07px;}.cls-26,.cls-3,.cls-9{fill:none;}.cls-4{stroke:#fff014;stroke-miterlimit:10;stroke-width:1.15px;}.cls-5{stroke-width:0.78px;fill:url(#linear-gradient);}.cls-6{fill:url(#linear-gradient-2);}.cls-7{fill:url(#linear-gradient-3);}.cls-8{fill:#b5001f;}.cls-10,.cls-11,.cls-17,.cls-18,.cls-24,.cls-26,.cls-27,.cls-32,.cls-33,.cls-34,.cls-36{stroke-width:0.88px;}.cls-10{fill:url(#linear-gradient-4);}.cls-11{fill:url(#linear-gradient-5);}.cls-12{fill:url(#linear-gradient-6);}.cls-13{fill:url(#linear-gradient-7);}.cls-14{fill:url(#linear-gradient-8);}.cls-15{fill:url(#linear-gradient-9);}.cls-16{fill:url(#linear-gradient-10);}.cls-17{fill:url(#linear-gradient-11);}.cls-18{fill:url(#linear-gradient-12);}.cls-19{fill:url(#linear-gradient-13);}.cls-20{fill:url(#linear-gradient-14);}.cls-21{fill:url(#linear-gradient-15);}.cls-22{fill:url(#linear-gradient-16);}.cls-23{fill:url(#linear-gradient-17);}.cls-24{fill:#ffe0ca;}.cls-25{fill:#f8ba96;}.cls-27{fill:url(#linear-gradient-18);}.cls-28{fill:#171717;}.cls-29{fill:url(#linear-gradient-19);}.cls-30{fill:url(#linear-gradient-20);}.cls-31{fill:url(#linear-gradient-21);}.cls-32{fill:#ff8678;}.cls-33{fill:#fff;}.cls-35{fill:#c2e6eb;}.cls-36{fill:#9fdeff;}.cls-37{fill:#00a8a0;}.cls-38{fill:#0093c1;}</style><linearGradient id="linear-gradient" x1="108.97" y1="113.9" x2="108.97" y2="124.97" gradientTransform="matrix(1, -0.02, 0.02, 1, -68.57, -41.83)" gradientUnits="userSpaceOnUse"><stop offset="0" stop-color="#fff014"/><stop offset="1" stop-color="#df8800"/></linearGradient><linearGradient id="linear-gradient-2" x1="109.14" y1="110.7" x2="109.14" y2="114.99" xlink:href="#linear-gradient"/><linearGradient id="linear-gradient-3" x1="109.14" y1="112.66" x2="109.14" y2="115.85" xlink:href="#linear-gradient"/><linearGradient id="linear-gradient-4" x1="765.39" y1="283.32" x2="781.84" y2="283.32" gradientTransform="matrix(-0.81, -0.59, -0.59, 0.81, 860.69, 266.48)" xlink:href="#linear-gradient"/><linearGradient id="linear-gradient-5" x1="812.62" y1="547.1" x2="812.62" y2="570.54" gradientTransform="matrix(-0.45, -0.89, -0.89, 0.45, 946.75, 512.9)" xlink:href="#linear-gradient"/><linearGradient id="linear-gradient-6" x1="812.62" y1="564.75" x2="812.62" y2="545.36" gradientTransform="matrix(-0.45, -0.89, -0.89, 0.45, 946.75, 512.9)" xlink:href="#linear-gradient"/><linearGradient id="linear-gradient-7" x1="810.17" y1="547.91" x2="810.17" y2="556.77" gradientTransform="matrix(-0.45, -0.89, -0.89, 0.45, 946.75, 512.9)" xlink:href="#linear-gradient"/><linearGradient id="linear-gradient-8" x1="815.07" y1="547.91" x2="815.07" y2="556.77" gradientTransform="matrix(-0.45, -0.89, -0.89, 0.45, 946.75, 512.9)" xlink:href="#linear-gradient"/><linearGradient id="linear-gradient-9" x1="810.17" y1="547.91" x2="810.17" y2="556.77" gradientTransform="matrix(-0.45, -0.89, -0.89, 0.45, 946.75, 512.9)" xlink:href="#linear-gradient"/><linearGradient id="linear-gradient-10" x1="815.07" y1="547.91" x2="815.07" y2="556.77" gradientTransform="matrix(-0.45, -0.89, -0.89, 0.45, 946.75, 512.9)" xlink:href="#linear-gradient"/><linearGradient id="linear-gradient-11" x1="-69.13" y1="-330.35" x2="-52.69" y2="-330.35" gradientTransform="translate(263.14 266.48) rotate(-36.33)" xlink:href="#linear-gradient"/><linearGradient id="linear-gradient-12" x1="342.77" y1="-376.04" x2="342.77" y2="-352.61" gradientTransform="translate(177.08 512.9) rotate(-63.02)" xlink:href="#linear-gradient"/><linearGradient id="linear-gradient-13" x1="342.77" y1="-358.39" x2="342.77" y2="-377.78" gradientTransform="translate(177.08 512.9) rotate(-63.02)" xlink:href="#linear-gradient"/><linearGradient id="linear-gradient-14" x1="340.31" y1="-375.24" x2="340.31" y2="-366.37" gradientTransform="translate(177.08 512.9) rotate(-63.02)" xlink:href="#linear-gradient"/><linearGradient id="linear-gradient-15" x1="345.22" y1="-375.24" x2="345.22" y2="-366.37" gradientTransform="translate(177.08 512.9) rotate(-63.02)" xlink:href="#linear-gradient"/><linearGradient id="linear-gradient-16" x1="340.32" y1="-375.23" x2="340.32" y2="-366.37" gradientTransform="translate(177.08 512.9) rotate(-63.02)" xlink:href="#linear-gradient"/><linearGradient id="linear-gradient-17" x1="345.22" y1="-375.24" x2="345.22" y2="-366.37" gradientTransform="translate(177.08 512.9) rotate(-63.02)" xlink:href="#linear-gradient"/><linearGradient id="linear-gradient-18" x1="43.63" y1="33.81" x2="43.63" y2="42.47" gradientUnits="userSpaceOnUse"><stop offset="0" stop-color="#fa361d"/><stop offset="1" stop-color="#ffe0ca"/></linearGradient><linearGradient id="linear-gradient-19" x1="79.69" y1="33.45" x2="82.21" y2="53.29" gradientTransform="translate(-34.38 -29.45) rotate(4.6)" gradientUnits="userSpaceOnUse"><stop offset="0" stop-color="#fff"/><stop offset="0.96" stop-color="#171717"/><stop offset="1"/></linearGradient><linearGradient id="linear-gradient-20" x1="551.42" y1="6.94" x2="551.42" y2="34.23" gradientTransform="matrix(-1, 0.01, 0.01, 1, 594.63, -8.19)" xlink:href="#linear-gradient-19"/><linearGradient id="linear-gradient-21" x1="49.15" y1="53.27" x2="50.14" y2="72.42" gradientTransform="translate(-6.19 -42.12) rotate(-0.05)" xlink:href="#linear-gradient-19"/></defs><title>money03</title><path class="cls-1" d="M69.21,76.06C63.48,57.43,55.76,53.18,49.85,53.18c-7,0-18.72,3.42-19.55,3.69s-3.37,3.06-4.94,11.29l-.53,8"/><path class="cls-2" d="M61.39,76.13c-.16-6-3.76-19.36-4.52-19.68S49.36,55.92,43,56.4c-6.4-.48-13.15-.27-13.91.05s-4.36,13.64-4.52,19.68"/><path class="cls-3" d="M61.39,76.13c-.16-6-3.76-19.36-4.52-19.68S49.36,55.92,43,56.4c-6.4-.48-13.15-.27-13.91.05s-4.36,13.64-4.52,19.68"/><path class="cls-4" d="M53.65,72.77l-22.26.37c-.13-4.93,4.75-9,10.9-9.1S53.53,67.85,53.65,72.77Z"/><path class="cls-5" d="M61.79,71c.53.32.78,1.8.85,2.27-3.34.84-29.7,1.33-39.74-.07,0,0,0-2.4,0-2.57C33.43,73,61.79,71,61.79,71Z"/><path class="cls-6" d="M45.17,68.52a2.13,2.13,0,0,1-2.29,1.91,2.16,2.16,0,0,1-2.37-1.83,2.1,2.1,0,0,1,2.28-1.9A2.15,2.15,0,0,1,45.17,68.52Z"/><path class="cls-7" d="M47.09,67.25c-1.62-.45-2.06,1.27-4.25,1.31s-2.72-1.67-4.32-1.17c-2.83.88-.43,4.16,4.39,4.09S50,68,47.09,67.25Z"/><path class="cls-8" d="M45.81,62.5c5.65-.17,8.44-.52,11.91-2.48-1.91-6.45-3.76-6.84-7.14-6.84-5.93,0-17.09,3.42-17.79,3.69a12,12,0,0,0-2.85,1.94C33.76,61.3,39,62.7,45.81,62.5Z"/><path class="cls-9" d="M69.21,76.06c-5.9-19.51-13.45-22.88-19.36-22.88-7,0-18.58.3-19.42.57s-3.66,5.19-5.07,14.41"/><path class="cls-10" d="M60.75,35.66C74,34.19,76.67,43.93,76.67,43.93L81,41.75S74.83,29.38,62.11,31.06C61.61,32.75,61.08,34.09,60.75,35.66Z"/><path class="cls-11" d="M75.84,37a6.55,6.55,0,1,0,8.81,2.86A6.55,6.55,0,0,0,75.84,37Z"/><path class="cls-12" d="M76.9,39.07a4.22,4.22,0,1,0,5.68,1.85A4.21,4.21,0,0,0,76.9,39.07Z"/><path class="cls-13" d="M82.83,41.61h0a4.22,4.22,0,0,1-1.58,4.67A3.51,3.51,0,0,1,82.83,41.61Z"/><path class="cls-14" d="M77.49,38.83a4.23,4.23,0,0,1,4.7,1.47h0A3.5,3.5,0,0,1,77.49,38.83Z"/><path class="cls-15" d="M80.13,46.84a4.2,4.2,0,0,1-4.69-1.47h0A3.49,3.49,0,0,1,80.13,46.84Z"/><path class="cls-16" d="M76.35,39.41a3.5,3.5,0,0,1-1.55,4.65h0A4.22,4.22,0,0,1,76.35,39.41Z"/><path class="cls-17" d="M27.25,35.66C14,34.19,11.33,43.93,11.33,43.93L7.05,41.75s6.12-12.37,18.84-10.69C26.39,32.75,26.92,34.09,27.25,35.66Z"/><path class="cls-18" d="M12.16,37a6.55,6.55,0,1,1-8.81,2.86A6.55,6.55,0,0,1,12.16,37Z"/><path class="cls-19" d="M11.1,39.07a4.22,4.22,0,1,1-5.68,1.85A4.21,4.21,0,0,1,11.1,39.07Z"/><path class="cls-20" d="M5.17,41.61h0a4.22,4.22,0,0,0,1.58,4.67A3.51,3.51,0,0,0,5.17,41.61Z"/><path class="cls-21" d="M10.51,38.83a4.23,4.23,0,0,0-4.7,1.47h0A3.5,3.5,0,0,0,10.51,38.83Z"/><path class="cls-22" d="M7.87,46.84a4.2,4.2,0,0,0,4.69-1.47h0A3.49,3.49,0,0,0,7.87,46.84Z"/><path class="cls-23" d="M11.65,39.41a3.5,3.5,0,0,0,1.55,4.65h0A4.22,4.22,0,0,0,11.65,39.41Z"/><path class="cls-24" d="M59,41.91c.11,3.83,2.64,6.86,8.32,6.69s8-3.34,7.92-7.17-3.84-6.83-8.33-6.7S58.84,38.08,59,41.91Z"/><path class="cls-25" d="M66.87,34.79c-2.6-.95-8.22,4.69-8.24,6.61,0,3.83,2.38,7,8.07,7s8.15-3,8.18-6.87c-2,3.18-3.62,3.77-5.82,4.21C70,42.79,69.47,35.74,66.87,34.79Z"/><path class="cls-26" d="M59,41.91c.11,3.83,2.64,6.86,8.32,6.69s8-3.34,7.92-7.17-3.84-6.83-8.33-6.7S58.84,38.08,59,41.91Z"/><path class="cls-24" d="M29,41.91c-.12,3.83-2.65,6.86-8.33,6.69s-8-3.34-7.92-7.17,3.85-6.83,8.33-6.7S29.14,38.08,29,41.91Z"/><path class="cls-25" d="M21.11,34.79c2.6-.95,8.22,4.69,8.24,6.61,0,3.83-2.38,7-8.07,7s-8.15-3-8.18-6.87c2,3.18,3.62,3.77,5.83,4.21C18,42.79,18.51,35.74,21.11,34.79Z"/><path class="cls-26" d="M29,41.91c-.12,3.83-2.65,6.86-8.33,6.69s-8-3.34-7.92-7.17,3.85-6.83,8.33-6.7S29.14,38.08,29,41.91Z"/><path class="cls-27" d="M67,40.22c.33,11-6.43,20.2-22.81,20.68s-23.67-8.26-24-19.29S30.11,21.31,43,20.92,66.71,29.18,67,40.22Z"/><path class="cls-25" d="M67,40.22c.33,11-6.43,20.2-22.81,20.68s-23.67-8.26-24-19.29c3,6.31,8.31,14,23.54,14C59.46,55.56,64.29,46.75,67,40.22Z"/><path class="cls-26" d="M67,40.22c.33,11-6.43,20.2-22.81,20.68s-23.67-8.26-24-19.29S30.11,21.31,43,20.92,66.71,29.18,67,40.22Z"/><path class="cls-28" d="M63.62,33.72l-19.86.18-.2-22C53.45,11.78,63.49,19.31,63.62,33.72Z"/><path class="cls-28" d="M23.89,34.07l19.87-.17-.2-22C33.67,12,23.76,19.66,23.89,34.07Z"/><path class="cls-29" d="M20.22,38.17a.51.51,0,0,1-.17,0,.45.45,0,0,1-.27-.41c-.11-12.27,12.28-20,23.83-20.08h.24c14.69,0,23.55,10,23.64,19.66a.44.44,0,0,1-.29.41.4.4,0,0,1-.15,0,.45.45,0,0,1-.34-.15s-3.24-3.27-21.5-3.27H43.76C24.18,34.51,20.57,38,20.54,38A.47.47,0,0,1,20.22,38.17Z"/><path d="M43.85,18.09c11.58,0,23.09,7.5,23.2,19.22,0,0-2.93-3.42-21.84-3.42H43.76c-20.21.18-23.54,3.83-23.54,3.83C20.11,25.93,32,18.2,43.62,18.09h.23m0-.88h-.24c-11.76.11-24.39,8-24.27,20.53a.88.88,0,0,0,.88.87.87.87,0,0,0,.65-.29s3.7-3.37,22.89-3.54h1.45c17.85,0,21.16,3.11,21.19,3.14a.87.87,0,0,0,.65.3,1,1,0,0,0,.32-.06.91.91,0,0,0,.56-.85,18.62,18.62,0,0,0-7.64-14.69,27.41,27.41,0,0,0-16.44-5.4Z"/><path class="cls-30" d="M43.47,19.91c11.65-.11,22.14,6.27,23.58,17.4,0,0-3.08-3.59-23.29-3.41s-23.54,3.83-23.54,3.83C21.19,26.46,31.82,20,43.47,19.91Z"/><path class="cls-31" d="M49,19.9c0,1-2.46,1.87-5.5,1.87S38,20.94,38,19.91s2.46-1.86,5.5-1.87S49,18.87,49,19.9Z"/><path class="cls-32" d="M26.06,41.82c1.49-.67,10.81-2.71,12.93-2.43"/><path class="cls-32" d="M61.46,41.82c-1.5-.67-10.82-2.71-12.94-2.43"/><path class="cls-32" d="M39.48,46.41H48s-3,4.91-4.27,5S39.48,46.41,39.48,46.41Z"/><path class="cls-33" d="M46,42.47l-4.73.14s-2.25,1.73-3.92,3c1.82,1.53,3.47,1.84,6.42,1.75s4.58-.49,6.31-2.13C48.38,44.06,46,42.47,46,42.47Z"/><path class="cls-24" d="M46.55,41.46c.78,1.53-.55,2.66-2.74,2.72s-3.58-1-2.9-2.55"/><path class="cls-24" d="M29.88,53.46c1.08,3-5.13,2.75-6.66,2.37-2.7-.66-.45-3.94,1.18-4.55C26.33,50.56,29.12,51.34,29.88,53.46Z"/><path class="cls-34" d="M27.29,68.16S19.83,60.07,21,53.54a33.83,33.83,0,0,0,9.1-2,37.06,37.06,0,0,0,3.29,9.56"/><path class="cls-33" d="M29.31,45.71a7.11,7.11,0,0,0-8.95,2.08c-1.85,2.55-2.58,5.84-3.15,8.88-.35,1.85-.16,4.4,2.15,4.88,2,.42,3.17-1.91,5.25-1.85,1.24,0,2.25,1.12,3.52,1s1.88-1.59,3.08-1.91,2.31.24,3.36-.23c.18-.08-.76-1.94-.82-2.08C33,54.69,32,53,31.72,51.12,31.43,49,31.44,46.78,29.31,45.71Z"/><path class="cls-35" d="M19.36,61.55c2,.42,3.17-1.91,5.25-1.85,1.24,0,2.25,1.12,3.52,1s1.88-1.59,3.08-1.91,2.31.24,3.36-.23c.18-.08-.76-1.94-.82-2.08l-.12-.26a7.6,7.6,0,0,1-3.91,0c-1.32,1.56-5.18.65-6.64,0-1.26,1.22-5.67,2.31-6,1.16C16.93,59.08,17.32,61.12,19.36,61.55Z"/><path class="cls-26" d="M29.31,45.71a7.11,7.11,0,0,0-8.95,2.08c-1.85,2.55-2.58,5.84-3.15,8.88-.35,1.85-.16,4.4,2.15,4.88,2,.42,3.17-1.91,5.25-1.85,1.24,0,2.25,1.12,3.52,1s1.88-1.59,3.08-1.91,2.31.24,3.36-.23c.18-.08-.76-1.94-.82-2.08C33,54.69,32,53,31.72,51.12,31.43,49,31.44,46.78,29.31,45.71Z"/><path class="cls-26" d="M24.62,60c-.32-3.15-.75-6.85-.08-9"/><path class="cls-26" d="M31.84,58.6a36.14,36.14,0,0,1-1.41-4.85"/><path class="cls-36" d="M57.38,47.81c0,1.06-.25,2.4,1.11,2.52s.93-1.34.93-2.34"/><path class="cls-36" d="M62.2,38.14c0,1.06-.25,2.4,1.11,2.52s.93-1.34.93-2.34"/><path class="cls-36" d="M23.26,38.23c0,1.06-.25,2.41,1.11,2.53s.93-1.34.93-2.34"/><path class="cls-36" d="M34.4,44.54c0,1.06-.25,2.41,1.11,2.53s.93-1.34.93-2.34"/><path class="cls-36" d="M50.19,56.06c0,1.06-.25,2.41,1.12,2.53s.93-1.34.93-2.34"/><path class="cls-37" d="M44,28.86h0s0,0,0,.06a1.15,1.15,0,0,1-.69,2.1v.88A2,2,0,0,0,45.46,30a1.94,1.94,0,0,0-.37-1.16,1.73,1.73,0,0,0,.11-.17c.07-.12.08-.26.08-.74V25.89H42.5v1.65h-.89v.9H43.4V26.82h1v1.4a.71.71,0,0,1-.38.64"/><path class="cls-38" d="M41.62,25.89h-.26a1.78,1.78,0,0,0-1.3.54,1.72,1.72,0,0,0-.38,1.33V31.9h2.83V30.27h.9v-.91h-1.8V31h-1V27.56s-.06-.74.83-.76h.21Z"/></svg>