<svg id="圖層_1" data-name="圖層 1" xmlns="http://www.w3.org/2000/svg" xmlns:xlink="http://www.w3.org/1999/xlink" viewBox="0 0 88 88"><defs><style>.cls-1{fill:#fff;}.cls-1,.cls-10,.cls-16,.cls-17,.cls-2,.cls-23,.cls-25,.cls-26,.cls-28,.cls-3,.cls-36,.cls-37,.cls-38,.cls-5,.cls-9{stroke:#000;stroke-linecap:round;}.cls-1,.cls-10,.cls-16,.cls-17,.cls-2,.cls-23,.cls-25,.cls-26,.cls-28,.cls-3,.cls-36,.cls-37,.cls-38,.cls-9{stroke-width:0.88px;}.cls-2,.cls-3,.cls-37,.cls-38{stroke-linejoin:round;}.cls-2{fill:url(#linear-gradient);}.cls-3{fill:url(#linear-gradient-2);}.cls-4{stroke:#fff014;stroke-miterlimit:10;stroke-width:1.03px;}.cls-5{stroke-width:0.76px;fill:url(#linear-gradient-3);}.cls-6{fill:url(#linear-gradient-4);}.cls-7{fill:url(#linear-gradient-5);}.cls-8{fill:#171717;}.cls-9{fill:url(#linear-gradient-6);}.cls-10{fill:url(#linear-gradient-7);}.cls-11{fill:url(#linear-gradient-8);}.cls-12{fill:url(#linear-gradient-9);}.cls-13{fill:url(#linear-gradient-10);}.cls-14{fill:url(#linear-gradient-11);}.cls-15{fill:url(#linear-gradient-12);}.cls-16{fill:url(#linear-gradient-13);}.cls-17{fill:url(#linear-gradient-14);}.cls-18{fill:url(#linear-gradient-15);}.cls-19{fill:url(#linear-gradient-16);}.cls-20{fill:url(#linear-gradient-17);}.cls-21{fill:url(#linear-gradient-18);}.cls-22{fill:url(#linear-gradient-19);}.cls-23{fill:url(#linear-gradient-20);}.cls-24{fill:#f8ba96;}.cls-25{fill:none;}.cls-26{fill:url(#linear-gradient-21);}.cls-27{fill:#b5001f;}.cls-28{fill:url(#linear-gradient-22);}.cls-29{fill:url(#radial-gradient);}.cls-30{fill:url(#radial-gradient-2);}.cls-31{fill:url(#linear-gradient-23);}.cls-32{fill:url(#linear-gradient-24);}.cls-33{fill:url(#linear-gradient-25);}.cls-34{fill:#00a8a0;}.cls-35{fill:#0093c1;}.cls-36{fill:#ff8678;}.cls-37{fill:url(#linear-gradient-26);}.cls-38{fill:url(#linear-gradient-27);}</style><linearGradient id="linear-gradient" x1="70.22" y1="50.77" x2="70.22" y2="66.28" gradientUnits="userSpaceOnUse"><stop offset="0" stop-color="#f70033"/><stop offset="1" stop-color="#b5001f"/></linearGradient><linearGradient id="linear-gradient-2" x1="42.28" y1="50.69" x2="42.28" y2="79.74" xlink:href="#linear-gradient"/><linearGradient id="linear-gradient-3" x1="38.02" y1="121.38" x2="38.02" y2="130.78" gradientTransform="matrix(1.17, -0.02, 0.02, 1, 2.45, -49.95)" gradientUnits="userSpaceOnUse"><stop offset="0" stop-color="#fff014"/><stop offset="1" stop-color="#df8800"/></linearGradient><linearGradient id="linear-gradient-4" x1="117.85" y1="117.47" x2="117.85" y2="121.76" gradientTransform="matrix(1, -0.02, 0.02, 1, -65.87, -48.44)" xlink:href="#linear-gradient-3"/><linearGradient id="linear-gradient-5" x1="117.85" y1="119.44" x2="117.85" y2="122.62" gradientTransform="matrix(1, -0.02, 0.02, 1, -65.87, -48.44)" xlink:href="#linear-gradient-3"/><linearGradient id="linear-gradient-6" x1="-600.14" y1="-568.35" x2="-585.27" y2="-568.35" gradientTransform="matrix(0.7, -0.71, 0.71, 0.7, 842.36, 15.84)" xlink:href="#linear-gradient-3"/><linearGradient id="linear-gradient-7" x1="-1127.1" y1="-162.61" x2="-1127.1" y2="-139.59" gradientTransform="translate(1145.11 -35.21) rotate(-11.37)" xlink:href="#linear-gradient-3"/><linearGradient id="linear-gradient-8" x1="-1127.1" y1="-145.27" x2="-1127.1" y2="-164.32" gradientTransform="translate(1145.11 -35.21) rotate(-11.37)" xlink:href="#linear-gradient-3"/><linearGradient id="linear-gradient-9" x1="-1129.5" y1="-161.81" x2="-1129.5" y2="-153.11" gradientTransform="translate(1145.11 -35.21) rotate(-11.37)" xlink:href="#linear-gradient-3"/><linearGradient id="linear-gradient-10" x1="-1124.69" y1="-161.82" x2="-1124.69" y2="-153.11" gradientTransform="translate(1145.11 -35.21) rotate(-11.37)" xlink:href="#linear-gradient-3"/><linearGradient id="linear-gradient-11" x1="-1129.5" y1="-161.82" x2="-1129.5" y2="-153.11" gradientTransform="translate(1145.11 -35.21) rotate(-11.37)" xlink:href="#linear-gradient-3"/><linearGradient id="linear-gradient-12" x1="-1124.69" y1="-161.81" x2="-1124.69" y2="-153.11" gradientTransform="translate(1145.11 -35.21) rotate(-11.37)" xlink:href="#linear-gradient-3"/><linearGradient id="linear-gradient-13" x1="119.57" y1="104.08" x2="134.44" y2="104.08" gradientTransform="matrix(-0.76, -0.65, -0.65, 0.76, 221.85, 40.36)" xlink:href="#linear-gradient-3"/><linearGradient id="linear-gradient-14" x1="-153.91" y1="-6.47" x2="-153.91" y2="16.55" gradientTransform="matrix(-0.99, -0.12, -0.12, 0.99, -83.35, 14.13)" xlink:href="#linear-gradient-3"/><linearGradient id="linear-gradient-15" x1="-153.91" y1="10.87" x2="-153.91" y2="-8.18" gradientTransform="matrix(-0.99, -0.12, -0.12, 0.99, -83.35, 14.13)" xlink:href="#linear-gradient-3"/><linearGradient id="linear-gradient-16" x1="-156.32" y1="-5.67" x2="-156.32" y2="3.03" gradientTransform="matrix(-0.99, -0.12, -0.12, 0.99, -83.35, 14.13)" xlink:href="#linear-gradient-3"/><linearGradient id="linear-gradient-17" x1="-151.5" y1="-5.68" x2="-151.5" y2="3.03" gradientTransform="matrix(-0.99, -0.12, -0.12, 0.99, -83.35, 14.13)" xlink:href="#linear-gradient-3"/><linearGradient id="linear-gradient-18" x1="-156.32" y1="-5.67" x2="-156.32" y2="3.03" gradientTransform="matrix(-0.99, -0.12, -0.12, 0.99, -83.35, 14.13)" xlink:href="#linear-gradient-3"/><linearGradient id="linear-gradient-19" x1="-151.5" y1="-5.67" x2="-151.5" y2="3.03" gradientTransform="matrix(-0.99, -0.12, -0.12, 0.99, -83.35, 14.13)" xlink:href="#linear-gradient-3"/><linearGradient id="linear-gradient-20" x1="85.34" y1="65.92" x2="101.58" y2="65.92" gradientTransform="translate(-25.87 -19.99) rotate(-2.31)" gradientUnits="userSpaceOnUse"><stop offset="0" stop-color="#ffe0ca"/><stop offset="1" stop-color="#f8c4ab"/></linearGradient><linearGradient id="linear-gradient-21" x1="37.21" y1="66.92" x2="53.46" y2="66.92" xlink:href="#linear-gradient-20"/><linearGradient id="linear-gradient-22" x1="45.32" y1="63.16" x2="91.31" y2="63.16" xlink:href="#linear-gradient-20"/><radialGradient id="radial-gradient" cx="54.44" cy="768.32" r="8.21" gradientTransform="matrix(1, -0.04, 0.02, 0.4, -35.37, -259.94)" gradientUnits="userSpaceOnUse"><stop offset="0" stop-color="#fb7260"/><stop offset="1" stop-color="#ffe0ca" stop-opacity="0"/></radialGradient><radialGradient id="radial-gradient-2" cx="242.41" cy="766.24" r="8.21" gradientTransform="matrix(0.54, -0.02, 0.02, 0.4, -79.38, -257.98)" xlink:href="#radial-gradient"/><linearGradient id="linear-gradient-23" x1="136.23" y1="1.2" x2="138.75" y2="21.05" gradientTransform="translate(-89.67 -9.73) rotate(7.75)" gradientUnits="userSpaceOnUse"><stop offset="0" stop-color="#fff"/><stop offset="0.96" stop-color="#171717"/><stop offset="1"/></linearGradient><linearGradient id="linear-gradient-24" x1="-142.56" y1="7.34" x2="-142.56" y2="36.24" gradientTransform="matrix(-1, -0.05, -0.05, 1, -95.53, -11.57)" xlink:href="#linear-gradient-23"/><linearGradient id="linear-gradient-25" x1="95.55" y1="51.13" x2="96.54" y2="70.27" gradientTransform="translate(-46.95 -45.52) rotate(3.1)" xlink:href="#linear-gradient-23"/><linearGradient id="linear-gradient-26" x1="19.26" y1="64.35" x2="33.58" y2="64.35" gradientTransform="matrix(1, 0, 0, 1, 0, 0)" xlink:href="#linear-gradient-20"/><linearGradient id="linear-gradient-27" x1="-1506.42" y1="485.04" x2="-1492.1" y2="485.04" gradientTransform="matrix(-0.78, 0.62, 0.62, 0.78, -1399.41, 607.83)" xlink:href="#linear-gradient-20"/></defs><title>money16</title><path class="cls-1" d="M51.18,19.79c4.35.13,9.53-3,10-8.7,2.2,5.57,7.48,6.16,11.29,4-.88,4.4,3.37,7.63,8.07,7.48-2.79,2-1,7.33,3.22,8.36-3.22,1.17-5.72,5.87-3.37,9.68-3.67-.73-4.52,2.89-3.73,6-2.43-1.45-9.47-2.33-11.23.17S51.18,19.79,51.18,19.79Z"/><path class="cls-2" d="M57.68,54.5c4.79-.57,22.53-6.79,24.83-.39,2.74,7.63-17.89,10.66-17.89,10.66Z"/><path class="cls-3" d="M72,76.91C70.21,58.56,56,51.08,48.81,51.59c-5.23.37-13.9.7-18.13,5.23a4.3,4.3,0,0,0-2.52-1.77,39.29,39.29,0,0,0-8.34-.95c-3,0-6.68.64-7.18,4.25-.71,5.09,5.8,10,10.09,11.68a29.18,29.18,0,0,1,4.53-7.11A8.74,8.74,0,0,1,24.1,62c-.17-1.18,2.56-.85,4.32-.83-2.21,6.69-1.85,15.75-1.85,15.75"/><path class="cls-4" d="M63,72.76l-17.83.36A8.92,8.92,0,1,1,63,72.76Z"/><path class="cls-5" d="M71.57,71c.5.32.72,1.8.79,2.26-3.12.86-36,1.2-46.08.62,0,0,0-2.4,0-2.57C37,72.22,71.57,71,71.57,71Z"/><path class="cls-6" d="M56.24,68.51a1.87,1.87,0,1,1-1.9-1.83A1.87,1.87,0,0,1,56.24,68.51Z"/><path class="cls-7" d="M57.79,67.23c-1.31-.44-1.66,1.28-3.41,1.32s-2.18-1.68-3.46-1.18c-2.27.89-.34,4.17,3.52,4.09S60.08,68,57.79,67.23Z"/><path class="cls-8" d="M35.5,14.37c-9.71,1.84-18.1,11.18-15.42,25.34l39-7.39C56.44,18.16,45.22,12.54,35.5,14.37Z"/><path class="cls-9" d="M31.61,37.78c-13.07.6-20.44,4.88-20.44,4.88L10.24,38s6.75-4.2,19.35-4.52C30.33,35.09,31.06,36.31,31.61,37.78Z"/><path class="cls-10" d="M17,39.08a6.44,6.44,0,1,1-7.58-5A6.44,6.44,0,0,1,17,39.08Z"/><path class="cls-11" d="M14.77,39.53a4.15,4.15,0,1,1-4.88-3.25A4.13,4.13,0,0,1,14.77,39.53Z"/><path class="cls-12" d="M9.2,36.51v0a4.17,4.17,0,0,0-2.64,4.06A3.44,3.44,0,0,0,9.2,36.51Z"/><path class="cls-13" d="M14.6,38.92a4.16,4.16,0,0,0-4-2.72s0,0,0,0A3.43,3.43,0,0,0,14.6,38.92Z"/><path class="cls-14" d="M6.81,41.77a4.15,4.15,0,0,0,4,2.72v0A3.44,3.44,0,0,0,6.81,41.77Z"/><path class="cls-15" d="M14.85,40.16a3.43,3.43,0,0,0-2.64,4v0A4.16,4.16,0,0,0,14.85,40.16Z"/><path class="cls-16" d="M47.68,37.8C60.76,37.35,68.45,41,68.45,41L69,36.33S61.93,32.7,49.35,33.4C48.73,35,48.11,36.29,47.68,37.8Z"/><path class="cls-17" d="M62.33,37.92a6.43,6.43,0,1,0,7.15-5.64A6.43,6.43,0,0,0,62.33,37.92Z"/><path class="cls-18" d="M64.6,38.19a4.15,4.15,0,1,0,4.61-3.64A4.16,4.16,0,0,0,64.6,38.19Z"/><path class="cls-19" d="M69.91,34.73v0a4.13,4.13,0,0,1,3,3.83A3.43,3.43,0,0,1,69.91,34.73Z"/><path class="cls-20" d="M64.73,37.57a4.15,4.15,0,0,1,3.76-3v0A3.44,3.44,0,0,1,64.73,37.57Z"/><path class="cls-21" d="M72.72,39.78a4.18,4.18,0,0,1-3.77,3v0A3.43,3.43,0,0,1,72.72,39.78Z"/><path class="cls-22" d="M64.58,38.82a3.43,3.43,0,0,1,3,3.8v0A4.14,4.14,0,0,1,64.58,38.82Z"/><path class="cls-23" d="M54.66,41.67c-.33,3.82,1.82,7.13,7.48,7.63s8.37-2.38,8.71-6.2-3-7.23-7.48-7.63S55,37.85,54.66,41.67Z"/><path class="cls-24" d="M63.37,35.53c-2.48-1.24-8.72,3.69-9,5.6-.48,3.8,1.55,7.19,7.19,7.91S70,47,70.52,43.18c-2.37,2.92-4,3.32-6.28,3.49C65.53,43.85,65.83,36.78,63.37,35.53Z"/><path class="cls-25" d="M54.66,41.67c-.33,3.82,1.82,7.13,7.48,7.63s8.37-2.38,8.71-6.2-3-7.23-7.48-7.63S55,37.85,54.66,41.67Z"/><path class="cls-26" d="M30.21,44.25c.38,3.82-1.75,7.14-7.41,7.7s-8.39-2.3-8.76-6.11,2.94-7.26,7.41-7.7S29.84,40.44,30.21,44.25Z"/><path class="cls-24" d="M21.45,38.2c2.46-1.27,8.75,3.61,9,5.51.53,3.79-1.47,7.2-7.1,8s-8.47-2-9-5.77c2.4,2.9,4.07,3.28,6.31,3.43C19.36,46.53,19,39.47,21.45,38.2Z"/><path class="cls-25" d="M30.21,44.25c.38,3.82-1.75,7.14-7.41,7.7s-8.39-2.3-8.76-6.11,2.94-7.26,7.41-7.7S29.84,40.44,30.21,44.25Z"/><path class="cls-27" d="M44.51,51.06l-15.39.82a76.07,76.07,0,0,0,1.51,7.56c.74,2.51,7.53,5.58,15.59,5s12.52-3.94,13-6.52a75.86,75.86,0,0,0,.7-7.68Z"/><path class="cls-28" d="M67.88,38.76c.75,10.82-5.52,20.07-21.57,21.2S22.75,52.79,22,42s8.9-20.31,21.57-21.2S67.12,27.94,67.88,38.76Z"/><path class="cls-29" d="M39.6,44c.07,1.81-3.54,3.42-8.07,3.6s-8.26-1.13-8.34-2.94,3.54-3.42,8.07-3.6S39.52,42.21,39.6,44Z"/><path class="cls-30" d="M68.62,42.21c.07,1.81-1.86,3.36-4.31,3.45s-4.5-1.28-4.58-3.09,1.86-3.36,4.31-3.46S68.55,40.4,68.62,42.21Z"/><path class="cls-24" d="M67.88,38.76c-.76-10.82-11.65-18.87-24.32-18S21.23,31.15,22,42c0,.47.09.94.14,1.4a94.21,94.21,0,0,1,22.76-4,94.61,94.61,0,0,1,23,2.2A25.5,25.5,0,0,0,67.88,38.76Z"/><path class="cls-24" d="M68.27,38.37c.77,11-5.62,20.44-22,21.59s-24-7.3-24.76-18.31c3.25,6.19,8.82,12.65,24,12C61.28,53.05,65.79,45,68.27,38.37Z"/><path class="cls-25" d="M67.88,38.76c.75,10.82-5.52,20.07-21.57,21.2S22.75,52.79,22,42s8.9-20.31,21.57-21.2S67.12,27.94,67.88,38.76Z"/><path class="cls-31" d="M68.27,38.61a.44.44,0,0,1-.42-.3c0-.11-1.86-3.36-20.5-3.71l-3.23,0c-17.34,0-22.3,2.84-22.35,2.87a.44.44,0,0,1-.67-.4c.84-13,12.5-19.81,23.58-19.81.42,0,.85,0,1.27,0,11.38.52,23.32,8.67,22.76,20.93a.46.46,0,0,1-.39.42Z"/><path d="M44.68,17.67c.42,0,.83,0,1.25,0,11.64.53,22.88,8.68,22.34,20.47,0,0-1-3.63-20.91-4l-3.24,0c-17.76,0-22.58,2.93-22.58,2.93.81-12.45,11.91-19.39,23.14-19.39m0-.88c-11.29,0-23.16,6.94-24,20.22a.86.86,0,0,0,.42.81.92.92,0,0,0,.91,0S27,35,44.12,35l3.22,0c17.8.34,20.07,3.34,20.08,3.37a.89.89,0,0,0,.85.64h.1a.88.88,0,0,0,.78-.83A18.61,18.61,0,0,0,62.24,23,27.37,27.37,0,0,0,46,16.82q-.64,0-1.29,0Z"/><path class="cls-32" d="M45.68,19.5C57.33,20,67.45,27,68.27,38.17c0,0-.71-3.28-20.91-4-19.21-.69-25.82,2.9-25.82,2.9C23.14,25.87,34,19,45.68,19.5Z"/><path class="cls-33" d="M51.18,19.79c-.06,1-2.56,1.73-5.6,1.57s-5.45-1.13-5.39-2.16,2.56-1.73,5.59-1.56S51.24,18.77,51.18,19.79Z"/><path class="cls-34" d="M50,27.87s0,0,0,0l0,.05A1.16,1.16,0,0,1,49.35,30l0,.88a1.92,1.92,0,0,0,1.75-3,.77.77,0,0,0,.11-.16c.07-.12.09-.26.09-.74l0-2.06-2.79,0,0,1.64h-.89l0,.9,1.8,0,0-1.62h1l0,1.4a.75.75,0,0,1-.39.65"/><path class="cls-35" d="M47.65,24.86h-.26a1.76,1.76,0,0,0-1.3.52,1.66,1.66,0,0,0-.4,1.32l-.07,4.14,2.83.05,0-1.63h.89l0-.91-1.8,0,0,1.64h-1l.05-3.44s-.06-.74.84-.75h.21Z"/><path class="cls-36" d="M47.81,53.42c2.29-3-4-1.88-5.17-2a5,5,0,0,1-2.26-.3c-.66-.41-.68-1.06-1-1.62-1.17-1.83-2.45-.44-2.18,1.36s.86,2.82,2.67,3.29c1.63.43,3.78.08,5.47.1A2.94,2.94,0,0,0,47.81,53.42Z"/><path class="cls-25" d="M50.08,40.74c2.64-.67,5.84-2.64,8.2-4"/><path class="cls-25" d="M36.09,33.61c1.77,1.27,2.56,4.14,3.87,5.86,1.16,1.51,1,.62,2.51.3,1.1-.23,1.41.75,2.56.67"/><path class="cls-25" d="M35.37,48.51c.51-1.85,3.05-2.18,4.22-1"/><path class="cls-1" d="M51,42.26c-.77.13.22,3,4.62,2.94s4.86-3.18,4.18-3.27A77.84,77.84,0,0,0,51,42.26Z"/><path class="cls-1" d="M34.43,42.14c-.77.14.22,3,4.62,3s4.86-3.19,4.17-3.28A82.74,82.74,0,0,0,34.43,42.14Z"/><path class="cls-25" d="M24.45,32.51c.2,3.26.41,6.45.69,9.81"/><path class="cls-25" d="M27.15,30.29c.2,3.26.41,6.44.69,9.81"/><path class="cls-25" d="M30.79,30.85c.19,3.25.4,6.44.68,9.8"/><path class="cls-37" d="M32,65.54c-.48.33-1.3.35-1.5.88-.6,1.56-3.43,3.22-3.43,3.22-.31.47-.48,1-1,1.34-1.34.83-2.55.24-3.74-.6-3-2.13-4.62-5.5-1.25-6.45-.59-1.3-.36-3.6,1.39-3.17-.51-1.38.74-3.15,2.28-2.29.2-1.87,3.34-1,4.25-.43a2.49,2.49,0,0,1,1,2.22c-.14,1-1.05.87-1.82.67-.08.93.34,2.06,1.42,1.86.85-.17,1.54-.92,2.4-1,1.26-.14,1.83,1.5,1.29,2.45A4.69,4.69,0,0,1,32,65.54Z"/><path class="cls-25" d="M24.81,58.47c4.77,1.13,4.25,4.79-2.28,2.29,3.67,1.26,3.38,4.78-1.39,3.17,3.6,1.53,3,4.54-.44,3"/><path class="cls-38" d="M72,58.17c.58,0,1.24-.54,1.73-.24,1.43.85,4.69.38,4.69.38a3.75,3.75,0,0,0,1.59.44c1.57-.18,2.15-1.4,2.55-2.8,1-3.54.19-7.18-3-5.83-.35-1.38-2-3-3.06-1.61-.47-1.4-2.55-2-3.22-.37-1.31-1.34-3.26,1.25-3.59,2.31a2.49,2.49,0,0,0,.58,2.37c.73.69,1.37,0,1.84-.61.64.69,1,1.84.05,2.34-.77.4-1.78.25-2.51.71-1.08.66-.5,2.3.51,2.71A4.52,4.52,0,0,0,72,58.17Z"/><path class="cls-25" d="M73.24,48.14c-3,3.85-.34,6.4,3.22.37-2.09,3.27.33,5.84,3.06,1.61-1.86,3.44.47,5.43,2.21,2.08"/><path class="cls-25" d="M47,46.58c.08-1.77,2.54-1.5,2.74,0"/></svg>