<svg id="圖層_1" data-name="圖層 1" xmlns="http://www.w3.org/2000/svg" xmlns:xlink="http://www.w3.org/1999/xlink" viewBox="0 0 88 88"><defs><style>.cls-1,.cls-12,.cls-13,.cls-19,.cls-2,.cls-21,.cls-26,.cls-27,.cls-3,.cls-30,.cls-32,.cls-33,.cls-5,.cls-6{stroke:#000;stroke-linecap:round;}.cls-1,.cls-12,.cls-13,.cls-19,.cls-2,.cls-21,.cls-26,.cls-27,.cls-3,.cls-30,.cls-5,.cls-6{stroke-width:0.88px;}.cls-1{fill:url(#linear-gradient);}.cls-2{fill:url(#linear-gradient-2);}.cls-3{fill:none;}.cls-4{fill:#b5001f;}.cls-5{fill:url(#linear-gradient-3);}.cls-6{fill:url(#linear-gradient-4);}.cls-7{fill:url(#linear-gradient-5);}.cls-8{fill:url(#linear-gradient-6);}.cls-9{fill:url(#linear-gradient-7);}.cls-10{fill:url(#linear-gradient-8);}.cls-11{fill:url(#linear-gradient-9);}.cls-12{fill:url(#linear-gradient-10);}.cls-13{fill:url(#linear-gradient-11);}.cls-14{fill:url(#linear-gradient-12);}.cls-15{fill:url(#linear-gradient-13);}.cls-16{fill:url(#linear-gradient-14);}.cls-17{fill:url(#linear-gradient-15);}.cls-18{fill:url(#linear-gradient-16);}.cls-19{fill:#ffe0ca;}.cls-20{fill:#f8ba96;}.cls-21{fill:url(#linear-gradient-17);}.cls-22{fill:#171717;}.cls-23{fill:url(#linear-gradient-18);}.cls-24{fill:url(#linear-gradient-19);}.cls-25{fill:url(#linear-gradient-20);}.cls-26{fill:#fff;}.cls-27{fill:#38adf2;}.cls-28{fill:url(#radial-gradient);}.cls-29{fill:url(#radial-gradient-2);}.cls-30{fill:url(#linear-gradient-21);}.cls-31{fill:url(#linear-gradient-22);}.cls-32,.cls-33{stroke-width:0.79px;}.cls-32{fill:url(#linear-gradient-23);}.cls-33{fill:url(#linear-gradient-24);}.cls-34{fill:url(#linear-gradient-25);}.cls-35{fill:url(#linear-gradient-26);}.cls-36{fill:url(#linear-gradient-27);}.cls-37{fill:url(#linear-gradient-28);}.cls-38{fill:url(#linear-gradient-29);}.cls-39{fill:url(#linear-gradient-30);}.cls-40{fill:url(#linear-gradient-31);}.cls-41{fill:url(#linear-gradient-32);}.cls-42{fill:url(#linear-gradient-33);}.cls-43{fill:url(#linear-gradient-34);}.cls-44{fill:url(#linear-gradient-35);}.cls-45{fill:url(#linear-gradient-36);}.cls-46{fill:#00a8a0;}.cls-47{fill:#0093c1;}</style><linearGradient id="linear-gradient" x1="603.66" y1="-339.31" x2="624.5" y2="-339.31" gradientTransform="matrix(-0.85, 0.52, -0.52, -0.85, 372.32, -551.76)" gradientUnits="userSpaceOnUse"><stop offset="0" stop-color="#f70033"/><stop offset="1" stop-color="#b5001f"/></linearGradient><linearGradient id="linear-gradient-2" x1="459.11" y1="72.46" x2="459.11" y2="86.27" gradientTransform="matrix(-1, 0, 0, 1, 501.59, 0)" xlink:href="#linear-gradient"/><linearGradient id="linear-gradient-3" x1="-427.76" y1="293.57" x2="-416.29" y2="293.57" gradientTransform="translate(445.02 -264.24) rotate(-0.01)" gradientUnits="userSpaceOnUse"><stop offset="0" stop-color="#fff014"/><stop offset="1" stop-color="#df8800"/></linearGradient><linearGradient id="linear-gradient-4" x1="-430.58" y1="280.38" x2="-430.58" y2="303.82" gradientTransform="translate(431.31 -283.06) rotate(-2.6)" xlink:href="#linear-gradient-3"/><linearGradient id="linear-gradient-5" x1="-430.58" y1="298.03" x2="-430.58" y2="278.64" gradientTransform="translate(431.31 -283.06) rotate(-2.6)" xlink:href="#linear-gradient-3"/><linearGradient id="linear-gradient-6" x1="-433.03" y1="281.19" x2="-433.03" y2="290.05" gradientTransform="translate(431.31 -283.06) rotate(-2.6)" xlink:href="#linear-gradient-3"/><linearGradient id="linear-gradient-7" x1="-428.13" y1="281.19" x2="-428.13" y2="290.05" gradientTransform="translate(431.31 -283.06) rotate(-2.6)" xlink:href="#linear-gradient-3"/><linearGradient id="linear-gradient-8" x1="-433.03" y1="281.19" x2="-433.03" y2="290.05" gradientTransform="translate(431.31 -283.06) rotate(-2.6)" xlink:href="#linear-gradient-3"/><linearGradient id="linear-gradient-9" x1="-428.13" y1="281.19" x2="-428.13" y2="290.05" gradientTransform="translate(431.31 -283.06) rotate(-2.6)" xlink:href="#linear-gradient-3"/><linearGradient id="linear-gradient-10" x1="-420.47" y1="593.69" x2="-409" y2="593.69" gradientTransform="matrix(0, -1, -1, 0, 663.41, -379.25)" xlink:href="#linear-gradient-3"/><linearGradient id="linear-gradient-11" x1="-423.3" y1="580.5" x2="-423.3" y2="603.94" gradientTransform="matrix(-0.94, -0.35, -0.35, 0.94, -111.03, -665.43)" xlink:href="#linear-gradient-3"/><linearGradient id="linear-gradient-12" x1="-423.3" y1="598.15" x2="-423.3" y2="578.76" gradientTransform="matrix(-0.94, -0.35, -0.35, 0.94, -111.03, -665.43)" xlink:href="#linear-gradient-3"/><linearGradient id="linear-gradient-13" x1="-425.75" y1="581.31" x2="-425.75" y2="590.17" gradientTransform="matrix(-0.94, -0.35, -0.35, 0.94, -111.03, -665.43)" xlink:href="#linear-gradient-3"/><linearGradient id="linear-gradient-14" x1="-420.85" y1="581.31" x2="-420.85" y2="590.17" gradientTransform="matrix(-0.94, -0.35, -0.35, 0.94, -111.03, -665.43)" xlink:href="#linear-gradient-3"/><linearGradient id="linear-gradient-15" x1="-425.75" y1="581.31" x2="-425.75" y2="590.17" gradientTransform="matrix(-0.94, -0.35, -0.35, 0.94, -111.03, -665.43)" xlink:href="#linear-gradient-3"/><linearGradient id="linear-gradient-16" x1="-420.85" y1="581.31" x2="-420.85" y2="590.17" gradientTransform="matrix(-0.94, -0.35, -0.35, 0.94, -111.03, -665.43)" xlink:href="#linear-gradient-3"/><linearGradient id="linear-gradient-17" x1="461.74" y1="46.82" x2="464.01" y2="58.59" gradientTransform="matrix(-1, 0, 0, 1, 501.59, 0)" gradientUnits="userSpaceOnUse"><stop offset="0" stop-color="#ffe0ca"/><stop offset="1" stop-color="#f8c4ab"/></linearGradient><linearGradient id="linear-gradient-18" x1="451.32" y1="7.66" x2="458.9" y2="34.81" gradientTransform="matrix(-1, 0, 0, 1, 501.59, 0)" gradientUnits="userSpaceOnUse"><stop offset="0" stop-color="#fff"/><stop offset="0.96" stop-color="#171717"/><stop offset="1"/></linearGradient><linearGradient id="linear-gradient-19" x1="450.12" y1="-0.09" x2="457.47" y2="29.17" xlink:href="#linear-gradient-18"/><linearGradient id="linear-gradient-20" x1="355.75" y1="77.51" x2="356.73" y2="96.65" gradientTransform="matrix(-0.97, -0.25, -0.25, 0.97, 413.28, 24.28)" xlink:href="#linear-gradient-18"/><radialGradient id="radial-gradient" cx="446.6" cy="43.44" r="6.33" gradientTransform="matrix(-1, 0, 0, 1, 501.59, 0)" gradientUnits="userSpaceOnUse"><stop offset="0" stop-color="#fb7260"/><stop offset="1" stop-color="#ffe0ca" stop-opacity="0"/></radialGradient><radialGradient id="radial-gradient-2" cx="479.07" cy="37.11" r="5.35" xlink:href="#radial-gradient"/><linearGradient id="linear-gradient-21" x1="121.77" y1="71.01" x2="65.67" y2="127.11" gradientTransform="matrix(0.98, 0.17, -0.17, 0.98, -39.72, -46.28)" xlink:href="#linear-gradient"/><linearGradient id="linear-gradient-22" x1="117.76" y1="75.66" x2="72.84" y2="120.57" gradientTransform="matrix(0.98, 0.17, -0.17, 0.98, -39.72, -46.28)" xlink:href="#linear-gradient-3"/><linearGradient id="linear-gradient-23" x1="467.73" y1="-101.12" x2="467.73" y2="-89.34" gradientTransform="translate(-174.07 -352.49) rotate(70.65)" xlink:href="#linear-gradient-3"/><linearGradient id="linear-gradient-24" x1="499.73" y1="-199.46" x2="499.73" y2="-186.23" gradientTransform="matrix(-0.15, 0.99, -0.99, -0.15, -103.66, -460.09)" xlink:href="#linear-gradient-3"/><linearGradient id="linear-gradient-25" x1="69.38" y1="11.9" x2="69.68" y2="13.27" gradientTransform="matrix(1, 0, 0, 1, 0, 0)" xlink:href="#linear-gradient-3"/><linearGradient id="linear-gradient-26" x1="2.68" y1="-45.71" x2="2.68" y2="-40" gradientTransform="translate(75.07 57.9) rotate(-10.36)" xlink:href="#linear-gradient-3"/><linearGradient id="linear-gradient-27" x1="-62.87" y1="-23.28" x2="-62.87" y2="-21.48" gradientTransform="translate(75.07 57.9) rotate(-10.36)" xlink:href="#linear-gradient-3"/><linearGradient id="linear-gradient-28" x1="-62.93" y1="-22.44" x2="-62.93" y2="-16.74" gradientTransform="translate(75.07 57.9) rotate(-10.36)" xlink:href="#linear-gradient-3"/><linearGradient id="linear-gradient-29" x1="-8.39" y1="-36.56" x2="-8.39" y2="-34.76" gradientTransform="translate(75.07 57.9) rotate(-10.36)" xlink:href="#linear-gradient-3"/><linearGradient id="linear-gradient-30" x1="-8.45" y1="-35.9" x2="-8.45" y2="-30.19" gradientTransform="translate(75.07 57.9) rotate(-10.36)" xlink:href="#linear-gradient-3"/><linearGradient id="linear-gradient-31" x1="136.28" y1="137.26" x2="136.28" y2="138.92" gradientTransform="translate(-12.17 -103.59) rotate(16.6)" xlink:href="#linear-gradient-3"/><linearGradient id="linear-gradient-32" x1="136.22" y1="137.86" x2="136.22" y2="143.56" gradientTransform="translate(-12.17 -103.59) rotate(16.6)" xlink:href="#linear-gradient-3"/><linearGradient id="linear-gradient-33" x1="191.53" y1="92.38" x2="191.53" y2="94.17" gradientTransform="translate(-78.07 -119.07) rotate(16.76)" xlink:href="#linear-gradient-3"/><linearGradient id="linear-gradient-34" x1="191.47" y1="93.14" x2="191.47" y2="98.85" gradientTransform="translate(-78.07 -119.07) rotate(16.76)" xlink:href="#linear-gradient-3"/><linearGradient id="linear-gradient-35" x1="132.11" y1="95.32" x2="132.11" y2="97.45" gradientTransform="translate(-78.07 -119.07) rotate(16.76)" xlink:href="#linear-gradient-3"/><linearGradient id="linear-gradient-36" x1="132.05" y1="96.44" x2="132.05" y2="103.18" gradientTransform="translate(-78.07 -119.07) rotate(16.76)" xlink:href="#linear-gradient-3"/></defs><title>money02</title><path class="cls-1" d="M38,57.83c-4.41,5.34-12.07,8.27-18,9.35-.28-1-.46-10-.46-10,3-.42,10.78-.3,17.14-2.73"/><path class="cls-2" d="M22,75.92C24.52,61.71,33.59,56.11,39.5,56.53,44,56.85,53,58.5,56.57,60,57.22,61.87,63,77.49,63,77.49"/><path class="cls-3" d="M22,75.92C24.52,61.71,33.59,51.83,39.5,52.24c4.54.33,13.46,2,17.07,3.43C57.22,57.58,63,77.49,63,77.49"/><path class="cls-4" d="M39.53,61.11a30.56,30.56,0,0,1-12.29-3.46c4.09-4,9-5.64,12.26-5.41,4.54.33,13.46,2,17.07,3.43a10.4,10.4,0,0,1,2,1.16A31.76,31.76,0,0,1,39.53,61.11Z"/><path class="cls-3" d="M22,71.64c2.56-14.22,11.63-19.81,17.54-19.4"/><rect class="cls-5" x="14.46" y="26.98" width="15.01" height="4.8" transform="translate(-1.31 1.02) rotate(-2.59)"/><path class="cls-6" d="M21,29.42a6.55,6.55,0,1,1-6.84-6.25A6.55,6.55,0,0,1,21,29.42Z"/><path class="cls-7" d="M18.69,29.53a4.23,4.23,0,1,1-4.42-4A4.23,4.23,0,0,1,18.69,29.53Z"/><path class="cls-8" d="M13.55,25.62v0a4.22,4.22,0,0,0-3.28,3.67A3.5,3.5,0,0,0,13.55,25.62Z"/><path class="cls-9" d="M18.6,28.89A4.23,4.23,0,0,0,15,25.53a0,0,0,0,0,0,0A3.5,3.5,0,0,0,18.6,28.89Z"/><path class="cls-10" d="M10.33,30.55a4.22,4.22,0,0,0,3.59,3.36v0A3.48,3.48,0,0,0,10.33,30.55Z"/><path class="cls-11" d="M18.66,30.17a3.5,3.5,0,0,0-3.28,3.65v0A4.22,4.22,0,0,0,18.66,30.17Z"/><rect class="cls-12" x="67.26" y="29.05" width="4.8" height="15" transform="translate(10.96 88.92) rotate(-69.43)"/><path class="cls-13" d="M70.54,36.88A6.56,6.56,0,1,0,79,33.05,6.57,6.57,0,0,0,70.54,36.88Z"/><path class="cls-14" d="M72.72,37.7a4.23,4.23,0,1,0,5.45-2.47A4.22,4.22,0,0,0,72.72,37.7Z"/><path class="cls-15" d="M78.82,35.57v0a4.21,4.21,0,0,1,2,4.5A3.49,3.49,0,0,1,78.82,35.57Z"/><path class="cls-16" d="M73,37.12A4.2,4.2,0,0,1,77.46,35v0A3.49,3.49,0,0,1,73,37.12Z"/><path class="cls-17" d="M80.36,41.25a4.23,4.23,0,0,1-4.46,2.09v0A3.5,3.5,0,0,1,80.36,41.25Z"/><path class="cls-18" d="M72.55,38.32a3.5,3.5,0,0,1,2,4.48v0A4.22,4.22,0,0,1,72.55,38.32Z"/><path class="cls-19" d="M26.84,39.24c-.34,3.82-3,6.69-8.71,6.19s-7.81-3.82-7.47-7.64,4.24-6.59,8.71-6.19S27.18,35.42,26.84,39.24Z"/><path class="cls-20" d="M19.29,31.86c2.68-.69,7.72,5.47,7.55,7.38-.34,3.82-3,6.69-8.71,6.19s-7.81-3.82-7.47-7.64c1.7,3.36,2.94,4.08,5.09,4.73C15.1,39.48,16.61,32.54,19.29,31.86Z"/><path class="cls-3" d="M26.84,39.24c-.34,3.82-3,6.69-8.71,6.19s-7.81-3.82-7.47-7.64,4.24-6.59,8.71-6.19S27.18,35.42,26.84,39.24Z"/><path class="cls-19" d="M56.41,41.88c-.34,3.82,1.81,7.13,7.47,7.64s8.37-2.37,8.72-6.19-3-7.23-7.48-7.63S56.75,38.07,56.41,41.88Z"/><path class="cls-20" d="M64.63,38.08c-1.89-2.23-8,1.55-8.22,3.8-.34,3.82,1.81,7.13,7.47,7.64s8.37-2.37,8.72-6.19c-1.82,3-4.17,4-6.55,4A9.86,9.86,0,0,0,64.63,38.08Z"/><path class="cls-3" d="M56.41,41.88c-.34,3.82,1.81,7.13,7.47,7.64s8.37-2.37,8.72-6.19-3-7.23-7.48-7.63S56.75,38.07,56.41,41.88Z"/><path class="cls-21" d="M64.63,41.17c-1,11-8.78,19.29-25.1,17.83S17,48,18,37s12.22-19,25.1-17.83S65.62,30.17,64.63,41.17Z"/><path class="cls-20" d="M62.3,31.73a18.16,18.16,0,0,1,2,11.43C52.13,35.16,33,31.07,18.74,32.57a17.91,17.91,0,0,1,5.31-8.13Z"/><path class="cls-20" d="M64.63,41.17c-1,11-8.78,19.29-25.1,17.83S17,48,18,37c.41,9.38,9.94,17.45,22.81,18.68C55.68,57.09,61.42,50,64.63,41.17Z"/><path class="cls-3" d="M64.63,41.17c-1,11-8.78,19.29-25.1,17.83S17,48,18,37s12.22-19,25.1-17.83S65.62,30.17,64.63,41.17Z"/><path class="cls-22" d="M55.56,11.35c8.17,2.3,14.56,12,11,26L50.18,32.69,33.77,28.06C37.29,14.1,47.39,9.05,55.56,11.35Z"/><path class="cls-23" d="M65.45,40.8a.44.44,0,0,1-.39-.22c0-.08-3.88-6.49-23.15-10.39A92.3,92.3,0,0,0,25,28c-3.67,0-4.47.66-4.47.67a.44.44,0,0,1-.31.14.43.43,0,0,1-.22-.06.45.45,0,0,1-.21-.51c2.27-8.53,10.46-14,20.87-14a27.65,27.65,0,0,1,7.14.93c11.16,3,21.25,13.51,18.1,25.37a.43.43,0,0,1-.37.32Z"/><path d="M40.63,14.62a27.38,27.38,0,0,1,7,.91c11.27,3,20.83,13.43,17.8,24.83,0,0-3.64-6.6-23.45-10.6C33.41,28,28.16,27.54,25,27.54c-4.07,0-4.78.79-4.78.79,2.41-9.08,11.25-13.71,20.44-13.71m0-.88v0h0c-10.61,0-19,5.64-21.29,14.37a.87.87,0,0,0,.43,1,.9.9,0,0,0,.42.1.88.88,0,0,0,.59-.23c.1-.06,1-.56,4.19-.56a92.11,92.11,0,0,1,16.85,2.2c19,3.84,22.83,10.11,22.86,10.18a.91.91,0,0,0,.77.44h.11a.88.88,0,0,0,.74-.64c3.22-12.12-7-22.88-18.42-25.91a28.44,28.44,0,0,0-7.25-.94Z"/><path class="cls-24" d="M47.35,17.33c-11.27-3-23,.57-27.16,11,0,0,3.71-2.15,22.75,1.81,19.79,4.11,22.51,10.22,22.51,10.22C67.3,29.2,58.61,20.32,47.35,17.33Z"/><path class="cls-25" d="M42,16c-.26,1,1.92,2.42,4.86,3.18s5.54.56,5.8-.43-1.93-2.42-4.87-3.18S42.27,15,42,16Z"/><path class="cls-26" d="M38.13,39l-4.62-.94s-2.43,1.29-4.22,2.19a9.56,9.56,0,0,0,5.56,2.86,13.08,13.08,0,0,0,6.87-.34C40.18,41.22,38.13,39,38.13,39Z"/><path class="cls-19" d="M38.86,38c0,1.77-1.68,2.65-3.69,2.21s-2.81-1.85-1.49-3.33"/><path class="cls-27" d="M59.72,56.59c1.85,1.22,5.26,3.46,7.71,5.12a27.45,27.45,0,0,1-3.27,2.89l-6.06-5C58.72,58.53,59.25,57.52,59.72,56.59Z"/><path class="cls-28" d="M48.66,43.44A6.33,6.33,0,1,0,55,37.11,6.33,6.33,0,0,0,48.66,43.44Z"/><path class="cls-29" d="M17.16,37.11a5.36,5.36,0,1,0,5.36-5.35A5.35,5.35,0,0,0,17.16,37.11Z"/><path class="cls-3" d="M52.45,38.64C51.94,34.85,44.11,33.1,42,37"/><path class="cls-3" d="M32.08,35c-.52-3.79-6.6-5-8.71-1.15"/><path class="cls-3" d="M53.87,44.24c-8.75,4.69-29.69,1-31.8-6.8"/><path class="cls-30" d="M67.68,44S75,66.43,76.25,69.82c-12.69,4.4-40.48,11.72-64.34,6.43.44-4,3.38-25.54,3.38-25.54C26.09,52.79,57.27,49.28,67.68,44Z"/><path class="cls-31" d="M63.51,48.82c-8.78,2.34-36.75,6.36-43.2,5.6-.62,3.33-1.48,15.71-2,19.36,12.48,2.32,38.35-1.9,51.59-5.6C68.6,64.6,64.63,52.14,63.51,48.82Z"/><polygon class="cls-32" points="74.89 71.84 65.17 43.19 69.11 41.81 78.83 70.46 74.89 71.84"/><polygon class="cls-33" points="9.97 77.38 13.5 48.18 17.63 48.81 14.1 78.02 9.97 77.38"/><path class="cls-19" d="M11,65c3,1.21,2.94-5,2.63-6.56C13.06,55.74,10,58.37,9.36,60,8.56,61.88,8.89,64.18,11,65Z"/><path class="cls-19" d="M75.46,56c-2.4,2.16-4.5-3.69-4.74-5.25-.42-2.75,3.34-1.33,4.52-.06C76.65,52.23,77.13,54.5,75.46,56Z"/><path class="cls-34" d="M72.09,13.3a2.42,2.42,0,0,1-4.63.85,2.42,2.42,0,0,1,4.63-.85Z"/><path class="cls-35" d="M73.62,11.7c-1-.26-1.41,1.1-4,1.59s-3.5-.66-4.3-.08.67,3.64,2.09,4.16a6,6,0,0,0,2.84.08h.24a6.1,6.1,0,0,0,2.63-1.08C74.28,15.34,74.58,12,73.62,11.7Z"/><path class="cls-36" d="M11.73,48a2.15,2.15,0,0,1-2,2.25,2.15,2.15,0,0,1-2.64-1.4,2.15,2.15,0,0,1,2-2.25A2.15,2.15,0,0,1,11.73,48Z"/><path class="cls-37" d="M13.27,46.38c-.95-.26-1.41,1.1-4,1.59S5.79,47.31,5,47.89s.67,3.64,2.09,4.16a6,6,0,0,0,2.84.08h.23A6.22,6.22,0,0,0,12.79,51C13.93,50,14.23,46.64,13.27,46.38Z"/><path class="cls-38" d="M62.91,25a2.42,2.42,0,0,1-4.63.85A2.42,2.42,0,0,1,62.91,25Z"/><path class="cls-39" d="M64.44,23.35c-.95-.26-1.41,1.1-4,1.59s-3.5-.66-4.29-.08.67,3.64,2.09,4.16a6.21,6.21,0,0,0,2.83.08h.24A6.23,6.23,0,0,0,64,28C65.1,27,65.4,23.61,64.44,23.35Z"/><path class="cls-40" d="M80.94,69.35a2.42,2.42,0,1,1-1.72-2.44A2.14,2.14,0,0,1,80.94,69.35Z"/><path class="cls-41" d="M83,68.62c-.73-.67-1.76.34-4.28-.39S76,66.06,75,66.22s-1.06,3.54,0,4.65a6.14,6.14,0,0,0,2.5,1.36l.06,0h0l.06,0,.06,0a6.26,6.26,0,0,0,2.83.23C82,72.16,83.78,69.29,83,68.62Z"/><path class="cls-42" d="M80.34,27.27a2.42,2.42,0,0,1-4.51-1.35,2.42,2.42,0,0,1,4.51,1.35Z"/><path class="cls-43" d="M82.43,26.54c-.73-.66-1.75.34-4.27-.4s-2.81-2.18-3.78-2-1.07,3.54,0,4.65a6.16,6.16,0,0,0,2.49,1.37l.06,0H77l0,0,.06,0a6.29,6.29,0,0,0,2.83.24C81.36,30.09,83.17,27.21,82.43,26.54Z"/><path class="cls-44" d="M22.84,13.64a2.54,2.54,0,0,1-3.29,1.3,2.54,2.54,0,0,1-2-2.9,2.54,2.54,0,0,1,3.29-1.29A2.54,2.54,0,0,1,22.84,13.64Z"/><path class="cls-45" d="M25.31,12.78c-.86-.78-2.07.41-5-.47S17,9.74,15.8,9.92s-1.26,4.18-.05,5.5A7.34,7.34,0,0,0,18.7,17l.07,0,.06,0,.07,0,.07,0a7.2,7.2,0,0,0,3.34.28C24.05,17,26.18,13.58,25.31,12.78Z"/><path class="cls-46" d="M43.31,24.14h0s0,0,0,.07A1.16,1.16,0,0,1,42.07,26l-.26.83a2,2,0,0,0,2.54-1.18,2,2,0,0,0,0-1.22,1.47,1.47,0,0,0,.16-.13c.1-.09.15-.23.29-.68l.61-2-2.66-.82-.49,1.57-.85-.26-.26.86,1.71.53L43.32,22l1,.29-.41,1.34a.73.73,0,0,1-.56.51"/><path class="cls-47" d="M41.89,20.59l-.25-.08h0a1.72,1.72,0,0,0-1.4.13,1.69,1.69,0,0,0-.75,1.15l-1.22,4,2.7.83L41.45,25l.86.26.26-.87-1.71-.53-.49,1.57-1-.3,1-3.29a.73.73,0,0,1,1-.48l.2.05Z"/><path d="M41.08,63.78l-1,2.72c-.35-.12-.77-.28-1.27-.5a15.16,15.16,0,0,1,2.15,2.28l-2,1.69a22.8,22.8,0,0,0-2.41-4.15l.64-.65a8.65,8.65,0,0,1-3.3-2.9l-2.27.22a8.86,8.86,0,0,1-.44.87l2.33.25.23,2.3.87-.74a19.62,19.62,0,0,1,3.16,3.71l-2.07,1.74a24.59,24.59,0,0,0-1.92-4.25l.37,3.68c.13,1.25-.39,1.93-1.55,2l-1.75.18s0-.09,0-.12c-.09-1-.73-1.48-1.92-1.51l-.06-1.12,1.78-.09Q31,69.4,31,69l-.47-4.75A12.33,12.33,0,0,1,29,65.83l1.62.82a14.55,14.55,0,0,1-4,4.22l-1.07-1a16.74,16.74,0,0,0,2.62-3.5A17.1,17.1,0,0,1,25.48,68l-.82-1.17a10.2,10.2,0,0,0,3.69-4l-3.8.38-.13-1.27,3.07-.31-.22-2.21-2.69.26-.13-1.27,2.69-.27-.2-2,3,.25.15,1.46,3.82-.38-.21-2,3,.25.15,1.47.37,0,.92-1L40,57.39l.08.73-3,.3.22,2.22.59-.06.93-1,1.8,1.3.08.73-4.6.46A10.2,10.2,0,0,0,41.08,63.78Zm-6.83-2.85L34,58.72l-3.81.38.22,2.22Z"/><path d="M62.07,62.82l-3.35.7s.87.38,2.6,1.17l-.58.84.44,2.09L58.44,68.7l-.13-.64-7.37,1.53.05.27-2.73,1.06-1-5-1.45.3L45.52,65l4.36-.9a17.28,17.28,0,0,0-1.66-.88l-1.11.51-1-4.88-1.29.27-.26-1.26,5.88-1.22-.15-.74L43.9,57.18l-.26-1.25L50,54.6l-.21-1,3.07-.11L53,54l4.49-.93.68-1,1.9,1,.15.72-2.05.43,1.84.94.15.72-2.87.6,2.38.92-.6.81.43,2.06L57.86,61l1.21.27a12.63,12.63,0,0,1-1.65,1.22l1.77-.37L60,61l1.93,1.1Zm-3.86.8L47.69,65.81l2.53.33,7.31-1.52Zm-1.84-6.94-9,1.86,1.67.27,6.8-1.41Zm.05,3.1-.24-1.14-6.87,1.43.24,1.14ZM56.15,61l-6.31,1.31c1.1.1,1.95.19,2.53.26l-.82,1.19,2.92-.61A12.22,12.22,0,0,0,56.15,61Zm1.94,6-.24-1.14-7.37,1.53.23,1.14ZM58,54.25l-4.78,1,.15.73,4-.82Z"/></svg>