<svg id="圖層_1" data-name="圖層 1" xmlns="http://www.w3.org/2000/svg" xmlns:xlink="http://www.w3.org/1999/xlink" viewBox="0 0 88 88"><defs><style>.cls-1,.cls-19{fill:none;}.cls-10,.cls-11,.cls-17,.cls-19,.cls-2,.cls-20,.cls-27,.cls-28,.cls-29,.cls-3,.cls-36,.cls-37,.cls-38,.cls-4{stroke:#000;stroke-linecap:round;stroke-width:1.06px;}.cls-2{fill:url(#linear-gradient);}.cls-3{fill:url(#linear-gradient-2);}.cls-4{fill:url(#linear-gradient-3);}.cls-5{fill:url(#linear-gradient-4);}.cls-6{fill:url(#linear-gradient-5);}.cls-7{fill:url(#linear-gradient-6);}.cls-8{fill:url(#linear-gradient-7);}.cls-9{fill:url(#linear-gradient-8);}.cls-10{fill:url(#linear-gradient-9);}.cls-11{fill:url(#linear-gradient-10);}.cls-12{fill:url(#linear-gradient-11);}.cls-13{fill:url(#linear-gradient-12);}.cls-14{fill:url(#linear-gradient-13);}.cls-15{fill:url(#linear-gradient-14);}.cls-16{fill:url(#linear-gradient-15);}.cls-17{fill:#ffe0ca;}.cls-18{fill:#f8ba96;}.cls-20{fill:url(#linear-gradient-16);}.cls-21,.cls-29{fill:#171717;}.cls-22{fill:url(#linear-gradient-17);}.cls-23{fill:url(#linear-gradient-18);}.cls-24{fill:url(#linear-gradient-19);}.cls-25{fill:#00a8a0;}.cls-26{fill:#0093c1;}.cls-27{fill:#ff8678;}.cls-28,.cls-30{fill:#fff;}.cls-31{clip-path:url(#clip-path);}.cls-32{fill:#ff0900;}.cls-33{fill:#c40000;}.cls-34{fill:#a3000f;}.cls-35{fill:#e6251d;}.cls-36{fill:url(#linear-gradient-20);}.cls-37{fill:#38adf2;}.cls-38{fill:url(#linear-gradient-21);}</style><linearGradient id="linear-gradient" x1="30.3" y1="66.08" x2="30.3" y2="85.32" gradientUnits="userSpaceOnUse"><stop offset="0" stop-color="#f70033"/><stop offset="1" stop-color="#b5001f"/></linearGradient><linearGradient id="linear-gradient-2" x1="682.88" y1="191.35" x2="702.72" y2="191.35" gradientTransform="matrix(-0.86, -0.51, -0.51, 0.86, 761.8, 242.83)" gradientUnits="userSpaceOnUse"><stop offset="0" stop-color="#fff014"/><stop offset="1" stop-color="#df8800"/></linearGradient><linearGradient id="linear-gradient-3" x1="719.34" y1="409.74" x2="719.34" y2="438.02" gradientTransform="matrix(-0.54, -0.84, -0.84, 0.54, 827.49, 436.46)" xlink:href="#linear-gradient-2"/><linearGradient id="linear-gradient-4" x1="719.34" y1="431.04" x2="719.34" y2="407.64" gradientTransform="matrix(-0.54, -0.84, -0.84, 0.54, 827.49, 436.46)" xlink:href="#linear-gradient-2"/><linearGradient id="linear-gradient-5" x1="716.38" y1="410.71" x2="716.38" y2="421.41" gradientTransform="matrix(-0.54, -0.84, -0.84, 0.54, 827.49, 436.46)" xlink:href="#linear-gradient-2"/><linearGradient id="linear-gradient-6" x1="722.29" y1="410.71" x2="722.29" y2="421.41" gradientTransform="matrix(-0.54, -0.84, -0.84, 0.54, 827.49, 436.46)" xlink:href="#linear-gradient-2"/><linearGradient id="linear-gradient-7" x1="716.38" y1="410.72" x2="716.38" y2="421.41" gradientTransform="matrix(-0.54, -0.84, -0.84, 0.54, 827.49, 436.46)" xlink:href="#linear-gradient-2"/><linearGradient id="linear-gradient-8" x1="722.3" y1="410.71" x2="722.3" y2="421.41" gradientTransform="matrix(-0.54, -0.84, -0.84, 0.54, 827.49, 436.46)" xlink:href="#linear-gradient-2"/><linearGradient id="linear-gradient-9" x1="-131.34" y1="414.75" x2="-111.5" y2="414.75" gradientTransform="translate(453.45 -73.01) rotate(61.05)" xlink:href="#linear-gradient-2"/><linearGradient id="linear-gradient-10" x1="-109.9" y1="243.76" x2="-109.9" y2="272.04" gradientTransform="translate(262.82 -142.86) rotate(34.35)" xlink:href="#linear-gradient-2"/><linearGradient id="linear-gradient-11" x1="-109.9" y1="265.06" x2="-109.9" y2="241.66" gradientTransform="translate(262.82 -142.86) rotate(34.35)" xlink:href="#linear-gradient-2"/><linearGradient id="linear-gradient-12" x1="-112.86" y1="244.73" x2="-112.86" y2="255.43" gradientTransform="translate(262.82 -142.86) rotate(34.35)" xlink:href="#linear-gradient-2"/><linearGradient id="linear-gradient-13" x1="-106.95" y1="244.73" x2="-106.95" y2="255.43" gradientTransform="translate(262.82 -142.86) rotate(34.35)" xlink:href="#linear-gradient-2"/><linearGradient id="linear-gradient-14" x1="-112.86" y1="244.74" x2="-112.86" y2="255.43" gradientTransform="translate(262.82 -142.86) rotate(34.35)" xlink:href="#linear-gradient-2"/><linearGradient id="linear-gradient-15" x1="-106.95" y1="244.73" x2="-106.95" y2="255.43" gradientTransform="translate(262.82 -142.86) rotate(34.35)" xlink:href="#linear-gradient-2"/><linearGradient id="linear-gradient-16" x1="178.75" y1="437.38" x2="178.75" y2="480.46" gradientTransform="translate(235.21 -392.58) rotate(45.64)" gradientUnits="userSpaceOnUse"><stop offset="0" stop-color="#ffe0ca"/><stop offset="1" stop-color="#f8c4ab"/></linearGradient><linearGradient id="linear-gradient-17" x1="256.87" y1="414.93" x2="259.91" y2="438.88" gradientTransform="translate(225.42 -446.69) rotate(50.24)" gradientUnits="userSpaceOnUse"><stop offset="0" stop-color="#fff"/><stop offset="0.96" stop-color="#171717"/><stop offset="1"/></linearGradient><linearGradient id="linear-gradient-18" x1="420.29" y1="399.9" x2="420.29" y2="432.81" gradientTransform="matrix(-0.71, -0.71, -0.71, 0.71, 657.18, 27.12)" xlink:href="#linear-gradient-17"/><linearGradient id="linear-gradient-19" x1="184.15" y1="447.44" x2="185.34" y2="470.54" gradientTransform="translate(261.31 -427.25) rotate(45.59)" xlink:href="#linear-gradient-17"/><clipPath id="clip-path"><rect class="cls-1" x="-18" y="-0.12" width="48.13" height="88.12"/></clipPath><linearGradient id="linear-gradient-20" x1="34.93" y1="69.61" x2="39.08" y2="82.73" xlink:href="#linear-gradient"/><linearGradient id="linear-gradient-21" x1="30.71" y1="67.45" x2="30" y2="77.63" gradientTransform="matrix(1, 0, 0, 1, 0, 0)" xlink:href="#linear-gradient-16"/></defs><title>money13</title><path class="cls-2" d="M42.93,64.9c-3.25,3.84-11.21,14.4-12.44,19.71H17.68V55.76A31.47,31.47,0,0,1,42.93,64.9Z"/><path class="cls-3" d="M56.67,57.64c15.71-3.42,20.14,7.93,20.14,7.93l4.86-3.15s-8.9-14.08-24-10.47C57.33,54.05,56.86,55.72,56.67,57.64Z"/><path class="cls-4" d="M74.94,57.36A7.9,7.9,0,1,0,85.88,59.7,7.89,7.89,0,0,0,74.94,57.36Z"/><path class="cls-5" d="M76.47,59.71a5.1,5.1,0,1,0,7,1.51A5.11,5.11,0,0,0,76.47,59.71Z"/><path class="cls-6" d="M83.9,62h0a5.1,5.1,0,0,1-1.31,5.79A4.22,4.22,0,0,1,83.9,62Z"/><path class="cls-7" d="M77.15,59.35A5.09,5.09,0,0,1,83,60.53l0,0A4.23,4.23,0,0,1,77.15,59.35Z"/><path class="cls-8" d="M81.32,68.64a5.09,5.09,0,0,1-5.82-1.18l0,0A4.22,4.22,0,0,1,81.32,68.64Z"/><path class="cls-9" d="M75.85,60.19A4.22,4.22,0,0,1,74.57,66h0A5.08,5.08,0,0,1,75.85,60.19Z"/><path class="cls-10" d="M31.34,32.23c3.81-15.62-7.42-20.33-7.42-20.33l3.26-4.78S41,16.36,37.06,31.32C35,31.65,33.27,32.08,31.34,32.23Z"/><path class="cls-11" d="M32.08,14A7.91,7.91,0,1,1,30,3,7.91,7.91,0,0,1,32.08,14Z"/><path class="cls-12" d="M29.76,12.38A5.1,5.1,0,1,1,28.43,5.3,5.1,5.1,0,0,1,29.76,12.38Z"/><path class="cls-13" d="M27.64,4.89v0A5.09,5.09,0,0,0,21.83,6,4.21,4.21,0,0,0,27.64,4.89Z"/><path class="cls-14" d="M30.14,11.71a5.09,5.09,0,0,0-1-5.85l0,0A4.21,4.21,0,0,0,30.14,11.71Z"/><path class="cls-15" d="M21,7.31a5.08,5.08,0,0,0,1,5.84l0,0A4.21,4.21,0,0,0,21,7.31Z"/><path class="cls-16" d="M29.27,13a4.22,4.22,0,0,0-5.81,1.13l0,0A5.11,5.11,0,0,0,29.27,13Z"/><path class="cls-17" d="M57.46,57.14c-3.21,3.32-3.69,8.07,1.25,12.83s9.66,4.1,12.86.77,2.65-9.07-1.24-12.83S60.67,53.81,57.46,57.14Z"/><path class="cls-18" d="M70.28,58c-1.38-3-11-3.13-12.66-1.53-3.33,3.2-4,7.92.76,12.87s9.5,4.47,12.83,1.27c-4.44.93-6.31.05-8.54-1.48C66,67.41,71.65,61,70.28,58Z"/><path class="cls-19" d="M57.46,57.14c-3.21,3.32-3.69,8.07,1.25,12.83s9.66,4.1,12.86.77,2.65-9.07-1.24-12.83S60.67,53.81,57.46,57.14Z"/><path class="cls-17" d="M32.21,31.32c-3.4,3.13-8.15,3.51-12.8-1.54S15.52,20,18.92,16.9s9.13-2.44,12.8,1.54S35.61,28.19,32.21,31.32Z"/><path class="cls-18" d="M31.67,18.49c3,1.44,2.89,11.05,1.25,12.68-3.28,3.26-8,3.82-12.85-1.05s-4.26-9.59-1-12.85c-1,4.42-.2,6.3,1.29,8.57C22.13,22.53,28.66,17,31.67,18.49Z"/><path class="cls-19" d="M32.21,31.32c-3.4,3.13-8.15,3.51-12.8-1.54S15.52,20,18.92,16.9s9.13-2.44,12.8,1.54S35.61,28.19,32.21,31.32Z"/><path class="cls-20" d="M65.73,62.68c-9.25,9.6-22.85,11.49-37.09-2.23S15.8,33.06,25,23.47s25.85-8.6,37.09,2.23S75,53.09,65.73,62.68Z"/><path class="cls-18" d="M65.73,62.68c-9.25,9.6-22.85,11.49-37.09-2.23S15.8,33.06,25,23.47c-2.92,7.92-5,18.93,7.82,32.07C46.11,69.09,57.78,65.82,65.73,62.68Z"/><path class="cls-19" d="M65.73,62.68c-9.25,9.6-22.85,11.49-37.09-2.23S15.8,33.06,25,23.47s25.85-8.6,37.09,2.23S75,53.09,65.73,62.68Z"/><path class="cls-21" d="M68.46,54.25l-16.91-17L70.38,18.52C78.8,27,80.78,42,68.46,54.25Z"/><path class="cls-21" d="M34.64,20.28l16.91,17L70.38,18.52C62,10.06,47,8,34.64,20.28Z"/><path class="cls-22" d="M68.25,60.77a.59.59,0,0,1-.23-.05.53.53,0,0,1-.3-.52c0-.1,0-5.92-16.55-22.56S28.45,20.72,28.39,20.72a.52.52,0,0,1-.49-.32.5.5,0,0,1,.11-.58,21.07,21.07,0,0,1,15.24-6.1c7.83,0,16.13,3.64,22.18,9.72,9.71,9.75,13.68,26.73,3.19,37.17A.54.54,0,0,1,68.25,60.77Z"/><path d="M43.25,14.25c7.79,0,16,3.7,21.81,9.57,9.92,10,13.28,26.37,3.19,36.42,0,0,.5-5.69-16.7-23C34.74,20.39,28.67,20.19,28.39,20.19h0a20.6,20.6,0,0,1,14.87-5.94m0-1.06a21.63,21.63,0,0,0-15.62,6.25,1.05,1.05,0,0,0-.22,1.18,1.07,1.07,0,0,0,1,.64h0c2,.06,9.3,3.63,22.37,16.77s16.42,20.22,16.4,22.17a1,1,0,0,0,.6,1A1.1,1.1,0,0,0,69,61c4.92-4.91,7.13-11.7,6.21-19.13a33,33,0,0,0-9.4-18.79c-6.15-6.19-14.59-9.88-22.56-9.88Z"/><path class="cls-23" d="M63.37,25.22c9.92,10,13.27,24.39,4.88,35,0,0,.5-5.69-16.7-23S28.38,20.19,28.38,20.19C38.93,11.53,53.45,15.25,63.37,25.22Z"/><path class="cls-24" d="M68,30c-.89.87-3.69-.55-6.25-3.17s-3.93-5.45-3.05-6.31S62.41,21,65,23.65,68.91,29.09,68,30Z"/><path class="cls-25" d="M56.12,33.26h0s0,0,0,.09a1.34,1.34,0,0,1-.46,1.27,1.38,1.38,0,0,1-1.94-.09l-.75.74a2.39,2.39,0,0,0,3.37.2,2.34,2.34,0,0,0,.68-1.3l.25-.05c.16,0,.29-.15.7-.55l1.78-1.74-2.35-2.4L56,30.82l-.75-.77-.78.76L56,32.36,57.36,31l.84.87L57,33a.89.89,0,0,1-.88.22"/><path class="cls-26" d="M56.65,28.67l-.22-.22h0a2.13,2.13,0,0,0-1.56-.67,2.11,2.11,0,0,0-1.47.79l-3.57,3.5,2.39,2.44,1.4-1.37.76.77.79-.77-1.52-1.55L52.24,33l-.87-.89,3-2.89a.88.88,0,0,1,1.36.07l.18.17Z"/><line class="cls-19" x1="52.29" y1="42.59" x2="61.03" y2="44.57"/><line class="cls-19" x1="45.9" y1="36.03" x2="44.13" y2="27.25"/><path class="cls-19" d="M33.82,49.2a21.56,21.56,0,0,0,10.49,8.7c3.75,1.55,7.69,2.8,10.81,2.88"/><path class="cls-27" d="M45.36,58.33a33.34,33.34,0,0,0,9.18,2.42C57.25,52.06,48.65,48.5,45.36,58.33Z"/><line class="cls-19" x1="49.85" y1="59.86" x2="50.86" y2="56.25"/><path class="cls-19" d="M58.27,56.63c-2.91,1.3-3.8,6.6-1.88,8.43"/><path class="cls-28" d="M44.55,48l-4.12-4s-3.38-.48-5.85-.89c.22,2.86,1.34,4.54,3.91,7s4.29,3.53,7.16,3.64C45.15,51.33,44.55,48,44.55,48Z"/><path class="cls-17" d="M45.85,47.56c-.66,1.95-2.76,1.76-4.66-.07S39,43.56,41,42.83"/><path class="cls-29" d="M55.46,50.19a4.33,4.33,0,1,1,0-6.13A4.34,4.34,0,0,1,55.46,50.19Z"/><path class="cls-30" d="M53.32,46.14a1.55,1.55,0,1,1,0-2.19A1.55,1.55,0,0,1,53.32,46.14Z"/><path class="cls-30" d="M54.38,48.42a.84.84,0,0,1-1.2,0,.85.85,0,1,1,1.21-1.2A.84.84,0,0,1,54.38,48.42Z"/><path class="cls-29" d="M44.32,38.93a4.33,4.33,0,1,1,0-6.13A4.33,4.33,0,0,1,44.32,38.93Z"/><path class="cls-30" d="M42.18,34.89a1.55,1.55,0,1,1,0-2.19A1.55,1.55,0,0,1,42.18,34.89Z"/><path class="cls-30" d="M43.24,37.17a.84.84,0,0,1-1.2,0A.85.85,0,0,1,42,36a.86.86,0,0,1,1.21,0A.85.85,0,0,1,43.24,37.17Z"/><g class="cls-31"><rect class="cls-32" y="-0.12" width="24.29" height="88.12"/><rect class="cls-33" x="0.39" y="0.27" width="29.34" height="87.33"/><path d="M29.34.67V87.21H.79V.67H29.34m.79-.79H0V88H30.13V-.12Z"/><rect class="cls-34" x="24.29" y="1.2" width="4.54" height="85.48"/><rect class="cls-35" y="1.79" width="6.86" height="7.26"/><rect class="cls-35" x="8.51" y="1.79" width="14.17" height="7.26"/><rect class="cls-35" x="1.85" y="10.46" width="14.17" height="7.26"/><rect class="cls-35" x="17.68" y="10.46" width="6.62" height="7.26"/><rect class="cls-35" y="19.13" width="6.86" height="7.26"/><rect class="cls-35" x="8.51" y="19.13" width="14.17" height="7.26"/><rect class="cls-35" x="1.85" y="27.8" width="14.17" height="7.26"/><rect class="cls-35" x="17.68" y="27.8" width="6.62" height="7.26"/><rect class="cls-35" y="36.47" width="6.86" height="7.26"/><rect class="cls-35" x="8.51" y="36.47" width="14.17" height="7.26"/><rect class="cls-35" x="1.85" y="45.14" width="14.17" height="7.26"/><rect class="cls-35" x="17.68" y="45.14" width="6.62" height="7.26"/><rect class="cls-35" y="53.82" width="6.86" height="7.26"/><rect class="cls-35" x="8.51" y="53.82" width="14.17" height="7.26"/><rect class="cls-35" x="1.85" y="62.49" width="14.17" height="7.26"/><rect class="cls-35" x="17.68" y="62.49" width="6.62" height="7.26"/><rect class="cls-35" y="71.16" width="6.86" height="7.26"/><rect class="cls-35" x="8.51" y="71.16" width="14.17" height="7.26"/><rect class="cls-35" x="1.85" y="79.83" width="14.17" height="7.26"/><rect class="cls-35" x="17.68" y="79.83" width="6.62" height="7.26"/></g><path class="cls-36" d="M38.28,67.44c-.23.73-.6,3.42-.6,3.42S34.26,68,33.26,67c-.11.22-4.94,10.45-5.06,10.77.35.3,15,10.88,15.85,2.32a76.71,76.71,0,0,0,.25-10.38A36.09,36.09,0,0,1,38.28,67.44Z"/><path class="cls-28" d="M33.26,67c-.11.22-4.94,10.45-5.06,10.77A38.1,38.1,0,0,0,31.43,80L35.3,68.86C34.48,68.15,33.67,67.44,33.26,67Z"/><path class="cls-37" d="M35.3,68.86,31.43,80a39.13,39.13,0,0,0,4.2,2.21l1.29-11.93Z"/><path class="cls-38" d="M33.42,74.88c1.67-2.88,1.12-8.53-3.07-8.79a3.06,3.06,0,0,0-3.25,2.15c-.66,2.48-1.27,6.62,1.26,8.32C30.26,77.83,32.39,76.65,33.42,74.88Z"/><line class="cls-19" x1="66.58" y1="11.58" x2="67.53" y2="4.74"/><line class="cls-19" x1="74.15" y1="15.14" x2="80.52" y2="9.24"/><line class="cls-19" x1="77.69" y1="23.06" x2="85.48" y2="22.12"/></svg>