<svg id="圖層_1" data-name="圖層 1" xmlns="http://www.w3.org/2000/svg" xmlns:xlink="http://www.w3.org/1999/xlink" viewBox="0 0 88 88"><defs><style>.cls-1,.cls-30{fill:none;}.cls-1,.cls-15,.cls-16,.cls-2,.cls-23,.cls-28,.cls-3,.cls-30,.cls-31,.cls-33,.cls-4,.cls-5,.cls-6,.cls-8,.cls-9{stroke:#000;stroke-linecap:round;}.cls-1,.cls-15,.cls-16,.cls-2,.cls-23,.cls-3,.cls-31,.cls-4,.cls-5,.cls-8,.cls-9{stroke-width:0.88px;}.cls-2{fill:#ffe0ca;}.cls-3{fill:url(#linear-gradient);}.cls-4{fill:#fff;}.cls-5{fill:#38adf2;}.cls-6{stroke-width:1.07px;fill:url(#linear-gradient-2);}.cls-7{fill:#b5001f;}.cls-8{fill:url(#linear-gradient-3);}.cls-9{fill:url(#linear-gradient-4);}.cls-10{fill:url(#linear-gradient-5);}.cls-11{fill:url(#linear-gradient-6);}.cls-12{fill:url(#linear-gradient-7);}.cls-13{fill:url(#linear-gradient-8);}.cls-14{fill:url(#linear-gradient-9);}.cls-15{fill:url(#linear-gradient-10);}.cls-16{fill:url(#linear-gradient-11);}.cls-17{fill:url(#linear-gradient-12);}.cls-18{fill:url(#linear-gradient-13);}.cls-19{fill:url(#linear-gradient-14);}.cls-20{fill:url(#linear-gradient-15);}.cls-21{fill:url(#linear-gradient-16);}.cls-22{fill:#f8ba96;}.cls-23{fill:url(#linear-gradient-17);}.cls-24{fill:#171717;}.cls-25{fill:url(#linear-gradient-18);}.cls-26{fill:url(#linear-gradient-19);}.cls-27{fill:url(#linear-gradient-20);}.cls-28{fill:#e8001f;}.cls-28,.cls-30{stroke-width:0.83px;}.cls-29{fill:#ff8678;}.cls-31{fill:url(#linear-gradient-21);}.cls-32{stroke:#fff014;stroke-miterlimit:10;stroke-width:1.03px;}.cls-33{stroke-width:0.76px;fill:url(#linear-gradient-22);}.cls-34{fill:url(#linear-gradient-23);}.cls-35{fill:url(#linear-gradient-24);}.cls-36{fill:url(#radial-gradient);}.cls-37{fill:url(#radial-gradient-2);}.cls-38{fill:#00a8a0;}.cls-39{fill:#0093c1;}</style><linearGradient id="linear-gradient" x1="366.01" y1="-571.88" x2="382.63" y2="-571.88" gradientTransform="matrix(1, 0.08, 0.08, -1, -259.28, -544.92)" gradientUnits="userSpaceOnUse"><stop offset="0" stop-color="#f70033"/><stop offset="1" stop-color="#b5001f"/></linearGradient><linearGradient id="linear-gradient-2" x1="48.86" y1="70.83" x2="48.86" y2="86.31" gradientTransform="matrix(1, 0, 0, 1, 0, 0)" xlink:href="#linear-gradient"/><linearGradient id="linear-gradient-3" x1="199.67" y1="317.85" x2="211.14" y2="317.85" gradientTransform="matrix(0, -1, -1, 0, 385.45, 234.49)" gradientUnits="userSpaceOnUse"><stop offset="0" stop-color="#fff014"/><stop offset="1" stop-color="#df8800"/></linearGradient><linearGradient id="linear-gradient-4" x1="196.85" y1="304.65" x2="196.85" y2="328.09" gradientTransform="matrix(-1, -0.05, -0.05, 1, 286.16, -278.17)" xlink:href="#linear-gradient-3"/><linearGradient id="linear-gradient-5" x1="196.85" y1="322.31" x2="196.85" y2="302.92" gradientTransform="matrix(-1, -0.05, -0.05, 1, 286.16, -278.17)" xlink:href="#linear-gradient-3"/><linearGradient id="linear-gradient-6" x1="194.4" y1="305.46" x2="194.4" y2="314.33" gradientTransform="matrix(-1, -0.05, -0.05, 1, 286.16, -278.17)" xlink:href="#linear-gradient-3"/><linearGradient id="linear-gradient-7" x1="199.3" y1="305.47" x2="199.3" y2="314.33" gradientTransform="matrix(-1, -0.05, -0.05, 1, 286.16, -278.17)" xlink:href="#linear-gradient-3"/><linearGradient id="linear-gradient-8" x1="194.4" y1="305.46" x2="194.4" y2="314.33" gradientTransform="matrix(-1, -0.05, -0.05, 1, 286.16, -278.17)" xlink:href="#linear-gradient-3"/><linearGradient id="linear-gradient-9" x1="199.3" y1="305.47" x2="199.3" y2="314.33" gradientTransform="matrix(-1, -0.05, -0.05, 1, 286.16, -278.17)" xlink:href="#linear-gradient-3"/><linearGradient id="linear-gradient-10" x1="-799.54" y1="411.66" x2="-788.07" y2="411.66" gradientTransform="translate(814.82 -374.45)" xlink:href="#linear-gradient-3"/><linearGradient id="linear-gradient-11" x1="-802.37" y1="398.47" x2="-802.37" y2="421.91" gradientTransform="translate(619.49 -627.48) rotate(-20.57)" xlink:href="#linear-gradient-3"/><linearGradient id="linear-gradient-12" x1="-802.37" y1="416.12" x2="-802.37" y2="396.73" gradientTransform="translate(619.49 -627.48) rotate(-20.57)" xlink:href="#linear-gradient-3"/><linearGradient id="linear-gradient-13" x1="-804.82" y1="399.28" x2="-804.82" y2="408.14" gradientTransform="translate(619.49 -627.48) rotate(-20.57)" xlink:href="#linear-gradient-3"/><linearGradient id="linear-gradient-14" x1="-799.91" y1="399.28" x2="-799.91" y2="408.14" gradientTransform="translate(619.49 -627.48) rotate(-20.57)" xlink:href="#linear-gradient-3"/><linearGradient id="linear-gradient-15" x1="-804.82" y1="399.28" x2="-804.82" y2="408.14" gradientTransform="translate(619.49 -627.48) rotate(-20.57)" xlink:href="#linear-gradient-3"/><linearGradient id="linear-gradient-16" x1="-799.92" y1="399.28" x2="-799.92" y2="408.14" gradientTransform="translate(619.49 -627.48) rotate(-20.57)" xlink:href="#linear-gradient-3"/><linearGradient id="linear-gradient-17" x1="49.73" y1="47.54" x2="52" y2="59.31" gradientUnits="userSpaceOnUse"><stop offset="0" stop-color="#ffe0ca"/><stop offset="1" stop-color="#f8c4ab"/></linearGradient><linearGradient id="linear-gradient-18" x1="39.3" y1="8.38" x2="46.88" y2="35.52" gradientUnits="userSpaceOnUse"><stop offset="0" stop-color="#fff"/><stop offset="0.96" stop-color="#171717"/><stop offset="1"/></linearGradient><linearGradient id="linear-gradient-19" x1="38.1" y1="0.63" x2="45.45" y2="29.89" xlink:href="#linear-gradient-18"/><linearGradient id="linear-gradient-20" x1="-40.01" y1="-51.37" x2="-39.03" y2="-32.22" gradientTransform="matrix(0.97, -0.25, 0.25, 0.97, 91.71, 51.19)" xlink:href="#linear-gradient-18"/><linearGradient id="linear-gradient-21" x1="824.96" y1="-546.23" x2="841.59" y2="-546.23" gradientTransform="matrix(-0.99, -0.13, 0.13, -0.99, 923.58, -377.93)" xlink:href="#linear-gradient"/><linearGradient id="linear-gradient-22" x1="117.2" y1="109.99" x2="117.2" y2="119.39" gradientTransform="matrix(1.17, -0.02, 0.02, 1, -90.06, -37.12)" xlink:href="#linear-gradient-3"/><linearGradient id="linear-gradient-23" x1="120.33" y1="106.08" x2="120.33" y2="110.37" gradientTransform="matrix(1, -0.02, 0.02, 1, -68.53, -37.45)" xlink:href="#linear-gradient-3"/><linearGradient id="linear-gradient-24" x1="120.33" y1="108.06" x2="120.33" y2="111.23" gradientTransform="matrix(1, -0.02, 0.02, 1, -68.53, -37.45)" xlink:href="#linear-gradient-3"/><radialGradient id="radial-gradient" cx="34.59" cy="44.16" r="6.33" gradientUnits="userSpaceOnUse"><stop offset="0" stop-color="#fb7260"/><stop offset="1" stop-color="#ffe0ca" stop-opacity="0"/></radialGradient><radialGradient id="radial-gradient-2" cx="67.06" cy="37.83" r="5.35" xlink:href="#radial-gradient"/></defs><title>money01</title><path class="cls-1" d="M80.89,68.56c1.17-4.35-.51-9.87-3.45-13.21"/><path class="cls-1" d="M76.67,66.53c.31-2.34-.47-6.49-2.23-8.18"/><path class="cls-2" d="M74.86,50.23c-.08,3.23-5.77.72-7.06-.18-2.29-1.59,1.33-3.34,3.07-3.32C72.93,46.76,74.92,48,74.86,50.23Z"/><path class="cls-3" d="M60.63,63.29c6.43-2.58,11.44-6.18,14.77-11.18-.81-.66-9-4.37-9-4.37-1.58,2.62-3.29,8.42-8.31,11.46"/><path class="cls-4" d="M66.45,47.74s8.14,3.71,9,4.37a25.18,25.18,0,0,1-2.39,3c-2.49-1.6-6-3.76-7.83-4.93C65.65,49.26,66.06,48.4,66.45,47.74Z"/><path class="cls-5" d="M65.18,50.22c1.88,1.17,5.34,3.33,7.83,4.93a27.38,27.38,0,0,1-3.2,3l-6.18-4.89C64.23,52.19,64.74,51.15,65.18,50.22Z"/><path class="cls-6" d="M71.57,76.46C69.81,58.12,57.49,52.46,50.32,53c-5.5.39-16.3,2.38-20.67,4.15-4,6.35-3.48,19.34-3.48,19.34"/><path class="cls-7" d="M28.54,57.35c.78-.6-.76.35,0,0Z"/><path class="cls-7" d="M49.21,53.2c-5.5.39-16.3,2.38-20.67,4.15,6,3.72,11.91,4.91,20.45,5.1,6.75.15,11.5-.53,15.36-2.7C59.4,54.92,53.22,52.92,49.21,53.2Z"/><rect class="cls-8" x="65.21" y="22.6" width="4.8" height="15.01" transform="translate(34.49 96.29) rotate(-87.41)"/><path class="cls-9" d="M68.56,30.14a6.56,6.56,0,1,0,6.85-6.25A6.56,6.56,0,0,0,68.56,30.14Z"/><path class="cls-10" d="M70.89,30.25a4.22,4.22,0,1,0,4.41-4A4.22,4.22,0,0,0,70.89,30.25Z"/><path class="cls-11" d="M76,26.34v0A4.23,4.23,0,0,1,79.31,30,3.51,3.51,0,0,1,76,26.34Z"/><path class="cls-12" d="M71,29.61a4.23,4.23,0,0,1,3.6-3.36v0A3.49,3.49,0,0,1,71,29.61Z"/><path class="cls-13" d="M79.25,31.27a4.24,4.24,0,0,1-3.6,3.36v0A3.49,3.49,0,0,1,79.25,31.27Z"/><path class="cls-14" d="M70.91,30.89a3.49,3.49,0,0,1,3.28,3.65v0A4.22,4.22,0,0,1,70.91,30.89Z"/><rect class="cls-15" x="12.41" y="34.87" width="15" height="4.8" transform="translate(-11.83 9.37) rotate(-20.57)"/><path class="cls-16" d="M19,37.6a6.55,6.55,0,1,1-8.44-3.83A6.57,6.57,0,0,1,19,37.6Z"/><path class="cls-17" d="M16.85,38.42A4.22,4.22,0,1,1,11.41,36,4.23,4.23,0,0,1,16.85,38.42Z"/><path class="cls-18" d="M10.76,36.29v0a4.22,4.22,0,0,0-2,4.5A3.49,3.49,0,0,0,10.76,36.29Z"/><path class="cls-19" d="M16.57,37.84a4.2,4.2,0,0,0-4.45-2.08v0A3.49,3.49,0,0,0,16.57,37.84Z"/><path class="cls-20" d="M9.21,42a4.24,4.24,0,0,0,4.46,2.09v0A3.49,3.49,0,0,0,9.21,42Z"/><path class="cls-21" d="M17,39a3.5,3.5,0,0,0-2,4.48v0A4.21,4.21,0,0,0,17,39Z"/><path class="cls-2" d="M62.73,40c.34,3.81,3.05,6.69,8.71,6.19s7.82-3.82,7.47-7.64-4.24-6.59-8.71-6.19S62.39,36.14,62.73,40Z"/><path class="cls-22" d="M70.28,32.58c-2.68-.69-7.72,5.47-7.55,7.38.34,3.81,3.05,6.69,8.71,6.19s7.82-3.82,7.47-7.64c-1.69,3.36-2.94,4.08-5.09,4.73C74.47,40.2,73,33.26,70.28,32.58Z"/><path class="cls-1" d="M62.73,40c.34,3.81,3.05,6.69,8.71,6.19s7.82-3.82,7.47-7.64-4.24-6.59-8.71-6.19S62.39,36.14,62.73,40Z"/><path class="cls-2" d="M33.16,42.6c.34,3.82-1.81,7.13-7.47,7.64S17.32,47.87,17,44.05s3-7.23,7.47-7.63S32.82,38.79,33.16,42.6Z"/><path class="cls-22" d="M24.94,38.8c1.9-2.23,8,1.55,8.22,3.8.34,3.82-1.81,7.13-7.47,7.64S17.32,47.87,17,44.05c1.82,3,4.16,4,6.55,4A9.83,9.83,0,0,1,24.94,38.8Z"/><path class="cls-1" d="M33.16,42.6c.34,3.82-1.81,7.13-7.47,7.64S17.32,47.87,17,44.05s3-7.23,7.47-7.63S32.82,38.79,33.16,42.6Z"/><path class="cls-23" d="M24.94,41.89c1,11,8.78,19.29,25.11,17.83s22.52-11,21.54-22-12.23-19-25.11-17.83S24,30.89,24.94,41.89Z"/><path class="cls-22" d="M27.27,32.45a18.16,18.16,0,0,0-2,11.43c12.13-8,31.27-12.09,45.52-10.59a18,18,0,0,0-5.3-8.13Z"/><path class="cls-22" d="M24.94,41.89c1,11,8.78,19.29,25.11,17.83s22.52-11,21.54-22c-.42,9.38-9.94,17.45-22.82,18.68C33.89,57.81,28.16,50.76,24.94,41.89Z"/><path class="cls-1" d="M24.94,41.89c1,11,8.78,19.29,25.11,17.83s22.52-11,21.54-22-12.23-19-25.11-17.83S24,30.89,24.94,41.89Z"/><path class="cls-24" d="M34,12.07c-8.17,2.3-14.55,12-11,26l16.41-4.62,16.42-4.63C52.28,14.82,42.18,9.77,34,12.07Z"/><path class="cls-25" d="M24.07,41.52a.44.44,0,0,1-.37-.32c-3.15-11.86,6.94-22.4,18.1-25.37a27.65,27.65,0,0,1,7.14-.93c10.41,0,18.6,5.51,20.87,14a.44.44,0,0,1-.22.5.36.36,0,0,1-.21,0,.41.41,0,0,1-.32-.15h0s-.83-.64-4.46-.64a92.4,92.4,0,0,0-16.94,2.21C28.28,34.83,24.55,41.23,24.51,41.3a.44.44,0,0,1-.39.22Z"/><path d="M48.94,15.34c9.19,0,18,4.63,20.44,13.71,0,0-.7-.79-4.78-.79-3.19,0-8.44.48-17,2.22-19.81,4-23.46,10.6-23.46,10.6-3-11.4,6.54-21.83,17.8-24.83a27.38,27.38,0,0,1,7-.91m0-.88a28.56,28.56,0,0,0-7.25.94c-11.36,3-21.64,13.79-18.42,25.91A.9.9,0,0,0,24,42h.11a.89.89,0,0,0,.77-.45c0-.06,3.85-6.33,22.85-10.17a92.32,92.32,0,0,1,16.85-2.2c3.18,0,4.09.5,4.19.56a.9.9,0,0,0,.6.23.86.86,0,0,0,.41-.1.89.89,0,0,0,.44-1c-2.32-8.73-10.68-14.37-21.3-14.37Z"/><path class="cls-26" d="M42.23,18.05c11.26-3,23,.57,27.15,11,0,0-3.7-2.15-22.75,1.81C26.84,35,24.12,41.08,24.12,41.08,22.27,29.92,31,21,42.23,18.05Z"/><path class="cls-27" d="M47.56,16.67c.25,1-1.93,2.42-4.87,3.18s-5.54.56-5.79-.43,1.92-2.42,4.86-3.18S47.3,15.68,47.56,16.67Z"/><path class="cls-28" d="M59.28,41.48l-11,1.64s1.2,12.73,7.79,11.54S59.28,41.48,59.28,41.48Z"/><path class="cls-29" d="M56.1,54.66c2.31-.42,3.39-2.17,3.82-4.27-2.23-1.45-6.72-1-9.71.1C51.38,53.06,53.23,55.18,56.1,54.66Z"/><path class="cls-30" d="M59.28,41.48l-11,1.64s1.2,12.73,7.79,11.54S59.28,41.48,59.28,41.48Z"/><path class="cls-4" d="M51.45,39.74l4.62-.94s2.42,1.29,4.22,2.19a9.63,9.63,0,0,1-5.57,2.86,13.08,13.08,0,0,1-6.87-.34C49.39,41.94,51.45,39.74,51.45,39.74Z"/><path class="cls-2" d="M50.71,38.73c0,1.77,1.68,2.65,3.69,2.21s2.81-1.85,1.49-3.33"/><path class="cls-1" d="M14.08,68.56c-1.17-4.35.51-9.87,3.45-13.21"/><path class="cls-1" d="M18.3,66.53c-.31-2.34.47-6.49,2.23-8.18"/><path class="cls-2" d="M19.71,48.51c-.6,3.17,5.5,1.91,7,1.31,2.57-1.08-.6-3.54-2.31-3.89C22.33,45.51,20.13,46.29,19.71,48.51Z"/><path class="cls-31" d="M30.87,64.27c-5.74-3.87-9.87-8.45-12.08-14,.94-.47,9.67-2.39,9.67-2.39,1,2.9,1.44,8.93,5.71,13"/><path class="cls-4" d="M28.46,47.84s-8.73,1.92-9.67,2.39a25.44,25.44,0,0,0,1.7,3.48c2.76-1,6.61-2.43,8.68-3.17C28.92,49.5,28.71,48.57,28.46,47.84Z"/><path class="cls-5" d="M29.17,50.54c-2.07.74-5.92,2.13-8.68,3.17A27.65,27.65,0,0,0,23,57.28l7.07-3.47C29.69,52.66,29.42,51.54,29.17,50.54Z"/><path class="cls-32" d="M62.64,72.31l-17.83.36a8.92,8.92,0,0,1,17.83-.36Z"/><path class="cls-33" d="M71.17,70.53c.5.32.72,1.8.79,2.26-3.12.86-36,1.2-46.08.63,0,0,0-2.41,0-2.58C36.61,71.77,71.17,70.53,71.17,70.53Z"/><path class="cls-34" d="M55.84,68.06a1.87,1.87,0,1,1-1.9-1.82A1.87,1.87,0,0,1,55.84,68.06Z"/><path class="cls-35" d="M57.39,66.79c-1.31-.45-1.66,1.27-3.41,1.31s-2.18-1.67-3.46-1.17c-2.27.88-.34,4.16,3.52,4.09S59.68,67.58,57.39,66.79Z"/><path class="cls-36" d="M40.92,44.16a6.33,6.33,0,1,1-6.33-6.33A6.34,6.34,0,0,1,40.92,44.16Z"/><path class="cls-37" d="M72.41,37.83a5.35,5.35,0,1,1-5.35-5.35A5.35,5.35,0,0,1,72.41,37.83Z"/><path class="cls-1" d="M37.12,39.36c.51-3.79,8.35-5.54,10.46-1.65"/><path class="cls-1" d="M57.5,35.67c.51-3.79,6.59-5,8.71-1.15"/><path class="cls-38" d="M51.46,23.64h0l.06,0a1.11,1.11,0,0,1,.69.89,1.13,1.13,0,0,1-.92,1.31l.18.86a2,2,0,0,0,1.64-2.27,2,2,0,0,0-.61-1.06s0-.1.08-.19,0-.27-.08-.73l-.43-2-2.72.58.34,1.6-.87.19.19.88,1.75-.37-.33-1.59,1-.21.29,1.37a.73.73,0,0,1-.24.72"/><path class="cls-39" d="M48.49,21.23l-.26.05h0a1.72,1.72,0,0,0-1.15.8,1.7,1.7,0,0,0-.1,1.37l.86,4.06,2.77-.59-.34-1.59.88-.19L51,24.25l-1.76.37.34,1.61-1,.21-.71-3.36s-.22-.72.65-.92l.2-.05Z"/></svg>